<svg width="14" height="19" viewBox="0 0 14 19" fill="none" xmlns="http://www.w3.org/2000/svg">
<path d="M10.2656 0.228516C10.3438 0.228516 10.4922 0.822266 10.7109 2.00977C10.7656 2.00977 10.9141 2.67773 11.1562 4.01367C11.582 6.19727 11.9648 8.04492 12.3047 9.55664C13.0273 13.0605 13.3887 14.8418 13.3887 14.9004C13.2012 15.0527 12.8711 15.7109 12.3984 16.875C12.2656 17.1719 12.1387 17.3203 12.0176 17.3203C11.7207 17.4844 11.2324 17.623 10.5527 17.7363C10.5527 17.7559 10.543 17.7656 10.5234 17.7656C10.5234 17.7227 10.502 17.7012 10.459 17.7012H10.4238C10.373 17.7441 10.332 17.7656 10.3008 17.7656L10.1426 17.7363C10.1191 17.7988 10.0547 17.8301 9.94922 17.8301H9.56836C9.56836 17.873 9.55664 17.8945 9.5332 17.8945C9.40039 17.8945 9.11523 17.9473 8.67773 18.0527C8.3457 18.0957 8.17578 18.1172 8.16797 18.1172C7.90234 18.1172 7.7207 18 7.62305 17.7656V17.7363C7.62305 17.7129 7.63477 17.7012 7.6582 17.7012L7.5293 17.3203L7.55859 17.2559C7.51953 17.1074 7.48828 17.0332 7.46484 17.0332L7.5 16.9746C7.47656 16.7715 7.45508 16.6543 7.43555 16.623H7.46484C7.42188 16.5449 7.35938 16.2051 7.27734 15.6035L7.21289 15.5391C7.21289 15.5195 7.22266 15.5098 7.24219 15.5098C7.21094 14.9785 7.1582 14.7129 7.08398 14.7129H6.92578C6.77734 14.7129 6.70312 14.8613 6.70312 15.1582C6.50391 16.2363 6.38672 16.7871 6.35156 16.8105C5.97266 17.1113 5.55859 17.4629 5.10938 17.8652C4.77734 18.1191 4.45898 18.2461 4.1543 18.2461C4.04102 18.2031 3.83984 18.1602 3.55078 18.1172C3.55078 18.0977 3.53906 18.0879 3.51562 18.0879H3.23438C3.19141 18.0879 3.16992 18.0664 3.16992 18.0234L3.10547 18.0527C2.74609 17.9707 2.40625 17.9082 2.08594 17.8652C2.08594 17.8223 2.06445 17.8008 2.02148 17.8008H1.70508C1.70508 17.7578 1.26953 17.6934 0.398438 17.6074C0.25 17.5645 0.175781 17.502 0.175781 17.4199L0.398438 16.875H0.369141C0.458984 16.6562 0.574219 16.3066 0.714844 15.8262C0.75 15.6973 0.783203 15.6328 0.814453 15.6328L0.779297 15.5684V15.5098L1.00195 14.9648H1.03711V14.8711C1.03711 14.8281 1.08984 14.668 1.19531 14.3906L1.16016 14.332C1.30859 13.9102 1.42578 13.5059 1.51172 13.1191L1.89258 11.877C1.87305 11.877 1.86328 11.8672 1.86328 11.8477C1.90625 11.8477 1.9375 11.7402 1.95703 11.5254C2.02344 11.209 2.17188 10.7227 2.40234 10.0664L2.37305 10.002C2.53711 9.36523 2.6543 9.04688 2.72461 9.04688C2.89258 8.30859 3.05078 7.73438 3.19922 7.32422C3.25 6.94531 3.30273 6.75586 3.35742 6.75586C3.35742 6.73242 3.34766 6.7207 3.32812 6.7207L3.70898 5.32031C3.73633 5.15625 3.76758 5.05078 3.80273 5.00391H3.77344C3.94141 4.44141 4.08008 3.90039 4.18945 3.38086C4.20898 3.38086 4.21875 3.36914 4.21875 3.3457L4.18945 3.28125C4.23633 3.28125 4.28906 3.10156 4.34766 2.74219C4.44531 2.4375 4.66797 2.15039 5.01562 1.88086C5.01562 1.8457 5.08984 1.76172 5.23828 1.62891C5.57422 1.16016 5.82812 0.884766 6 0.802734C6 0.693359 6.14844 0.585938 6.44531 0.480469L6.60352 0.515625H6.99023L7.05469 0.544922C7.05469 0.525391 7.06445 0.515625 7.08398 0.515625V0.544922C7.12305 0.525391 7.1543 0.515625 7.17773 0.515625C7.24414 0.515625 7.38281 0.537109 7.59375 0.580078V0.544922L7.6582 0.580078C7.70117 0.580078 7.72266 0.558594 7.72266 0.515625C7.74219 0.515625 7.75195 0.525391 7.75195 0.544922L7.91016 0.515625L7.97461 0.544922C8.08398 0.501953 8.1582 0.480469 8.19727 0.480469V0.515625C8.92773 0.324219 9.61719 0.228516 10.2656 0.228516ZM6.86133 0.990234L7.81641 1.98047L7.88086 1.94531H7.94531C7.96484 1.94531 7.97461 1.95703 7.97461 1.98047C8.00977 1.95703 8.0625 1.94531 8.13281 1.94531C7.51172 1.28906 7.17188 0.960938 7.11328 0.960938C7.09766 0.960938 7.01367 0.970703 6.86133 0.990234ZM8.35547 0.960938C8.35547 0.988281 8.51562 1.14648 8.83594 1.43555C8.86719 1.43555 8.91992 1.37305 8.99414 1.24805L8.67773 0.960938H8.35547ZM6.28711 1.14844V1.18359C6.30664 1.22656 6.58203 1.50195 7.11328 2.00977L7.27734 1.98047L7.43555 2.00977C7.43555 1.98242 7.10547 1.6543 6.44531 1.02539H6.41602C6.38086 1.02539 6.33789 1.06641 6.28711 1.14844ZM7.6582 1.02539C7.66211 1.05273 7.94727 1.33789 8.51367 1.88086L8.64258 1.72266V1.69336C8.64258 1.66211 8.41992 1.43945 7.97461 1.02539H7.6582ZM9.59766 1.11914C9.59766 1.13867 9.55469 1.20313 9.46875 1.3125C9.46875 1.33984 9.68164 1.55078 10.1074 1.94531C10.1074 1.64844 9.98047 1.41602 9.72656 1.24805C9.72656 1.21289 9.68359 1.16992 9.59766 1.11914ZM6.06445 1.40625C6.06445 1.46484 6.0332 1.51758 5.9707 1.56445H5.93555V1.59375C5.93555 1.62109 6.11719 1.80273 6.48047 2.13867C6.62891 2.0957 6.71289 2.07422 6.73242 2.07422C6.73242 2.04688 6.50977 1.82422 6.06445 1.40625ZM9.28125 1.59375C9.28125 1.64453 9.25 1.70898 9.1875 1.78711C9.19141 1.81836 9.5625 2.18945 10.3008 2.90039L10.2656 2.83594C10.2656 2.78906 10.2773 2.74805 10.3008 2.71289C10.3008 2.56445 9.9707 2.19141 9.31055 1.59375H9.28125ZM5.55469 2.00977L5.77734 2.20312H6.09961L5.74805 1.81641C5.70117 1.82031 5.63672 1.88477 5.55469 2.00977ZM9.02344 2.07422L8.99414 2.23242H9.02344L8.99414 2.29688V2.32617C8.99805 2.38867 9.48633 2.88867 10.459 3.82617V3.79102C10.459 3.51367 10.3633 3.32227 10.1719 3.2168C10.1719 3.19336 9.78906 2.8125 9.02344 2.07422ZM8.00977 2.67773C7.9668 2.6582 7.93359 2.64844 7.91016 2.64844C7.91016 2.68359 7.76172 2.72461 7.46484 2.77148C7.44531 2.77148 7.43555 2.76172 7.43555 2.74219C7.36523 2.74219 7.10938 2.79492 6.66797 2.90039L6.60352 2.87109C6.58398 2.87109 6.57422 2.88086 6.57422 2.90039C6.40625 2.88867 6.32227 2.86719 6.32227 2.83594C6.2793 2.87109 6.07617 2.9043 5.71289 2.93555C5.67383 2.91211 5.64258 2.90039 5.61914 2.90039C5.51367 2.93945 5.28125 2.99219 4.92188 3.05859C4.8125 3.41016 4.73633 3.71875 4.69336 3.98438C4.67383 3.98438 4.66406 3.99414 4.66406 4.01367H4.69336C4.59961 4.41211 4.51562 4.69922 4.44141 4.875C4.44141 5.02344 4.41992 5.09766 4.37695 5.09766L4.41211 5.16211C4.3457 5.24805 4.3125 5.375 4.3125 5.54297H4.34766C4.19922 5.92969 4.125 6.15234 4.125 6.21094L3.90234 6.97852C3.90234 7.04102 3.82812 7.34766 3.67969 7.89844C3.67969 7.97656 3.6582 8.04102 3.61523 8.0918H3.64453C3.46484 8.83398 3.32812 9.20508 3.23438 9.20508C3.05859 10.2012 2.91992 10.6992 2.81836 10.6992V10.9219C2.73242 11.0625 2.68945 11.1895 2.68945 11.3027C2.71289 11.3027 2.72461 11.3145 2.72461 11.3379C2.68164 11.3379 2.61719 11.5078 2.53125 11.8477L2.56055 11.9121C2.49805 12.0645 2.4668 12.1602 2.4668 12.1992H2.50195C2.33398 12.543 2.18555 12.9766 2.05664 13.5C2.01758 13.5 1.99609 13.6074 1.99219 13.8223V13.9453C1.94922 14.0117 1.91602 14.0859 1.89258 14.168C1.91602 14.168 1.92773 14.1797 1.92773 14.2031C1.88086 14.2031 1.83789 14.3203 1.79883 14.5547L1.73438 14.584C1.73438 14.6035 1.74609 14.6133 1.76953 14.6133C1.76953 14.6602 1.68359 14.916 1.51172 15.3809L1.16016 16.4004H1.19531C1.15625 16.502 1.125 16.6289 1.10156 16.7812C1.10156 16.8945 1.26953 16.959 1.60547 16.9746V17.0039C1.64844 16.9844 1.68164 16.9746 1.70508 16.9746L1.83398 17.0332L1.89258 17.0039C2.4082 17.1328 2.68555 17.1973 2.72461 17.1973C3.43164 17.3027 3.85547 17.3555 3.99609 17.3555C4.125 17.0859 4.31641 16.4805 4.57031 15.5391H4.53516C4.66406 15.2852 4.78125 14.9141 4.88672 14.4258V14.2676C4.93359 14.2676 4.97656 14.2246 5.01562 14.1387L5.08008 14.168C5.09961 14.168 5.10938 14.1582 5.10938 14.1387L5.17383 14.168H5.20312C5.28125 14.1055 5.35547 14.0742 5.42578 14.0742H5.49023C5.51367 14.0742 5.52539 14.0859 5.52539 14.1094C5.56836 14.0898 5.68359 14.0684 5.87109 14.0449C5.89453 14.0449 5.90625 14.0547 5.90625 14.0742L6.06445 14.0449C6.72461 14.0215 7.05469 13.9883 7.05469 13.9453C7.07422 13.9453 7.08398 13.957 7.08398 13.9805C7.36133 13.957 7.5 13.9258 7.5 13.8867C7.66016 13.9141 7.77539 13.9883 7.8457 14.1094V14.3613C7.8457 14.4199 7.86719 14.4844 7.91016 14.5547C7.91016 14.5742 7.90039 14.584 7.88086 14.584C7.88086 14.9043 7.92383 15.0645 8.00977 15.0645V15.1582C8.00977 15.1777 7.99805 15.1875 7.97461 15.1875L8.19727 15.9551C8.3457 16.8457 8.47266 17.291 8.57812 17.291L9.12305 17.1973V17.2266C9.27539 17.168 9.75195 17.0938 10.5527 17.0039H10.7754L10.8398 16.9746V17.0039C10.9531 16.9609 11.1016 16.9395 11.2852 16.9395V16.9746C11.4766 16.9043 11.5723 16.8496 11.5723 16.8105C11.5723 16.6074 11.5195 16.4277 11.4141 16.2715C11.3125 16.0566 11.2266 15.7168 11.1562 15.252C11.1797 15.252 11.1914 15.2422 11.1914 15.2227C11.1484 15.2227 11.0527 14.9355 10.9043 14.3613C10.9043 14.291 10.873 14.1953 10.8105 14.0742H10.8398L10.7461 13.916C10.7656 13.873 10.7754 13.8418 10.7754 13.8223C10.7324 13.8223 10.7109 13.8008 10.7109 13.7578C10.7344 13.7188 10.7461 13.6758 10.7461 13.6289C10.7031 13.6289 10.6816 13.6074 10.6816 13.5645C10.7012 13.5645 10.7109 13.5547 10.7109 13.5352C10.6602 13.5352 10.5449 13.0898 10.3652 12.1992C10.3652 12.082 10.3008 11.8789 10.1719 11.5898C10.1914 11.5898 10.2012 11.5801 10.2012 11.5605H10.1719L10.2012 11.4961V11.4668C10.166 11.4199 10.1348 11.3125 10.1074 11.1445C10.0762 11.1445 10.0234 10.9219 9.94922 10.4766C9.90234 10.1953 9.83789 9.92969 9.75586 9.67969C9.75586 9.66016 9.76758 9.65039 9.79102 9.65039C9.72461 9.29102 9.65039 8.96289 9.56836 8.66602L9.59766 8.60156C9.54688 8.42969 9.51562 8.34375 9.50391 8.34375L9.5332 8.2793V8.15625C9.4707 8.11719 9.38672 7.80859 9.28125 7.23047L9.15234 6.87891C9.17578 6.87891 9.1875 6.86914 9.1875 6.84961H9.15234C9.17578 6.80664 9.1875 6.77539 9.1875 6.75586C9.05859 6.42383 8.98242 6.10547 8.95898 5.80078C8.93164 5.80078 8.90039 5.70508 8.86523 5.51367H8.90039C8.85742 5.43555 8.80273 5.20117 8.73633 4.81055H8.70703L8.73633 4.74609V4.7168L8.70703 4.65234H8.73633C8.7168 4.60156 8.69727 4.49609 8.67773 4.33594C8.7168 4.33594 8.73633 4.31445 8.73633 4.27148C8.66602 4.27148 8.60352 4.04883 8.54883 3.60352H8.57812L8.39062 2.64844L8.32617 2.61328C8.15039 2.63672 8.04492 2.6582 8.00977 2.67773ZM9.15234 2.96484V2.99414C9.1875 2.99414 9.25195 3.16406 9.3457 3.50391L10.6465 4.78125V4.74609C10.5801 4.40234 10.4648 4.19141 10.3008 4.11328C10.3008 4.08594 9.91797 3.70312 9.15234 2.96484ZM9.43945 4.01367V4.07812C9.43945 4.14062 9.4707 4.22656 9.5332 4.33594H9.50391C9.50391 4.41797 9.94922 4.88477 10.8398 5.73633L10.7754 5.54297H10.8105C10.8105 5.375 10.6719 5.18359 10.3945 4.96875C10.3945 4.94531 10.0762 4.62695 9.43945 4.01367ZM9.66211 5.00391V5.06836C9.66211 5.32227 9.76758 5.51172 9.97852 5.63672C9.98633 5.67188 10.3262 6.01172 10.998 6.65625V6.62695C10.998 6.3418 10.8496 6.09766 10.5527 5.89453C10.5527 5.86719 10.2559 5.57031 9.66211 5.00391ZM9.79102 5.89453C9.83398 6.05078 9.85547 6.15625 9.85547 6.21094H9.82031C9.82031 6.26953 10.2988 6.75781 11.2559 7.67578V7.64648C11.1699 7.2832 11.0215 7.03906 10.8105 6.91406C10.8105 6.88672 10.4707 6.54688 9.79102 5.89453ZM9.94922 6.81445V6.84961C9.96484 6.93555 9.98633 6.97852 10.0137 6.97852L9.97852 7.03711C9.97852 7.18555 10.3184 7.56836 10.998 8.18555C10.998 8.21289 11.1582 8.37305 11.4785 8.66602V8.63086C11.4355 8.36523 11.3613 8.18555 11.2559 8.0918L9.94922 6.81445ZM6.50977 7.16602H6.54492C6.86133 7.35742 7.01953 7.66602 7.01953 8.0918C7.10547 8.45117 7.27539 9.41602 7.5293 10.9863C7.49805 10.9863 7.45508 11.0078 7.40039 11.0508C7.36133 11.0312 7.33008 11.0215 7.30664 11.0215V11.0508L7.24219 11.0215L7.17773 11.0508C7.17773 11.0312 7.16797 11.0215 7.14844 11.0215C7.11328 11.1035 7.03906 11.1445 6.92578 11.1445H6.70312V11.209H6.48047C6.36719 11.209 6.27148 11.2402 6.19336 11.3027H5.8125C5.74609 11.1543 5.71289 11.0488 5.71289 10.9863C5.71289 10.8574 5.77734 10.582 5.90625 10.1602C5.86328 10.1602 5.8418 10.1387 5.8418 10.0957H5.90625V9.9375L5.93555 9.74414C5.91602 9.70508 5.90625 9.67383 5.90625 9.65039C5.94922 9.65039 5.98047 9.55469 6 9.36328C6.05078 9.36328 6.09375 9.18359 6.12891 8.82422V8.66602L6.19336 8.56641V8.15625C6.22852 8.125 6.25977 7.98633 6.28711 7.74023H6.32227L6.28711 7.67578C6.36523 7.33594 6.43945 7.16602 6.50977 7.16602ZM10.1426 7.76953V7.83398C10.1777 8.0918 10.2617 8.27344 10.3945 8.37891L11.666 9.62109C11.666 9.32031 11.5391 9.08594 11.2852 8.91797C11.2852 8.89062 10.9043 8.50781 10.1426 7.76953ZM10.3008 8.69531V8.75977C10.332 9.01758 10.4277 9.20898 10.5879 9.33398L11.8887 10.6055C11.8887 10.3086 11.7305 10.043 11.4141 9.80859C11.4062 9.77734 11.0352 9.40625 10.3008 8.69531ZM10.459 9.62109V9.65039C10.502 9.92773 10.5859 10.1191 10.7109 10.2246L12.082 11.5605C12.082 11.2637 11.9121 10.9883 11.5723 10.7344C11.5645 10.6992 11.1934 10.3281 10.459 9.62109ZM6.44531 10.1895L6.41602 10.2539V10.4766C6.41602 10.5078 6.45898 10.541 6.54492 10.5762C6.58008 10.5527 6.63281 10.541 6.70312 10.541V10.4473C6.70312 10.4199 6.61719 10.334 6.44531 10.1895ZM10.6465 10.5762V10.6055C10.7129 10.7656 10.7461 10.8828 10.7461 10.957C10.7227 10.957 10.7109 10.9668 10.7109 10.9863L12.3047 12.5449V12.5156C12.2344 12.1719 12.1172 11.959 11.9531 11.877C11.9414 11.8379 11.5059 11.4043 10.6465 10.5762ZM10.8398 11.5254C10.8398 11.8262 11.0195 12.1133 11.3789 12.3867C11.3789 12.4141 11.7715 12.8066 12.5566 13.5645V13.5352C12.4746 13.168 12.3691 12.9668 12.2402 12.9316C12.2402 12.9004 11.7734 12.4316 10.8398 11.5254ZM11.0977 12.5449C11.0977 12.8574 11.2246 13.0918 11.4785 13.248C11.4902 13.291 11.9355 13.7363 12.8145 14.584C12.7129 14.2441 12.6484 14.0742 12.6211 14.0742C12.6055 14.0312 12.0977 13.5215 11.0977 12.5449ZM11.2559 13.4707V13.5L11.2852 13.5645C11.2656 13.5645 11.2559 13.5762 11.2559 13.5996L11.3203 13.6289L11.2852 13.6934C11.3086 13.8262 11.4355 14.0059 11.666 14.2324L12.5918 15.123C12.5918 15.0684 12.623 15.0059 12.6855 14.9355V14.9004C12.6855 14.873 12.209 14.3965 11.2559 13.4707ZM11.543 14.5195C11.543 14.8164 11.7012 15.082 12.0176 15.3164C12.0176 15.3438 12.123 15.4492 12.334 15.6328C12.334 15.543 12.377 15.4902 12.4629 15.4746V15.4453C12.4629 15.418 12.1562 15.1094 11.543 14.5195ZM5.52539 14.9355C5.52539 14.9629 5.69531 15.1328 6.03516 15.4453H6.06445C6.06445 15.4219 6.05469 15.4102 6.03516 15.4102L6.09961 15.1582L5.74805 14.8418C5.59961 14.8613 5.52539 14.8926 5.52539 14.9355ZM5.39648 15.252C5.39648 15.2832 5.375 15.3789 5.33203 15.5391L5.9707 16.1426V15.8262C5.9707 15.7988 5.7793 15.6074 5.39648 15.252ZM11.7656 15.5098C11.8438 15.8223 11.9062 16.002 11.9531 16.0488L12.1465 16.207L12.2402 15.9551L11.7656 15.5098ZM5.26758 15.8906C5.22461 15.9883 5.20312 16.084 5.20312 16.1777L5.71289 16.6523H5.74805C5.74805 16.6055 5.7793 16.5625 5.8418 16.5234H5.87109V16.4941C5.87109 16.4668 5.66992 16.2656 5.26758 15.8906ZM5.10938 16.4941L5.08008 16.5586V16.7812C5.08008 16.8086 5.16406 16.8926 5.33203 17.0332L5.46094 16.875V16.8457C5.46094 16.8145 5.34375 16.6973 5.10938 16.4941Z" fill="#FE9D00"/>
</svg>
