<svg width="79" height="20" viewBox="0 0 79 20" fill="none" xmlns="http://www.w3.org/2000/svg">
<path d="M10.2656 1.22852C10.3438 1.22852 10.4922 1.82227 10.7109 3.00977C10.7656 3.00977 10.9141 3.67773 11.1562 5.01367C11.582 7.19727 11.9648 9.04492 12.3047 10.5566C13.0273 14.0605 13.3887 15.8418 13.3887 15.9004C13.2012 16.0527 12.8711 16.7109 12.3984 17.875C12.2656 18.1719 12.1387 18.3203 12.0176 18.3203C11.7207 18.4844 11.2324 18.623 10.5527 18.7363C10.5527 18.7559 10.543 18.7656 10.5234 18.7656C10.5234 18.7227 10.502 18.7012 10.459 18.7012H10.4238C10.373 18.7441 10.332 18.7656 10.3008 18.7656L10.1426 18.7363C10.1191 18.7988 10.0547 18.8301 9.94922 18.8301H9.56836C9.56836 18.873 9.55664 18.8945 9.5332 18.8945C9.40039 18.8945 9.11523 18.9473 8.67773 19.0527C8.3457 19.0957 8.17578 19.1172 8.16797 19.1172C7.90234 19.1172 7.7207 19 7.62305 18.7656V18.7363C7.62305 18.7129 7.63477 18.7012 7.6582 18.7012L7.5293 18.3203L7.55859 18.2559C7.51953 18.1074 7.48828 18.0332 7.46484 18.0332L7.5 17.9746C7.47656 17.7715 7.45508 17.6543 7.43555 17.623H7.46484C7.42188 17.5449 7.35938 17.2051 7.27734 16.6035L7.21289 16.5391C7.21289 16.5195 7.22266 16.5098 7.24219 16.5098C7.21094 15.9785 7.1582 15.7129 7.08398 15.7129H6.92578C6.77734 15.7129 6.70312 15.8613 6.70312 16.1582C6.50391 17.2363 6.38672 17.7871 6.35156 17.8105C5.97266 18.1113 5.55859 18.4629 5.10938 18.8652C4.77734 19.1191 4.45898 19.2461 4.1543 19.2461C4.04102 19.2031 3.83984 19.1602 3.55078 19.1172C3.55078 19.0977 3.53906 19.0879 3.51562 19.0879H3.23438C3.19141 19.0879 3.16992 19.0664 3.16992 19.0234L3.10547 19.0527C2.74609 18.9707 2.40625 18.9082 2.08594 18.8652C2.08594 18.8223 2.06445 18.8008 2.02148 18.8008H1.70508C1.70508 18.7578 1.26953 18.6934 0.398438 18.6074C0.25 18.5645 0.175781 18.502 0.175781 18.4199L0.398438 17.875H0.369141C0.458984 17.6562 0.574219 17.3066 0.714844 16.8262C0.75 16.6973 0.783203 16.6328 0.814453 16.6328L0.779297 16.5684V16.5098L1.00195 15.9648H1.03711V15.8711C1.03711 15.8281 1.08984 15.668 1.19531 15.3906L1.16016 15.332C1.30859 14.9102 1.42578 14.5059 1.51172 14.1191L1.89258 12.877C1.87305 12.877 1.86328 12.8672 1.86328 12.8477C1.90625 12.8477 1.9375 12.7402 1.95703 12.5254C2.02344 12.209 2.17188 11.7227 2.40234 11.0664L2.37305 11.002C2.53711 10.3652 2.6543 10.0469 2.72461 10.0469C2.89258 9.30859 3.05078 8.73438 3.19922 8.32422C3.25 7.94531 3.30273 7.75586 3.35742 7.75586C3.35742 7.73242 3.34766 7.7207 3.32812 7.7207L3.70898 6.32031C3.73633 6.15625 3.76758 6.05078 3.80273 6.00391H3.77344C3.94141 5.44141 4.08008 4.90039 4.18945 4.38086C4.20898 4.38086 4.21875 4.36914 4.21875 4.3457L4.18945 4.28125C4.23633 4.28125 4.28906 4.10156 4.34766 3.74219C4.44531 3.4375 4.66797 3.15039 5.01562 2.88086C5.01562 2.8457 5.08984 2.76172 5.23828 2.62891C5.57422 2.16016 5.82812 1.88477 6 1.80273C6 1.69336 6.14844 1.58594 6.44531 1.48047L6.60352 1.51562H6.99023L7.05469 1.54492C7.05469 1.52539 7.06445 1.51562 7.08398 1.51562V1.54492C7.12305 1.52539 7.1543 1.51562 7.17773 1.51562C7.24414 1.51562 7.38281 1.53711 7.59375 1.58008V1.54492L7.6582 1.58008C7.70117 1.58008 7.72266 1.55859 7.72266 1.51562C7.74219 1.51562 7.75195 1.52539 7.75195 1.54492L7.91016 1.51562L7.97461 1.54492C8.08398 1.50195 8.1582 1.48047 8.19727 1.48047V1.51562C8.92773 1.32422 9.61719 1.22852 10.2656 1.22852ZM6.86133 1.99023L7.81641 2.98047L7.88086 2.94531H7.94531C7.96484 2.94531 7.97461 2.95703 7.97461 2.98047C8.00977 2.95703 8.0625 2.94531 8.13281 2.94531C7.51172 2.28906 7.17188 1.96094 7.11328 1.96094C7.09766 1.96094 7.01367 1.9707 6.86133 1.99023ZM8.35547 1.96094C8.35547 1.98828 8.51562 2.14648 8.83594 2.43555C8.86719 2.43555 8.91992 2.37305 8.99414 2.24805L8.67773 1.96094H8.35547ZM6.28711 2.14844V2.18359C6.30664 2.22656 6.58203 2.50195 7.11328 3.00977L7.27734 2.98047L7.43555 3.00977C7.43555 2.98242 7.10547 2.6543 6.44531 2.02539H6.41602C6.38086 2.02539 6.33789 2.06641 6.28711 2.14844ZM7.6582 2.02539C7.66211 2.05273 7.94727 2.33789 8.51367 2.88086L8.64258 2.72266V2.69336C8.64258 2.66211 8.41992 2.43945 7.97461 2.02539H7.6582ZM9.59766 2.11914C9.59766 2.13867 9.55469 2.20313 9.46875 2.3125C9.46875 2.33984 9.68164 2.55078 10.1074 2.94531C10.1074 2.64844 9.98047 2.41602 9.72656 2.24805C9.72656 2.21289 9.68359 2.16992 9.59766 2.11914ZM6.06445 2.40625C6.06445 2.46484 6.0332 2.51758 5.9707 2.56445H5.93555V2.59375C5.93555 2.62109 6.11719 2.80273 6.48047 3.13867C6.62891 3.0957 6.71289 3.07422 6.73242 3.07422C6.73242 3.04688 6.50977 2.82422 6.06445 2.40625ZM9.28125 2.59375C9.28125 2.64453 9.25 2.70898 9.1875 2.78711C9.19141 2.81836 9.5625 3.18945 10.3008 3.90039L10.2656 3.83594C10.2656 3.78906 10.2773 3.74805 10.3008 3.71289C10.3008 3.56445 9.9707 3.19141 9.31055 2.59375H9.28125ZM5.55469 3.00977L5.77734 3.20312H6.09961L5.74805 2.81641C5.70117 2.82031 5.63672 2.88477 5.55469 3.00977ZM9.02344 3.07422L8.99414 3.23242H9.02344L8.99414 3.29688V3.32617C8.99805 3.38867 9.48633 3.88867 10.459 4.82617V4.79102C10.459 4.51367 10.3633 4.32227 10.1719 4.2168C10.1719 4.19336 9.78906 3.8125 9.02344 3.07422ZM8.00977 3.67773C7.9668 3.6582 7.93359 3.64844 7.91016 3.64844C7.91016 3.68359 7.76172 3.72461 7.46484 3.77148C7.44531 3.77148 7.43555 3.76172 7.43555 3.74219C7.36523 3.74219 7.10938 3.79492 6.66797 3.90039L6.60352 3.87109C6.58398 3.87109 6.57422 3.88086 6.57422 3.90039C6.40625 3.88867 6.32227 3.86719 6.32227 3.83594C6.2793 3.87109 6.07617 3.9043 5.71289 3.93555C5.67383 3.91211 5.64258 3.90039 5.61914 3.90039C5.51367 3.93945 5.28125 3.99219 4.92188 4.05859C4.8125 4.41016 4.73633 4.71875 4.69336 4.98438C4.67383 4.98438 4.66406 4.99414 4.66406 5.01367H4.69336C4.59961 5.41211 4.51562 5.69922 4.44141 5.875C4.44141 6.02344 4.41992 6.09766 4.37695 6.09766L4.41211 6.16211C4.3457 6.24805 4.3125 6.375 4.3125 6.54297H4.34766C4.19922 6.92969 4.125 7.15234 4.125 7.21094L3.90234 7.97852C3.90234 8.04102 3.82812 8.34766 3.67969 8.89844C3.67969 8.97656 3.6582 9.04102 3.61523 9.0918H3.64453C3.46484 9.83398 3.32812 10.2051 3.23438 10.2051C3.05859 11.2012 2.91992 11.6992 2.81836 11.6992V11.9219C2.73242 12.0625 2.68945 12.1895 2.68945 12.3027C2.71289 12.3027 2.72461 12.3145 2.72461 12.3379C2.68164 12.3379 2.61719 12.5078 2.53125 12.8477L2.56055 12.9121C2.49805 13.0645 2.4668 13.1602 2.4668 13.1992H2.50195C2.33398 13.543 2.18555 13.9766 2.05664 14.5C2.01758 14.5 1.99609 14.6074 1.99219 14.8223V14.9453C1.94922 15.0117 1.91602 15.0859 1.89258 15.168C1.91602 15.168 1.92773 15.1797 1.92773 15.2031C1.88086 15.2031 1.83789 15.3203 1.79883 15.5547L1.73438 15.584C1.73438 15.6035 1.74609 15.6133 1.76953 15.6133C1.76953 15.6602 1.68359 15.916 1.51172 16.3809L1.16016 17.4004H1.19531C1.15625 17.502 1.125 17.6289 1.10156 17.7812C1.10156 17.8945 1.26953 17.959 1.60547 17.9746V18.0039C1.64844 17.9844 1.68164 17.9746 1.70508 17.9746L1.83398 18.0332L1.89258 18.0039C2.4082 18.1328 2.68555 18.1973 2.72461 18.1973C3.43164 18.3027 3.85547 18.3555 3.99609 18.3555C4.125 18.0859 4.31641 17.4805 4.57031 16.5391H4.53516C4.66406 16.2852 4.78125 15.9141 4.88672 15.4258V15.2676C4.93359 15.2676 4.97656 15.2246 5.01562 15.1387L5.08008 15.168C5.09961 15.168 5.10938 15.1582 5.10938 15.1387L5.17383 15.168H5.20312C5.28125 15.1055 5.35547 15.0742 5.42578 15.0742H5.49023C5.51367 15.0742 5.52539 15.0859 5.52539 15.1094C5.56836 15.0898 5.68359 15.0684 5.87109 15.0449C5.89453 15.0449 5.90625 15.0547 5.90625 15.0742L6.06445 15.0449C6.72461 15.0215 7.05469 14.9883 7.05469 14.9453C7.07422 14.9453 7.08398 14.957 7.08398 14.9805C7.36133 14.957 7.5 14.9258 7.5 14.8867C7.66016 14.9141 7.77539 14.9883 7.8457 15.1094V15.3613C7.8457 15.4199 7.86719 15.4844 7.91016 15.5547C7.91016 15.5742 7.90039 15.584 7.88086 15.584C7.88086 15.9043 7.92383 16.0645 8.00977 16.0645V16.1582C8.00977 16.1777 7.99805 16.1875 7.97461 16.1875L8.19727 16.9551C8.3457 17.8457 8.47266 18.291 8.57812 18.291L9.12305 18.1973V18.2266C9.27539 18.168 9.75195 18.0938 10.5527 18.0039H10.7754L10.8398 17.9746V18.0039C10.9531 17.9609 11.1016 17.9395 11.2852 17.9395V17.9746C11.4766 17.9043 11.5723 17.8496 11.5723 17.8105C11.5723 17.6074 11.5195 17.4277 11.4141 17.2715C11.3125 17.0566 11.2266 16.7168 11.1562 16.252C11.1797 16.252 11.1914 16.2422 11.1914 16.2227C11.1484 16.2227 11.0527 15.9355 10.9043 15.3613C10.9043 15.291 10.873 15.1953 10.8105 15.0742H10.8398L10.7461 14.916C10.7656 14.873 10.7754 14.8418 10.7754 14.8223C10.7324 14.8223 10.7109 14.8008 10.7109 14.7578C10.7344 14.7188 10.7461 14.6758 10.7461 14.6289C10.7031 14.6289 10.6816 14.6074 10.6816 14.5645C10.7012 14.5645 10.7109 14.5547 10.7109 14.5352C10.6602 14.5352 10.5449 14.0898 10.3652 13.1992C10.3652 13.082 10.3008 12.8789 10.1719 12.5898C10.1914 12.5898 10.2012 12.5801 10.2012 12.5605H10.1719L10.2012 12.4961V12.4668C10.166 12.4199 10.1348 12.3125 10.1074 12.1445C10.0762 12.1445 10.0234 11.9219 9.94922 11.4766C9.90234 11.1953 9.83789 10.9297 9.75586 10.6797C9.75586 10.6602 9.76758 10.6504 9.79102 10.6504C9.72461 10.291 9.65039 9.96289 9.56836 9.66602L9.59766 9.60156C9.54688 9.42969 9.51562 9.34375 9.50391 9.34375L9.5332 9.2793V9.15625C9.4707 9.11719 9.38672 8.80859 9.28125 8.23047L9.15234 7.87891C9.17578 7.87891 9.1875 7.86914 9.1875 7.84961H9.15234C9.17578 7.80664 9.1875 7.77539 9.1875 7.75586C9.05859 7.42383 8.98242 7.10547 8.95898 6.80078C8.93164 6.80078 8.90039 6.70508 8.86523 6.51367H8.90039C8.85742 6.43555 8.80273 6.20117 8.73633 5.81055H8.70703L8.73633 5.74609V5.7168L8.70703 5.65234H8.73633C8.7168 5.60156 8.69727 5.49609 8.67773 5.33594C8.7168 5.33594 8.73633 5.31445 8.73633 5.27148C8.66602 5.27148 8.60352 5.04883 8.54883 4.60352H8.57812L8.39062 3.64844L8.32617 3.61328C8.15039 3.63672 8.04492 3.6582 8.00977 3.67773ZM9.15234 3.96484V3.99414C9.1875 3.99414 9.25195 4.16406 9.3457 4.50391L10.6465 5.78125V5.74609C10.5801 5.40234 10.4648 5.19141 10.3008 5.11328C10.3008 5.08594 9.91797 4.70312 9.15234 3.96484ZM9.43945 5.01367V5.07812C9.43945 5.14062 9.4707 5.22656 9.5332 5.33594H9.50391C9.50391 5.41797 9.94922 5.88477 10.8398 6.73633L10.7754 6.54297H10.8105C10.8105 6.375 10.6719 6.18359 10.3945 5.96875C10.3945 5.94531 10.0762 5.62695 9.43945 5.01367ZM9.66211 6.00391V6.06836C9.66211 6.32227 9.76758 6.51172 9.97852 6.63672C9.98633 6.67188 10.3262 7.01172 10.998 7.65625V7.62695C10.998 7.3418 10.8496 7.09766 10.5527 6.89453C10.5527 6.86719 10.2559 6.57031 9.66211 6.00391ZM9.79102 6.89453C9.83398 7.05078 9.85547 7.15625 9.85547 7.21094H9.82031C9.82031 7.26953 10.2988 7.75781 11.2559 8.67578V8.64648C11.1699 8.2832 11.0215 8.03906 10.8105 7.91406C10.8105 7.88672 10.4707 7.54688 9.79102 6.89453ZM9.94922 7.81445V7.84961C9.96484 7.93555 9.98633 7.97852 10.0137 7.97852L9.97852 8.03711C9.97852 8.18555 10.3184 8.56836 10.998 9.18555C10.998 9.21289 11.1582 9.37305 11.4785 9.66602V9.63086C11.4355 9.36523 11.3613 9.18555 11.2559 9.0918L9.94922 7.81445ZM6.50977 8.16602H6.54492C6.86133 8.35742 7.01953 8.66602 7.01953 9.0918C7.10547 9.45117 7.27539 10.416 7.5293 11.9863C7.49805 11.9863 7.45508 12.0078 7.40039 12.0508C7.36133 12.0312 7.33008 12.0215 7.30664 12.0215V12.0508L7.24219 12.0215L7.17773 12.0508C7.17773 12.0312 7.16797 12.0215 7.14844 12.0215C7.11328 12.1035 7.03906 12.1445 6.92578 12.1445H6.70312V12.209H6.48047C6.36719 12.209 6.27148 12.2402 6.19336 12.3027H5.8125C5.74609 12.1543 5.71289 12.0488 5.71289 11.9863C5.71289 11.8574 5.77734 11.582 5.90625 11.1602C5.86328 11.1602 5.8418 11.1387 5.8418 11.0957H5.90625V10.9375L5.93555 10.7441C5.91602 10.7051 5.90625 10.6738 5.90625 10.6504C5.94922 10.6504 5.98047 10.5547 6 10.3633C6.05078 10.3633 6.09375 10.1836 6.12891 9.82422V9.66602L6.19336 9.56641V9.15625C6.22852 9.125 6.25977 8.98633 6.28711 8.74023H6.32227L6.28711 8.67578C6.36523 8.33594 6.43945 8.16602 6.50977 8.16602ZM10.1426 8.76953V8.83398C10.1777 9.0918 10.2617 9.27344 10.3945 9.37891L11.666 10.6211C11.666 10.3203 11.5391 10.0859 11.2852 9.91797C11.2852 9.89062 10.9043 9.50781 10.1426 8.76953ZM10.3008 9.69531V9.75977C10.332 10.0176 10.4277 10.209 10.5879 10.334L11.8887 11.6055C11.8887 11.3086 11.7305 11.043 11.4141 10.8086C11.4062 10.7773 11.0352 10.4062 10.3008 9.69531ZM10.459 10.6211V10.6504C10.502 10.9277 10.5859 11.1191 10.7109 11.2246L12.082 12.5605C12.082 12.2637 11.9121 11.9883 11.5723 11.7344C11.5645 11.6992 11.1934 11.3281 10.459 10.6211ZM6.44531 11.1895L6.41602 11.2539V11.4766C6.41602 11.5078 6.45898 11.541 6.54492 11.5762C6.58008 11.5527 6.63281 11.541 6.70312 11.541V11.4473C6.70312 11.4199 6.61719 11.334 6.44531 11.1895ZM10.6465 11.5762V11.6055C10.7129 11.7656 10.7461 11.8828 10.7461 11.957C10.7227 11.957 10.7109 11.9668 10.7109 11.9863L12.3047 13.5449V13.5156C12.2344 13.1719 12.1172 12.959 11.9531 12.877C11.9414 12.8379 11.5059 12.4043 10.6465 11.5762ZM10.8398 12.5254C10.8398 12.8262 11.0195 13.1133 11.3789 13.3867C11.3789 13.4141 11.7715 13.8066 12.5566 14.5645V14.5352C12.4746 14.168 12.3691 13.9668 12.2402 13.9316C12.2402 13.9004 11.7734 13.4316 10.8398 12.5254ZM11.0977 13.5449C11.0977 13.8574 11.2246 14.0918 11.4785 14.248C11.4902 14.291 11.9355 14.7363 12.8145 15.584C12.7129 15.2441 12.6484 15.0742 12.6211 15.0742C12.6055 15.0312 12.0977 14.5215 11.0977 13.5449ZM11.2559 14.4707V14.5L11.2852 14.5645C11.2656 14.5645 11.2559 14.5762 11.2559 14.5996L11.3203 14.6289L11.2852 14.6934C11.3086 14.8262 11.4355 15.0059 11.666 15.2324L12.5918 16.123C12.5918 16.0684 12.623 16.0059 12.6855 15.9355V15.9004C12.6855 15.873 12.209 15.3965 11.2559 14.4707ZM11.543 15.5195C11.543 15.8164 11.7012 16.082 12.0176 16.3164C12.0176 16.3438 12.123 16.4492 12.334 16.6328C12.334 16.543 12.377 16.4902 12.4629 16.4746V16.4453C12.4629 16.418 12.1562 16.1094 11.543 15.5195ZM5.52539 15.9355C5.52539 15.9629 5.69531 16.1328 6.03516 16.4453H6.06445C6.06445 16.4219 6.05469 16.4102 6.03516 16.4102L6.09961 16.1582L5.74805 15.8418C5.59961 15.8613 5.52539 15.8926 5.52539 15.9355ZM5.39648 16.252C5.39648 16.2832 5.375 16.3789 5.33203 16.5391L5.9707 17.1426V16.8262C5.9707 16.7988 5.7793 16.6074 5.39648 16.252ZM11.7656 16.5098C11.8438 16.8223 11.9062 17.002 11.9531 17.0488L12.1465 17.207L12.2402 16.9551L11.7656 16.5098ZM5.26758 16.8906C5.22461 16.9883 5.20312 17.084 5.20312 17.1777L5.71289 17.6523H5.74805C5.74805 17.6055 5.7793 17.5625 5.8418 17.5234H5.87109V17.4941C5.87109 17.4668 5.66992 17.2656 5.26758 16.8906ZM5.10938 17.4941L5.08008 17.5586V17.7812C5.08008 17.8086 5.16406 17.8926 5.33203 18.0332L5.46094 17.875V17.8457C5.46094 17.8145 5.34375 17.6973 5.10938 17.4941ZM22.1749 0.0742188C22.2609 0.199219 22.3038 0.388672 22.3038 0.642578V0.707031C22.3038 0.730469 22.2941 0.742188 22.2745 0.742188C22.2745 0.769531 22.3155 1.01367 22.3976 1.47461L22.3683 1.59766L22.4913 2.23633L22.462 2.42383H22.4913L22.462 2.48828L22.5265 2.58203C22.5265 2.60547 22.5148 2.61719 22.4913 2.61719C22.5577 2.87109 22.6222 3.24219 22.6847 3.73047H22.6554C22.7179 3.88281 22.8234 4.50781 22.9718 5.60547C22.9718 5.625 22.9601 5.63477 22.9366 5.63477L22.9718 5.82812C23.0343 5.82812 23.1515 5.47852 23.3234 4.7793L23.798 3.73047H23.7687C23.964 3.42578 24.1222 3.07617 24.2433 2.68164C24.6456 1.84961 24.8468 1.37305 24.8468 1.25195C24.9991 0.841797 25.1788 0.511719 25.3859 0.261719C25.4015 0.136719 25.4347 0.0742188 25.4855 0.0742188H25.5148C25.5616 0.0742188 25.6046 0.0839844 25.6437 0.103516L25.7081 0.0742188C25.9073 0.0742188 26.1183 0.486328 26.3409 1.31055C26.4777 1.58398 26.7003 2.21094 27.0089 3.19141C27.2863 3.95312 27.5519 4.76758 27.8058 5.63477H27.8702V5.34766L27.8995 5.28906C27.88 5.28906 27.8702 5.27734 27.8702 5.25391C27.9093 5.25391 27.9288 5.23242 27.9288 5.18945V4.7793C27.9952 4.56445 28.0382 4.35156 28.0577 4.14062H28.0284C28.1105 3.82031 28.1632 3.54492 28.1866 3.31445H28.1222C28.1847 3.0957 28.2687 2.86328 28.3741 2.61719C28.628 1.96094 28.798 1.43164 28.8839 1.0293C29.048 0.751953 29.1534 0.613281 29.2003 0.613281C29.3644 0.632813 29.503 0.664062 29.6163 0.707031V0.677734C29.6984 0.697266 29.7726 0.728516 29.839 0.771484H29.8683C30.2745 0.771484 31.3663 0.994141 33.1437 1.43945C33.1437 1.48633 33.4405 1.55078 34.0343 1.63281C34.0343 1.66016 34.173 1.70117 34.4503 1.75586C34.4698 1.79883 34.4796 1.83203 34.4796 1.85547C34.4601 1.89453 34.4503 1.92578 34.4503 1.94922C34.4933 1.95703 34.5148 1.97852 34.5148 2.01367C34.4718 2.16211 34.3644 2.39453 34.1925 2.71094C33.7394 3.75 33.423 4.69336 33.2433 5.54102C33.2081 5.54102 33.1437 5.75391 33.0499 6.17969C32.9991 6.21094 32.9562 6.36914 32.921 6.6543L32.7628 7.19336C32.7863 7.19336 32.798 7.20508 32.798 7.22852C32.7589 7.22852 32.6632 7.54492 32.5109 8.17773C32.4679 8.17773 32.4464 8.23242 32.4464 8.3418H32.4757C32.4132 8.5957 32.3292 8.84961 32.2238 9.10352C32.0753 9.92383 31.9581 10.4316 31.8722 10.627H31.9073C31.9073 10.6426 31.8644 10.7598 31.7784 10.9785V11.3301C31.7355 11.3926 31.63 11.7422 31.462 12.3789L31.4913 12.4434V12.502C31.4288 12.502 31.3663 12.7676 31.3038 13.2988C31.2687 13.3691 31.2042 13.5918 31.1105 13.9668H31.1398C31.0773 14.2832 31.0363 14.4414 31.0167 14.4414L31.046 14.5059L30.9816 14.6055H31.0167C30.9933 14.6484 30.9601 14.8066 30.9171 15.0801H30.9523C30.7413 15.9746 30.5929 16.5254 30.507 16.7324H30.5363C30.4308 17.3887 30.3155 17.7812 30.1905 17.9102H30.0909C30.0714 17.9102 30.0616 17.8984 30.0616 17.875C29.9562 17.8984 29.9034 17.9199 29.9034 17.9395L29.839 17.9102C29.7296 17.9102 29.3273 18.0156 28.632 18.2266L27.548 18.4844C26.88 18.6719 26.4347 18.8086 26.212 18.8945L25.7374 19.0234C25.503 19.0234 25.3859 18.9062 25.3859 18.6719C25.3234 18.5234 25.2491 18.2168 25.1632 17.752C25.1437 17.752 25.1339 17.7402 25.1339 17.7168V17.3066C25.0714 17.3066 25.0284 17.1582 25.005 16.8613L24.9405 16.5742L24.9757 16.5098L24.8468 16.0645C24.8468 16.0449 24.8566 16.0352 24.8761 16.0352C24.8527 15.7578 24.8214 15.6191 24.7823 15.6191C24.7823 15.5996 24.7941 15.5898 24.8175 15.5898C24.8175 15.5234 24.7316 15.0996 24.5597 14.3184H24.5304C24.5304 14.4082 24.4445 14.8203 24.2726 15.5547H24.3077C24.2648 15.6602 24.212 15.873 24.1495 16.1934C24.1105 16.1934 24.0577 16.4375 23.9913 16.9258C23.882 17.2227 23.8077 17.5195 23.7687 17.8164C23.7374 17.9453 23.6945 18.0391 23.6398 18.0977C23.6398 18.1992 23.5968 18.3594 23.5109 18.5781C23.4366 18.9805 23.3409 19.1816 23.2238 19.1816C23.1847 19.2012 23.1534 19.2109 23.13 19.2109L23.0655 19.1816C22.9171 19.2168 22.8429 19.248 22.8429 19.2754C22.5226 19.2129 22.3214 19.1816 22.2394 19.1816H22.1749C22.1554 19.1816 22.1456 19.1914 22.1456 19.2109L22.0812 19.1816L22.0167 19.2109C21.9933 19.2109 21.962 19.2012 21.923 19.1816L21.7296 19.2109H21.6652C21.6261 19.2109 21.6066 19.1895 21.6066 19.1465C21.5636 19.1465 21.5421 19.1582 21.5421 19.1816L21.2198 19.1465H20.3351C20.3351 19.1074 20.3234 19.0879 20.2999 19.0879C19.7765 19.0879 19.3839 19.0664 19.1222 19.0234V19.0527C19.087 19.0332 18.9601 19.0117 18.7413 18.9883V19.0234L18.2316 18.9238L18.173 18.959L18.0089 18.9238L18.0441 18.7656V18.543L18.0089 18.3848L18.0734 18.3555C17.9601 16.5117 17.8761 15.5898 17.8214 15.5898V15.5254H17.8507L17.8214 15.4609V15.3672C17.8214 15.3438 17.8312 15.332 17.8507 15.332L17.8214 15.2676V14.8867C17.8214 14.8711 17.7999 14.7871 17.757 14.6348H17.7863L17.5636 13.2344C17.5167 12.6172 17.4757 12.2793 17.4405 12.2207L17.4698 12.1562L17.3761 11.7754H17.4054C17.2999 11.4512 17.2472 11.2383 17.2472 11.1367L17.2823 11.0723L16.9952 9.61328C16.9952 9.58984 16.9738 9.57812 16.9308 9.57812V9.32617C16.88 9.01367 16.837 8.83398 16.8019 8.78711V8.56445C16.8019 8.54102 16.7804 8.45508 16.7374 8.30664L16.7726 8.24219C16.7413 8.24219 16.6984 8.1582 16.6437 7.99023L16.673 7.92578C16.6105 7.57031 16.5577 7.32617 16.5148 7.19336C16.5382 7.19336 16.5499 7.18359 16.5499 7.16406C16.507 7.16406 16.4757 7.02539 16.4562 6.74805C16.4288 6.74805 16.3956 6.64258 16.3566 6.43164C16.38 6.43164 16.3917 6.42188 16.3917 6.40234H16.3273V6.33789C16.3273 6.29492 16.1788 5.83789 15.882 4.9668C15.839 4.64258 15.7433 4.25195 15.5948 3.79492C15.8605 3.51758 16.0089 3.37891 16.0402 3.37891C16.0402 3.39844 16.0499 3.4082 16.0695 3.4082C16.0695 3.37695 16.1027 3.30469 16.1691 3.19141L16.2335 3.2207V3.19141H16.1984C16.1984 3.15625 16.3155 2.96484 16.5499 2.61719L16.6144 2.64648C16.6925 2.43555 16.7765 2.33008 16.8663 2.33008L16.837 2.26562C16.9425 2.14453 16.9952 2.04883 16.9952 1.97852C17.132 1.88477 17.2062 1.78906 17.2179 1.69141C17.2921 1.69141 18.0343 1.4707 19.4445 1.0293C19.4913 1.0293 19.7023 0.955078 20.0773 0.806641C20.1671 0.806641 20.6866 0.625 21.6359 0.261719C21.9015 0.136719 22.0812 0.0742188 22.1749 0.0742188ZM20.2999 1.47461C20.2999 1.50195 20.4054 1.60742 20.6163 1.79102L20.7745 1.59766C20.7433 1.59766 20.6691 1.52344 20.5519 1.375C20.4347 1.44141 20.3507 1.47461 20.2999 1.47461ZM29.5519 1.47461L29.5226 1.5332C30.5538 2.61523 31.1144 3.15625 31.2042 3.15625C31.3175 3.15625 31.4132 3.17773 31.4913 3.2207V3.19141C30.4132 2.06641 29.8312 1.50391 29.7452 1.50391L29.5519 1.47461ZM30.3488 1.63281C31.5402 2.81641 32.1534 3.4082 32.1886 3.4082C32.3136 3.43164 32.4523 3.47461 32.6046 3.53711V3.50781C31.3702 2.27734 30.7335 1.66211 30.6945 1.66211C30.5812 1.64258 30.4874 1.63281 30.4132 1.63281V1.56836C30.3702 1.57227 30.3488 1.59375 30.3488 1.63281ZM19.7609 1.66211V1.69141C19.7609 1.71875 19.9405 1.90039 20.2999 2.23633L20.4288 2.04297C20.4288 2.01172 20.2804 1.86328 19.9835 1.59766L19.7609 1.66211ZM21.507 1.63281L21.4425 1.85547C21.4425 1.88281 21.5382 1.97656 21.7296 2.13672V2.10742C21.6866 2.03711 21.6652 1.98438 21.6652 1.94922H21.7003C21.6613 1.73828 21.6085 1.63281 21.5421 1.63281H21.507ZM25.421 1.72656C25.378 1.86328 25.3566 1.94727 25.3566 1.97852L26.0245 2.61719C25.9269 2.22656 25.7355 1.92969 25.4503 1.72656H25.421ZM31.2687 1.75586C31.7609 2.27539 32.3644 2.88086 33.0792 3.57227L33.1788 3.31445C32.1945 2.3418 31.6847 1.85547 31.6495 1.85547C31.4191 1.78906 31.2921 1.75586 31.2687 1.75586ZM19.1573 1.85547C19.1573 1.88281 19.3898 2.11523 19.8546 2.55273C19.9913 2.50977 20.0773 2.48828 20.1124 2.48828C19.6788 2.02344 19.4347 1.79102 19.38 1.79102C19.3136 1.83398 19.2394 1.85547 19.1573 1.85547ZM29.3937 1.85547C29.3507 2.02734 29.3292 2.12109 29.3292 2.13672C29.8995 2.71094 30.2179 2.99805 30.2843 2.99805C30.3976 3.01758 30.4933 3.02734 30.5714 3.02734C30.5714 3 30.1788 2.60937 29.3937 1.85547ZM18.6124 2.04297V2.07812C18.6124 2.10547 18.8253 2.31641 19.2511 2.71094H19.4093C19.4405 2.71094 19.4718 2.67969 19.503 2.61719C19.4757 2.61719 19.2648 2.4043 18.8702 1.97852C18.7101 2.02148 18.6241 2.04297 18.6124 2.04297ZM32.253 1.97852C32.2609 2.01367 32.6007 2.35352 33.2726 2.99805C33.3351 2.83789 33.3663 2.75391 33.3663 2.74609C32.9249 2.30078 32.6613 2.07812 32.5753 2.07812L32.253 1.97852ZM21.2843 2.13672C21.2023 2.23437 21.1613 2.30859 21.1613 2.35938L21.8585 3.02734C21.8585 2.72266 21.7316 2.49023 21.4777 2.33008C21.4777 2.29883 21.4132 2.23437 21.2843 2.13672ZM18.0441 2.23633V2.26562C18.0441 2.29297 18.2765 2.52734 18.7413 2.96875C18.7413 2.91797 18.8155 2.88477 18.964 2.86914C18.964 2.8418 18.7413 2.61914 18.296 2.20117H18.2667L18.0441 2.23633ZM25.1984 2.23633C25.1984 2.28711 25.1652 2.37109 25.0988 2.48828L26.4054 3.75977V3.73047C26.4054 3.46094 26.2355 3.19531 25.8956 2.93359C25.8956 2.90625 25.6632 2.67383 25.1984 2.23633ZM17.628 2.33008L17.5343 2.55273L18.1085 3.0918L18.3605 3.02734C17.9308 2.5625 17.6866 2.33008 17.628 2.33008ZM29.2003 2.42383L29.1417 2.71094C29.1808 2.75391 29.3605 2.81836 29.6808 2.9043C29.6808 2.87695 29.5206 2.7168 29.2003 2.42383ZM20.9972 2.61719C20.9347 2.74609 20.9034 2.83008 20.9034 2.86914L21.9874 3.91797C21.9874 3.60547 21.839 3.35156 21.5421 3.15625C21.5421 3.12891 21.3605 2.94922 20.9972 2.61719ZM17.3761 2.83984C17.3761 2.88672 17.3448 2.94922 17.2823 3.02734L17.4698 3.25C17.5753 3.1875 17.6613 3.15625 17.7277 3.15625C17.7277 3.12891 17.6202 3.02344 17.4054 2.83984H17.3761ZM25.0402 2.83984V2.86914C25.0675 2.86914 25.13 3.03906 25.2277 3.37891L26.7863 4.9082V4.87305C26.7159 4.5293 26.5988 4.31836 26.4347 4.24023C26.4347 4.20898 25.9698 3.74219 25.0402 2.83984ZM19.4738 3.44336V3.4082C18.6495 3.74805 18.087 3.91797 17.7863 3.91797C17.7863 3.94922 17.7023 3.9707 17.5343 3.98242C17.5343 3.96289 17.5245 3.95312 17.505 3.95312C17.4581 4.00781 17.1613 4.10352 16.6144 4.24023C16.6144 4.31055 16.6671 4.49023 16.7726 4.7793H16.7374C16.7609 4.86133 16.7941 4.93555 16.837 5.00195H16.8019C16.8448 5.07227 16.8761 5.17773 16.8956 5.31836H16.8663C16.9288 5.4707 16.9601 5.55469 16.9601 5.57031H16.9308L16.9601 5.63477C16.9601 5.6582 16.9503 5.66992 16.9308 5.66992C16.9738 5.81055 17.048 6.18164 17.1534 6.7832C17.1964 6.7832 17.2179 6.82422 17.2179 6.90625H17.1827C17.2648 7.30859 17.3175 7.50977 17.3409 7.50977C17.3409 7.5957 17.4269 8.02148 17.5988 8.78711C17.5988 8.91211 17.6202 8.99609 17.6632 9.03906V9.32617C17.6945 9.37305 17.7257 9.46875 17.757 9.61328L17.7277 9.67188V9.70703C17.8097 9.79297 17.8937 10.1328 17.9796 10.7266H18.0089C18.0089 10.7461 17.9991 10.7559 17.9796 10.7559C18.0148 11.0527 18.046 11.2012 18.0734 11.2012L18.0441 11.2656C18.0753 11.293 18.1066 11.4199 18.1378 11.6465C18.1613 11.6465 18.173 11.6562 18.173 11.6758V11.8984C18.212 12.0508 18.2316 12.1367 18.2316 12.1562H18.2023C18.2413 12.1562 18.3058 12.6543 18.3956 13.6504C18.4347 13.6543 18.4542 13.6758 18.4542 13.7148V13.7441C18.4542 13.7637 18.4445 13.7734 18.4249 13.7734C18.4679 14.0664 18.5109 14.2363 18.5538 14.2832V14.6992L18.6124 14.9219H18.5831L18.6124 14.9863V15.3672C18.6124 15.3867 18.6241 15.3965 18.6476 15.3965L18.6124 15.4609C18.6124 15.4805 18.6241 15.4902 18.6476 15.4902L18.6124 15.5547V15.7129L18.6476 15.7773C18.6241 15.7773 18.6124 15.7891 18.6124 15.8125C18.6788 15.8125 18.753 16.4805 18.8351 17.8164V18.0977C18.8351 18.1367 18.9308 18.1699 19.1222 18.1973C19.1222 18.2168 19.1339 18.2266 19.1573 18.2266H19.7902L19.8898 18.291H20.2062C20.253 18.291 20.296 18.3008 20.3351 18.3203C20.3702 18.3008 20.4113 18.291 20.4581 18.291H20.5519C20.5753 18.291 20.587 18.3008 20.587 18.3203L20.6515 18.291C20.7023 18.291 20.798 18.3125 20.9386 18.3555V18.3203L20.9972 18.3555H21.1905L21.255 18.3203C21.255 18.3516 21.3077 18.3848 21.4132 18.4199L21.6359 18.3848H21.7941C21.8409 18.3848 21.8839 18.3965 21.923 18.4199C21.9425 18.4199 21.9523 18.4082 21.9523 18.3848L22.1105 18.4199H22.2745C22.38 18.4199 22.5382 18.4297 22.7491 18.4492C22.7491 18.3711 22.7804 18.2871 22.8429 18.1973V17.9746C22.9132 17.9746 23.0187 17.6562 23.1593 17.0195L23.2882 16.7617V16.4805C23.2882 16.457 23.2999 16.4453 23.3234 16.4453L23.2882 16.3809V16.3223H23.3527V16.2578C23.3527 16.2422 23.4484 15.8809 23.6398 15.1738H23.6046C23.6359 15.0566 23.6691 14.9727 23.7042 14.9219H23.6691L23.7042 14.8574L23.6691 14.793C23.712 14.793 23.798 14.4434 23.9269 13.7441C23.9425 13.5098 23.964 13.3926 23.9913 13.3926L24.1788 12.8535C24.1593 12.8535 24.1495 12.8438 24.1495 12.8242C24.1886 12.8242 24.2081 12.8027 24.2081 12.7598H24.1788C24.2218 12.7012 24.253 12.541 24.2726 12.2793C24.3312 12.2793 24.3839 12.0156 24.4308 11.4883H24.4015C24.503 11.3203 24.5773 11.0859 24.6241 10.7852H24.6886V10.7559C24.6886 10.7363 24.6769 10.7266 24.6534 10.7266C24.6886 10.6406 24.7218 10.5977 24.753 10.5977H24.8468C24.9327 11.043 24.9972 11.2871 25.0402 11.3301C25.0402 11.3496 25.0284 11.3594 25.005 11.3594C25.005 11.375 25.048 11.4922 25.1339 11.7109V11.9336C25.1769 12.043 25.2394 12.541 25.3214 13.4277H25.2921C25.3429 13.5918 25.3859 13.6973 25.421 13.7441C25.3976 13.7871 25.3859 13.8184 25.3859 13.8379H25.421C25.421 13.8613 25.4093 13.873 25.3859 13.873C25.4093 14.0371 25.4425 14.1641 25.4855 14.2539C25.4855 14.2734 25.4738 14.2832 25.4503 14.2832C25.4503 14.3496 25.4933 14.5508 25.5792 14.8867V15.2676C25.5792 15.291 25.589 15.3027 25.6085 15.3027L25.5792 15.3672C25.6144 15.457 25.6456 15.584 25.673 15.748C25.673 15.7676 25.6632 15.7773 25.6437 15.7773L25.7081 16.0352C25.6847 16.0352 25.673 16.0449 25.673 16.0645H25.7374V16.1289C25.7374 16.1484 25.7277 16.1582 25.7081 16.1582C25.7277 16.3926 25.7472 16.5098 25.7667 16.5098C25.7667 16.5332 25.757 16.5449 25.7374 16.5449L25.8663 17.0195H25.8312C25.8976 17.1641 25.9308 17.248 25.9308 17.2715H25.8956L25.9894 17.5586L25.9601 17.623C26.0382 17.9199 26.0909 18.0684 26.1183 18.0684C26.8058 17.9629 27.3038 17.8359 27.6124 17.6875C27.7296 17.6875 28.1652 17.5918 28.9191 17.4004V17.4297C29.3566 17.3047 29.589 17.2207 29.6163 17.1777C29.6593 17.1309 29.7023 16.9922 29.7452 16.7617C29.7218 16.7617 29.7101 16.752 29.7101 16.7324C29.7335 16.7324 29.7452 16.7227 29.7452 16.7031H29.7101L29.9679 15.9062H29.9327C29.9757 15.8359 29.9972 15.7715 29.9972 15.7129V15.5547H30.0616V15.4609C30.1241 15.3047 30.2198 14.8281 30.3488 14.0312L30.4132 13.9668L30.378 13.9023L30.4425 13.8086V13.6152C30.6105 12.9512 30.6945 12.5918 30.6945 12.5371H30.6652C30.7081 12.4043 30.7296 12.3184 30.7296 12.2793C30.7062 12.2793 30.6945 12.2695 30.6945 12.25C30.7374 12.25 30.7706 12.1445 30.7941 11.9336C30.8488 11.8672 30.9327 11.4844 31.046 10.7852H31.0812C31.0577 10.7461 31.046 10.7148 31.046 10.6914L31.2394 10.1523C31.2159 10.1523 31.2042 10.1406 31.2042 10.1172C31.2394 10.1172 31.2726 10.0547 31.3038 9.92969L31.2687 9.86523C31.382 9.36523 31.4562 9.08008 31.4913 9.00977L31.462 8.8457C31.5011 8.8457 31.5538 8.71875 31.6202 8.46484C31.6359 8.35938 31.6671 8.30664 31.714 8.30664V8.08398C31.757 8.0293 31.8527 7.66992 32.0011 7.00586C32.1066 6.84961 32.2238 6.39258 32.3527 5.63477C32.3683 5.61914 32.421 5.49219 32.5109 5.25391H32.4757C32.5929 4.85547 32.6671 4.64453 32.6984 4.62109V4.39844L32.13 4.20508V4.24023C31.3878 4.00586 30.7941 3.86719 30.3488 3.82422C30.2784 3.82422 30.0558 3.77148 29.6808 3.66602H29.6456V3.69531L29.587 3.66602H29.5519C29.5323 3.66602 29.5226 3.67578 29.5226 3.69531C29.2609 3.64062 29.1007 3.58789 29.0421 3.53711C28.8937 3.53711 28.8195 3.68555 28.8195 3.98242C28.7648 4.59961 28.712 4.9082 28.6613 4.9082C28.6613 4.92773 28.673 4.9375 28.6964 4.9375L28.6613 5.0957L28.6964 5.25391C28.6261 5.45312 28.5616 5.79297 28.503 6.27344V6.43164L28.4386 6.52539V6.58984C28.4386 6.91797 28.3019 7.61719 28.0284 8.6875C28.048 8.6875 28.0577 8.69922 28.0577 8.72266H28.0284C28.048 8.76172 28.0577 8.79297 28.0577 8.81641C27.9093 9.17188 27.8351 9.47852 27.8351 9.73633L27.7062 9.89453C27.7062 9.91797 27.7179 9.92969 27.7413 9.92969L27.5831 10.4395C27.5128 10.9473 27.4601 11.2754 27.4249 11.4238C27.3234 11.4238 27.2491 11.2656 27.2023 10.9492C27.1593 10.9492 27.0519 10.6523 26.88 10.0586C26.8175 10 26.6905 9.63867 26.4991 8.97461L25.5441 6.40234C25.2277 5.62109 24.9308 4.69727 24.6534 3.63086H24.6241C24.5695 3.63086 24.5167 3.72656 24.4659 3.91797H24.4952C24.4952 3.9375 24.4542 4.00195 24.3722 4.11133C24.3917 4.15039 24.4015 4.18164 24.4015 4.20508C24.1632 4.5332 24.005 4.88281 23.9269 5.25391C23.8214 5.35938 23.7687 5.49805 23.7687 5.66992C23.6749 5.66992 23.6007 5.80664 23.546 6.08008H23.5753C23.4152 6.56836 23.298 6.86523 23.2238 6.9707H23.1945V7.19336C23.089 7.56836 22.9718 7.89648 22.8429 8.17773C22.8429 8.20117 22.8546 8.21289 22.878 8.21289C22.8546 8.29492 22.8214 8.36914 22.7784 8.43555L22.8136 8.5C22.7667 8.5 22.6183 8.99805 22.3683 9.99414L21.9523 11.0723H21.8878C21.8878 11.0293 21.8136 10.9453 21.6652 10.8203C21.6652 10.6836 21.6456 10.5879 21.6066 10.5332H21.6359C21.5304 10.252 21.4777 10.1035 21.4777 10.0879H21.507C21.4015 9.68555 21.2433 8.94336 21.0323 7.86133C20.9503 7.56445 20.8976 7.41602 20.8741 7.41602L20.9034 7.28711L20.8741 7.07031H20.9034C20.8409 6.92969 20.757 6.51562 20.6515 5.82812C20.628 5.82812 20.6163 5.81641 20.6163 5.79297H20.6515C20.5851 5.40625 20.5323 5.18555 20.4933 5.13086C20.5128 5.13086 20.5226 5.11914 20.5226 5.0957H20.4933L20.5519 4.9082C20.5323 4.8418 20.5128 4.80859 20.4933 4.80859L20.5226 4.65039V4.58594H20.4581V4.01758L20.3937 3.91797V3.73047L20.3644 3.50781C20.3839 3.50781 20.3937 3.49609 20.3937 3.47266C20.3546 3.47266 20.3351 3.45117 20.3351 3.4082V3.2207C20.1124 3.2207 19.8253 3.29492 19.4738 3.44336ZM20.9386 3.31445C20.9738 3.36133 21.005 3.50977 21.0323 3.75977L22.1749 4.87305C22.1749 4.56836 21.9855 4.27148 21.6066 3.98242C21.6066 3.95508 21.3839 3.73242 20.9386 3.31445ZM25.421 3.98242V4.07617L25.4855 4.17578V4.20508C25.4855 4.22852 25.4738 4.24023 25.4503 4.24023C25.4503 4.35742 26.0441 4.98242 27.2316 6.11523C27.2316 6.0293 27.1573 5.85938 27.0089 5.60547C27.0089 5.54688 26.4796 5.00586 25.421 3.98242ZM21.1613 4.29883V4.36328C21.1613 4.62109 21.2765 4.82227 21.507 4.9668C21.507 4.99805 21.7726 5.26367 22.3038 5.76367C22.3038 5.4707 22.1866 5.24805 21.9523 5.0957C21.9523 5.06445 21.6886 4.79883 21.1613 4.29883ZM25.7374 5.06641V5.0957L25.8663 5.34766H25.8312C25.8429 5.47266 26.0968 5.78125 26.5929 6.27344L27.548 7.19336C27.5714 7.1543 27.5831 7.12305 27.5831 7.09961C27.5402 6.89258 27.4015 6.67969 27.1671 6.46094L25.7374 5.06641ZM21.2198 5.13086C21.2198 5.42773 21.3488 5.66016 21.6066 5.82812C21.6066 5.85547 21.8702 6.12109 22.3976 6.625V6.58984C22.3429 6.27344 22.2804 6.11523 22.2101 6.11523C22.2101 6.08789 21.88 5.75977 21.2198 5.13086ZM21.4425 6.11523V6.27344C21.4816 6.32031 21.5148 6.41602 21.5421 6.56055L22.3976 7.38672L22.4913 7.22852V7.16406C22.4913 7.13672 22.1417 6.78711 21.4425 6.11523ZM26.212 6.30273V6.36719C26.2667 6.53906 26.3195 6.625 26.3702 6.625V6.6543C26.3702 6.67383 26.3605 6.68359 26.3409 6.68359C26.3409 6.77734 26.6808 7.13867 27.3605 7.76758C27.4113 7.76758 27.4425 7.68164 27.4542 7.50977L26.212 6.30273ZM21.6359 7.07031C21.6359 7.37109 21.7198 7.56055 21.8878 7.63867C21.8878 7.66602 21.9952 7.77148 22.2101 7.95508H22.2394C22.2394 7.89258 22.2609 7.80859 22.3038 7.70312L21.6359 7.07031ZM26.6573 7.50977V7.54492C26.7823 7.91992 26.9835 8.2168 27.2609 8.43555C27.2609 8.35742 27.2823 8.29297 27.3253 8.24219C27.3253 8.16016 27.1027 7.91602 26.6573 7.50977ZM21.8292 8.05469V8.08398L21.9874 8.5C21.9913 8.54297 22.0128 8.56445 22.0519 8.56445C22.0909 8.42383 22.1105 8.32812 22.1105 8.27734L21.8585 8.05469H21.8292ZM44.6194 1.22852C44.6975 1.22852 44.8459 1.82227 45.0647 3.00977C45.1194 3.00977 45.2678 3.67773 45.51 5.01367C45.9358 7.19727 46.3186 9.04492 46.6584 10.5566C47.3811 14.0605 47.7424 15.8418 47.7424 15.9004C47.5549 16.0527 47.2248 16.7109 46.7522 17.875C46.6194 18.1719 46.4924 18.3203 46.3713 18.3203C46.0745 18.4844 45.5862 18.623 44.9065 18.7363C44.9065 18.7559 44.8967 18.7656 44.8772 18.7656C44.8772 18.7227 44.8557 18.7012 44.8127 18.7012H44.7776C44.7268 18.7441 44.6858 18.7656 44.6545 18.7656L44.4963 18.7363C44.4729 18.7988 44.4084 18.8301 44.303 18.8301H43.9221C43.9221 18.873 43.9104 18.8945 43.887 18.8945C43.7541 18.8945 43.469 18.9473 43.0315 19.0527C42.6995 19.0957 42.5295 19.1172 42.5217 19.1172C42.2561 19.1172 42.0745 19 41.9768 18.7656V18.7363C41.9768 18.7129 41.9885 18.7012 42.012 18.7012L41.883 18.3203L41.9123 18.2559C41.8733 18.1074 41.842 18.0332 41.8186 18.0332L41.8538 17.9746C41.8303 17.7715 41.8088 17.6543 41.7893 17.623H41.8186C41.7756 17.5449 41.7131 17.2051 41.6311 16.6035L41.5666 16.5391C41.5666 16.5195 41.5764 16.5098 41.5959 16.5098C41.5647 15.9785 41.512 15.7129 41.4377 15.7129H41.2795C41.1311 15.7129 41.0569 15.8613 41.0569 16.1582C40.8577 17.2363 40.7405 17.7871 40.7053 17.8105C40.3264 18.1113 39.9123 18.4629 39.4631 18.8652C39.1311 19.1191 38.8127 19.2461 38.508 19.2461C38.3948 19.2031 38.1936 19.1602 37.9045 19.1172C37.9045 19.0977 37.8928 19.0879 37.8694 19.0879H37.5881C37.5452 19.0879 37.5237 19.0664 37.5237 19.0234L37.4592 19.0527C37.0998 18.9707 36.76 18.9082 36.4397 18.8652C36.4397 18.8223 36.4182 18.8008 36.3752 18.8008H36.0588C36.0588 18.7578 35.6233 18.6934 34.7522 18.6074C34.6038 18.5645 34.5295 18.502 34.5295 18.4199L34.7522 17.875H34.7229C34.8127 17.6562 34.928 17.3066 35.0686 16.8262C35.1038 16.6973 35.137 16.6328 35.1682 16.6328L35.133 16.5684V16.5098L35.3557 15.9648H35.3909V15.8711C35.3909 15.8281 35.4436 15.668 35.5491 15.3906L35.5139 15.332C35.6623 14.9102 35.7795 14.5059 35.8655 14.1191L36.2463 12.877C36.2268 12.877 36.217 12.8672 36.217 12.8477C36.26 12.8477 36.2913 12.7402 36.3108 12.5254C36.3772 12.209 36.5256 11.7227 36.7561 11.0664L36.7268 11.002C36.8909 10.3652 37.008 10.0469 37.0784 10.0469C37.2463 9.30859 37.4045 8.73438 37.553 8.32422C37.6038 7.94531 37.6565 7.75586 37.7112 7.75586C37.7112 7.73242 37.7014 7.7207 37.6819 7.7207L38.0627 6.32031C38.0901 6.15625 38.1213 6.05078 38.1565 6.00391H38.1272C38.2952 5.44141 38.4338 4.90039 38.5432 4.38086C38.5627 4.38086 38.5725 4.36914 38.5725 4.3457L38.5432 4.28125C38.5901 4.28125 38.6428 4.10156 38.7014 3.74219C38.7991 3.4375 39.0217 3.15039 39.3694 2.88086C39.3694 2.8457 39.4436 2.76172 39.592 2.62891C39.928 2.16016 40.1819 1.88477 40.3538 1.80273C40.3538 1.69336 40.5022 1.58594 40.7991 1.48047L40.9573 1.51562H41.344L41.4084 1.54492C41.4084 1.52539 41.4182 1.51562 41.4377 1.51562V1.54492C41.4768 1.52539 41.508 1.51562 41.5315 1.51562C41.5979 1.51562 41.7366 1.53711 41.9475 1.58008V1.54492L42.012 1.58008C42.0549 1.58008 42.0764 1.55859 42.0764 1.51562C42.0959 1.51562 42.1057 1.52539 42.1057 1.54492L42.2639 1.51562L42.3284 1.54492C42.4377 1.50195 42.512 1.48047 42.551 1.48047V1.51562C43.2815 1.32422 43.9709 1.22852 44.6194 1.22852ZM41.2151 1.99023L42.1702 2.98047L42.2346 2.94531H42.2991C42.3186 2.94531 42.3284 2.95703 42.3284 2.98047C42.3635 2.95703 42.4163 2.94531 42.4866 2.94531C41.8655 2.28906 41.5256 1.96094 41.467 1.96094C41.4514 1.96094 41.3674 1.9707 41.2151 1.99023ZM42.7092 1.96094C42.7092 1.98828 42.8694 2.14648 43.1897 2.43555C43.2209 2.43555 43.2737 2.37305 43.3479 2.24805L43.0315 1.96094H42.7092ZM40.6409 2.14844V2.18359C40.6604 2.22656 40.9358 2.50195 41.467 3.00977L41.6311 2.98047L41.7893 3.00977C41.7893 2.98242 41.4592 2.6543 40.7991 2.02539H40.7698C40.7346 2.02539 40.6916 2.06641 40.6409 2.14844ZM42.012 2.02539C42.0159 2.05273 42.301 2.33789 42.8674 2.88086L42.9963 2.72266V2.69336C42.9963 2.66211 42.7737 2.43945 42.3284 2.02539H42.012ZM43.9514 2.11914C43.9514 2.13867 43.9084 2.20313 43.8225 2.3125C43.8225 2.33984 44.0354 2.55078 44.4612 2.94531C44.4612 2.64844 44.3342 2.41602 44.0803 2.24805C44.0803 2.21289 44.0373 2.16992 43.9514 2.11914ZM40.4182 2.40625C40.4182 2.46484 40.387 2.51758 40.3245 2.56445H40.2893V2.59375C40.2893 2.62109 40.4709 2.80273 40.8342 3.13867C40.9827 3.0957 41.0666 3.07422 41.0862 3.07422C41.0862 3.04688 40.8635 2.82422 40.4182 2.40625ZM43.635 2.59375C43.635 2.64453 43.6038 2.70898 43.5413 2.78711C43.5452 2.81836 43.9163 3.18945 44.6545 3.90039L44.6194 3.83594C44.6194 3.78906 44.6311 3.74805 44.6545 3.71289C44.6545 3.56445 44.3245 3.19141 43.6643 2.59375H43.635ZM39.9084 3.00977L40.1311 3.20312H40.4534L40.1018 2.81641C40.0549 2.82031 39.9905 2.88477 39.9084 3.00977ZM43.3772 3.07422L43.3479 3.23242H43.3772L43.3479 3.29688V3.32617C43.3518 3.38867 43.8401 3.88867 44.8127 4.82617V4.79102C44.8127 4.51367 44.717 4.32227 44.5256 4.2168C44.5256 4.19336 44.1428 3.8125 43.3772 3.07422ZM42.3635 3.67773C42.3205 3.6582 42.2873 3.64844 42.2639 3.64844C42.2639 3.68359 42.1155 3.72461 41.8186 3.77148C41.7991 3.77148 41.7893 3.76172 41.7893 3.74219C41.719 3.74219 41.4631 3.79492 41.0217 3.90039L40.9573 3.87109C40.9377 3.87109 40.928 3.88086 40.928 3.90039C40.76 3.88867 40.676 3.86719 40.676 3.83594C40.633 3.87109 40.4299 3.9043 40.0666 3.93555C40.0276 3.91211 39.9963 3.90039 39.9729 3.90039C39.8674 3.93945 39.635 3.99219 39.2756 4.05859C39.1663 4.41016 39.0901 4.71875 39.0471 4.98438C39.0276 4.98438 39.0178 4.99414 39.0178 5.01367H39.0471C38.9534 5.41211 38.8694 5.69922 38.7952 5.875C38.7952 6.02344 38.7737 6.09766 38.7307 6.09766L38.7659 6.16211C38.6995 6.24805 38.6663 6.375 38.6663 6.54297H38.7014C38.553 6.92969 38.4788 7.15234 38.4788 7.21094L38.2561 7.97852C38.2561 8.04102 38.1819 8.34766 38.0334 8.89844C38.0334 8.97656 38.012 9.04102 37.969 9.0918H37.9983C37.8186 9.83398 37.6819 10.2051 37.5881 10.2051C37.4123 11.2012 37.2737 11.6992 37.1721 11.6992V11.9219C37.0862 12.0625 37.0432 12.1895 37.0432 12.3027C37.0666 12.3027 37.0784 12.3145 37.0784 12.3379C37.0354 12.3379 36.9709 12.5078 36.885 12.8477L36.9143 12.9121C36.8518 13.0645 36.8205 13.1602 36.8205 13.1992H36.8557C36.6877 13.543 36.5393 13.9766 36.4104 14.5C36.3713 14.5 36.3498 14.6074 36.3459 14.8223V14.9453C36.303 15.0117 36.2698 15.0859 36.2463 15.168C36.2698 15.168 36.2815 15.1797 36.2815 15.2031C36.2346 15.2031 36.1916 15.3203 36.1526 15.5547L36.0881 15.584C36.0881 15.6035 36.0998 15.6133 36.1233 15.6133C36.1233 15.6602 36.0373 15.916 35.8655 16.3809L35.5139 17.4004H35.5491C35.51 17.502 35.4788 17.6289 35.4553 17.7812C35.4553 17.8945 35.6233 17.959 35.9592 17.9746V18.0039C36.0022 17.9844 36.0354 17.9746 36.0588 17.9746L36.1877 18.0332L36.2463 18.0039C36.762 18.1328 37.0393 18.1973 37.0784 18.1973C37.7854 18.3027 38.2092 18.3555 38.3498 18.3555C38.4788 18.0859 38.6702 17.4805 38.9241 16.5391H38.8889C39.0178 16.2852 39.135 15.9141 39.2405 15.4258V15.2676C39.2873 15.2676 39.3303 15.2246 39.3694 15.1387L39.4338 15.168C39.4534 15.168 39.4631 15.1582 39.4631 15.1387L39.5276 15.168H39.5569C39.635 15.1055 39.7092 15.0742 39.7795 15.0742H39.844C39.8674 15.0742 39.8791 15.0859 39.8791 15.1094C39.9221 15.0898 40.0373 15.0684 40.2248 15.0449C40.2483 15.0449 40.26 15.0547 40.26 15.0742L40.4182 15.0449C41.0784 15.0215 41.4084 14.9883 41.4084 14.9453C41.428 14.9453 41.4377 14.957 41.4377 14.9805C41.7151 14.957 41.8538 14.9258 41.8538 14.8867C42.0139 14.9141 42.1291 14.9883 42.1995 15.1094V15.3613C42.1995 15.4199 42.2209 15.4844 42.2639 15.5547C42.2639 15.5742 42.2541 15.584 42.2346 15.584C42.2346 15.9043 42.2776 16.0645 42.3635 16.0645V16.1582C42.3635 16.1777 42.3518 16.1875 42.3284 16.1875L42.551 16.9551C42.6995 17.8457 42.8264 18.291 42.9319 18.291L43.4768 18.1973V18.2266C43.6291 18.168 44.1057 18.0938 44.9065 18.0039H45.1291L45.1936 17.9746V18.0039C45.3069 17.9609 45.4553 17.9395 45.6389 17.9395V17.9746C45.8303 17.9043 45.926 17.8496 45.926 17.8105C45.926 17.6074 45.8733 17.4277 45.7678 17.2715C45.6663 17.0566 45.5803 16.7168 45.51 16.252C45.5334 16.252 45.5452 16.2422 45.5452 16.2227C45.5022 16.2227 45.4065 15.9355 45.258 15.3613C45.258 15.291 45.2268 15.1953 45.1643 15.0742H45.1936L45.0998 14.916C45.1194 14.873 45.1291 14.8418 45.1291 14.8223C45.0862 14.8223 45.0647 14.8008 45.0647 14.7578C45.0881 14.7188 45.0998 14.6758 45.0998 14.6289C45.0569 14.6289 45.0354 14.6074 45.0354 14.5645C45.0549 14.5645 45.0647 14.5547 45.0647 14.5352C45.0139 14.5352 44.8987 14.0898 44.719 13.1992C44.719 13.082 44.6545 12.8789 44.5256 12.5898C44.5452 12.5898 44.5549 12.5801 44.5549 12.5605H44.5256L44.5549 12.4961V12.4668C44.5198 12.4199 44.4885 12.3125 44.4612 12.1445C44.4299 12.1445 44.3772 11.9219 44.303 11.4766C44.2561 11.1953 44.1916 10.9297 44.1096 10.6797C44.1096 10.6602 44.1213 10.6504 44.1448 10.6504C44.0784 10.291 44.0041 9.96289 43.9221 9.66602L43.9514 9.60156C43.9006 9.42969 43.8694 9.34375 43.8577 9.34375L43.887 9.2793V9.15625C43.8245 9.11719 43.7405 8.80859 43.635 8.23047L43.5061 7.87891C43.5295 7.87891 43.5413 7.86914 43.5413 7.84961H43.5061C43.5295 7.80664 43.5413 7.77539 43.5413 7.75586C43.4123 7.42383 43.3362 7.10547 43.3127 6.80078C43.2854 6.80078 43.2541 6.70508 43.219 6.51367H43.2541C43.2112 6.43555 43.1565 6.20117 43.0901 5.81055H43.0608L43.0901 5.74609V5.7168L43.0608 5.65234H43.0901C43.0705 5.60156 43.051 5.49609 43.0315 5.33594C43.0705 5.33594 43.0901 5.31445 43.0901 5.27148C43.0198 5.27148 42.9573 5.04883 42.9026 4.60352H42.9319L42.7444 3.64844L42.6799 3.61328C42.5041 3.63672 42.3987 3.6582 42.3635 3.67773ZM43.5061 3.96484V3.99414C43.5413 3.99414 43.6057 4.16406 43.6995 4.50391L45.0002 5.78125V5.74609C44.9338 5.40234 44.8186 5.19141 44.6545 5.11328C44.6545 5.08594 44.2717 4.70312 43.5061 3.96484ZM43.7932 5.01367V5.07812C43.7932 5.14062 43.8245 5.22656 43.887 5.33594H43.8577C43.8577 5.41797 44.303 5.88477 45.1936 6.73633L45.1291 6.54297H45.1643C45.1643 6.375 45.0256 6.18359 44.7483 5.96875C44.7483 5.94531 44.4299 5.62695 43.7932 5.01367ZM44.0159 6.00391V6.06836C44.0159 6.32227 44.1213 6.51172 44.3323 6.63672C44.3401 6.67188 44.6799 7.01172 45.3518 7.65625V7.62695C45.3518 7.3418 45.2034 7.09766 44.9065 6.89453C44.9065 6.86719 44.6096 6.57031 44.0159 6.00391ZM44.1448 6.89453C44.1877 7.05078 44.2092 7.15625 44.2092 7.21094H44.1741C44.1741 7.26953 44.6526 7.75781 45.6096 8.67578V8.64648C45.5237 8.2832 45.3752 8.03906 45.1643 7.91406C45.1643 7.88672 44.8245 7.54688 44.1448 6.89453ZM44.303 7.81445V7.84961C44.3186 7.93555 44.3401 7.97852 44.3674 7.97852L44.3323 8.03711C44.3323 8.18555 44.6721 8.56836 45.3518 9.18555C45.3518 9.21289 45.512 9.37305 45.8323 9.66602V9.63086C45.7893 9.36523 45.7151 9.18555 45.6096 9.0918L44.303 7.81445ZM40.8635 8.16602H40.8987C41.2151 8.35742 41.3733 8.66602 41.3733 9.0918C41.4592 9.45117 41.6291 10.416 41.883 11.9863C41.8518 11.9863 41.8088 12.0078 41.7541 12.0508C41.7151 12.0312 41.6838 12.0215 41.6604 12.0215V12.0508L41.5959 12.0215L41.5315 12.0508C41.5315 12.0312 41.5217 12.0215 41.5022 12.0215C41.467 12.1035 41.3928 12.1445 41.2795 12.1445H41.0569V12.209H40.8342C40.7209 12.209 40.6252 12.2402 40.5471 12.3027H40.1663C40.0998 12.1543 40.0666 12.0488 40.0666 11.9863C40.0666 11.8574 40.1311 11.582 40.26 11.1602C40.217 11.1602 40.1955 11.1387 40.1955 11.0957H40.26V10.9375L40.2893 10.7441C40.2698 10.7051 40.26 10.6738 40.26 10.6504C40.303 10.6504 40.3342 10.5547 40.3538 10.3633C40.4045 10.3633 40.4475 10.1836 40.4827 9.82422V9.66602L40.5471 9.56641V9.15625C40.5823 9.125 40.6135 8.98633 40.6409 8.74023H40.676L40.6409 8.67578C40.719 8.33594 40.7932 8.16602 40.8635 8.16602ZM44.4963 8.76953V8.83398C44.5315 9.0918 44.6155 9.27344 44.7483 9.37891L46.0198 10.6211C46.0198 10.3203 45.8928 10.0859 45.6389 9.91797C45.6389 9.89062 45.258 9.50781 44.4963 8.76953ZM44.6545 9.69531V9.75977C44.6858 10.0176 44.7815 10.209 44.9416 10.334L46.2424 11.6055C46.2424 11.3086 46.0842 11.043 45.7678 10.8086C45.76 10.7773 45.3889 10.4062 44.6545 9.69531ZM44.8127 10.6211V10.6504C44.8557 10.9277 44.9397 11.1191 45.0647 11.2246L46.4358 12.5605C46.4358 12.2637 46.2659 11.9883 45.926 11.7344C45.9182 11.6992 45.5471 11.3281 44.8127 10.6211ZM40.7991 11.1895L40.7698 11.2539V11.4766C40.7698 11.5078 40.8127 11.541 40.8987 11.5762C40.9338 11.5527 40.9866 11.541 41.0569 11.541V11.4473C41.0569 11.4199 40.9709 11.334 40.7991 11.1895ZM45.0002 11.5762V11.6055C45.0666 11.7656 45.0998 11.8828 45.0998 11.957C45.0764 11.957 45.0647 11.9668 45.0647 11.9863L46.6584 13.5449V13.5156C46.5881 13.1719 46.4709 12.959 46.3069 12.877C46.2952 12.8379 45.8596 12.4043 45.0002 11.5762ZM45.1936 12.5254C45.1936 12.8262 45.3733 13.1133 45.7327 13.3867C45.7327 13.4141 46.1252 13.8066 46.9104 14.5645V14.5352C46.8284 14.168 46.7229 13.9668 46.594 13.9316C46.594 13.9004 46.1272 13.4316 45.1936 12.5254ZM45.4514 13.5449C45.4514 13.8574 45.5784 14.0918 45.8323 14.248C45.844 14.291 46.2893 14.7363 47.1682 15.584C47.0666 15.2441 47.0022 15.0742 46.9748 15.0742C46.9592 15.0312 46.4514 14.5215 45.4514 13.5449ZM45.6096 14.4707V14.5L45.6389 14.5645C45.6194 14.5645 45.6096 14.5762 45.6096 14.5996L45.6741 14.6289L45.6389 14.6934C45.6623 14.8262 45.7893 15.0059 46.0198 15.2324L46.9455 16.123C46.9455 16.0684 46.9768 16.0059 47.0393 15.9355V15.9004C47.0393 15.873 46.5627 15.3965 45.6096 14.4707ZM45.8967 15.5195C45.8967 15.8164 46.0549 16.082 46.3713 16.3164C46.3713 16.3438 46.4768 16.4492 46.6877 16.6328C46.6877 16.543 46.7307 16.4902 46.8166 16.4746V16.4453C46.8166 16.418 46.51 16.1094 45.8967 15.5195ZM39.8791 15.9355C39.8791 15.9629 40.0491 16.1328 40.3889 16.4453H40.4182C40.4182 16.4219 40.4084 16.4102 40.3889 16.4102L40.4534 16.1582L40.1018 15.8418C39.9534 15.8613 39.8791 15.8926 39.8791 15.9355ZM39.7502 16.252C39.7502 16.2832 39.7288 16.3789 39.6858 16.5391L40.3245 17.1426V16.8262C40.3245 16.7988 40.133 16.6074 39.7502 16.252ZM46.1194 16.5098C46.1975 16.8223 46.26 17.002 46.3069 17.0488L46.5002 17.207L46.594 16.9551L46.1194 16.5098ZM39.6213 16.8906C39.5784 16.9883 39.5569 17.084 39.5569 17.1777L40.0666 17.6523H40.1018C40.1018 17.6055 40.133 17.5625 40.1955 17.5234H40.2248V17.4941C40.2248 17.4668 40.0237 17.2656 39.6213 16.8906ZM39.4631 17.4941L39.4338 17.5586V17.7812C39.4338 17.8086 39.5178 17.8926 39.6858 18.0332L39.8147 17.875V17.8457C39.8147 17.8145 39.6975 17.6973 39.4631 17.4941ZM57.3724 0.929688C57.392 0.929688 57.4017 0.941406 57.4017 0.964844L57.5599 0.929688H57.7533C58.2689 0.972656 58.5541 0.994141 58.6087 0.994141L58.6732 1.0293V0.994141C58.9037 1.05664 59.0638 1.08789 59.1537 1.08789V1.05859C59.6654 1.16406 60.0248 1.29102 60.2318 1.43945C60.306 1.43945 60.4759 1.54492 60.7416 1.75586C61.058 1.93555 61.4505 2.34961 61.9193 2.99805C62.1068 3.26758 62.2005 3.51172 62.2005 3.73047C62.267 3.83594 62.3744 4.16406 62.5228 4.71484C62.5228 4.73438 62.5111 4.74414 62.4877 4.74414C62.5033 4.89258 62.5248 4.9668 62.5521 4.9668C62.5521 4.99023 62.5423 5.00195 62.5228 5.00195C62.5502 5.26367 62.5814 5.43359 62.6166 5.51172H62.5873C62.6263 5.61719 62.6459 5.80664 62.6459 6.08008V6.11523C62.6459 6.35352 62.6146 6.61719 62.5521 6.90625H62.5873C62.3373 8.24609 61.892 9.38086 61.2513 10.3105C61.1029 10.5566 61.0287 10.6953 61.0287 10.7266V10.7852C61.4662 11.3281 62.017 11.9219 62.681 12.5664C62.681 12.6289 62.8295 12.7988 63.1263 13.0762C63.1263 13.1582 63.0619 13.3496 62.933 13.6504L62.9681 13.7148C62.7962 14.7305 62.7103 15.4082 62.7103 15.748C62.6908 15.748 62.6693 15.8008 62.6459 15.9062C62.6459 15.9258 62.6576 15.9355 62.681 15.9355C62.681 16.127 62.5951 16.2227 62.4232 16.2227C62.4232 16.3086 62.308 16.3945 62.0775 16.4805C62.0775 16.5234 61.8646 16.7031 61.4388 17.0195C61.1576 17.2812 60.9349 17.4512 60.7709 17.5293C60.7709 17.5723 60.474 17.8477 59.8802 18.3555L59.3119 18.8945L58.9896 19.2109H58.8666V19.0527C58.4603 18.3965 58.1947 18.0156 58.0697 17.9102C58.0892 17.9102 58.099 17.8984 58.099 17.875C58.0482 17.875 57.7728 17.5039 57.2728 16.7617C57.183 16.5703 57.0775 16.4336 56.9564 16.3516C56.9564 16.3242 56.9037 16.2402 56.7982 16.0996H56.7337C56.5853 16.7793 56.3197 17.5625 55.9369 18.4492L55.017 18.6426C55.017 18.6191 55.0072 18.6074 54.9877 18.6074C54.9877 18.6309 54.9759 18.6426 54.9525 18.6426V18.6074C54.7064 18.6934 54.4427 18.7461 54.1615 18.7656V18.8008C54.138 18.8008 54.1263 18.7891 54.1263 18.7656C53.8646 18.7891 53.6009 18.8418 53.3353 18.9238C53.2533 18.9238 53.0502 18.9668 52.7259 19.0527V19.0234C52.6048 19.0586 52.4564 19.0898 52.2806 19.1172C52.2806 19.0977 52.2709 19.0879 52.2513 19.0879C52.2513 19.1191 52.0599 19.1816 51.6771 19.2754C51.6771 19.3301 51.5502 19.373 51.2962 19.4043C51.2962 19.4473 51.2435 19.4688 51.138 19.4688C51.1068 19.4688 51.0638 19.4258 51.0091 19.3398V19.0879L50.9798 18.8945C51.0072 18.7656 51.0384 18.7012 51.0736 18.7012L51.0443 18.6426V18.3203C51.0443 18.3008 51.0541 18.291 51.0736 18.291C51.0541 18.248 51.0443 18.2168 51.0443 18.1973C51.0873 18.127 51.1087 18.0625 51.1087 18.0039V17.6523C51.1087 17.6328 51.097 17.623 51.0736 17.623L51.1087 17.5586V16.8262C51.1087 16.8066 51.1185 16.7969 51.138 16.7969L51.1087 16.7324V15.4316H51.1732V15.209C51.1732 15.1855 51.183 15.1738 51.2025 15.1738L51.138 14.8281C51.1615 14.8281 51.1732 14.8164 51.1732 14.793H51.138C51.138 14.7734 51.1498 14.7637 51.1732 14.7637C51.1302 14.6152 51.1087 14.4883 51.1087 14.3828V14.3477C51.1127 14.2422 51.1341 14.1895 51.1732 14.1895C51.1732 14.1699 51.1615 14.1602 51.138 14.1602L51.1732 13.9961V12.7246C51.1732 12.7051 51.183 12.6953 51.2025 12.6953L51.1732 12.6309V12.502C51.1732 12.4824 51.183 12.4727 51.2025 12.4727L51.1732 12.4082V11.7402C51.2357 11.4902 51.267 11.2793 51.267 11.1074C51.2513 10.7676 51.2298 10.5977 51.2025 10.5977C51.2377 10.4844 51.2806 10.123 51.3314 9.51367H51.2962L51.3314 9.44922V8.37109C51.3314 8.28125 51.3412 8.16406 51.3607 8.01953C51.3607 8 51.3509 7.99023 51.3314 7.99023C51.3744 7.81055 51.3959 7.57617 51.3959 7.28711V6.7832C51.3959 6.56055 51.4056 6.2207 51.4252 5.76367H51.4545L51.4252 5.69922V5.18945C51.4252 4.88477 51.4896 4.63086 51.6185 4.42773C51.6185 4.36523 51.7865 3.98438 52.1224 3.28516C52.3373 2.64844 52.5384 2.33008 52.7259 2.33008C52.8666 2.21289 53.2591 2.0332 53.9037 1.79102C55.3021 1.30273 56.2142 1.05859 56.64 1.05859C56.64 1.03125 56.8841 0.988281 57.3724 0.929688ZM57.1791 1.63281C58.4447 2.94531 59.1224 3.60156 59.2123 3.60156C59.4193 3.64453 59.558 3.69727 59.6283 3.75977V3.73047C58.222 2.33203 57.5013 1.63281 57.4662 1.63281C57.3802 1.63281 57.3373 1.62109 57.3373 1.59766C57.3021 1.62109 57.2494 1.63281 57.1791 1.63281ZM57.9408 1.63281V1.66211C59.6205 3.33789 60.4798 4.17578 60.5189 4.17578C60.6087 4.17578 60.8412 4.39844 61.2162 4.84375C61.3998 5.08984 61.6009 5.32227 61.8197 5.54102L61.9193 5.60547C61.9193 5.30078 61.7904 5.06836 61.5326 4.9082C60.4584 3.80273 59.3783 2.7207 58.2923 1.66211H58.0052L57.9408 1.63281ZM56.5111 1.72656C57.5345 2.78516 58.0755 3.31445 58.1341 3.31445C58.263 3.31445 58.3802 3.33594 58.4857 3.37891C58.474 3.34375 57.9115 2.78125 56.7982 1.69141H56.7337L56.5111 1.72656ZM58.8314 1.75586C59.7533 2.70898 60.7396 3.69531 61.7904 4.71484C61.7904 4.41016 61.7045 4.21875 61.5326 4.14062C60.0287 2.59375 59.2455 1.82031 59.183 1.82031C59.0033 1.77734 58.8861 1.75586 58.8314 1.75586ZM55.8431 1.82031L57.2435 3.25C57.3177 3.23047 57.4232 3.2207 57.5599 3.2207C57.5599 3.19336 57.0834 2.7168 56.1302 1.79102C56.017 1.81055 55.9212 1.82031 55.8431 1.82031ZM55.2396 2.01367C55.2748 2.01758 55.6986 2.44141 56.5111 3.28516C56.5853 3.26172 56.6908 3.25 56.8275 3.25C56.8158 3.21094 56.3724 2.76563 55.4974 1.91406C55.3255 1.9375 55.2396 1.9707 55.2396 2.01367ZM54.6654 2.13672V2.17188C54.681 2.21484 55.1166 2.64844 55.972 3.47266H56.0365C56.0873 3.42969 56.14 3.4082 56.1947 3.4082V3.37891C56.1791 3.33594 55.7435 2.90234 54.888 2.07812C54.806 2.11719 54.7318 2.13672 54.6654 2.13672ZM60.0736 2.23633V2.26562L61.5326 3.69531C61.3763 3.39062 61.1966 3.17969 60.9935 3.0625C60.6693 2.66797 60.3627 2.39258 60.0736 2.23633ZM54.097 2.33008V2.35938C54.097 2.38672 54.4994 2.79102 55.3041 3.57227H55.3685C55.388 3.57227 55.3978 3.56055 55.3978 3.53711L55.4623 3.57227H55.5267L55.5912 3.53711C55.5912 3.56055 55.6009 3.57227 55.6205 3.57227V3.53711C55.5853 3.5293 55.1615 3.10547 54.349 2.26562C54.2709 2.30859 54.1869 2.33008 54.097 2.33008ZM53.5228 2.55273C53.5228 2.58008 53.9252 2.98242 54.7298 3.75977C54.8119 3.69727 54.8763 3.66602 54.9232 3.66602V3.63086C54.2005 2.86914 53.808 2.48828 53.7455 2.48828L53.5228 2.55273ZM53.0482 2.86914L54.097 3.88867H54.1615C54.1615 3.85742 54.2025 3.81445 54.2845 3.75977C54.2845 3.73242 53.9349 3.38281 53.2357 2.71094H53.1712C53.1283 2.71875 53.0873 2.77148 53.0482 2.86914ZM52.9193 3.19141C52.9193 3.27344 52.888 3.31445 52.8255 3.31445V3.37891C52.8255 3.40625 53.0482 3.62891 53.4935 4.04688L53.7162 3.98242V3.95312C53.7162 3.92187 53.4603 3.66797 52.9486 3.19141H52.9193ZM52.6966 3.69531C52.6341 3.85156 52.6029 3.9375 52.6029 3.95312L52.9193 4.24023H52.9486C53.0306 4.17383 53.0951 4.14062 53.142 4.14062C53.142 4.10938 52.9935 3.96094 52.6966 3.69531ZM57.308 3.98242H56.9564C56.7689 3.98242 56.3236 4.07812 55.6205 4.26953C55.6009 4.26953 55.5912 4.25977 55.5912 4.24023C55.4505 4.25977 55.3451 4.29102 55.2748 4.33398L55.1459 4.29883C54.8451 4.34961 54.4837 4.4668 54.0619 4.65039C53.8587 4.65039 53.3509 4.83008 52.5384 5.18945L52.058 5.44727V5.54102C52.058 5.56055 52.0697 5.57031 52.0931 5.57031C52.0697 5.61328 52.058 5.64648 52.058 5.66992C52.058 5.68945 52.0697 5.69922 52.0931 5.69922L52.058 5.85742V5.92188L52.0931 5.98633C52.0697 5.98633 52.058 5.99609 52.058 6.01562C52.1009 6.02344 52.1224 6.04492 52.1224 6.08008V6.11523L52.058 6.20898V6.23828C52.058 6.26172 52.0697 6.27344 52.0931 6.27344L52.058 6.33789C52.058 6.35742 52.0697 6.36719 52.0931 6.36719L52.058 6.43164V6.58984C52.058 6.61328 52.0697 6.625 52.0931 6.625L52.058 6.68359V6.8125C52.058 6.85938 52.0697 6.90234 52.0931 6.94141C52.0697 6.97656 52.058 7.01953 52.058 7.07031H52.0931L52.058 7.12891V7.16406C52.058 7.18359 52.0697 7.19336 52.0931 7.19336L52.058 7.25781V7.45117C52.058 7.4707 52.0697 7.48047 52.0931 7.48047L52.058 7.54492V7.60938C52.058 7.62891 52.0697 7.63867 52.0931 7.63867L52.058 7.70312V7.73242C52.058 7.75586 52.0697 7.76758 52.0931 7.76758L52.058 7.83203V8.78711L52.0287 8.94531H52.058C52.058 8.96484 52.0482 8.97461 52.0287 8.97461C52.0482 9.0918 52.058 9.17578 52.058 9.22656C52.058 9.33594 52.0384 9.39062 51.9994 9.39062L52.0287 9.44922C52.0287 9.47266 52.0189 9.50586 51.9994 9.54883C52.0189 9.66602 52.0287 9.75 52.0287 9.80078L51.9994 9.92969H52.0287L51.9994 9.99414C52.0189 10.0332 52.0287 10.0645 52.0287 10.0879H51.9994C51.9994 10.1074 52.0091 10.1172 52.0287 10.1172L51.9349 10.627C51.9545 10.7402 51.9642 10.8047 51.9642 10.8203C51.9447 10.9023 51.9349 10.9766 51.9349 11.043C51.9545 11.043 51.9642 11.0527 51.9642 11.0723H51.9349L51.9642 11.1367V11.2949C51.9642 11.3184 51.9545 11.3301 51.9349 11.3301C51.9545 11.3691 51.9642 11.4004 51.9642 11.4238L51.9349 11.7109C51.9545 11.75 51.9642 11.7812 51.9642 11.8047H51.9349C51.9545 11.8477 51.9642 11.8789 51.9642 11.8984L51.8998 12.0273C51.8998 12.0469 51.9115 12.0566 51.9349 12.0566L51.8998 12.2207V12.4434C51.8998 12.4629 51.9115 12.4727 51.9349 12.4727L51.8998 12.5371V13.873C51.8998 13.8926 51.9115 13.9023 51.9349 13.9023L51.8705 14.2832C51.8705 14.3066 51.8802 14.3184 51.8998 14.3184L51.8705 14.4766C51.8705 14.5234 51.8802 14.5664 51.8998 14.6055L51.8705 14.6641L51.8998 14.7285C51.8998 14.752 51.89 14.7637 51.8705 14.7637L51.8998 14.9219V15.4316C51.8998 15.4512 51.89 15.4609 51.8705 15.4609C51.89 15.5039 51.8998 15.5352 51.8998 15.5547C51.8607 15.7461 51.8412 15.8848 51.8412 15.9707V17.1777C51.8412 17.1973 51.8509 17.207 51.8705 17.207L51.8412 17.2715V17.4648C51.8802 17.7734 51.8998 17.9434 51.8998 17.9746H51.8705L51.8998 18.0391V18.4199L52.222 18.3848H52.2806V18.3203C52.3705 18.3203 52.9974 18.2051 54.1615 17.9746C54.1966 17.9941 54.2377 18.0039 54.2845 18.0039H54.3197L54.8587 17.8457H55.0814C55.1361 17.8027 55.1888 17.7812 55.2396 17.7812V16.9258L55.2748 16.8613H55.2396C55.263 16.8184 55.2748 16.7852 55.2748 16.7617L55.2396 16.7031C55.2396 16.6797 55.2513 16.668 55.2748 16.668L55.2396 16.5098V15.5547C55.2396 15.5352 55.2298 15.5254 55.2103 15.5254L55.2396 15.4609V14.6348C55.2396 14.5879 55.2513 14.5449 55.2748 14.5059C55.2474 14.2168 55.2142 13.9629 55.1752 13.7441C55.1986 13.7012 55.2103 13.6699 55.2103 13.6504L55.1459 13.6152C55.1888 13.5059 55.2103 13.4219 55.2103 13.3633H55.2748C55.2748 13.4414 55.3802 13.5371 55.5912 13.6504C55.5912 13.6934 55.7181 13.8301 55.972 14.0605C56.0736 14.0605 56.3275 14.3359 56.7337 14.8867C56.8666 14.9609 57.0052 15.1426 57.1498 15.4316C57.3412 15.5957 57.6791 16.0293 58.1634 16.7324C58.1634 16.7676 58.3236 16.9805 58.6439 17.3711C58.6439 17.4375 58.7064 17.5215 58.8314 17.623C58.9447 17.834 59.0404 17.9609 59.1185 18.0039C59.2005 18.0039 59.306 17.9297 59.4349 17.7812C59.5287 17.6094 59.7103 17.4395 59.9798 17.2715C60.0189 17.2012 60.2728 17 60.7416 16.668C60.7962 16.543 61.0189 16.373 61.4095 16.1582C61.5775 16.0605 61.6615 15.998 61.6615 15.9707V15.9062C61.5834 15.7617 61.4349 15.5703 61.2162 15.332L60.8705 14.8574C60.8705 14.8184 60.7962 14.7344 60.6478 14.6055C60.6478 14.5508 60.5521 14.4336 60.3607 14.2539C60.0638 13.9141 59.9154 13.7129 59.9154 13.6504C59.8607 13.6504 59.8177 13.6074 59.7865 13.5215C59.0912 12.7598 58.7103 12.3789 58.6439 12.3789V12.3438L58.6732 12.2793C58.6537 12.2793 58.6439 12.2695 58.6439 12.25C58.6712 12.25 58.7025 12.1855 58.7377 12.0566C58.9017 11.9473 59.0599 11.7988 59.2123 11.6113C59.9076 10.9277 60.3861 10.3359 60.6478 9.83594C60.7064 9.83594 60.7806 9.71875 60.8705 9.48438C61.2728 8.86328 61.474 8.09961 61.474 7.19336V7.03516C61.474 6.85547 61.4525 6.71875 61.4095 6.625C61.4291 6.58594 61.4388 6.54297 61.4388 6.49609C61.4388 6.46484 61.4173 6.36914 61.3744 6.20898H61.4095L61.2806 5.79297C61.0306 5.22656 60.681 4.8457 60.2318 4.65039C59.7552 4.35352 59.1927 4.15234 58.5443 4.04688C58.3295 3.98438 58.097 3.95312 57.847 3.95312H57.5306L57.3724 3.98242V3.95312L57.308 3.98242ZM56.5462 7.16406C56.9525 7.16406 57.3119 7.32227 57.6244 7.63867C57.7103 7.67383 57.7943 7.85352 57.8763 8.17773C57.8763 8.20117 57.8666 8.21289 57.847 8.21289C57.89 8.43555 57.9115 8.57227 57.9115 8.62305H57.8763C57.8763 8.64648 57.888 8.6582 57.9115 8.6582C57.8334 9.14648 57.7377 9.39062 57.6244 9.39062V9.41992L57.6595 9.48438C57.5658 9.48438 57.4798 9.60156 57.4017 9.83594L56.8275 10.5625C56.6791 10.6484 56.5736 10.7656 56.5111 10.9141C56.433 10.9141 56.2748 11.0527 56.0365 11.3301C55.9935 11.3301 55.888 11.4141 55.7201 11.582C55.6927 11.582 55.5755 11.6875 55.3685 11.8984C55.3334 11.8984 55.2904 11.9199 55.2396 11.9629C55.1498 11.9629 55.0873 11.7402 55.0521 11.2949C55.0091 11.2949 54.9759 11.125 54.9525 10.7852C54.9525 10.6836 54.9642 10.5566 54.9877 10.4043C54.9642 10.127 54.9525 9.83008 54.9525 9.51367V9.22656C54.9525 9.20703 54.9642 9.19727 54.9877 9.19727C54.9212 8.8457 54.888 8.61328 54.888 8.5V8.05469C54.888 8.03125 54.8998 8.01953 54.9232 8.01953C54.9232 8.00391 54.8802 7.9082 54.7943 7.73242C54.8334 7.64258 55.1087 7.49414 55.6205 7.28711V7.32227C55.7142 7.2793 55.8939 7.23633 56.1595 7.19336H56.5111C56.5345 7.19336 56.5462 7.18359 56.5462 7.16406ZM56.6048 7.95508L57.1791 8.5V8.17773L56.7689 7.73242C56.6947 7.73242 56.64 7.80664 56.6048 7.95508ZM55.556 8.08398L55.5267 8.14844V8.37109C55.5267 8.39844 55.6224 8.49414 55.8138 8.6582H55.8431C55.8431 8.61914 55.8646 8.5332 55.9076 8.40039L55.556 8.08398ZM56.5111 8.27734L56.4173 8.5293L56.9271 9.00977H56.9564C56.9564 8.93555 56.9877 8.86133 57.0502 8.78711L56.5111 8.27734ZM56.3236 8.8457C56.2806 9.02148 56.2591 9.11719 56.2591 9.13281L56.64 9.48438H56.6693C56.7357 9.36328 56.7689 9.28906 56.7689 9.26172L56.3236 8.8457ZM56.1595 9.44922C56.1205 9.625 56.1009 9.7207 56.1009 9.73633C56.2377 9.86523 56.3119 9.92969 56.3236 9.92969L56.4466 9.77148V9.73633C56.4466 9.70898 56.3509 9.61328 56.1595 9.44922ZM60.4252 11.4238C60.4252 11.4941 60.3705 11.5469 60.2611 11.582C60.5892 11.9336 61.2357 12.5801 62.2005 13.5215C62.2435 13.4434 62.265 13.3594 62.265 13.2695C61.7337 12.7109 61.1205 12.0957 60.4252 11.4238ZM59.9154 11.998C60.5873 12.6934 61.3295 13.4336 62.142 14.2188C62.142 14.082 62.1517 13.9766 62.1712 13.9023L60.0736 11.834C60.0462 11.834 59.9935 11.8887 59.9154 11.998ZM59.6927 12.2207C59.6927 12.2441 59.6595 12.2969 59.5931 12.3789C59.6205 12.3789 59.7904 12.5488 60.1029 12.8887C60.1498 12.8887 60.5111 13.2793 61.1869 14.0605L62.0423 14.8867V14.5703C61.3509 13.8516 60.5677 13.0684 59.6927 12.2207ZM55.9076 15.332C55.9076 15.3984 55.8978 15.4727 55.8783 15.5547C55.9134 15.6523 55.9877 15.7383 56.1009 15.8125C56.1634 15.668 56.1947 15.582 56.1947 15.5547L55.9369 15.332H55.9076ZM69.1352 1.16406C69.2759 1.22656 69.3911 1.25781 69.4809 1.25781C69.5044 1.25781 69.5161 1.24805 69.5161 1.22852C69.5356 1.22852 69.5454 1.23828 69.5454 1.25781C69.5688 1.25781 69.602 1.24805 69.645 1.22852L70.3423 1.32227C70.3813 1.30273 70.4243 1.29297 70.4712 1.29297C70.6587 1.33594 70.7856 1.35742 70.852 1.35742V1.32227L70.9165 1.35742C71.1313 1.33398 71.3013 1.32227 71.4263 1.32227H71.4556C71.479 1.32227 71.4907 1.33398 71.4907 1.35742C71.5102 1.35742 71.52 1.3457 71.52 1.32227C71.7739 1.3457 71.9009 1.36719 71.9009 1.38672C71.9243 1.38672 71.936 1.37695 71.936 1.35742L72.0942 1.38672H72.188C72.5239 1.38672 72.7466 1.4082 72.8559 1.45117C72.8989 1.42773 73.2602 1.38477 73.9399 1.32227C74.2251 1.3457 74.4692 1.35742 74.6723 1.35742C74.8911 1.33398 75.0181 1.32227 75.0532 1.32227V1.35742L75.1177 1.32227C75.1606 1.3457 75.1919 1.35742 75.2114 1.35742V1.32227C75.2348 1.32227 75.2466 1.33398 75.2466 1.35742C75.602 1.29492 75.8032 1.24023 75.8501 1.19336C76.1704 1.2168 76.4048 1.22852 76.5532 1.22852H77.3794C77.3989 2.70508 77.4087 3.81836 77.4087 4.56836V4.79102C77.4087 4.86914 77.4204 4.96484 77.4438 5.07812C77.1938 5.36719 77.0552 5.52734 77.0278 5.55859C77.0278 5.63281 76.8149 5.96094 76.3891 6.54297C76.2681 6.88281 76.0981 7.05273 75.8794 7.05273L75.7856 7.49805C75.8091 7.49805 75.8208 7.50977 75.8208 7.5332C75.7973 7.5332 75.7856 7.54297 75.7856 7.5625H75.8208L75.7563 7.87891H75.7856C75.7856 7.90234 75.7759 7.91406 75.7563 7.91406C75.7993 8.19922 75.8208 8.50586 75.8208 8.83398V8.99219L75.7563 9.0918H75.7856L75.7563 9.15625V9.25C75.7563 9.29688 75.7661 9.33984 75.7856 9.37891C75.7427 9.50391 75.7212 9.66211 75.7212 9.85352C75.7446 10.0098 75.7661 10.1055 75.7856 10.1406C75.5005 10.4922 75.2563 10.9062 75.0532 11.3828C74.8188 11.7266 74.7016 11.9395 74.7016 12.0215H74.9243C75.0141 12.0215 75.1001 12.0312 75.1821 12.0508C75.6235 11.9883 76.2388 11.9141 77.0278 11.8281V11.8574C77.1138 11.8184 77.1782 11.7988 77.2212 11.7988V11.8281L77.2856 11.7988H77.602L77.7602 11.7637C77.8462 12.0879 77.8891 12.3105 77.8891 12.4316H77.854L77.9536 12.6895C77.9302 12.8027 77.9184 12.8984 77.9184 12.9766V13.0059C77.9184 13.0254 77.9302 13.0352 77.9536 13.0352L77.9184 13.0996C77.9184 13.123 77.9302 13.1348 77.9536 13.1348L77.9184 13.1992C77.9184 13.2188 77.9302 13.2285 77.9536 13.2285L77.9184 13.293V13.3223H77.9829C77.9829 13.3887 77.9731 13.4219 77.9536 13.4219L78.0122 13.7676C77.9966 13.8535 77.977 13.8965 77.9536 13.8965L77.9829 14.0547V14.248H78.0473V14.4707H77.9829L78.0122 14.5352C77.9927 14.5352 77.9829 14.5449 77.9829 14.5645C78.0259 14.5723 78.0473 14.5938 78.0473 14.6289C78.0473 14.6523 78.0356 14.6641 78.0122 14.6641L78.0473 14.8223V14.9805C78.0473 15 78.0356 15.0098 78.0122 15.0098C78.0356 15.0605 78.0571 15.168 78.0766 15.332C77.9712 15.8203 77.8657 16.0645 77.7602 16.0645C77.6743 16.3027 77.4829 16.6309 77.186 17.0488C77.186 17.084 77.0688 17.3379 76.8345 17.8105H76.8696C76.7056 18.1895 76.5884 18.3926 76.5181 18.4199C76.4204 18.377 76.3247 18.3555 76.2309 18.3555C76.1919 18.375 76.1606 18.3848 76.1372 18.3848V18.3203H75.979C75.8735 18.3203 75.8208 18.3535 75.8208 18.4199L75.7563 18.3848H75.563C75.5434 18.3848 75.5337 18.3965 75.5337 18.4199L75.4692 18.3848H75.4341C75.4145 18.3848 75.4048 18.3965 75.4048 18.4199L75.3403 18.3848H75.2466C75.1997 18.3848 75.1567 18.3965 75.1177 18.4199L75.0532 18.3848C75.0337 18.3848 75.0239 18.3965 75.0239 18.4199L74.7016 18.3848H74.3852C74.2759 18.3848 74.0962 18.375 73.8462 18.3555V18.3848C73.8227 18.3848 73.811 18.375 73.811 18.3555L73.4302 18.3848C73.3169 18.3848 73.2212 18.375 73.1431 18.3555C73.0024 18.375 72.8657 18.3848 72.7329 18.3848H72.4751L72.3169 18.3555V18.3848L72.2524 18.3555L71.936 18.3848C71.7212 18.3691 71.6138 18.3477 71.6138 18.3203L71.5552 18.3555H71.4907L71.3325 18.3203V18.3555L71.2681 18.3203H71.2329C71.2134 18.3203 71.2036 18.332 71.2036 18.3555C71.1606 18.332 71.1294 18.3203 71.1098 18.3203L70.9809 18.3555C70.9419 18.332 70.8989 18.3203 70.852 18.3203V18.3555C70.813 18.332 70.7817 18.3203 70.7583 18.3203C70.3559 18.3086 70.1548 18.2871 70.1548 18.2559L70.0903 18.291H69.8677L69.6743 18.2559C69.6431 18.2793 69.5786 18.291 69.4809 18.291C69.4614 18.291 69.4302 18.2793 69.3872 18.2559L69.1997 18.291H69.1001C69.0376 18.291 69.0063 18.2793 69.0063 18.2559L68.8481 18.291H68.4028L68.2095 18.2559C68.1704 18.2793 68.1391 18.291 68.1157 18.291C67.5649 18.2637 67.2895 18.2422 67.2895 18.2266L67.0962 18.2559H66.7153C66.4809 18.2559 66.3638 18.0664 66.3638 17.6875V17.623C66.3638 17.5762 66.3735 17.5332 66.3931 17.4941C66.3735 17.4551 66.3638 17.4238 66.3638 17.4004C66.3989 16.834 66.4419 16.4941 66.4927 16.3809C66.4692 16.3379 66.4575 16.3066 66.4575 16.2871H66.4927L66.4575 16.2227V16.0293C66.4575 16.0098 66.4692 16 66.4927 16L66.4575 15.9355C66.4575 15.8887 66.4692 15.8457 66.4927 15.8066C66.4692 15.7676 66.4575 15.7363 66.4575 15.7129H66.4927L66.4575 15.6484V15.2031C66.4575 15.1797 66.4692 15.168 66.4927 15.168L66.4575 15.1094C66.4966 15.0781 66.5298 14.9395 66.5571 14.6934C66.5337 14.6504 66.522 14.6191 66.522 14.5996H66.5571L66.522 14.5352C66.5649 14.4648 66.5864 14.4004 66.5864 14.3418V13.3867C66.5864 13.3672 66.5962 13.3574 66.6157 13.3574L66.5864 13.293L66.6157 13.2285L66.5864 13.1641C66.6059 13.1289 66.6157 13.0859 66.6157 13.0352C66.6157 13.0156 66.6059 13.0059 66.5864 13.0059C66.6216 12.9629 66.6528 12.7832 66.6802 12.4668L66.6509 12.2734C66.6587 11.9141 66.6802 11.7344 66.7153 11.7344L66.6802 11.6699V11.4473C66.6802 11.4238 66.6919 11.4121 66.7153 11.4121L66.6802 11.3477V11.3184C66.6802 11.2988 66.6919 11.2891 66.7153 11.2891L66.6802 11.2246L66.7153 11.0957C66.7153 11.0762 66.7036 11.0664 66.6802 11.0664L66.7153 10.9023V10.6504C66.7153 10.6035 66.7036 10.5605 66.6802 10.5215L66.7153 10.457C66.7153 10.4375 66.7036 10.4277 66.6802 10.4277L66.7153 10.2695V9.63086C66.7153 9.60352 66.7368 9.48633 66.7798 9.2793V8.96289C66.7798 8.91602 66.7681 8.87305 66.7446 8.83398C66.7681 8.79883 66.7798 8.75781 66.7798 8.71094V8.64648C66.7798 8.62305 66.7681 8.61133 66.7446 8.61133L66.8091 8.32422L66.7798 8.25977C66.7993 8.2207 66.8091 8.18945 66.8091 8.16602H66.7798C66.7993 8.13477 66.8188 7.96484 66.8384 7.65625C66.8188 7.65625 66.8091 7.64648 66.8091 7.62695H66.8384C66.8227 7.54102 66.8032 7.49805 66.7798 7.49805L66.8091 7.33984L66.7798 7.18164C66.8149 7.18164 66.8462 7.08594 66.8735 6.89453C66.8501 6.85547 66.8384 6.8125 66.8384 6.76562V6.67188L66.9028 6.57812H66.8735L66.9028 6.51367L66.8735 6.44922C66.8931 6.44922 66.9028 6.4375 66.9028 6.41406H66.8735L66.9028 6.35547L66.8735 6.29102H66.9028L66.8735 6.22656V6.19141L66.9028 6.12695H66.8735L66.9028 6.06836V5.20703L66.938 5.14258H66.9028C66.9458 5.04492 66.9673 4.93945 66.9673 4.82617L66.938 4.76172C66.9536 4.67578 66.9751 4.63281 67.0024 4.63281L66.9673 4.56836C66.9673 4.54883 66.979 4.53906 67.0024 4.53906L66.9673 4.47461V4.41016L67.0024 4.3457C66.979 4.3457 66.9673 4.33594 66.9673 4.31641C67.0337 4.31641 67.0669 4.14648 67.0669 3.80664V3.23242C67.2075 3.08789 67.5044 2.72656 67.9575 2.14844C68.563 1.51172 68.8813 1.19336 68.9126 1.19336C69.061 1.19336 69.1352 1.18359 69.1352 1.16406ZM69.229 1.86133C69.2407 1.9043 69.6763 2.33984 70.5356 3.16797C70.5434 3.16797 70.5845 3.1582 70.6587 3.13867L70.852 3.16797C70.0161 2.29688 69.5708 1.86133 69.5161 1.86133C69.4927 1.86133 69.4614 1.85156 69.4223 1.83203C69.4223 1.85156 69.4106 1.86133 69.3872 1.86133V1.83203C69.352 1.85156 69.2993 1.86133 69.229 1.86133ZM76.1372 1.89648C76.1372 1.92383 76.2641 2.05078 76.5181 2.27734H76.5532C76.5923 2.14062 76.6118 2.05664 76.6118 2.02539C76.5845 2.02539 76.522 1.96094 76.4243 1.83203C76.3462 1.875 76.2505 1.89648 76.1372 1.89648ZM70.0259 1.89648C70.8188 2.72461 71.2427 3.13867 71.2973 3.13867C71.4106 3.13867 71.5063 3.14844 71.5845 3.16797V3.13867C70.8071 2.31055 70.3716 1.89648 70.2778 1.89648H70.0259ZM70.852 1.96094C70.852 1.98828 71.2446 2.38086 72.0298 3.13867C72.0727 3.13867 72.0942 3.11719 72.0942 3.07422L72.1587 3.10352C72.1782 3.10352 72.188 3.09375 72.188 3.07422L72.2524 3.10352H72.3169C72.3169 3.07617 71.9341 2.69531 71.1684 1.96094H70.852ZM73.9399 1.99023C74.5298 2.62695 74.8696 2.94531 74.9595 2.94531H74.9888C74.9888 2.90234 75.0415 2.88086 75.147 2.88086C75.147 2.85742 74.8403 2.55078 74.227 1.96094H74.1626L73.9399 1.99023ZM74.7016 1.99023C74.7016 2.01758 75.0005 2.31445 75.5981 2.88086C75.6372 2.83789 75.7212 2.81641 75.8501 2.81641C75.3462 2.26562 75.0493 1.99023 74.9595 1.99023C74.897 1.99023 74.8657 1.98047 74.8657 1.96094C74.8306 1.98047 74.7759 1.99023 74.7016 1.99023ZM75.4692 1.99023C75.4692 2.02148 75.7134 2.26562 76.2016 2.72266C76.2016 2.69531 76.2446 2.62109 76.3306 2.5L75.7563 1.96094H75.6274L75.4692 1.99023ZM71.6489 1.99023C72.3442 2.73242 72.7368 3.10352 72.8266 3.10352H73.0786C72.3989 2.38477 72.0278 2.02539 71.9653 2.02539C71.938 2.02539 71.8325 2.01367 71.6489 1.99023ZM73.2427 2.05469C73.2466 2.08594 73.5747 2.41406 74.227 3.03906C74.2348 3 74.2563 2.98047 74.2915 2.98047H74.3559C74.3755 2.98047 74.3852 2.99023 74.3852 3.00977C74.4282 2.99023 74.4595 2.98047 74.479 2.98047C74.479 2.95313 74.1606 2.63477 73.5239 2.02539C73.4106 2.04492 73.3169 2.05469 73.2427 2.05469ZM68.813 2.24805L69.8032 3.20312H70.1196L69.0063 2.05469C68.9595 2.05859 68.895 2.12305 68.813 2.24805ZM72.4751 2.05469C72.479 2.08594 72.8091 2.41406 73.4653 3.03906H73.7817C73.7817 3.01562 73.4516 2.6875 72.7915 2.05469H72.4751ZM68.4673 2.6582L69.0356 3.20312H69.0708L69.1352 3.16797V3.20312L69.1997 3.16797C69.2192 3.16797 69.229 3.17969 69.229 3.20312C69.2681 3.17969 69.2993 3.16797 69.3227 3.16797L68.6548 2.4707C68.5845 2.48633 68.522 2.54883 68.4673 2.6582ZM68.2446 2.85156C68.2446 2.87109 68.2016 2.93359 68.1157 3.03906C68.1157 3.07031 68.147 3.10352 68.2095 3.13867H68.5259C68.5259 3.11133 68.4321 3.01562 68.2446 2.85156ZM76.6763 2.88086L76.5181 3.07422L76.8989 3.42578V3.10352C76.8989 3.07227 76.8247 2.99805 76.6763 2.88086ZM75.4048 3.42578H75.3755C75.2661 3.42578 75.2114 3.4043 75.2114 3.36133L75.147 3.39062L75.0884 3.36133C75.0884 3.41602 74.6958 3.49023 73.9106 3.58398L72.4751 3.71289L72.4106 3.67773C72.3716 3.70117 72.3403 3.71289 72.3169 3.71289C72.2739 3.71289 72.2524 3.70117 72.2524 3.67773L72.0298 3.71289H71.7778C71.7348 3.7168 71.7134 3.73633 71.7134 3.77148C71.686 3.75195 71.6333 3.74219 71.5552 3.74219C71.5552 3.76172 71.5434 3.77148 71.52 3.77148L71.4556 3.74219C71.4165 3.76172 71.3852 3.77148 71.3618 3.77148C71.3618 3.73242 71.3403 3.71289 71.2973 3.71289H71.2681C71.2251 3.7168 71.2036 3.73633 71.2036 3.77148L71.1391 3.74219L71.0747 3.77148V3.74219L71.0102 3.77148C70.9907 3.77148 70.9809 3.76172 70.9809 3.74219L70.9165 3.77148H70.5005C70.3794 3.77148 70.2095 3.7832 69.9907 3.80664C69.9516 3.7832 69.9204 3.77148 69.897 3.77148C69.8774 3.77148 69.8677 3.7832 69.8677 3.80664L69.7036 3.77148H69.4223L69.229 3.80664C69.1899 3.7832 69.147 3.77148 69.1001 3.77148C69.0259 3.77148 68.9302 3.7832 68.813 3.80664C68.6138 3.7832 68.4243 3.77148 68.2446 3.77148C68.1704 3.77148 67.9888 3.7832 67.6997 3.80664C67.6372 3.94727 67.5942 4.12695 67.5708 4.3457C67.6138 4.41602 67.6352 4.48047 67.6352 4.53906V4.56836C67.6352 4.62695 67.6138 4.69141 67.5708 4.76172C67.5708 4.78125 67.5825 4.79102 67.6059 4.79102L67.5708 4.94922V5.01367C67.5708 5.03711 67.5825 5.04883 67.6059 5.04883L67.5122 5.40039C67.5317 5.40039 67.5415 5.41016 67.5415 5.42969C67.522 5.42969 67.5122 5.43945 67.5122 5.45898H67.5415L67.5122 5.52344V5.55859C67.5122 5.62109 67.522 5.65234 67.5415 5.65234L67.5122 5.81055V5.93945C67.5122 5.95898 67.522 5.96875 67.5415 5.96875L67.5122 6.0332V6.35547C67.5122 6.375 67.5005 6.38477 67.477 6.38477L67.5122 6.44922C67.5122 6.46875 67.5005 6.47852 67.477 6.47852L67.5122 6.54297V6.57812L67.477 6.63672C67.5005 6.63672 67.5122 6.64844 67.5122 6.67188H67.477L67.5122 6.73633C67.4888 6.77148 67.477 6.8125 67.477 6.85938H67.5122L67.477 6.92383C67.477 6.94727 67.4888 6.95898 67.5122 6.95898C67.4692 7.03711 67.4477 7.12109 67.4477 7.21094V7.5625C67.4477 7.64844 67.4575 7.73242 67.477 7.81445C67.4575 7.88867 67.436 8.22852 67.4126 8.83398H67.3833L67.4126 8.89844C67.3931 8.94141 67.3833 8.97266 67.3833 8.99219C67.4263 9 67.4477 9.02148 67.4477 9.05664V9.18555C67.4048 9.33789 67.3833 9.42383 67.3833 9.44336V10.2344C67.3833 10.2773 67.3618 10.2988 67.3188 10.2988L67.3481 10.3633V10.3926C67.3481 10.4434 67.3384 10.4863 67.3188 10.5215C67.3188 10.5449 67.3286 10.5566 67.3481 10.5566L67.3188 10.7148C67.3188 10.7773 67.3286 10.8086 67.3481 10.8086L67.3188 10.9668V11.6348L67.2895 11.6992C67.3091 11.6992 67.3188 11.7109 67.3188 11.7344H67.2895L67.3188 11.7988C67.3188 11.8184 67.3091 11.8281 67.2895 11.8281L67.3188 11.9863L67.2895 12.1445H67.3188L67.2895 12.209V12.3672C67.2895 12.3906 67.2993 12.4023 67.3188 12.4023L67.2895 12.4668C67.2895 12.4824 67.2993 12.5449 67.3188 12.6543C67.2993 12.6934 67.2895 12.7363 67.2895 12.7832H67.3188C67.2798 12.959 67.2368 13.4785 67.1899 14.3418H67.2251L67.1899 14.4062L67.2251 14.4707C67.2016 14.5098 67.1899 14.541 67.1899 14.5645H67.2251L67.1606 14.7871C67.1802 14.8301 67.1899 14.8633 67.1899 14.8867C67.147 14.8906 67.1255 14.9102 67.1255 14.9453V15.6777C67.1255 15.7012 67.1372 15.7129 67.1606 15.7129L67.1255 15.7773V16.1582C67.1255 16.3535 67.0845 16.6934 67.0024 17.1777C67.022 17.1777 67.0317 17.1875 67.0317 17.207H67.0024C67.022 17.4609 67.0532 17.5879 67.0962 17.5879H67.8286L68.022 17.623C68.0571 17.5996 68.1098 17.5879 68.1802 17.5879H68.2446C68.2993 17.5879 68.3618 17.6094 68.4321 17.6523C68.5806 17.6094 68.7075 17.5879 68.813 17.5879C68.8364 17.5879 68.8481 17.5996 68.8481 17.623C68.8677 17.623 68.8774 17.6113 68.8774 17.5879C69.1665 17.6152 69.3364 17.6367 69.3872 17.6523L69.4516 17.623C69.4712 17.623 69.4809 17.6328 69.4809 17.6523L69.645 17.623H69.897C69.9165 17.623 69.9263 17.6113 69.9263 17.5879C70.0356 17.6309 70.2798 17.6523 70.6587 17.6523H71.9009C71.9243 17.6523 71.936 17.6641 71.936 17.6875L72.0005 17.6523H72.5395C72.5591 17.6523 72.5688 17.6641 72.5688 17.6875C72.5923 17.6875 72.604 17.6758 72.604 17.6523L72.8266 17.6875C72.8735 17.6875 72.9907 17.6758 73.1782 17.6523C73.2134 17.6758 73.2544 17.6875 73.3013 17.6875V17.6523L73.3657 17.6875H73.7466C73.77 17.6875 73.7817 17.6758 73.7817 17.6523L73.8462 17.6875C73.8696 17.6875 73.9009 17.6758 73.9399 17.6523L74.1333 17.6875C74.1528 17.6875 74.1626 17.6758 74.1626 17.6523C74.2095 17.668 74.3481 17.6895 74.5786 17.7168C74.5786 17.6973 74.5884 17.6875 74.6079 17.6875V17.7168L74.6723 17.6875H75.0239L75.0884 17.7168V17.6875L75.147 17.7168H75.6567L75.8501 17.6875C75.8852 17.707 75.938 17.7168 76.0083 17.7168C76.0513 17.7168 76.0727 17.6855 76.0727 17.623L76.0434 17.4648L76.0727 17.3359C76.0298 17.1758 76.0083 17.0801 76.0083 17.0488L76.0727 17.0195L76.0434 16.6973V16.4453C76.0434 16.4219 76.0317 16.4102 76.0083 16.4102C76.0317 16.3711 76.0532 16.2656 76.0727 16.0938H76.0434L76.0727 16.0293V15.4551C76.0727 15.4004 76.0942 15.3379 76.1372 15.2676C76.1138 15.2676 76.102 15.2559 76.102 15.2324H76.1372C76.1372 15.2129 76.1255 15.2031 76.102 15.2031L76.1372 15.0449V15.0098C76.1372 14.9902 76.1255 14.9805 76.102 14.9805L76.1372 14.916C76.1372 14.8301 76.1255 14.7461 76.102 14.6641C76.1255 14.5781 76.1372 14.4922 76.1372 14.4062V14.3125H76.0434C76.02 14.3125 76.0083 14.3223 76.0083 14.3418L75.9438 14.3125H75.9145C75.8677 14.3125 75.8247 14.3223 75.7856 14.3418C75.7505 14.3223 75.7075 14.3125 75.6567 14.3125H75.5981L75.5337 14.3418V14.3125C75.5337 14.3672 75.1626 14.4414 74.4204 14.5352C74.4204 14.5781 74.3989 14.5996 74.3559 14.5996L74.2915 14.5645V14.5996C74.2681 14.5996 74.2563 14.5879 74.2563 14.5645L74.0981 14.5996H74.0044C73.9809 14.5996 73.9692 14.5879 73.9692 14.5645C73.9302 14.5879 73.8989 14.5996 73.8755 14.5996L73.811 14.5645L73.6528 14.6289L73.5239 14.5996C73.3677 14.6426 73.2622 14.6641 73.2075 14.6641V14.6289C73.0981 14.6719 72.8755 14.6934 72.5395 14.6934H72.4458C72.2934 14.7363 72.2075 14.7578 72.188 14.7578H72.0942C72.0708 14.7578 72.0591 14.7461 72.0591 14.7227L72.0005 14.7578H71.9653L71.9009 14.7227L71.8716 14.7871L71.8071 14.7578C71.7876 14.7578 71.7778 14.7676 71.7778 14.7871L71.7134 14.7578H71.3325C71.3091 14.7578 71.2973 14.7676 71.2973 14.7871C70.9809 14.6543 70.8227 14.5059 70.8227 14.3418L70.852 14.2773V14.0898C70.8598 13.6211 70.8813 13.3867 70.9165 13.3867L70.8813 13.3223V13.1348C70.8813 13.0879 70.8931 13.0449 70.9165 13.0059C70.9165 12.9863 70.9048 12.9766 70.8813 12.9766C70.8813 12.543 70.936 12.2344 71.0454 12.0508H71.0102C71.0259 11.9648 71.0473 11.9219 71.0747 11.9219C71.5903 11.9219 72.0571 11.9434 72.4751 11.9863C72.5181 11.9668 72.5493 11.957 72.5688 11.957C72.7407 11.9688 72.8266 11.9902 72.8266 12.0215C72.8657 11.998 72.897 11.9863 72.9204 11.9863L73.0786 12.0215L73.2427 11.9863L73.3013 12.0215L73.4946 11.9863C73.5415 11.9863 73.5845 11.998 73.6235 12.0215C73.7056 11.9863 73.7466 11.9531 73.7466 11.9219H73.7173L73.7466 11.8574V11.4766C73.7466 11.0508 73.7895 10.6055 73.8755 10.1406H73.8462L73.8755 10.0762V9.94727C73.8755 9.92773 73.8657 9.91797 73.8462 9.91797C73.8657 9.8125 73.8872 9.75977 73.9106 9.75977L73.8755 9.69531V9.4082L73.9106 9.34375H73.8755C73.9184 9.24609 73.9399 9.15039 73.9399 9.05664L73.9106 8.99219L73.9399 8.93359C73.9087 8.84766 73.8774 8.80469 73.8462 8.80469C73.8462 8.85547 73.5806 8.89844 73.0493 8.93359C73.0493 8.94531 73.0181 8.96484 72.9556 8.99219L72.8911 8.96289H72.8266L72.7622 8.99219V8.96289C72.6723 9.00586 72.5337 9.03711 72.3462 9.05664C72.3266 9.05664 72.3169 9.04688 72.3169 9.02734C72.1411 9.07031 71.854 9.10156 71.4556 9.12109C71.1391 9.12109 70.9809 9.04688 70.9809 8.89844C70.938 8.8125 70.9048 8.76953 70.8813 8.76953L70.9458 8.29492C70.9263 8.29492 70.9165 8.2832 70.9165 8.25977H70.9458L70.9165 8.20117V8.16602L70.9458 8.10156H70.9165L70.9458 8.03711V7.91406L70.9165 7.75586C70.936 7.75586 70.9458 7.74414 70.9458 7.7207H70.9165L70.9458 7.65625C70.9263 7.61719 70.9165 7.58594 70.9165 7.5625H70.9458C70.9458 7.54297 70.936 7.5332 70.9165 7.5332L70.9458 7.36914V7.21094C70.9458 7.19141 70.936 7.18164 70.9165 7.18164L70.9458 7.11719V7.08203L70.9165 7.02344C70.9477 7.02344 71.0005 6.90625 71.0747 6.67188C71.1411 6.58594 71.2798 6.5332 71.4907 6.51367C71.4907 6.49023 71.5005 6.47852 71.52 6.47852H72.1235C72.1743 6.47852 72.2173 6.46875 72.2524 6.44922C72.2759 6.44922 72.2876 6.45898 72.2876 6.47852L72.604 6.44922H73.3013L73.4946 6.47852C73.5298 6.45898 73.5825 6.44922 73.6528 6.44922C73.6763 6.44922 73.688 6.45898 73.688 6.47852L73.7466 6.44922H74.0337C74.1196 6.44922 74.2583 6.4707 74.4497 6.51367C74.6177 6.49805 74.7016 6.47656 74.7016 6.44922L74.8657 6.47852H75.0884C75.1079 6.47852 75.1177 6.46875 75.1177 6.44922L75.1821 6.47852H75.4048C75.4243 6.47852 75.4341 6.46875 75.4341 6.44922L75.4985 6.47852H75.5981L75.7212 6.09766C75.6782 6.01172 75.6567 5.94727 75.6567 5.9043C75.6997 5.83789 75.7212 5.77539 75.7212 5.7168C75.6782 5.7168 75.6567 5.70508 75.6567 5.68164C75.6958 5.61523 75.729 5.48828 75.7563 5.30078L75.7212 5.23633V5.14258C75.7212 5.12305 75.7329 5.11328 75.7563 5.11328L75.7212 5.04883C75.7212 5.02539 75.7329 5.01367 75.7563 5.01367C75.7329 4.97461 75.7212 4.94336 75.7212 4.91992L75.8208 4.63281L75.7856 4.56836L75.8208 4.50391C75.7973 4.50391 75.7856 4.49414 75.7856 4.47461C75.8286 4.47461 75.8501 4.45312 75.8501 4.41016V4.1875C75.8501 4.14062 75.8598 4.09766 75.8794 4.05859C75.8794 4.03906 75.8696 4.0293 75.8501 4.0293C75.8852 3.66992 75.9165 3.46875 75.9438 3.42578C75.9438 3.39062 75.9028 3.34766 75.8208 3.29688C75.5786 3.38281 75.4399 3.42578 75.4048 3.42578ZM76.5181 3.49023V3.80664C76.5181 3.83398 76.6352 3.95117 76.8696 4.1582V3.83594C76.8696 3.80859 76.7524 3.69336 76.5181 3.49023ZM76.4888 4.2168L76.5181 4.3457L76.4888 4.56836L76.8345 4.89062H76.8696L76.8989 4.72656C76.8989 4.70703 76.8891 4.69727 76.8696 4.69727L76.8989 4.63281C76.8989 4.60156 76.7622 4.46289 76.4888 4.2168ZM76.3891 4.89062C76.3891 5.09766 76.3794 5.20312 76.3598 5.20703L76.5532 5.36523H76.5825C76.5825 5.32227 76.6138 5.24805 76.6763 5.14258L76.3891 4.89062ZM72.1235 7.05273C72.1235 7.08008 72.2095 7.16406 72.3813 7.30469C72.3813 7.26562 72.4243 7.20312 72.5102 7.11719V7.08203L72.2876 7.05273L72.2231 7.08203C72.1802 7.0625 72.147 7.05273 72.1235 7.05273ZM73.0493 7.18164V7.21094C73.0532 7.24219 73.3813 7.57227 74.0337 8.20117H74.0981C74.1411 8.18945 74.1841 8.13477 74.227 8.03711L73.2075 7.05273H73.1782C73.1431 7.05273 73.1001 7.0957 73.0493 7.18164ZM73.6528 7.05273C73.6528 7.08398 73.9087 7.33789 74.4204 7.81445L74.5434 7.62695C74.5434 7.59961 74.352 7.4082 73.9692 7.05273H73.6528ZM74.4204 7.05273C74.4204 7.08008 74.5259 7.18555 74.7368 7.36914C74.7641 7.36914 74.8071 7.31641 74.8657 7.21094V7.18164C74.8657 7.14648 74.8227 7.10352 74.7368 7.05273H74.4204ZM71.4907 7.08203V7.18164C71.4907 7.20898 71.6802 7.40039 72.0591 7.75586L72.188 7.5625C72.188 7.53516 72.0298 7.375 71.7134 7.08203H71.4907ZM72.6977 7.65625L73.3657 8.29492H73.688C73.6684 8.24805 73.3911 7.97266 72.8559 7.46875C72.8247 7.46875 72.772 7.53125 72.6977 7.65625ZM71.5552 7.69141V7.78516L71.5845 7.94336H71.5552C71.5981 8.07227 71.6391 8.13672 71.6782 8.13672C71.6782 8.11719 71.7212 8.05273 71.8071 7.94336C71.8071 7.91602 71.7231 7.83203 71.5552 7.69141ZM72.5102 7.87891L72.3813 8.10156C72.5962 8.31641 72.7329 8.42383 72.7915 8.42383C72.8618 8.38086 72.9263 8.35938 72.9848 8.35938C72.9848 8.37891 72.9946 8.38867 73.0141 8.38867V8.35938L72.5102 7.87891ZM74.7661 8.07227V8.16602C74.7661 8.19727 74.9048 8.33594 75.1821 8.58203L75.2114 8.25977L74.895 7.97852H74.8657C74.8345 7.97852 74.8013 8.00977 74.7661 8.07227ZM74.5141 8.48828C74.5141 8.6875 74.6411 8.87695 74.895 9.05664C74.895 9.08398 74.9907 9.17969 75.1821 9.34375L75.147 9.2793V8.99219C75.147 8.96484 74.9575 8.77539 74.5786 8.42383C74.5356 8.42773 74.5141 8.44922 74.5141 8.48828ZM74.5434 9.15625V9.47266C74.5434 9.5 74.7251 9.67969 75.0884 10.0117C75.1079 9.94922 75.1274 9.91797 75.147 9.91797C75.147 9.74219 75.0102 9.55078 74.7368 9.34375C74.7368 9.31641 74.6723 9.25391 74.5434 9.15625ZM74.479 9.88867V9.91797C74.479 9.9375 74.4907 9.94727 74.5141 9.94727L74.479 10.0117V10.0762C74.479 10.1973 74.5962 10.3457 74.8306 10.5215H74.8657L74.9243 10.2988C74.9243 10.2676 74.7876 10.1309 74.5141 9.88867H74.479ZM73.8462 12.5898C73.8579 12.6328 74.2915 13.0684 75.147 13.8965H75.3403C75.3833 13.8965 75.4048 13.875 75.4048 13.832L74.1333 12.5254L73.8462 12.5898ZM76.102 12.5254V12.5605C76.102 12.5879 76.2837 12.7676 76.647 13.0996C76.7329 12.9824 76.7759 12.9082 76.7759 12.877L76.4243 12.5605H76.3306L76.1665 12.5898C76.1665 12.5469 76.145 12.5254 76.102 12.5254ZM71.5845 12.5605V12.625C71.5845 12.6562 71.7231 12.793 72.0005 13.0352C72.0825 12.9414 72.1235 12.8672 72.1235 12.8125L71.8364 12.5605H71.5845ZM74.5786 12.5605C74.5825 12.5957 75.0063 13.0195 75.8501 13.832C75.9868 13.7891 76.0708 13.7676 76.102 13.7676C76.102 13.7402 75.6997 13.3379 74.895 12.5605H74.5786ZM73.1138 12.5898V12.625C73.1255 12.668 73.5806 13.123 74.479 13.9902H74.8013C74.8013 13.9629 74.3345 13.4961 73.4009 12.5898C73.3774 12.5898 73.3657 12.6016 73.3657 12.625L73.3013 12.5898H73.1138ZM75.4048 12.625C75.4048 12.6484 75.7134 12.9551 76.3306 13.5449C76.3579 13.5449 76.4106 13.4922 76.4888 13.3867C75.9966 12.8555 75.7192 12.5898 75.6567 12.5898C75.6177 12.6133 75.5864 12.625 75.563 12.625V12.5898C75.5278 12.6133 75.4751 12.625 75.4048 12.625ZM72.8266 12.7832C72.8266 12.8457 72.8052 12.877 72.7622 12.877C72.7622 12.8574 72.7524 12.8477 72.7329 12.8477L72.6977 13.0059L73.7817 14.0547H74.0981C74.0903 14.0195 73.6665 13.5957 72.8266 12.7832ZM71.5552 13.0352V13.3574C71.5552 13.3887 71.5864 13.4199 71.6489 13.4512L71.7778 13.2578C71.7778 13.2266 71.7036 13.1523 71.5552 13.0352ZM72.3462 13.4219L73.0141 14.0547H73.3364C73.3169 14.0078 73.0415 13.7324 72.5102 13.2285C72.4321 13.2676 72.3774 13.332 72.3462 13.4219ZM77.1216 13.2578C77.1216 13.332 77.0903 13.4062 77.0278 13.4805C77.0278 13.5117 77.1548 13.6406 77.4087 13.8672V13.5449C77.4087 13.5176 77.313 13.4219 77.1216 13.2578ZM72.0005 13.8027C72.0005 13.8301 72.1157 13.9473 72.3462 14.1543C72.4634 14.1309 72.5493 14.1191 72.604 14.1191V14.0898C72.604 14.0586 72.4556 13.9102 72.1587 13.6445C72.1274 13.6445 72.0747 13.6973 72.0005 13.8027ZM76.8052 13.7383C76.8052 13.8242 76.7739 13.8672 76.7114 13.8672C76.7114 13.9492 76.9438 14.2031 77.4087 14.6289V14.3125C77.4087 14.2852 77.2173 14.0938 76.8345 13.7383H76.8052ZM76.7407 14.4062V14.4707L76.7759 14.5352C76.7524 14.5703 76.7407 14.6133 76.7407 14.6641C76.7407 14.7461 76.9634 14.9883 77.4087 15.3906C77.4087 15.3711 77.4204 15.3613 77.4438 15.3613C77.4438 15.1074 77.3481 14.9277 77.1567 14.8223C77.1567 14.791 77.0181 14.6523 76.7407 14.4062ZM76.7759 15.2031L76.7407 15.4258H76.7759L76.7407 15.4902C76.7407 15.5176 76.9009 15.6758 77.2212 15.9648C77.2641 15.8086 77.2856 15.7129 77.2856 15.6777L76.7759 15.2031ZM76.7114 15.9004L76.6763 16.0645V16.1875C76.6763 16.2148 76.772 16.3105 76.9634 16.4746C76.9985 16.4746 77.0415 16.4004 77.0923 16.252L76.7114 15.9004Z" fill="#FE9D00"/>
</svg>
