<svg width="16" height="18" viewBox="0 0 16 18" fill="none" xmlns="http://www.w3.org/2000/svg">
<path d="M6.19336 0.970703V1.00586L6.25781 0.970703H6.38086C6.48242 1.01758 6.57812 1.125 6.66797 1.29297C6.64844 1.40234 6.63867 1.46484 6.63867 1.48047C6.63867 1.97266 6.78711 2.64258 7.08398 3.49023C7.17383 3.90039 7.26953 4.19727 7.37109 4.38086L7.33594 4.44531C7.42188 4.56641 7.51758 4.79883 7.62305 5.14258C7.69727 5.14258 7.81445 4.79297 7.97461 4.09375C8.12305 3.83203 8.19727 3.67188 8.19727 3.61328C8.19727 3.59375 8.1875 3.58398 8.16797 3.58398C8.39453 3.07227 8.72266 2.5625 9.15234 2.05469C9.38672 1.71484 9.53516 1.44922 9.59766 1.25781C9.63672 1.23828 9.67969 1.22852 9.72656 1.22852C9.875 1.22852 9.94922 1.25 9.94922 1.29297L10.1074 1.25781H11.1562C11.3477 1.25781 11.5605 1.26953 11.7949 1.29297C11.873 1.26953 11.9902 1.25781 12.1465 1.25781C12.2949 1.25781 12.4434 1.2793 12.5918 1.32227C12.7715 1.30273 12.9199 1.29297 13.0371 1.29297H13.2305C13.2773 1.29297 13.3184 1.28125 13.3535 1.25781C13.377 1.25781 13.3887 1.26953 13.3887 1.29297C13.4316 1.29297 13.4531 1.28125 13.4531 1.25781C13.6641 1.28125 13.8223 1.29297 13.9277 1.29297C14.0996 1.29297 14.375 1.25977 14.7539 1.19336C14.8008 1.19336 14.8867 1.30078 15.0117 1.51562L14.9473 2.24805C14.9668 2.2832 14.9766 2.32422 14.9766 2.37109C14.9336 2.72266 14.9121 3 14.9121 3.20312V3.39062C14.9121 3.41406 14.9238 3.42578 14.9473 3.42578C14.9473 3.44531 14.9355 3.45508 14.9121 3.45508L14.9473 3.67773V3.87109L14.9766 3.93555H14.9473L14.9766 3.99414V4.12305C14.9766 4.14648 14.9668 4.1582 14.9473 4.1582C14.9473 4.17773 14.957 4.1875 14.9766 4.1875C14.957 4.375 14.9473 4.49219 14.9473 4.53906C14.959 5.07031 14.9805 5.33594 15.0117 5.33594L14.9766 5.65234V7.05273C14.9766 7.07227 14.9883 7.08203 15.0117 7.08203L14.9766 7.14648V7.21094C14.9766 7.23438 14.9883 7.24609 15.0117 7.24609L14.9766 7.30469C14.9766 7.37109 14.9883 7.4043 15.0117 7.4043L14.9766 7.5625V8.74023C14.9766 9.05664 14.9551 9.21484 14.9121 9.21484C14.9121 9.23828 14.9238 9.25 14.9473 9.25L14.9121 9.56641V9.82422C14.9121 9.94531 14.9238 10.0195 14.9473 10.0469C14.9238 10.1602 14.9121 10.2559 14.9121 10.334V11.3184C14.9121 11.3652 14.9238 11.4082 14.9473 11.4473C14.9238 11.4824 14.9121 11.5254 14.9121 11.5762V11.6348C14.9121 11.9043 14.9023 12.2344 14.8828 12.625L14.9121 12.6895C14.873 12.8301 14.8535 13.1797 14.8535 13.7383V13.832C14.8535 13.8789 14.8633 13.9219 14.8828 13.9609C14.8672 14.0391 14.5801 14.5273 14.0215 15.4258C14.0215 15.4727 13.9473 15.6211 13.7988 15.8711C13.6777 16.1758 13.5195 16.4414 13.3242 16.668C13.3242 16.7539 13.25 16.8379 13.1016 16.9199C13.1016 16.959 12.9746 17.0332 12.7207 17.1426C12.7207 17.2324 12.3066 17.3184 11.4785 17.4004C11.4785 17.4121 11.3926 17.4434 11.2207 17.4941C11.2012 17.4941 11.1914 17.4844 11.1914 17.4648C10.5117 17.5273 10.1719 17.5801 10.1719 17.623L10.0137 17.5879C9.86133 17.5879 9.74414 17.6094 9.66211 17.6523L9.59766 17.623C9.36328 17.6387 9.24609 17.6602 9.24609 17.6875L9.1875 17.6523H9.02344C8.92578 17.6523 8.82031 17.6426 8.70703 17.623C8.51953 17.666 8.37109 17.6875 8.26172 17.6875V17.6523C8.26172 17.4453 8.33594 17.1484 8.48438 16.7617L8.45508 16.6973V16.5684L8.51367 16.4746V15.9004L8.57812 15.8066C8.57812 15.7871 8.56836 15.7773 8.54883 15.7773L8.57812 15.7129L8.54883 15.6484C8.58398 15.5898 8.61523 15.4414 8.64258 15.2031H8.61328L8.64258 15.1387C8.64258 15.1191 8.63281 15.1094 8.61328 15.1094L8.64258 15.0449V14.7227H8.61328C8.58594 14.7227 8.44727 14.8613 8.19727 15.1387C7.8457 15.3652 7.60156 15.5664 7.46484 15.7422C7.41797 15.7422 7.375 15.7539 7.33594 15.7773L7.37109 15.8418C6.9375 16.3223 6.68164 16.5645 6.60352 16.5684H6.38086C6.28711 16.5254 6.20312 16.3242 6.12891 15.9648H6.06445C6.06445 15.9961 5.99023 16.082 5.8418 16.2227L5.17383 17.1133C4.72461 17.6211 4.44922 17.875 4.34766 17.875H4.3125V17.8457C4.21875 17.8887 4.08203 17.9102 3.90234 17.9102H3.45703C3.37891 17.9102 3.2832 17.9199 3.16992 17.9395C3.13086 17.9199 3.08789 17.9102 3.04102 17.9102L2.88281 17.9395L2.66016 17.9102C2.59375 17.9102 2.51953 17.9199 2.4375 17.9395C1.76172 17.9199 1.26172 17.8887 0.9375 17.8457C0.792969 17.8652 0.677734 17.875 0.591797 17.875C0.419922 17.875 0.28125 17.8223 0.175781 17.7168C0.175781 17.6934 0.185547 17.6621 0.205078 17.623C0.205078 17.5684 0.195312 17.4824 0.175781 17.3652C0.21875 16.5723 0.240234 16.0957 0.240234 15.9355H0.205078C0.205078 15.9121 0.216797 15.9004 0.240234 15.9004L0.205078 15.7129C0.228516 15.3965 0.240234 15.1309 0.240234 14.916V14.8867C0.240234 14.8359 0.25 14.793 0.269531 14.7578C0.25 14.7188 0.240234 14.6758 0.240234 14.6289V14.5996L0.269531 14.5352H0.240234C0.283203 14.4492 0.304688 14.375 0.304688 14.3125C0.28125 14.2695 0.269531 14.2363 0.269531 14.2129C0.292969 14.2129 0.304688 14.2031 0.304688 14.1836H0.269531L0.304688 14.1191V14.0254C0.304688 13.9785 0.292969 13.9355 0.269531 13.8965C0.292969 13.8574 0.304688 13.8262 0.304688 13.8027H0.269531C0.269531 13.7793 0.28125 13.7676 0.304688 13.7676C0.289062 13.6191 0.267578 13.5449 0.240234 13.5449C0.283203 13.5059 0.314453 13.3164 0.333984 12.9766C0.298828 12.5508 0.267578 12.3379 0.240234 12.3379L0.269531 12.2734C0.269531 12.2539 0.259766 12.2441 0.240234 12.2441L0.269531 12.1797C0.269531 12.1562 0.259766 12.1445 0.240234 12.1445C0.283203 11.9922 0.304688 11.834 0.304688 11.6699C0.261719 10.2715 0.240234 9.43359 0.240234 9.15625V8.89844C0.240234 8.38281 0.283203 8.05469 0.369141 7.91406V7.78516C0.369141 7.72266 0.357422 7.69141 0.333984 7.69141L0.369141 7.5332V7.11719C0.369141 7.09375 0.357422 7.08203 0.333984 7.08203L0.369141 7.02344V6.98828C0.369141 6.96875 0.357422 6.95898 0.333984 6.95898L0.369141 6.89453C0.369141 6.87109 0.357422 6.85938 0.333984 6.85938C0.333984 6.83984 0.345703 6.83008 0.369141 6.83008L0.333984 6.70117C0.333984 6.68555 0.345703 6.62305 0.369141 6.51367C0.345703 6.4707 0.333984 6.4375 0.333984 6.41406C0.357422 6.375 0.369141 6.34375 0.369141 6.32031C0.345703 6.28516 0.333984 6.24219 0.333984 6.19141H0.369141L0.333984 6.12695V5.78125C0.333984 5.76172 0.3125 5.67578 0.269531 5.52344V5.11328C0.269531 5.08984 0.28125 5.07812 0.304688 5.07812C0.289062 5.04297 0.267578 4.91602 0.240234 4.69727C0.259766 4.69727 0.269531 4.6875 0.269531 4.66797C0.25 4.66797 0.240234 4.65625 0.240234 4.63281C0.259766 4.63281 0.269531 4.62305 0.269531 4.60352C0.25 4.60352 0.240234 4.5918 0.240234 4.56836C0.259766 4.56836 0.269531 4.55859 0.269531 4.53906C0.234375 4.53906 0.203125 4.43164 0.175781 4.2168L1.70508 2.37109C1.70508 2.25781 1.88477 2.18359 2.24414 2.14844L3.70898 1.73828L4.3125 1.60938C4.3125 1.62891 4.32422 1.63867 4.34766 1.63867C4.34766 1.61914 4.48438 1.55664 4.75781 1.45117L4.82227 1.48047L6.19336 0.970703ZM11.7949 1.96094L13.0664 3.20312C13.0664 3.1875 13.1211 3.13281 13.2305 3.03906L12.082 1.86133C11.8906 1.88477 11.7949 1.91797 11.7949 1.96094ZM10.2363 1.89648C10.248 1.93945 10.6836 2.375 11.543 3.20312H11.666C11.6895 3.20312 11.7012 3.19141 11.7012 3.16797L11.7656 3.20312H11.8594C11.8438 3.16016 11.4082 2.72461 10.5527 1.89648H10.5234L10.3301 1.92578C10.291 1.90625 10.2598 1.89648 10.2363 1.89648ZM11.0332 1.89648V1.92578C11.0371 1.96094 11.4609 2.38672 12.3047 3.20312H12.6211C12.6094 3.16016 12.1758 2.72461 11.3203 1.89648H11.0332ZM12.5566 1.92578C12.5645 1.95703 12.8516 2.24414 13.418 2.78711C13.4453 2.78711 13.498 2.72266 13.5762 2.59375C13.5488 2.59375 13.3164 2.36133 12.8789 1.89648C12.8711 1.91602 12.7637 1.92578 12.5566 1.92578ZM13.2891 1.89648C13.2969 1.92773 13.4453 2.07617 13.7344 2.3418C13.7617 2.3418 13.8164 2.27734 13.8984 2.14844L13.6113 1.89648H13.2891ZM5.01562 1.99023V2.02539C5.01562 2.05273 5.13281 2.16797 5.36719 2.37109C5.42969 2.24219 5.46094 2.1582 5.46094 2.11914C5.42969 2.11914 5.36523 2.05469 5.26758 1.92578C5.18945 1.96875 5.10547 1.99023 5.01562 1.99023ZM9.88477 1.99023L9.75586 2.21289L10.7754 3.20312H11.0977C11.0977 3.17578 10.6934 2.77148 9.88477 1.99023ZM4.37695 2.14844C4.37695 2.17969 4.58984 2.39258 5.01562 2.78711H5.04492C5.04492 2.74414 5.07812 2.66992 5.14453 2.56445C5.11719 2.56445 4.95703 2.4043 4.66406 2.08398C4.62109 2.10742 4.52539 2.12891 4.37695 2.14844ZM3.73828 2.27734L4.57031 3.13867C4.73828 3.0957 4.82227 3.05273 4.82227 3.00977C4.28711 2.47852 4.00195 2.21289 3.9668 2.21289C3.90039 2.25586 3.82422 2.27734 3.73828 2.27734ZM3.23438 2.43555H3.16992V2.4707C3.16992 2.49805 3.43555 2.76367 3.9668 3.26758H4.02539C4.13867 3.26758 4.20312 3.23438 4.21875 3.16797C4.1875 3.16797 3.93359 2.91406 3.45703 2.40625L3.23438 2.43555ZM9.43945 2.53516V2.62891C9.72461 2.96875 9.92578 3.13867 10.043 3.13867H10.2656L9.59766 2.43555C9.51562 2.50195 9.46289 2.53516 9.43945 2.53516ZM5.68359 2.72266L6.44531 3.45508C6.39844 3.14258 6.27148 2.89844 6.06445 2.72266L5.8125 2.5C5.76953 2.5 5.72656 2.57422 5.68359 2.72266ZM14.2148 2.53516C14.1523 2.65625 14.1211 2.73047 14.1211 2.75781L14.3086 2.91602H14.3438V2.69336L14.373 2.62891L14.2441 2.53516H14.2148ZM2.56055 2.6582C2.5918 2.6582 2.85742 2.92383 3.35742 3.45508C3.47852 3.39258 3.56445 3.36133 3.61523 3.36133C3.61523 3.33008 3.34961 3.06445 2.81836 2.56445C2.66211 2.56445 2.57617 2.5957 2.56055 2.6582ZM2.05664 2.91602L2.75391 3.58398C2.92578 3.56836 3.01172 3.53711 3.01172 3.49023L2.24414 2.75781C2.11914 2.83203 2.05664 2.88477 2.05664 2.91602ZM9.24609 2.88086C9.16406 2.97852 9.12305 3.05273 9.12305 3.10352L9.1875 3.13867H9.50391C9.50391 3.11133 9.41797 3.02539 9.24609 2.88086ZM5.36719 3.16797L6.76758 4.53906C6.63867 4.10156 6.45703 3.81445 6.22266 3.67773C6.22266 3.65039 5.97852 3.40625 5.49023 2.94531C5.45508 2.94531 5.41406 3.01953 5.36719 3.16797ZM13.9277 2.98047L13.7988 3.13867V3.16797C13.7988 3.19531 13.9805 3.37695 14.3438 3.71289V3.39062C14.3438 3.36328 14.2051 3.22656 13.9277 2.98047ZM1.86328 3.13867L1.73438 3.36133C1.76562 3.36133 1.9043 3.49805 2.15039 3.77148C2.31836 3.7168 2.40234 3.67578 2.40234 3.64844L1.86328 3.13867ZM13.5762 3.42578V3.71289C13.5762 3.74023 13.832 3.99414 14.3438 4.47461C14.3438 4.26758 14.3535 4.16211 14.373 4.1582L13.6113 3.42578H13.5762ZM5.30273 3.51953V3.54883C5.38477 3.68555 5.45898 3.86719 5.52539 4.09375L7.17773 5.7168C7.17773 5.41992 6.87109 5.00586 6.25781 4.47461C6.25781 4.44727 5.93945 4.12891 5.30273 3.51953ZM4.44141 3.71289C4.40234 3.79492 4.13672 3.87891 3.64453 3.96484C3.49219 4.07031 2.82422 4.25 1.64062 4.50391L1.57617 4.47461C1.23242 4.55664 1.03125 4.63086 0.972656 4.69727H1.00195L0.972656 4.76172V4.89062C0.972656 5.05078 0.994141 5.43164 1.03711 6.0332C1.01367 6.0957 0.992188 6.12695 0.972656 6.12695L1.00195 6.19141V6.29102C1.00195 6.31055 0.992188 6.32031 0.972656 6.32031C0.992188 6.36328 1.00195 6.39453 1.00195 6.41406C0.982422 6.45703 0.972656 6.49023 0.972656 6.51367L1.03711 6.54297C0.994141 6.62109 0.972656 6.70703 0.972656 6.80078V7.43359C0.972656 7.45703 0.982422 7.46875 1.00195 7.46875L0.972656 7.5332V8.20117L0.9375 8.35938H0.972656L0.9375 8.42383C0.9375 8.44336 0.949219 8.45312 0.972656 8.45312C0.9375 8.49609 0.90625 8.67578 0.878906 8.99219C0.878906 9.01562 0.888672 9.02734 0.908203 9.02734L0.878906 9.25V9.31445L0.908203 9.50195C0.888672 9.63086 0.867188 9.69531 0.84375 9.69531C0.886719 9.80078 0.908203 9.99219 0.908203 10.2695V10.3633C0.912109 10.4688 0.933594 10.5215 0.972656 10.5215C0.972656 10.5449 0.960938 10.5781 0.9375 10.6211C0.9375 10.6367 0.949219 10.8906 0.972656 11.3828C0.972656 11.6602 0.960938 12 0.9375 12.4023C0.960938 12.7148 0.972656 12.9902 0.972656 13.2285C0.949219 13.6152 0.9375 13.8594 0.9375 13.9609C0.960938 13.9609 0.972656 13.9707 0.972656 13.9902C0.949219 13.9902 0.9375 14.002 0.9375 14.0254C0.960938 14.0254 0.972656 14.0352 0.972656 14.0547C0.949219 14.0547 0.9375 14.0664 0.9375 14.0898H0.972656C0.972656 14.1094 0.960938 14.1191 0.9375 14.1191L0.972656 14.2773V14.3125C0.972656 14.332 0.960938 14.3418 0.9375 14.3418L0.972656 14.4062V14.5C0.972656 14.5234 0.960938 14.5352 0.9375 14.5352L0.972656 14.5996C0.953125 14.8105 0.931641 14.916 0.908203 14.916L0.9375 14.9805V15.2324C0.9375 15.2559 0.927734 15.2676 0.908203 15.2676L0.9375 15.332V15.5195C0.9375 15.543 0.927734 15.5547 0.908203 15.5547L0.9375 15.6133V15.6777C0.9375 15.7012 0.927734 15.7129 0.908203 15.7129C0.927734 15.752 0.9375 15.7832 0.9375 15.8066C0.9375 15.8535 0.927734 15.8965 0.908203 15.9355C0.927734 16.0488 0.9375 16.1445 0.9375 16.2227C0.9375 16.2422 0.927734 16.2734 0.908203 16.3164C0.927734 16.3594 0.9375 16.3906 0.9375 16.4102L0.908203 16.5391L0.9375 16.6035C0.917969 16.6387 0.908203 16.6816 0.908203 16.7324L0.9375 16.7969C0.898438 16.8711 0.878906 16.9551 0.878906 17.0488V17.1133C0.882812 17.1562 0.902344 17.1777 0.9375 17.1777C1.54688 17.2207 1.99414 17.2422 2.2793 17.2422H2.30859C2.36719 17.2422 2.43164 17.2617 2.50195 17.3008C2.54102 17.2812 2.57227 17.2715 2.5957 17.2715V17.3008C2.68164 17.2852 2.72461 17.2656 2.72461 17.2422C2.74414 17.2422 2.75391 17.252 2.75391 17.2715C2.76562 17.2715 2.80859 17.2617 2.88281 17.2422L3.04102 17.2715L3.10547 17.2422C3.12891 17.2422 3.16016 17.252 3.19922 17.2715C3.34375 17.252 3.46094 17.2422 3.55078 17.2422H3.80273C3.82617 17.2422 3.86914 17.1875 3.93164 17.0781C3.93164 17.0586 3.92188 17.0488 3.90234 17.0488C3.92188 16.7988 3.93164 16.6191 3.93164 16.5098V16.0645C3.93164 16.041 3.94336 16.0293 3.9668 16.0293C3.94336 15.9902 3.93164 15.959 3.93164 15.9355C3.93164 15.8496 3.95312 15.7227 3.99609 15.5547H3.9668L3.99609 15.4902C3.99609 15.4668 3.98633 15.4551 3.9668 15.4551L3.99609 15.3906V15.332C3.99609 15.3086 3.98633 15.2969 3.9668 15.2969C4.01367 15.0039 4.05469 14.8027 4.08984 14.6934C4.07031 14.5879 4.04883 14.5352 4.02539 14.5352C4.06836 14.3438 4.11133 14.248 4.1543 14.248V13.1641C4.1543 13.1172 4.16602 13.0742 4.18945 13.0352C4.16602 13 4.1543 12.959 4.1543 12.9121L4.21875 12.8125C4.20312 12.6445 4.18164 12.5605 4.1543 12.5605L4.21875 12.3672L4.1543 12.3379C4.1543 12.3145 4.16602 12.3027 4.18945 12.3027L4.1543 12.1445C4.19727 12.0078 4.21875 11.9121 4.21875 11.8574V11.6699C4.21875 11.6465 4.20898 11.6348 4.18945 11.6348L4.21875 11.5762V11.3184C4.21875 11.248 4.20898 11.1953 4.18945 11.1602L4.21875 10.9668V10.7441C4.21875 10.7129 4.25 10.6816 4.3125 10.6504H4.34766C4.60156 10.9043 4.72852 11.0957 4.72852 11.2246C4.83398 11.2832 4.91797 11.4004 4.98047 11.5762C5.04297 11.623 5.15039 11.834 5.30273 12.209C5.51367 12.5918 5.73633 13.0918 5.9707 13.709C6.06836 13.873 6.20508 14.2441 6.38086 14.8223C6.47461 14.9434 6.53906 15.0918 6.57422 15.2676L6.63867 15.2969C6.92773 14.8594 7.11914 14.5098 7.21289 14.248C7.4043 13.9746 7.5 13.8145 7.5 13.7676C7.78125 13.0527 8.01367 12.5332 8.19727 12.209C8.33008 12.0684 8.50977 11.7285 8.73633 11.1895C8.88477 11.0254 8.99219 10.8242 9.05859 10.5859C9.18359 10.418 9.25781 10.334 9.28125 10.334C9.33984 10.334 9.40234 10.4609 9.46875 10.7148C9.44922 10.7539 9.43945 10.7852 9.43945 10.8086C9.43945 10.8242 9.44922 10.8887 9.46875 11.002L9.43945 11.1602C9.48242 11.3398 9.50391 11.457 9.50391 11.5117C9.48047 12 9.45898 12.2441 9.43945 12.2441C9.43945 12.2637 9.44922 12.2734 9.46875 12.2734L9.41016 12.625C9.42969 12.6875 9.44922 12.7188 9.46875 12.7188L9.3457 13.4805V13.5449C9.3457 13.6191 9.35547 13.6738 9.375 13.709C9.33203 13.9395 9.31055 14.1074 9.31055 14.2129L9.3457 14.5C9.32227 14.6172 9.31055 14.7344 9.31055 14.8516L9.3457 14.916C9.27539 15.4668 9.23242 15.7422 9.2168 15.7422L9.24609 15.8066C9.24609 15.873 9.22656 16.0645 9.1875 16.3809L9.2168 16.4453C9.2168 16.4922 9.18555 16.6621 9.12305 16.9551L9.1875 16.9844C9.39844 16.9844 9.50391 16.9629 9.50391 16.9199L9.56836 16.9551L10.9043 16.8262L10.9688 16.7617L11.0332 16.7969C11.1973 16.7969 11.7051 16.7207 12.5566 16.5684C12.5566 16.5371 12.5684 16.4102 12.5918 16.1875L12.5566 16.0293C12.5566 16.0059 12.5684 15.9746 12.5918 15.9355C12.5684 15.6348 12.5566 15.3789 12.5566 15.168V14.8516C12.5566 14.832 12.5684 14.8223 12.5918 14.8223L12.5566 14.7578C12.5566 14.7344 12.5684 14.7227 12.5918 14.7227L12.5566 14.5645V14.1836C12.5566 14.1641 12.5684 14.1543 12.5918 14.1543C12.5488 14.0605 12.5273 13.8906 12.5273 13.6445V12.9414C12.5273 12.8828 12.5488 12.8203 12.5918 12.7539C12.5684 12.7109 12.5566 12.6777 12.5566 12.6543H12.5918L12.5566 12.5898C12.5566 12.5703 12.5684 12.5605 12.5918 12.5605L12.5566 12.4961L12.5918 12.4316C12.5918 12.4121 12.5801 12.4023 12.5566 12.4023L12.5918 12.2441V12.209C12.5918 12.1895 12.5801 12.1797 12.5566 12.1797L12.5918 12.1152V11.7988C12.5918 11.748 12.5801 11.7051 12.5566 11.6699C12.5801 11.627 12.5918 11.5957 12.5918 11.5762H12.5566L12.5918 11.5117V11.2891L12.5273 11.1895V11.0957L12.5566 11.0312H12.5273C12.5469 10.9922 12.5566 10.9609 12.5566 10.9375C12.5371 10.8945 12.5273 10.8633 12.5273 10.8438H12.5566C12.5566 10.8203 12.5469 10.8086 12.5273 10.8086L12.5566 10.6504C12.5566 10.6348 12.5469 10.5703 12.5273 10.457C12.5469 10.3945 12.5684 10.3633 12.5918 10.3633C12.5918 10.3438 12.5801 10.334 12.5566 10.334L12.5918 10.1699V9.78906L12.6211 9.63086H12.5918L12.6211 9.56641C12.6211 9.50781 12.6328 9.29688 12.6562 8.93359L12.6211 8.76953C12.6211 8.70703 12.6543 8.46289 12.7207 8.03711H12.6855L12.7207 7.97852V7.91406C12.7207 7.84766 12.709 7.81445 12.6855 7.81445L12.7207 7.65625V7.24609C12.7246 7.13672 12.7441 7.08203 12.7793 7.08203C12.7793 7.0625 12.7695 7.05273 12.75 7.05273L12.7793 6.83008V6.51367C12.7793 6.49023 12.791 6.47852 12.8145 6.47852L12.7793 6.41406C12.8301 6.41406 12.8945 5.65039 12.9727 4.12305V3.96484C12.9531 3.92578 12.9434 3.89453 12.9434 3.87109L12.6211 3.90039H11.9531C11.9336 3.90039 11.9238 3.91211 11.9238 3.93555C11.9004 3.93555 11.8887 3.92383 11.8887 3.90039C11.7559 3.90039 11.5977 3.91211 11.4141 3.93555C10.8906 3.91211 10.4766 3.90039 10.1719 3.90039C10.0781 3.90039 9.98242 3.87891 9.88477 3.83594C9.88477 3.85938 9.875 3.87109 9.85547 3.87109V3.83594C9.8125 3.85938 9.7793 3.87109 9.75586 3.87109C9.64258 3.87109 9.44141 3.85938 9.15234 3.83594L9.08789 3.87109C9.05273 3.84766 9.00977 3.83594 8.95898 3.83594H8.90039C8.81836 3.85547 8.71094 4.12109 8.57812 4.63281C8.55859 4.63281 8.53711 4.66406 8.51367 4.72656H8.54883C8.31445 5.26562 8.19727 5.56445 8.19727 5.62305C7.98633 6.02539 7.74219 6.69336 7.46484 7.62695C7.42969 7.62695 7.3457 7.83789 7.21289 8.25977H7.24219C7.13672 8.58008 7.04102 8.81445 6.95508 8.96289C6.95508 9.13086 6.88086 9.26953 6.73242 9.37891H6.70312C6.58203 9.37891 6.42188 9.10156 6.22266 8.54688C6.24609 8.54688 6.25781 8.53711 6.25781 8.51758C6.10938 8.29492 6.03516 8.0293 6.03516 7.7207C5.96484 7.69336 5.89062 7.43945 5.8125 6.95898C5.78906 6.95898 5.77734 6.94727 5.77734 6.92383C5.80078 6.92383 5.8125 6.91406 5.8125 6.89453C5.78125 6.89453 5.74805 6.8418 5.71289 6.73633L5.74805 6.67188L5.61914 6.35547V6.19141C5.55273 6.19141 5.48828 6.00195 5.42578 5.62305C5.35156 5.5293 5.29883 5.43359 5.26758 5.33594C5.29102 5.33594 5.30273 5.32422 5.30273 5.30078C5.21289 5.20312 5.05273 4.75781 4.82227 3.96484C4.77148 3.79688 4.6875 3.71289 4.57031 3.71289C4.52734 3.73242 4.49414 3.74219 4.4707 3.74219C4.4707 3.72266 4.46094 3.71289 4.44141 3.71289ZM13.5762 4.1582V4.47461C13.5957 4.52148 13.873 4.79688 14.4082 5.30078V5.14258C14.4082 4.9668 14.2695 4.77539 13.9922 4.56836C13.9922 4.54102 13.8535 4.4043 13.5762 4.1582ZM5.77734 4.76172C5.91406 5.20312 6.0957 5.49023 6.32227 5.62305C6.32617 5.65039 6.61133 5.93555 7.17773 6.47852C7.2207 6.3418 7.24219 6.24609 7.24219 6.19141L5.77734 4.76172ZM13.5469 4.91992C13.5469 5.20117 13.6426 5.39258 13.834 5.49414C13.834 5.52148 14.0137 5.70117 14.373 6.0332V5.7168C14.373 5.68555 14.1074 5.41992 13.5762 4.91992H13.5469ZM13.5117 5.62305C13.4922 5.80664 13.4824 5.91211 13.4824 5.93945L14.4082 6.83008V6.80078C14.4082 6.51562 14.3008 6.3125 14.0859 6.19141C14.0859 6.16406 13.8945 5.97461 13.5117 5.62305ZM6.19336 5.93945V5.96875C6.2207 5.96875 6.2832 6.13867 6.38086 6.47852L6.99023 7.05273C6.99023 6.95898 7.02148 6.875 7.08398 6.80078C7.07227 6.79297 6.77539 6.50586 6.19336 5.93945ZM13.4824 6.35547V6.67188C13.4824 6.69922 13.791 7.00586 14.4082 7.5918V7.33984L14.373 7.27539C14.3965 7.27539 14.4082 7.26562 14.4082 7.24609L13.4824 6.35547ZM6.50977 7.02344V7.08203C6.5918 7.42188 6.67773 7.5918 6.76758 7.5918H6.79688V7.43359L6.86133 7.33984L6.50977 7.02344ZM13.4531 7.08203C13.4531 7.17578 13.4316 7.27148 13.3887 7.36914L14.373 8.32422V8.00781C14.373 7.98047 14.0664 7.67188 13.4531 7.08203ZM13.3887 7.78516C13.3887 7.83984 13.3672 7.93555 13.3242 8.07227L14.3438 9.05664L14.4082 8.86914C14.4082 8.7793 14.0684 8.41797 13.3887 7.78516ZM13.3242 8.48828V8.80469C13.3281 8.83594 13.668 9.17578 14.3438 9.82422L14.3086 9.75977V9.47266C14.3086 9.44531 13.9805 9.11719 13.3242 8.48828ZM13.3242 9.25V9.56641C13.3242 9.59375 13.6426 9.91211 14.2793 10.5215C14.3223 10.3848 14.3438 10.2891 14.3438 10.2344L13.3242 9.25ZM13.3242 10.0117L13.2891 10.2344L13.3242 10.2988C13.3008 10.2988 13.2891 10.3105 13.2891 10.334L14.2793 11.2891H14.3086V11.002C14.3086 10.9746 13.9805 10.6445 13.3242 10.0117ZM13.2598 10.7148V11.0312C13.2637 11.0625 13.6035 11.4023 14.2793 12.0508V11.7344C14.2793 11.707 13.9395 11.3672 13.2598 10.7148ZM13.2891 11.5117V11.8281C13.2969 11.8594 13.627 12.1875 14.2793 12.8125V12.4961C14.2793 12.4688 13.9492 12.1406 13.2891 11.5117ZM13.2891 12.2734V12.5898C13.2969 12.6211 13.627 12.9512 14.2793 13.5801V13.2578C14.2793 13.2344 13.9492 12.9062 13.2891 12.2734ZM8.54883 12.877C8.54883 12.9043 8.51758 12.9902 8.45508 13.1348L8.80078 13.4512V13.1348C8.80078 13.1074 8.7168 13.0215 8.54883 12.877ZM13.2891 13.0352C13.2891 13.1016 13.2793 13.1348 13.2598 13.1348C13.2598 13.334 13.377 13.5137 13.6113 13.6738C13.6152 13.7051 13.7637 13.8535 14.0566 14.1191C14.084 14.1191 14.125 14.0566 14.1797 13.9316C14.1797 13.9043 13.8828 13.6055 13.2891 13.0352ZM4.85742 13.0703L4.82227 13.1348C4.82227 13.3066 4.94922 13.4863 5.20312 13.6738C5.12109 13.541 5.08008 13.4453 5.08008 13.3867C4.94727 13.1758 4.87305 13.0703 4.85742 13.0703ZM8.32617 13.4219C8.30273 13.457 8.28125 13.5527 8.26172 13.709C8.39844 13.834 8.47266 13.8965 8.48438 13.8965C8.59766 13.834 8.67188 13.8027 8.70703 13.8027C8.70703 13.7715 8.58008 13.6445 8.32617 13.4219ZM4.82227 13.7383V14.0547C4.83008 14.0859 5.16016 14.416 5.8125 15.0449V15.0098C5.75 14.959 5.66406 14.7676 5.55469 14.4355L4.82227 13.7383ZM13.2891 13.8027V14.1191C13.2891 14.1465 13.4492 14.3066 13.7695 14.5996C13.7695 14.5801 13.8125 14.5156 13.8984 14.4062C13.8984 14.3789 13.6953 14.1777 13.2891 13.8027ZM4.79297 14.4707C4.76953 14.5059 4.74805 14.6016 4.72852 14.7578L5.64844 15.6484C5.64844 15.5938 5.69141 15.5195 5.77734 15.4258L4.79297 14.4707ZM13.3242 14.5996V14.916C13.3242 14.9473 13.3867 15.0117 13.5117 15.1094C13.5781 15.0078 13.6113 14.9219 13.6113 14.8516L13.3242 14.5996ZM4.69336 15.1387V15.4551C4.69336 15.4824 4.88477 15.6738 5.26758 16.0293C5.26758 16.002 5.31055 15.9277 5.39648 15.8066L4.69336 15.1387ZM4.66406 15.8711V16.1875C4.66406 16.2148 4.75977 16.3105 4.95117 16.4746L5.08008 16.2871C5.08008 16.2559 4.94141 16.1172 4.66406 15.8711Z" fill="#652F8F"/>
</svg>
