<svg width="15" height="18" viewBox="0 0 15 18" fill="none" xmlns="http://www.w3.org/2000/svg">
<path d="M9.63281 0.134766C10.4961 0.197266 11.0254 0.228516 11.2207 0.228516V0.263672C11.2441 0.263672 11.2559 0.251953 11.2559 0.228516L11.4785 0.263672H12.0176C12.1387 0.263672 12.3086 0.251953 12.5273 0.228516C12.5469 0.228516 12.5566 0.240234 12.5566 0.263672L12.7207 0.228516H12.8145C13.0254 0.232422 13.1309 0.253906 13.1309 0.292969L13.1953 0.263672H13.3242C13.5156 0.263672 13.7266 0.369141 13.957 0.580078C13.9805 0.759766 13.9922 0.908203 13.9922 1.02539V1.05469L14.0215 1.11914C14.002 1.11914 13.9922 1.13086 13.9922 1.1543H14.0215C14.0215 1.17383 14.0117 1.18359 13.9922 1.18359C14.0117 1.43359 14.0215 1.61523 14.0215 1.72852V1.85156C14.0215 1.92969 14.0117 2.02539 13.9922 2.13867C14.0117 2.17383 14.0215 2.22656 14.0215 2.29688H13.9922C13.9922 2.32031 14.002 2.33203 14.0215 2.33203C14.002 2.64844 13.9922 2.88086 13.9922 3.0293V3.1875L14.0215 3.41602H13.9922C13.9922 3.43555 14.002 3.44531 14.0215 3.44531C13.998 3.63281 13.9766 3.75 13.957 3.79688C13.9805 3.83203 13.9922 3.87305 13.9922 3.91992C13.9922 4.00586 13.9805 4.04883 13.957 4.04883L13.9922 4.37109V5.54883C13.9922 5.5957 14.002 5.63672 14.0215 5.67188L13.9922 5.73633L14.0215 5.80078C14.002 5.84375 13.9922 5.875 13.9922 5.89453C14.0117 5.89453 14.0215 5.90625 14.0215 5.92969H13.9922L14.0215 5.99414V6.15234C14.0215 6.19922 14.0117 6.24023 13.9922 6.27539L14.0215 6.33984L13.9922 6.66211L14.0215 6.72656L13.9922 6.78516L14.0215 6.84961C14.0215 6.87305 14.0117 6.88477 13.9922 6.88477L14.0215 7.04297V7.77539L14.0566 7.96289C14.0566 7.98633 14.0449 7.99805 14.0215 7.99805L14.0566 8.2207C14.0566 8.44336 14.0664 8.86719 14.0859 9.49219C14.0664 9.60938 14.0566 9.69531 14.0566 9.75C14.0566 9.76953 14.0664 9.7793 14.0859 9.7793L14.0566 9.9375V10.002C14.0566 10.0723 14.0664 10.125 14.0859 10.1602C14.0234 10.707 13.9922 11.2695 13.9922 11.8477V11.9473C13.9922 11.9941 13.9805 12.0352 13.957 12.0703C13.9805 12.1094 13.9922 12.1523 13.9922 12.1992V12.4512C14.0625 12.5801 14.1055 12.6445 14.1211 12.6445C14.0352 12.8555 13.8652 13.1309 13.6113 13.4707C13.248 14.248 13.0039 14.8223 12.8789 15.1934C12.3477 16.0488 12.082 16.5156 12.082 16.5938C12.0117 16.6992 11.9473 16.752 11.8887 16.752C11.873 16.752 11.8105 16.7422 11.7012 16.7227L11.5723 16.7812L11.4141 16.7227L10.8691 16.7812C10.7871 16.7656 10.7461 16.7461 10.7461 16.7227C10.457 16.7422 10.2441 16.752 10.1074 16.752H9.59766C9.39453 16.7949 9.27734 16.8164 9.24609 16.8164H8.95898C8.93945 16.8164 8.92969 16.8262 8.92969 16.8457C8.91016 16.8457 8.90039 16.8359 8.90039 16.8164C8.61133 16.8359 8.39844 16.8457 8.26172 16.8457H7.6875C7.66797 16.8457 7.6582 16.8574 7.6582 16.8809L7.59375 16.8457C7.22656 16.8887 6.9082 16.9629 6.63867 17.0684C6.25586 17.002 6.06445 16.8438 6.06445 16.5938H6.09961C6.0332 16.2812 5.91602 15.8887 5.74805 15.416H5.71289C5.65039 15.4512 5.49219 15.7168 5.23828 16.2129C5.13281 16.3066 5.01562 16.5391 4.88672 16.9102L4.53516 17.0684H4.18945C4.13867 17.0684 4.0957 17.0586 4.06055 17.0391C4.01758 17.0586 3.98633 17.0684 3.9668 17.0684V17.0391L3.90234 17.0684H3.80273C3.7832 17.0684 3.77344 17.0586 3.77344 17.0391L3.70898 17.0684H3.64453L3.42188 17.0391C3.42188 17.0586 3.41211 17.0684 3.39258 17.0684C3.39258 17.0254 3.37109 17.0039 3.32812 17.0039C3.21094 17.0039 3.0625 17.0156 2.88281 17.0391C2.60156 17.0156 2.36719 17.0039 2.17969 17.0039L2.02148 17.0391C1.7207 17.0117 1.49805 16.9688 1.35352 16.9102L1.28906 16.9453C1.14062 16.9023 1.01367 16.8809 0.908203 16.8809H0.240234C0.197266 16.8809 0.175781 16.8594 0.175781 16.8164V16.5938L0.205078 16.3711H0.175781C0.195312 16.2656 0.216797 16.2129 0.240234 16.2129L0.175781 15.9902L0.240234 15.7969C0.240234 15.7539 0.21875 15.6797 0.175781 15.5742H0.205078C0.205078 15.5508 0.195312 15.5391 0.175781 15.5391L0.205078 15.3164L0.175781 15.1582C0.261719 14.6777 0.304688 14.4023 0.304688 14.332C0.304688 14.3086 0.292969 14.2773 0.269531 14.2383C0.335938 13.8828 0.369141 13.6699 0.369141 13.5996V13.4707C0.369141 13.4512 0.357422 13.4414 0.333984 13.4414L0.369141 13.377V13.3125C0.369141 13.293 0.357422 13.2832 0.333984 13.2832L0.369141 13.2188V12.709C0.373047 12.6035 0.392578 12.5508 0.427734 12.5508C0.427734 12.5273 0.417969 12.5156 0.398438 12.5156C0.398438 12.4023 0.429688 12.0957 0.492188 11.5957L0.462891 11.4668L0.492188 11.4023L0.462891 11.3379L0.527344 10.8281C0.527344 10.8086 0.515625 10.7988 0.492188 10.7988L0.527344 10.6406V10.6055C0.527344 10.457 0.515625 10.2246 0.492188 9.9082C0.535156 9.9082 0.556641 9.88672 0.556641 9.84375V9.52734C0.564453 9.41797 0.585938 9.36328 0.621094 9.36328C0.605469 9.28125 0.583984 9.24023 0.556641 9.24023L0.591797 9.11133L0.556641 8.79492C0.580078 8.57617 0.601562 8.44922 0.621094 8.41406H0.591797C0.630859 8.30078 0.650391 8.07617 0.650391 7.74023V7.68164C0.650391 7.63086 0.662109 7.58789 0.685547 7.55273C0.662109 7.50977 0.650391 7.47852 0.650391 7.45898C0.650391 7.34961 0.671875 7.29492 0.714844 7.29492C0.714844 7.27539 0.705078 7.26562 0.685547 7.26562L0.714844 7.10742C0.714844 7.06055 0.705078 7.01758 0.685547 6.97852L0.779297 6.31055C0.759766 6.26758 0.75 6.23633 0.75 6.2168L0.779297 6.15234L0.75 6.08789C0.769531 5.94336 0.779297 5.82617 0.779297 5.73633V5.67188C0.779297 5.65234 0.769531 5.64258 0.75 5.64258C0.8125 5.43555 0.84375 5.29688 0.84375 5.22656V5.19727C0.84375 5.10352 0.822266 5.01758 0.779297 4.93945H0.84375V4.81641C0.84375 4.79297 0.833984 4.78125 0.814453 4.78125L0.84375 4.7168V4.6875C0.84375 4.62891 0.822266 4.56445 0.779297 4.49414L0.84375 4.46484C0.824219 4.21484 0.814453 4.0332 0.814453 3.91992V2.96484L0.75 2.74219C0.835938 2.68359 1.08008 2.38672 1.48242 1.85156L1.99219 1.24805C2.29297 0.896484 2.49414 0.705078 2.5957 0.673828L2.72461 0.738281L2.78906 0.708984L2.91211 0.738281C3.06836 0.738281 3.38672 0.695312 3.86719 0.609375L3.93164 0.644531C4.12305 0.585938 4.3457 0.542969 4.59961 0.515625C4.74023 0.539062 4.87891 0.550781 5.01562 0.550781C5.125 0.527344 5.1875 0.515625 5.20312 0.515625L5.26758 0.550781L6.66797 0.263672L6.79688 0.292969C6.80859 0.292969 6.92578 0.261719 7.14844 0.199219C7.49609 0.199219 7.71875 0.570313 7.81641 1.3125L7.8457 1.53516H7.88086C7.98242 1.41016 8.2793 0.974609 8.77148 0.228516C8.81055 0.251953 8.8418 0.263672 8.86523 0.263672C8.91992 0.263672 9.17578 0.220703 9.63281 0.134766ZM9.85547 0.802734L11.543 2.46094H11.7656C11.8047 2.46094 11.8242 2.43945 11.8242 2.39648C10.7188 1.29102 10.1465 0.738281 10.1074 0.738281H9.91406C9.875 0.746094 9.85547 0.767578 9.85547 0.802734ZM10.6465 0.802734C10.6465 0.830078 11.1133 1.29688 12.0469 2.20312H12.082C12.082 2.16016 12.1133 2.08594 12.1758 1.98047L10.9688 0.802734H10.6465ZM9.2168 0.931641C10.2207 1.92773 10.7402 2.42578 10.7754 2.42578L10.9688 2.46094C11.0078 2.4375 11.0391 2.42578 11.0625 2.42578C11.0625 2.39844 10.5312 1.86719 9.46875 0.832031C9.30078 0.855469 9.2168 0.888672 9.2168 0.931641ZM11.4785 0.867188C11.4785 0.894531 11.7754 1.19141 12.3691 1.75781C12.3691 1.73828 12.4121 1.67383 12.498 1.56445C12.1035 1.11914 11.8594 0.896484 11.7656 0.896484L11.4785 0.867188ZM12.2754 0.896484V0.931641L12.6855 1.3125L12.8145 1.08984L12.5918 0.896484H12.5273L12.3047 0.931641C12.3047 0.908203 12.2949 0.896484 12.2754 0.896484ZM5.61914 1.11914C5.61914 1.15039 5.75781 1.28906 6.03516 1.53516C6.06641 1.53516 6.11914 1.4707 6.19336 1.3418C6.02148 1.17383 5.91406 1.08984 5.87109 1.08984C5.85547 1.08984 5.77148 1.09961 5.61914 1.11914ZM4.85742 1.11914C4.87305 1.16992 5.14844 1.44727 5.68359 1.95117L5.8418 1.75781C5.44727 1.35547 5.21484 1.1543 5.14453 1.1543C5.07812 1.1543 5.04492 1.14258 5.04492 1.11914L4.98047 1.1543C4.94531 1.13086 4.9043 1.11914 4.85742 1.11914ZM8.99414 1.1543C8.99414 1.20898 8.96289 1.2832 8.90039 1.37695L9.94922 2.39648H10.2656C10.2656 2.36914 9.85156 1.95508 9.02344 1.1543H8.99414ZM4.18945 1.21875C4.19336 1.25 4.54297 1.59961 5.23828 2.26758H5.36719C5.39453 2.26758 5.42578 2.23633 5.46094 2.17383C5.46094 2.14648 5.13086 1.81641 4.4707 1.18359H4.34766L4.18945 1.21875ZM3.48633 1.2832L4.57031 2.39648L4.63477 2.36133H4.85742V2.33203C4.83789 2.28906 4.47656 1.92773 3.77344 1.24805C3.66016 1.27148 3.56445 1.2832 3.48633 1.2832ZM2.81836 1.3125V1.37695C2.83398 1.41992 3.19531 1.78125 3.90234 2.46094H4.02539L4.18945 2.42578C3.50586 1.70312 3.13281 1.3418 3.07031 1.3418C3.05469 1.3418 2.9707 1.33203 2.81836 1.3125ZM6.82617 1.59961L7.46484 2.20312V2.17383C7.43359 1.91992 7.33789 1.7168 7.17773 1.56445L6.99023 1.40625C6.95898 1.40625 6.9043 1.4707 6.82617 1.59961ZM13.0664 1.72852L13.3242 1.95117V1.62891C13.3242 1.59766 13.293 1.56641 13.2305 1.53516C13.1953 1.53516 13.1406 1.59961 13.0664 1.72852ZM2.56055 1.59961C2.56055 1.62695 2.51953 1.67969 2.4375 1.75781C2.90625 2.26562 3.17188 2.51953 3.23438 2.51953C3.38281 2.5 3.4668 2.49023 3.48633 2.49023C3.48633 2.46289 3.18945 2.16602 2.5957 1.59961H2.56055ZM8.73633 1.62891C8.67383 1.78516 8.64258 1.87109 8.64258 1.88672L9.08789 2.29688L9.15234 2.26758H9.24609C9.26953 2.26758 9.28125 2.27734 9.28125 2.29688C9.32031 2.27734 9.35156 2.26758 9.375 2.26758C9.375 2.24023 9.16211 2.02734 8.73633 1.62891ZM6.63867 1.82227C6.55273 1.91602 6.50977 1.96875 6.50977 1.98047V2.00977C6.51367 2.04492 6.84375 2.375 7.5 3V2.93555C7.45703 2.86523 7.43555 2.8125 7.43555 2.77734H7.46484L7.43555 2.71289C7.45508 2.66992 7.46484 2.63867 7.46484 2.61914L6.63867 1.82227ZM2.21484 1.98047C2.21484 2.02344 2.17188 2.08789 2.08594 2.17383L2.4668 2.58398L2.53125 2.55469C2.57422 2.57422 2.60547 2.58398 2.625 2.58398L2.68945 2.55469C2.72852 2.57422 2.77148 2.58398 2.81836 2.58398C2.81836 2.55664 2.61719 2.35547 2.21484 1.98047ZM12.75 2.17383L13.2891 2.68359L13.3242 2.51953V2.39648C13.3242 2.36523 13.1855 2.22656 12.9082 1.98047C12.877 1.98047 12.8242 2.04492 12.75 2.17383ZM6.28711 2.23828C6.28711 2.28516 6.25586 2.34766 6.19336 2.42578V2.46094C6.20508 2.5 6.64062 2.93359 7.5 3.76172V3.73242H7.46484L7.5 3.66797V3.60352C7.5 3.58398 7.48828 3.57422 7.46484 3.57422L7.5 3.50977V3.44531C7.5 3.41797 7.0957 3.01562 6.28711 2.23828ZM12.5566 2.39648C12.4941 2.54492 12.4629 2.62891 12.4629 2.64844L13.3242 3.47461C13.3242 3.17383 13.2383 2.98438 13.0664 2.90625C13.0664 2.87891 12.8965 2.70898 12.5566 2.39648ZM6.19336 2.90625V2.93555C6.19336 3.19727 6.42578 3.52539 6.89062 3.91992C6.89062 3.94727 7.08203 4.13867 7.46484 4.49414H7.5C7.5 4.45898 7.47852 4.39648 7.43555 4.30664L7.46484 4.24219C7.46484 4.14844 7.04102 3.70312 6.19336 2.90625ZM8.23242 2.90625C8.23242 2.92578 8.24219 2.93555 8.26172 2.93555C8.21875 3.00586 8.19727 3.07031 8.19727 3.12891H8.23242L8.19727 3.1875V3.69727C8.20508 3.74023 8.22656 3.76172 8.26172 3.76172L8.23242 3.91992L8.26172 3.98438L8.23242 4.04883L8.26172 4.11328C8.21875 4.16406 8.1875 4.39844 8.16797 4.81641H8.19727L8.16797 4.875V5.00391L8.23242 5.09766L8.19727 5.32617H8.23242C8.20898 5.36914 8.1875 5.46289 8.16797 5.60742L8.19727 5.77148C8.18164 5.89648 8.16016 5.95898 8.13281 5.95898L8.16797 6.11719C8.16797 6.26562 8.14648 6.33984 8.10352 6.33984L8.13281 6.50391V7.07227C8.13281 7.0957 8.14453 7.10742 8.16797 7.10742C8.14453 7.23242 8.12305 7.29492 8.10352 7.29492L8.13281 7.51758V8.60156C8.13281 8.625 8.12305 8.63672 8.10352 8.63672L8.13281 8.69531L8.10352 8.75977L8.13281 8.82422L8.06836 9.01758L8.10352 9.20508L8.06836 9.49219H8.10352C8.10352 9.60547 8.0293 9.66992 7.88086 9.68555C7.7793 9.60352 7.68359 9.43359 7.59375 9.17578C7.61328 9.17578 7.62305 9.16406 7.62305 9.14062C7.56836 9.14062 7.49414 8.96094 7.40039 8.60156H7.43555C7.30664 8.42188 7.08398 7.80664 6.76758 6.75586C6.5332 6.07227 6.32031 5.54102 6.12891 5.16211H6.1582C5.99023 4.7832 5.83203 4.34961 5.68359 3.86133C5.63281 3.81836 5.49414 3.51953 5.26758 2.96484C5.26758 2.94531 5.25781 2.93555 5.23828 2.93555H5.10938C4.72656 2.99805 4.53516 3.04102 4.53516 3.06445C4.51562 3.06445 4.50586 3.05273 4.50586 3.0293L4.18945 3.09375L4.125 3.06445C3.98828 3.09961 3.66992 3.14062 3.16992 3.1875C3.16992 3.16797 3.1582 3.1582 3.13477 3.1582C3.13477 3.20117 3.11328 3.22266 3.07031 3.22266H2.88281C1.90625 3.27734 1.41797 3.35156 1.41797 3.44531C1.41797 3.53125 1.40625 3.57422 1.38281 3.57422L1.41797 3.63867V3.66797C1.41797 3.71484 1.40625 3.75781 1.38281 3.79688C1.40625 3.96484 1.42773 4.04883 1.44727 4.04883C1.42773 4.11133 1.40625 4.14258 1.38281 4.14258L1.41797 4.20703C1.41797 4.23047 1.40625 4.24219 1.38281 4.24219C1.38281 4.28516 1.39453 4.30664 1.41797 4.30664C1.39453 4.55273 1.38281 4.73242 1.38281 4.8457V5.64258C1.38281 5.68945 1.37305 5.73242 1.35352 5.77148L1.38281 5.83008C1.34375 5.90039 1.32422 5.96484 1.32422 6.02344C1.36328 6.03125 1.38281 6.05273 1.38281 6.08789H1.35352L1.38281 6.15234C1.38281 6.25391 1.35156 6.35938 1.28906 6.46875L1.32422 6.62695H1.28906L1.35352 6.75586C1.31055 6.76367 1.28906 6.78516 1.28906 6.82031V7.13672L1.25977 7.29492H1.28906C1.24609 7.41992 1.22461 7.68555 1.22461 8.0918H1.19531L1.22461 8.15625V8.63672L1.16016 8.73047V8.85938C1.16016 8.87891 1.17188 8.88867 1.19531 8.88867L1.16016 8.95312V8.98242C1.16016 9.00586 1.17188 9.01758 1.19531 9.01758L1.16016 9.08203C1.16016 9.10156 1.17188 9.11133 1.19531 9.11133L1.16016 9.17578V9.26953L1.22461 9.36328V9.42773C1.18164 9.58008 1.16016 9.66602 1.16016 9.68555V9.84375C1.16016 10.0586 1.15039 10.3242 1.13086 10.6406L1.16016 10.7988C1.11328 10.8574 1.08203 11.0156 1.06641 11.2734L1.10156 11.3379L1.06641 11.4023C1.08984 11.5156 1.10156 11.5801 1.10156 11.5957L1.06641 11.7539C1.08984 11.8711 1.10156 11.9551 1.10156 12.0059C1.05859 12.0762 1.03711 12.1406 1.03711 12.1992V12.8027C1.03711 12.8262 1.04688 12.8379 1.06641 12.8379C1.03906 12.9551 1.00781 13.0391 0.972656 13.0898H1.00195L0.972656 13.1543V13.377L1.03711 13.4707V13.8867C0.994141 14.0391 0.972656 14.123 0.972656 14.1387V14.2031C0.972656 14.2266 0.982422 14.2383 1.00195 14.2383L0.972656 14.3027V14.584C0.972656 14.6074 0.960938 14.6191 0.9375 14.6191L0.972656 14.6836C0.929688 14.8164 0.908203 14.9004 0.908203 14.9355H0.9375L0.878906 15.2578C0.898438 15.293 0.908203 15.334 0.908203 15.3809V15.5098C0.908203 15.5293 0.898438 15.5391 0.878906 15.5391L0.908203 15.6035C0.908203 15.6816 0.898438 15.7773 0.878906 15.8906L0.908203 15.9551L0.878906 16.0195C0.894531 16.168 0.96875 16.2422 1.10156 16.2422C1.12109 16.2422 1.13086 16.2324 1.13086 16.2129L1.25977 16.2715V16.2422L1.32422 16.2715H1.66992C1.81055 16.3301 2.46875 16.3848 3.64453 16.4355C3.64453 16.4551 3.77148 16.4648 4.02539 16.4648C4.06055 16.3789 4.09375 16.3359 4.125 16.3359L4.08984 16.2715V15.8906L4.06055 15.5742H4.08984C4.07031 15.5312 4.06055 15.5 4.06055 15.4805C4.06055 15.3711 4.08203 15.3164 4.125 15.3164L4.06055 15.1289C4.10352 15.0586 4.125 14.9941 4.125 14.9355C4.08203 14.8652 4.06055 14.8027 4.06055 14.748C4.10352 14.748 4.125 14.7266 4.125 14.6836C4.08203 14.6133 4.06055 14.5605 4.06055 14.5254C4.10352 14.377 4.125 14.248 4.125 14.1387V13.5996C4.125 13.5059 4.10352 13.4219 4.06055 13.3477C4.08008 13.0898 4.10156 12.9609 4.125 12.9609C4.08203 12.8945 4.06055 12.832 4.06055 12.7734H4.08984L4.06055 12.709V12.6445L4.125 12.5508V12.4219C4.125 12.2344 4.13477 12.0215 4.1543 11.7832L4.125 11.6602C4.15234 11.4219 4.17383 11.2734 4.18945 11.2148C4.16602 11.1758 4.1543 11.1328 4.1543 11.0859V10.957C4.1543 10.8359 4.16602 10.7617 4.18945 10.7344C4.16602 10.6211 4.1543 10.5254 4.1543 10.4473V9.97266C4.1543 9.92188 4.16602 9.87891 4.18945 9.84375C4.16602 9.8125 4.14453 9.69531 4.125 9.49219H4.1543C4.13477 9.34375 4.11328 9.26953 4.08984 9.26953C4.08984 9.25 4.10156 9.24023 4.125 9.24023L4.08984 9.08203V8.41406C4.08984 8.36328 4.08008 8.32031 4.06055 8.28516L4.08984 8.2207L4.06055 8.15625C4.06055 8.13672 4.07031 8.12695 4.08984 8.12695L4.06055 7.96289V7.86914L4.125 7.77539V7.74023L4.08984 7.58203C4.15625 7.5625 4.18945 7.54102 4.18945 7.51758C4.28711 7.51758 4.44531 7.81641 4.66406 8.41406L4.69336 8.47266C4.69336 8.49609 4.68359 8.50781 4.66406 8.50781C4.75 8.65234 4.80273 8.80078 4.82227 8.95312C4.80273 8.95312 4.79297 8.96289 4.79297 8.98242C4.83203 8.98242 4.90625 9.14258 5.01562 9.46289C5.03516 9.46289 5.04492 9.47266 5.04492 9.49219V9.84375C5.15039 10.1055 5.26758 10.5508 5.39648 11.1797C5.45508 11.3086 5.49805 11.4688 5.52539 11.6602H5.55469L5.52539 11.7246C5.73633 12.3105 5.91602 12.9258 6.06445 13.5703C6.08789 13.5703 6.09961 13.5801 6.09961 13.5996C6.09961 13.623 6.08789 13.6348 6.06445 13.6348C6.10742 13.791 6.16016 13.9277 6.22266 14.0449C6.20312 14.0449 6.19336 14.0566 6.19336 14.0801C6.23633 14.0801 6.26758 14.1855 6.28711 14.3965C6.45898 14.8418 6.56445 15.1699 6.60352 15.3809C6.73242 15.6035 6.79688 15.8066 6.79688 15.9902C6.875 16.2012 6.96094 16.3066 7.05469 16.3066C7.12891 16.2637 7.21289 16.2422 7.30664 16.2422H7.46484C7.91406 16.2422 9.03906 16.2109 10.8398 16.1484C10.8594 16.1484 10.9453 16.1582 11.0977 16.1777C11.1367 16.0996 11.1562 16.0156 11.1562 15.9258L11.127 15.8613C11.1699 15.791 11.1914 15.7383 11.1914 15.7031C11.2344 14.7344 11.2559 14.1387 11.2559 13.916L11.3203 13.8867L11.2852 13.8223L11.3203 13.6641C11.2969 13.6641 11.2852 13.6543 11.2852 13.6348C11.3086 13.6348 11.3203 13.623 11.3203 13.5996H11.2852L11.3203 13.5352V13.1836L11.3789 13.0898V12.9316C11.3789 12.9121 11.3691 12.9023 11.3496 12.9023L11.3789 12.8379C11.3789 12.8145 11.3691 12.8027 11.3496 12.8027L11.3789 12.7383V11.9473C11.3789 11.9238 11.3691 11.9121 11.3496 11.9121L11.3789 11.8477V10.3184C11.3789 9.79102 11.4121 9.52734 11.4785 9.52734C11.4355 9.43359 11.4141 9.28516 11.4141 9.08203C11.418 8.76172 11.4395 8.60156 11.4785 8.60156L11.4434 8.53711V8.37891C11.4434 8.35547 11.4648 8.23828 11.5078 8.02734V7.17188C11.5078 7.14844 11.5195 7.13672 11.543 7.13672L11.5078 7.07227C11.5703 6.87305 11.623 6.17383 11.666 4.97461H11.7012L11.666 4.91016L11.7012 4.6875H11.666L11.7012 4.62305V4.37109L11.7656 4.14258H11.7305C11.7305 4.12305 11.7422 4.11328 11.7656 4.11328C11.7422 3.99609 11.7305 3.91211 11.7305 3.86133C11.7539 3.81836 11.7656 3.78516 11.7656 3.76172H11.7305L11.7656 3.69727L11.7305 3.63867C11.7734 3.63867 11.7949 3.60547 11.7949 3.53906L11.7305 3.41602L11.7949 3.25195C11.7637 3.16992 11.7324 3.12891 11.7012 3.12891H11.4434L11.2852 3.09375V3.12891L11.2207 3.09375H10.998C10.9277 3.09375 10.875 3.10547 10.8398 3.12891C10.6016 3.10547 10.3691 3.0625 10.1426 3H10.0781C10.0195 3 9.95508 3.02148 9.88477 3.06445C9.80664 3.02148 9.72266 3 9.63281 3H9.375L9.28125 2.93555H8.61328L8.54883 2.90625C8.54883 2.92578 8.53711 2.93555 8.51367 2.93555V2.90625L8.45508 2.93555L8.23242 2.90625ZM12.3691 2.96484C12.3691 3.03125 12.3574 3.06445 12.334 3.06445C12.3574 3.10352 12.3691 3.13477 12.3691 3.1582L12.334 3.22266C12.334 3.28125 12.6523 3.60938 13.2891 4.20703V4.04883C13.2891 3.86914 13.1191 3.64648 12.7793 3.38086C12.7793 3.34961 12.6426 3.21094 12.3691 2.96484ZM12.3047 3.66797V3.98438C12.3086 4.01562 12.6367 4.3457 13.2891 4.97461V4.65234C13.2891 4.62891 12.9609 4.30078 12.3047 3.66797ZM6.57422 4.04883V4.08398C6.59766 4.35352 6.82031 4.68164 7.24219 5.06836L7.5293 5.32617V5.00391C7.5293 4.97656 7.21094 4.6582 6.57422 4.04883ZM12.3047 4.42969V4.75195C12.3086 4.7832 12.6367 5.11133 13.2891 5.73633C13.2891 5.67383 13.3008 5.64258 13.3242 5.64258L13.2891 5.57812V5.54883C13.2891 5.52539 13.3008 5.51367 13.3242 5.51367C13.3242 5.42383 12.9844 5.0625 12.3047 4.42969ZM12.2402 5.13281C12.2402 5.28125 12.2305 5.35547 12.2109 5.35547C12.2109 5.44531 12.5703 5.82812 13.2891 6.50391L13.3242 6.27539V6.2168C13.3047 6.16992 12.9434 5.80859 12.2402 5.13281ZM6.95508 5.19727V5.22656C6.99805 5.22656 7.05078 5.35352 7.11328 5.60742C7.21094 5.76758 7.29688 5.88477 7.37109 5.95898L7.5 6.05273C7.50391 5.9707 7.52344 5.92969 7.55859 5.92969C7.55859 5.78125 7.35742 5.53711 6.95508 5.19727ZM12.2109 5.86523V5.89453C12.2109 5.94531 12.2207 5.98828 12.2402 6.02344C12.2207 6.0625 12.2109 6.10547 12.2109 6.15234V6.18164C12.2109 6.20898 12.5918 6.5918 13.3535 7.33008C13.3535 7.28711 13.3652 7.26562 13.3887 7.26562C13.3457 7.19531 13.3242 7.13086 13.3242 7.07227V7.04297L13.3535 6.97852L12.2109 5.86523ZM12.1758 6.62695V6.91406C12.1758 6.94141 12.5684 7.33398 13.3535 8.0918V8.0625L13.3242 7.86914L13.3535 7.80469C13.3535 7.75 12.9727 7.35742 12.2109 6.62695H12.1758ZM12.1113 7.29492V7.33008C12.1113 7.34961 12.123 7.35938 12.1465 7.35938C12.1465 7.38281 12.1348 7.39453 12.1113 7.39453C12.1113 7.62109 12.2402 7.82227 12.498 7.99805C12.502 8.0293 12.7871 8.31641 13.3535 8.85938L13.3242 8.79492C13.3438 8.70898 13.3535 8.63477 13.3535 8.57227L13.418 8.60156V8.57227L12.1113 7.29492ZM12.1113 8.0625V8.37891C12.1191 8.41406 12.5449 8.83789 13.3887 9.65039C13.3887 9.56836 13.3984 9.52734 13.418 9.52734C13.418 9.35156 13.291 9.16992 13.0371 8.98242C13.0371 8.95898 12.7285 8.65234 12.1113 8.0625ZM12.0469 8.79492V8.82422C12.0898 8.89453 12.1113 8.94727 12.1113 8.98242C12.0684 8.99023 12.0469 9.01172 12.0469 9.04688V9.08203C12.0625 9.12109 12.498 9.55469 13.3535 10.3828C13.3535 10.3203 13.3652 10.2461 13.3887 10.1602C13.3887 10.0781 12.9531 9.62305 12.082 8.79492H12.0469ZM12.1113 9.5918C12.1113 9.72852 12.1016 9.83398 12.082 9.9082L13.3242 11.1152V10.7988C13.3242 10.7715 12.9199 10.3691 12.1113 9.5918ZM12.0469 10.2891C12.0469 10.4258 12.0371 10.5312 12.0176 10.6055L13.2891 11.8477V11.5312C13.2891 11.5039 12.875 11.0898 12.0469 10.2891ZM12.0469 11.0508C12.0469 11.2578 12.0371 11.3652 12.0176 11.373L13.2598 12.5801L13.2891 12.3574V12.293C13.2891 12.2656 12.875 11.8516 12.0469 11.0508ZM12.0176 11.7832V11.9766C12.0176 11.9961 12.0273 12.0059 12.0469 12.0059L12.0176 12.0703V12.1055C12.0215 12.1367 12.3711 12.4863 13.0664 13.1543C13.0664 13.1348 13.0996 13.0508 13.166 12.9023L12.0176 11.7832ZM12.0176 12.5508C12.0176 12.8555 12.1035 13.0469 12.2754 13.125C12.2754 13.1484 12.4551 13.3281 12.8145 13.6641H12.8438L12.9082 13.4414C12.9082 13.4141 12.6113 13.1172 12.0176 12.5508ZM4.75781 12.9316V12.9961C4.75781 13.2539 4.875 13.4551 5.10938 13.5996C5.10938 13.6309 5.14062 13.6621 5.20312 13.6934V13.6641C5.13281 13.3164 5.02734 13.1152 4.88672 13.0605C4.88672 13.0254 4.84375 12.9824 4.75781 12.9316ZM11.9883 13.2832V13.3125C11.9883 13.5977 12.0938 13.7988 12.3047 13.916C12.3047 13.9434 12.4004 14.0391 12.5918 14.2031L12.6855 14.0156V13.9805C12.6855 13.9531 12.4531 13.7207 11.9883 13.2832ZM4.79297 13.7285L4.82227 13.8867V14.0156L4.79297 14.0801L5.49023 14.748C5.49023 14.7051 5.50195 14.6836 5.52539 14.6836C5.52539 14.4492 5.35547 14.2051 5.01562 13.9512C5.01562 13.9199 4.94141 13.8457 4.79297 13.7285ZM11.9883 14.0801V14.3613C11.9883 14.3926 12.1035 14.5098 12.334 14.7129L12.4336 14.4609L12.0176 14.0801H11.9883ZM4.79297 14.4902L4.82227 14.5547V14.6191L4.79297 14.8418L5.23828 15.2578C5.30078 15.1562 5.33203 15.0703 5.33203 15L4.79297 14.4902ZM11.9531 14.7773L11.9238 14.8418V15.0645C11.9238 15.0918 11.9766 15.1445 12.082 15.2227C12.125 15.2227 12.168 15.1484 12.2109 15L11.9531 14.7773ZM4.82227 15.2871L4.79297 15.3516C4.79297 15.3984 4.80273 15.4414 4.82227 15.4805C4.80273 15.5156 4.79297 15.5566 4.79297 15.6035L4.95117 15.7324L5.08008 15.5098L4.82227 15.2871Z" fill="#283796"/>
</svg>
