<svg width="15" height="19" viewBox="0 0 15 19" fill="none" xmlns="http://www.w3.org/2000/svg">
<path d="M7.13672 0.375C7.17578 0.375 7.24023 0.396484 7.33008 0.439453L7.83984 0.410156C8.69141 0.492188 9.41211 0.650391 10.002 0.884766C10.0215 0.884766 10.3711 1.07617 11.0508 1.45898C11.0508 1.52148 11.0918 1.55273 11.1738 1.55273L11.1445 1.61719C11.2383 1.61719 11.3867 1.71289 11.5898 1.9043C11.5898 1.92773 11.6738 2.00195 11.8418 2.12695C12.041 2.31055 12.1895 2.49023 12.2871 2.66602C12.7676 3.34961 13.0547 4.00586 13.1484 4.63477C13.2344 4.85352 13.2773 4.98047 13.2773 5.01562H13.2422C13.2656 5.0625 13.2969 5.27539 13.3359 5.6543L13.3066 5.84766L13.3359 6.07031C13.3359 6.08984 13.3262 6.09961 13.3066 6.09961L13.3359 6.25781V6.79688C13.3359 6.82031 13.3477 6.83203 13.3711 6.83203L13.3066 6.95508C13.3262 6.99805 13.3359 7.03125 13.3359 7.05469C13.3164 7.05469 13.3066 7.06445 13.3066 7.08398H13.3359L13.3066 7.14844V7.46484C13.2441 7.87109 13.1484 8.32812 13.0195 8.83594H13.0547C12.8398 9.73438 12.6484 10.3691 12.4805 10.7402C12.4609 10.7402 12.4512 10.752 12.4512 10.7754C12.7168 11.2129 12.9375 11.5508 13.1133 11.7891C13.3359 12.0195 13.5391 12.1992 13.7227 12.3281L13.7812 12.2988C13.9297 12.2988 14.1113 12.416 14.3262 12.6504C14.0488 13.3105 13.8145 13.9355 13.623 14.5254C13.623 14.5996 13.5391 14.7793 13.3711 15.0645C13.3711 15.3027 13.2109 15.4727 12.8906 15.5742C12.8906 15.6484 12.7324 15.8184 12.416 16.084C12.0293 16.3848 11.5527 16.8184 10.9863 17.3848C10.9551 17.3848 10.7754 17.6074 10.4473 18.0527C10.2715 18.1621 10.1543 18.2793 10.0957 18.4043C10.0137 18.5098 9.92969 18.5625 9.84375 18.5625H9.7793C9.65039 18.5625 9.44922 18.4043 9.17578 18.0879C8.98438 17.8887 8.88867 17.7598 8.88867 17.7012L8.31445 16.9395H8.2207C8.08398 16.9395 7.86133 17.0566 7.55273 17.291C7.48633 17.291 7.19922 17.3965 6.69141 17.6074C6.48047 17.6074 6.3125 17.6504 6.1875 17.7363H5.77148C5.56445 17.7793 5.44727 17.8008 5.41992 17.8008H5.35547L5.29688 17.7656C5.29688 17.7891 5.28516 17.8008 5.26172 17.8008C5.26172 17.7773 5.25195 17.7656 5.23242 17.7656C5.23242 17.7891 5.2207 17.8008 5.19727 17.8008V17.7656L5.13281 17.8008H5.10352C5.08398 17.8008 5.07422 17.7891 5.07422 17.7656L5.00977 17.8008H4.81641C4.79688 17.8008 4.78711 17.7891 4.78711 17.7656L4.72266 17.8008C4.21875 17.7148 3.90039 17.6289 3.76758 17.543C3.54883 17.543 3.07227 17.3203 2.33789 16.875C1.61914 16.332 1.20508 15.877 1.0957 15.5098C1.04102 15.5098 0.966797 15.3926 0.873047 15.1582C0.775391 14.9941 0.681641 14.7715 0.591797 14.4902C0.505859 14.2129 0.398438 13.7363 0.269531 13.0605C0.292969 13.0605 0.304688 13.0508 0.304688 13.0312C0.261719 13.0312 0.240234 13.0098 0.240234 12.9668L0.304688 12.8086C0.261719 12.8086 0.240234 12.7871 0.240234 12.7441C0.240234 12.7246 0.25 12.7148 0.269531 12.7148L0.240234 12.6504V12.5215C0.240234 12.502 0.25 12.4922 0.269531 12.4922L0.240234 12.4277V12.0762L0.175781 11.8535C0.21875 11.8535 0.240234 11.832 0.240234 11.7891V11.7246C0.240234 11.6777 0.228516 11.6367 0.205078 11.6016C0.228516 11.5586 0.240234 11.5254 0.240234 11.502C0.197266 11.4355 0.175781 11.373 0.175781 11.3145V11.25C0.175781 11.2305 0.185547 11.2207 0.205078 11.2207L0.175781 11.1562V11.0273L0.240234 10.9336C0.240234 10.8867 0.228516 10.8438 0.205078 10.8047C0.228516 10.6758 0.25 10.6113 0.269531 10.6113L0.240234 10.5527C0.240234 10.5293 0.25 10.5176 0.269531 10.5176L0.240234 10.3594V10.2656C0.302734 10.1914 0.333984 10.0645 0.333984 9.88477V9.46875L0.398438 9.375V9.28125L0.427734 8.89453C0.408203 8.89453 0.398438 8.88477 0.398438 8.86523C0.433594 8.86523 0.498047 8.65234 0.591797 8.22656C0.623047 8.22656 0.654297 8.12109 0.685547 7.91016C1.10742 6.72656 1.43555 5.85742 1.66992 5.30273C2.11523 4.41211 2.49609 3.70312 2.8125 3.17578C3.08594 2.83984 3.32031 2.58398 3.51562 2.4082C3.57812 2.26758 3.71484 2.12109 3.92578 1.96875C4.29688 1.58984 4.60547 1.36719 4.85156 1.30078C5.10938 1.03516 5.66992 0.748047 6.5332 0.439453C6.81055 0.396484 7.01172 0.375 7.13672 0.375ZM7.45898 1.10742C9.26367 2.94336 10.959 4.63867 12.5449 6.19336L12.5742 5.87695L7.77539 1.10742H7.45898ZM6.79102 1.20117C7.61133 2.0918 8.10938 2.53711 8.28516 2.53711C8.34766 2.61523 8.47461 2.68945 8.66602 2.75977V2.73047L7.04297 1.13672C6.96484 1.17969 6.88086 1.20117 6.79102 1.20117ZM8.31445 1.20117V1.23633L12.5098 5.40234V5.33789L12.4805 5.27344H12.5098C12.5098 5.07031 12.3613 4.85742 12.0645 4.63477C9.88086 2.41211 8.75781 1.30078 8.69531 1.30078C8.59375 1.26172 8.4668 1.22852 8.31445 1.20117ZM6.2168 1.39453C6.23242 1.44141 6.50781 1.7168 7.04297 2.2207H7.10742C7.12695 2.2207 7.13672 2.21094 7.13672 2.19141C7.20703 2.23047 7.27148 2.25 7.33008 2.25H7.39453C7.39453 2.22656 7.07617 1.91016 6.43945 1.30078H6.41016C6.28125 1.3125 6.2168 1.34375 6.2168 1.39453ZM9.29883 1.42383V1.45898L12.3516 4.47656C12.2656 4.09375 12.0645 3.78711 11.748 3.55664C10.4512 2.20117 9.73047 1.52344 9.58594 1.52344C9.52734 1.52344 9.43164 1.49023 9.29883 1.42383ZM5.70703 1.61719V1.64648C5.70703 1.67773 5.92969 1.90039 6.375 2.31445C6.51172 2.27148 6.59766 2.25 6.63281 2.25L5.92969 1.52344C5.83984 1.58594 5.76562 1.61719 5.70703 1.61719ZM5.23242 1.93359L5.70703 2.44336C5.89844 2.41992 5.99414 2.38867 5.99414 2.34961C5.9668 2.34961 5.78711 2.16797 5.45508 1.80469C5.33398 1.89062 5.25977 1.93359 5.23242 1.93359ZM4.94531 2.0918C4.94531 2.13477 4.88086 2.16797 4.75195 2.19141V2.2207C4.75195 2.25195 4.89062 2.38867 5.16797 2.63086C5.25391 2.5918 5.31641 2.57227 5.35547 2.57227C5.35547 2.5918 5.36719 2.60156 5.39062 2.60156L5.41992 2.53711L4.94531 2.0918ZM10.8926 2.25V2.28516L11.8125 3.17578V3.14062C11.6953 2.95703 11.5371 2.78711 11.3379 2.63086C11.3301 2.57617 11.1816 2.44922 10.8926 2.25ZM4.5293 2.44336C4.5293 2.45508 4.47656 2.51758 4.37109 2.63086C4.39844 2.63086 4.48438 2.7168 4.62891 2.88867C4.74609 2.82617 4.83008 2.79492 4.88086 2.79492C4.88086 2.76367 4.76367 2.64648 4.5293 2.44336ZM1.51172 7.88086V7.91016C1.51172 7.93359 1.52148 7.94531 1.54102 7.94531C1.31055 8.63281 1.15234 9.26758 1.06641 9.84961H1.0957L1.06641 9.91406V10.1367C1.06641 10.1953 1.04492 10.2598 1.00195 10.3301C1.00195 10.3496 1.01367 10.3594 1.03711 10.3594C1.02148 10.5078 1 10.582 0.972656 10.582L1.00195 10.6465C0.958984 11.0371 0.9375 11.3867 0.9375 11.6953V12.2344C0.9375 12.2812 0.949219 12.3242 0.972656 12.3633C0.972656 12.3828 0.960938 12.3926 0.9375 12.3926C0.980469 13.1934 1.07617 13.8828 1.22461 14.4609C1.25195 14.4609 1.31641 14.6406 1.41797 15C1.46484 15 1.52734 15.127 1.60547 15.3809C1.80859 15.7012 1.92578 15.8613 1.95703 15.8613C2.125 16.1426 2.46484 16.4395 2.97656 16.752C3.33203 16.9199 3.55273 17.0039 3.63867 17.0039C3.7207 17.0664 3.99805 17.1309 4.4707 17.1973L4.78711 17.1621H5.32617C5.91992 17.1621 6.66211 16.9297 7.55273 16.4648C7.91602 16.3281 8.12695 16.1582 8.18555 15.9551H8.28516C8.57031 16.1582 8.95117 16.6133 9.42773 17.3203C9.58008 17.5352 9.67578 17.6426 9.71484 17.6426C9.96094 17.3301 10.1836 17.0859 10.3828 16.9102C10.3828 16.8711 10.4453 16.8066 10.5703 16.7168C10.5703 16.5918 10.7188 16.4219 11.0156 16.207C11.0977 16.1523 11.1621 16.1211 11.209 16.1133C11.209 16.0703 11.4316 15.8594 11.877 15.4805L12.0996 15.2871C12.1191 15.252 12.1289 15.209 12.1289 15.1582C11.5391 14.6777 11.2324 14.3398 11.209 14.1445C11.0918 14.1055 10.9219 13.8828 10.6992 13.4766C10.5312 13.293 10.4473 13.1543 10.4473 13.0605V12.9668C10.5137 12.9668 10.5664 12.8398 10.6055 12.5859C10.668 12.5859 10.7949 12.2148 10.9863 11.4727C10.9863 11.418 11.0078 11.3652 11.0508 11.3145C11.0508 11.291 11.0391 11.2793 11.0156 11.2793C11.125 10.7285 11.1992 10.4531 11.2383 10.4531C11.2383 10.4336 11.2285 10.4023 11.209 10.3594L11.3965 8.92969C11.377 8.88672 11.3672 8.85547 11.3672 8.83594L11.3965 8.67188C11.3574 8.67188 11.3379 8.65234 11.3379 8.61328V8.39062L11.3027 8.19727L11.3379 8.13281C11.2949 8.05078 11.2305 7.75391 11.1445 7.24219C10.9766 6.76562 10.8379 6.42773 10.7285 6.22852C10.666 6.01367 10.4023 5.48242 9.9375 4.63477C9.90234 4.63477 9.84961 4.58203 9.7793 4.47656C9.31055 4.08984 9.07617 3.87891 9.07617 3.84375C8.47461 3.36719 8.00977 3.0918 7.68164 3.01758C7.68164 2.99414 7.66992 2.98242 7.64648 2.98242C7.47461 2.98242 7.33789 2.97266 7.23633 2.95312C6.43164 3.01562 5.82617 3.12109 5.41992 3.26953L4.30664 3.87305C4.1543 3.94336 4.03906 4.03906 3.96094 4.16016C3.89062 4.16016 3.74219 4.27734 3.51562 4.51172C3.48047 4.51172 3.37305 4.61719 3.19336 4.82812C3.16602 4.82812 3.00781 4.96484 2.71875 5.23828C2.27344 5.90234 1.98828 6.50781 1.86328 7.05469C1.82422 7.05469 1.79102 7.15039 1.76367 7.3418L1.51172 7.88086ZM11.1152 5.20898V5.23828C11.2715 5.66797 11.4609 5.95508 11.6836 6.09961C11.6875 6.13086 11.9746 6.41602 12.5449 6.95508C12.5449 6.83008 12.5547 6.76758 12.5742 6.76758L12.5449 6.70312L12.5742 6.63867L11.1152 5.20898ZM6.41016 6.48047H6.66211L6.72656 6.50977V6.48047C6.94531 6.53906 7.14648 6.64453 7.33008 6.79688C7.62305 6.94922 7.8457 7.23633 7.99805 7.6582C8.06055 7.74805 8.12305 7.94922 8.18555 8.26172C8.22852 8.26172 8.2832 8.45312 8.34961 8.83594H8.31445C8.40039 9.11328 8.44336 9.26172 8.44336 9.28125C8.41992 9.32031 8.4082 9.35156 8.4082 9.375C8.43164 9.375 8.44336 9.38477 8.44336 9.4043H8.4082L8.44336 9.46875V10.2656C8.44336 10.4102 8.41211 10.5801 8.34961 10.7754L8.37891 10.834C8.35938 10.877 8.34961 10.9102 8.34961 10.9336C8.27148 10.9336 8.17578 10.9434 8.0625 10.9629L7.9043 10.8691L7.83984 10.8984C7.73438 10.8359 7.5957 10.8047 7.42383 10.8047C7.31836 10.9414 7.23438 11.0898 7.17188 11.25H7.13672C7.13672 11.2695 7.14844 11.2793 7.17188 11.2793L6.59766 12.8086C6.57812 12.8086 6.48242 12.9453 6.31055 13.2188V13.2832L6.82031 13.6641C6.88281 13.6641 6.9668 13.75 7.07227 13.9219H7.10742V14.0801C6.99023 14.0801 6.83203 14.1758 6.63281 14.3672C6.35938 14.4883 6.14648 14.6152 5.99414 14.748C5.89258 14.748 5.64844 14.791 5.26172 14.877H5.00977C4.7793 14.8418 4.57812 14.7559 4.40625 14.6191C3.92188 14.3027 3.57227 13.8262 3.35742 13.1895C3.29102 13.0215 3.22656 12.6934 3.16406 12.2051L3.19336 12.1406V11.8887L3.13477 11.7891V11.5664C3.13477 11.5039 3.14453 11.4727 3.16406 11.4727L3.13477 11.3145V11.0566L3.16406 10.8691C3.14453 10.8262 3.13477 10.7949 3.13477 10.7754C3.18945 10.7754 3.23047 10.541 3.25781 10.0723H3.32227L3.29297 10.0078V9.84961C3.33594 9.81445 3.41016 9.55078 3.51562 9.05859C3.53906 9.05469 3.6875 8.78906 3.96094 8.26172L4.56445 7.5293C5.22852 6.84961 5.80078 6.50977 6.28125 6.50977C6.28125 6.49023 6.32422 6.48047 6.41016 6.48047ZM11.6543 6.50977C11.6738 6.7207 11.7168 6.85938 11.7832 6.92578C11.7598 6.92578 11.748 6.93555 11.748 6.95508L12.4805 7.6582C12.5 7.51367 12.5215 7.41797 12.5449 7.37109L11.6543 6.50977ZM5.39062 7.81641L5.41992 7.97461C5.20898 8.46289 5.10352 8.80273 5.10352 8.99414V9.18164L5.07422 9.24609H5.10352L5.07422 9.31055C5.07422 9.33008 5.08398 9.33984 5.10352 9.33984L5.07422 9.50391V9.72656L5.03906 9.78516H5.07422L5.03906 9.84961V10.1074L5.07422 10.166H5.03906L5.07422 10.2305C5.05078 10.2734 5.03906 10.3066 5.03906 10.3301H5.07422L5.03906 10.3887V10.7754L5.07422 10.834H5.03906C5.09766 10.9746 5.17188 11.1973 5.26172 11.502C5.30859 11.5762 5.50977 11.7246 5.86523 11.9473L6.08789 11.918H6.15234C6.21094 11.6914 6.27539 11.5332 6.3457 11.4434L6.31055 11.3789C6.36523 11.3789 6.4082 11.2617 6.43945 11.0273C6.56836 10.8242 6.70703 10.4648 6.85547 9.94922C6.875 9.94922 6.88477 9.9375 6.88477 9.91406C6.94727 9.95703 7.22266 10.0098 7.71094 10.0723V9.62695C7.71094 9.60742 7.70117 9.59766 7.68164 9.59766L7.71094 9.5332V8.92969L7.64648 8.83594V8.61328C7.54102 8.09766 7.39258 7.7793 7.20117 7.6582C7.06836 7.55664 6.91016 7.46094 6.72656 7.37109C6.69141 7.37109 6.64844 7.34961 6.59766 7.30664H6.375C5.92969 7.30664 5.70703 7.39258 5.70703 7.56445C5.67578 7.56445 5.57031 7.64844 5.39062 7.81641ZM11.877 7.5C11.9941 7.92969 12.1113 8.15234 12.2285 8.16797C12.2285 8.19922 12.2695 8.24023 12.3516 8.29102H12.3867C12.3867 8.2207 12.3965 8.16797 12.416 8.13281H12.3867L12.416 8.06836V8.03906C12.416 8.01172 12.2363 7.83203 11.877 7.5ZM12.0352 8.41992C12.0547 8.75977 12.1191 8.92969 12.2285 8.92969H12.2578V8.86523L12.2871 8.64258L12.0352 8.41992ZM4.14844 9.69141C4.14844 9.82031 4.12695 9.90625 4.08398 9.94922C4.08398 9.97266 4.16992 10.0566 4.3418 10.2012C4.3418 10.0996 4.35156 9.99414 4.37109 9.88477C4.35938 9.88477 4.28516 9.82031 4.14844 9.69141ZM3.99023 10.2949C3.99023 10.3887 3.96875 10.4844 3.92578 10.582L4.30664 10.9336V10.6113C4.30664 10.584 4.20117 10.4785 3.99023 10.2949ZM3.89648 10.9629L3.86133 11.1855V11.25C3.86133 11.2773 4.43359 11.8496 5.57812 12.9668C5.57812 12.916 5.61133 12.8516 5.67773 12.7734V12.7441C5.58398 12.5996 5.29688 12.3984 4.81641 12.1406C4.51953 11.8438 4.37109 11.5996 4.37109 11.4082L3.89648 10.9629ZM12.0996 11.5664C12.0996 11.6211 12.0781 11.707 12.0352 11.8242L13.3359 13.0957C13.3359 13.0801 13.3691 12.9941 13.4355 12.8379C13.209 12.6113 12.9336 12.3789 12.6094 12.1406C12.3086 11.7578 12.1484 11.5664 12.1289 11.5664H12.0996ZM3.86133 11.6953V12.0117C3.86133 12.043 4.34961 12.5312 5.32617 13.4766V13.4414C5.30664 13.4414 5.29688 13.4316 5.29688 13.4121C5.33203 13.4121 5.36328 13.3379 5.39062 13.1895L3.86133 11.6953ZM11.877 12.1055C11.8145 12.2344 11.7832 12.3086 11.7832 12.3281L13.1484 13.6641C13.1484 13.6133 13.1699 13.5195 13.2129 13.3828L11.9062 12.1055H11.877ZM3.89648 12.4922L3.92578 12.5508L3.89648 12.7441C3.89648 12.8301 4.3418 13.2969 5.23242 14.1445L5.26172 14.209C5.45312 14.1855 5.54883 14.1523 5.54883 14.1094L3.89648 12.4922ZM11.6191 12.6152C11.6191 12.666 11.5879 12.7305 11.5254 12.8086C11.5254 12.8359 12.002 13.3125 12.9551 14.2383L13.0195 13.9512L11.6543 12.6152H11.6191ZM11.3672 13.0957L11.3379 13.1602L11.6543 13.6641C12.2598 14.3359 12.6094 14.6855 12.7031 14.7129H12.7324C12.7793 14.7051 12.8223 14.6523 12.8613 14.5547L11.3672 13.0957ZM4.08398 13.4414V13.5059C4.13086 13.5059 4.18555 13.5918 4.24805 13.7637C4.26758 13.7637 4.32031 13.8574 4.40625 14.0449L4.72266 14.2383L4.78711 14.209C4.82617 14.2285 4.85742 14.2383 4.88086 14.2383C4.88086 14.207 4.61523 13.9414 4.08398 13.4414ZM5.45508 13.6055C5.45508 13.6328 5.57031 13.748 5.80078 13.9512H5.83594V13.9219C5.625 13.7578 5.51953 13.6523 5.51953 13.6055H5.45508Z" fill="#E84065"/>
</svg>
