<svg width="107" height="22" viewBox="0 0 107 22" fill="none" xmlns="http://www.w3.org/2000/svg">
<path d="M7.13672 3.375C7.17578 3.375 7.24023 3.39648 7.33008 3.43945L7.83984 3.41016C8.69141 3.49219 9.41211 3.65039 10.002 3.88477C10.0215 3.88477 10.3711 4.07617 11.0508 4.45898C11.0508 4.52148 11.0918 4.55273 11.1738 4.55273L11.1445 4.61719C11.2383 4.61719 11.3867 4.71289 11.5898 4.9043C11.5898 4.92773 11.6738 5.00195 11.8418 5.12695C12.041 5.31055 12.1895 5.49023 12.2871 5.66602C12.7676 6.34961 13.0547 7.00586 13.1484 7.63477C13.2344 7.85352 13.2773 7.98047 13.2773 8.01562H13.2422C13.2656 8.0625 13.2969 8.27539 13.3359 8.6543L13.3066 8.84766L13.3359 9.07031C13.3359 9.08984 13.3262 9.09961 13.3066 9.09961L13.3359 9.25781V9.79688C13.3359 9.82031 13.3477 9.83203 13.3711 9.83203L13.3066 9.95508C13.3262 9.99805 13.3359 10.0312 13.3359 10.0547C13.3164 10.0547 13.3066 10.0645 13.3066 10.084H13.3359L13.3066 10.1484V10.4648C13.2441 10.8711 13.1484 11.3281 13.0195 11.8359H13.0547C12.8398 12.7344 12.6484 13.3691 12.4805 13.7402C12.4609 13.7402 12.4512 13.752 12.4512 13.7754C12.7168 14.2129 12.9375 14.5508 13.1133 14.7891C13.3359 15.0195 13.5391 15.1992 13.7227 15.3281L13.7812 15.2988C13.9297 15.2988 14.1113 15.416 14.3262 15.6504C14.0488 16.3105 13.8145 16.9355 13.623 17.5254C13.623 17.5996 13.5391 17.7793 13.3711 18.0645C13.3711 18.3027 13.2109 18.4727 12.8906 18.5742C12.8906 18.6484 12.7324 18.8184 12.416 19.084C12.0293 19.3848 11.5527 19.8184 10.9863 20.3848C10.9551 20.3848 10.7754 20.6074 10.4473 21.0527C10.2715 21.1621 10.1543 21.2793 10.0957 21.4043C10.0137 21.5098 9.92969 21.5625 9.84375 21.5625H9.7793C9.65039 21.5625 9.44922 21.4043 9.17578 21.0879C8.98438 20.8887 8.88867 20.7598 8.88867 20.7012L8.31445 19.9395H8.2207C8.08398 19.9395 7.86133 20.0566 7.55273 20.291C7.48633 20.291 7.19922 20.3965 6.69141 20.6074C6.48047 20.6074 6.3125 20.6504 6.1875 20.7363H5.77148C5.56445 20.7793 5.44727 20.8008 5.41992 20.8008H5.35547L5.29688 20.7656C5.29688 20.7891 5.28516 20.8008 5.26172 20.8008C5.26172 20.7773 5.25195 20.7656 5.23242 20.7656C5.23242 20.7891 5.2207 20.8008 5.19727 20.8008V20.7656L5.13281 20.8008H5.10352C5.08398 20.8008 5.07422 20.7891 5.07422 20.7656L5.00977 20.8008H4.81641C4.79688 20.8008 4.78711 20.7891 4.78711 20.7656L4.72266 20.8008C4.21875 20.7148 3.90039 20.6289 3.76758 20.543C3.54883 20.543 3.07227 20.3203 2.33789 19.875C1.61914 19.332 1.20508 18.877 1.0957 18.5098C1.04102 18.5098 0.966797 18.3926 0.873047 18.1582C0.775391 17.9941 0.681641 17.7715 0.591797 17.4902C0.505859 17.2129 0.398438 16.7363 0.269531 16.0605C0.292969 16.0605 0.304688 16.0508 0.304688 16.0312C0.261719 16.0312 0.240234 16.0098 0.240234 15.9668L0.304688 15.8086C0.261719 15.8086 0.240234 15.7871 0.240234 15.7441C0.240234 15.7246 0.25 15.7148 0.269531 15.7148L0.240234 15.6504V15.5215C0.240234 15.502 0.25 15.4922 0.269531 15.4922L0.240234 15.4277V15.0762L0.175781 14.8535C0.21875 14.8535 0.240234 14.832 0.240234 14.7891V14.7246C0.240234 14.6777 0.228516 14.6367 0.205078 14.6016C0.228516 14.5586 0.240234 14.5254 0.240234 14.502C0.197266 14.4355 0.175781 14.373 0.175781 14.3145V14.25C0.175781 14.2305 0.185547 14.2207 0.205078 14.2207L0.175781 14.1562V14.0273L0.240234 13.9336C0.240234 13.8867 0.228516 13.8438 0.205078 13.8047C0.228516 13.6758 0.25 13.6113 0.269531 13.6113L0.240234 13.5527C0.240234 13.5293 0.25 13.5176 0.269531 13.5176L0.240234 13.3594V13.2656C0.302734 13.1914 0.333984 13.0645 0.333984 12.8848V12.4688L0.398438 12.375V12.2812L0.427734 11.8945C0.408203 11.8945 0.398438 11.8848 0.398438 11.8652C0.433594 11.8652 0.498047 11.6523 0.591797 11.2266C0.623047 11.2266 0.654297 11.1211 0.685547 10.9102C1.10742 9.72656 1.43555 8.85742 1.66992 8.30273C2.11523 7.41211 2.49609 6.70312 2.8125 6.17578C3.08594 5.83984 3.32031 5.58398 3.51562 5.4082C3.57812 5.26758 3.71484 5.12109 3.92578 4.96875C4.29688 4.58984 4.60547 4.36719 4.85156 4.30078C5.10938 4.03516 5.66992 3.74805 6.5332 3.43945C6.81055 3.39648 7.01172 3.375 7.13672 3.375ZM7.45898 4.10742C9.26367 5.94336 10.959 7.63867 12.5449 9.19336L12.5742 8.87695L7.77539 4.10742H7.45898ZM6.79102 4.20117C7.61133 5.0918 8.10938 5.53711 8.28516 5.53711C8.34766 5.61523 8.47461 5.68945 8.66602 5.75977V5.73047L7.04297 4.13672C6.96484 4.17969 6.88086 4.20117 6.79102 4.20117ZM8.31445 4.20117V4.23633L12.5098 8.40234V8.33789L12.4805 8.27344H12.5098C12.5098 8.07031 12.3613 7.85742 12.0645 7.63477C9.88086 5.41211 8.75781 4.30078 8.69531 4.30078C8.59375 4.26172 8.4668 4.22852 8.31445 4.20117ZM6.2168 4.39453C6.23242 4.44141 6.50781 4.7168 7.04297 5.2207H7.10742C7.12695 5.2207 7.13672 5.21094 7.13672 5.19141C7.20703 5.23047 7.27148 5.25 7.33008 5.25H7.39453C7.39453 5.22656 7.07617 4.91016 6.43945 4.30078H6.41016C6.28125 4.3125 6.2168 4.34375 6.2168 4.39453ZM9.29883 4.42383V4.45898L12.3516 7.47656C12.2656 7.09375 12.0645 6.78711 11.748 6.55664C10.4512 5.20117 9.73047 4.52344 9.58594 4.52344C9.52734 4.52344 9.43164 4.49023 9.29883 4.42383ZM5.70703 4.61719V4.64648C5.70703 4.67773 5.92969 4.90039 6.375 5.31445C6.51172 5.27148 6.59766 5.25 6.63281 5.25L5.92969 4.52344C5.83984 4.58594 5.76562 4.61719 5.70703 4.61719ZM5.23242 4.93359L5.70703 5.44336C5.89844 5.41992 5.99414 5.38867 5.99414 5.34961C5.9668 5.34961 5.78711 5.16797 5.45508 4.80469C5.33398 4.89062 5.25977 4.93359 5.23242 4.93359ZM4.94531 5.0918C4.94531 5.13477 4.88086 5.16797 4.75195 5.19141V5.2207C4.75195 5.25195 4.89062 5.38867 5.16797 5.63086C5.25391 5.5918 5.31641 5.57227 5.35547 5.57227C5.35547 5.5918 5.36719 5.60156 5.39062 5.60156L5.41992 5.53711L4.94531 5.0918ZM10.8926 5.25V5.28516L11.8125 6.17578V6.14062C11.6953 5.95703 11.5371 5.78711 11.3379 5.63086C11.3301 5.57617 11.1816 5.44922 10.8926 5.25ZM4.5293 5.44336C4.5293 5.45508 4.47656 5.51758 4.37109 5.63086C4.39844 5.63086 4.48438 5.7168 4.62891 5.88867C4.74609 5.82617 4.83008 5.79492 4.88086 5.79492C4.88086 5.76367 4.76367 5.64648 4.5293 5.44336ZM1.51172 10.8809V10.9102C1.51172 10.9336 1.52148 10.9453 1.54102 10.9453C1.31055 11.6328 1.15234 12.2676 1.06641 12.8496H1.0957L1.06641 12.9141V13.1367C1.06641 13.1953 1.04492 13.2598 1.00195 13.3301C1.00195 13.3496 1.01367 13.3594 1.03711 13.3594C1.02148 13.5078 1 13.582 0.972656 13.582L1.00195 13.6465C0.958984 14.0371 0.9375 14.3867 0.9375 14.6953V15.2344C0.9375 15.2812 0.949219 15.3242 0.972656 15.3633C0.972656 15.3828 0.960938 15.3926 0.9375 15.3926C0.980469 16.1934 1.07617 16.8828 1.22461 17.4609C1.25195 17.4609 1.31641 17.6406 1.41797 18C1.46484 18 1.52734 18.127 1.60547 18.3809C1.80859 18.7012 1.92578 18.8613 1.95703 18.8613C2.125 19.1426 2.46484 19.4395 2.97656 19.752C3.33203 19.9199 3.55273 20.0039 3.63867 20.0039C3.7207 20.0664 3.99805 20.1309 4.4707 20.1973L4.78711 20.1621H5.32617C5.91992 20.1621 6.66211 19.9297 7.55273 19.4648C7.91602 19.3281 8.12695 19.1582 8.18555 18.9551H8.28516C8.57031 19.1582 8.95117 19.6133 9.42773 20.3203C9.58008 20.5352 9.67578 20.6426 9.71484 20.6426C9.96094 20.3301 10.1836 20.0859 10.3828 19.9102C10.3828 19.8711 10.4453 19.8066 10.5703 19.7168C10.5703 19.5918 10.7188 19.4219 11.0156 19.207C11.0977 19.1523 11.1621 19.1211 11.209 19.1133C11.209 19.0703 11.4316 18.8594 11.877 18.4805L12.0996 18.2871C12.1191 18.252 12.1289 18.209 12.1289 18.1582C11.5391 17.6777 11.2324 17.3398 11.209 17.1445C11.0918 17.1055 10.9219 16.8828 10.6992 16.4766C10.5312 16.293 10.4473 16.1543 10.4473 16.0605V15.9668C10.5137 15.9668 10.5664 15.8398 10.6055 15.5859C10.668 15.5859 10.7949 15.2148 10.9863 14.4727C10.9863 14.418 11.0078 14.3652 11.0508 14.3145C11.0508 14.291 11.0391 14.2793 11.0156 14.2793C11.125 13.7285 11.1992 13.4531 11.2383 13.4531C11.2383 13.4336 11.2285 13.4023 11.209 13.3594L11.3965 11.9297C11.377 11.8867 11.3672 11.8555 11.3672 11.8359L11.3965 11.6719C11.3574 11.6719 11.3379 11.6523 11.3379 11.6133V11.3906L11.3027 11.1973L11.3379 11.1328C11.2949 11.0508 11.2305 10.7539 11.1445 10.2422C10.9766 9.76562 10.8379 9.42773 10.7285 9.22852C10.666 9.01367 10.4023 8.48242 9.9375 7.63477C9.90234 7.63477 9.84961 7.58203 9.7793 7.47656C9.31055 7.08984 9.07617 6.87891 9.07617 6.84375C8.47461 6.36719 8.00977 6.0918 7.68164 6.01758C7.68164 5.99414 7.66992 5.98242 7.64648 5.98242C7.47461 5.98242 7.33789 5.97266 7.23633 5.95312C6.43164 6.01562 5.82617 6.12109 5.41992 6.26953L4.30664 6.87305C4.1543 6.94336 4.03906 7.03906 3.96094 7.16016C3.89062 7.16016 3.74219 7.27734 3.51562 7.51172C3.48047 7.51172 3.37305 7.61719 3.19336 7.82812C3.16602 7.82812 3.00781 7.96484 2.71875 8.23828C2.27344 8.90234 1.98828 9.50781 1.86328 10.0547C1.82422 10.0547 1.79102 10.1504 1.76367 10.3418L1.51172 10.8809ZM11.1152 8.20898V8.23828C11.2715 8.66797 11.4609 8.95508 11.6836 9.09961C11.6875 9.13086 11.9746 9.41602 12.5449 9.95508C12.5449 9.83008 12.5547 9.76758 12.5742 9.76758L12.5449 9.70312L12.5742 9.63867L11.1152 8.20898ZM6.41016 9.48047H6.66211L6.72656 9.50977V9.48047C6.94531 9.53906 7.14648 9.64453 7.33008 9.79688C7.62305 9.94922 7.8457 10.2363 7.99805 10.6582C8.06055 10.748 8.12305 10.9492 8.18555 11.2617C8.22852 11.2617 8.2832 11.4531 8.34961 11.8359H8.31445C8.40039 12.1133 8.44336 12.2617 8.44336 12.2812C8.41992 12.3203 8.4082 12.3516 8.4082 12.375C8.43164 12.375 8.44336 12.3848 8.44336 12.4043H8.4082L8.44336 12.4688V13.2656C8.44336 13.4102 8.41211 13.5801 8.34961 13.7754L8.37891 13.834C8.35938 13.877 8.34961 13.9102 8.34961 13.9336C8.27148 13.9336 8.17578 13.9434 8.0625 13.9629L7.9043 13.8691L7.83984 13.8984C7.73438 13.8359 7.5957 13.8047 7.42383 13.8047C7.31836 13.9414 7.23438 14.0898 7.17188 14.25H7.13672C7.13672 14.2695 7.14844 14.2793 7.17188 14.2793L6.59766 15.8086C6.57812 15.8086 6.48242 15.9453 6.31055 16.2188V16.2832L6.82031 16.6641C6.88281 16.6641 6.9668 16.75 7.07227 16.9219H7.10742V17.0801C6.99023 17.0801 6.83203 17.1758 6.63281 17.3672C6.35938 17.4883 6.14648 17.6152 5.99414 17.748C5.89258 17.748 5.64844 17.791 5.26172 17.877H5.00977C4.7793 17.8418 4.57812 17.7559 4.40625 17.6191C3.92188 17.3027 3.57227 16.8262 3.35742 16.1895C3.29102 16.0215 3.22656 15.6934 3.16406 15.2051L3.19336 15.1406V14.8887L3.13477 14.7891V14.5664C3.13477 14.5039 3.14453 14.4727 3.16406 14.4727L3.13477 14.3145V14.0566L3.16406 13.8691C3.14453 13.8262 3.13477 13.7949 3.13477 13.7754C3.18945 13.7754 3.23047 13.541 3.25781 13.0723H3.32227L3.29297 13.0078V12.8496C3.33594 12.8145 3.41016 12.5508 3.51562 12.0586C3.53906 12.0547 3.6875 11.7891 3.96094 11.2617L4.56445 10.5293C5.22852 9.84961 5.80078 9.50977 6.28125 9.50977C6.28125 9.49023 6.32422 9.48047 6.41016 9.48047ZM11.6543 9.50977C11.6738 9.7207 11.7168 9.85938 11.7832 9.92578C11.7598 9.92578 11.748 9.93555 11.748 9.95508L12.4805 10.6582C12.5 10.5137 12.5215 10.418 12.5449 10.3711L11.6543 9.50977ZM5.39062 10.8164L5.41992 10.9746C5.20898 11.4629 5.10352 11.8027 5.10352 11.9941V12.1816L5.07422 12.2461H5.10352L5.07422 12.3105C5.07422 12.3301 5.08398 12.3398 5.10352 12.3398L5.07422 12.5039V12.7266L5.03906 12.7852H5.07422L5.03906 12.8496V13.1074L5.07422 13.166H5.03906L5.07422 13.2305C5.05078 13.2734 5.03906 13.3066 5.03906 13.3301H5.07422L5.03906 13.3887V13.7754L5.07422 13.834H5.03906C5.09766 13.9746 5.17188 14.1973 5.26172 14.502C5.30859 14.5762 5.50977 14.7246 5.86523 14.9473L6.08789 14.918H6.15234C6.21094 14.6914 6.27539 14.5332 6.3457 14.4434L6.31055 14.3789C6.36523 14.3789 6.4082 14.2617 6.43945 14.0273C6.56836 13.8242 6.70703 13.4648 6.85547 12.9492C6.875 12.9492 6.88477 12.9375 6.88477 12.9141C6.94727 12.957 7.22266 13.0098 7.71094 13.0723V12.627C7.71094 12.6074 7.70117 12.5977 7.68164 12.5977L7.71094 12.5332V11.9297L7.64648 11.8359V11.6133C7.54102 11.0977 7.39258 10.7793 7.20117 10.6582C7.06836 10.5566 6.91016 10.4609 6.72656 10.3711C6.69141 10.3711 6.64844 10.3496 6.59766 10.3066H6.375C5.92969 10.3066 5.70703 10.3926 5.70703 10.5645C5.67578 10.5645 5.57031 10.6484 5.39062 10.8164ZM11.877 10.5C11.9941 10.9297 12.1113 11.1523 12.2285 11.168C12.2285 11.1992 12.2695 11.2402 12.3516 11.291H12.3867C12.3867 11.2207 12.3965 11.168 12.416 11.1328H12.3867L12.416 11.0684V11.0391C12.416 11.0117 12.2363 10.832 11.877 10.5ZM12.0352 11.4199C12.0547 11.7598 12.1191 11.9297 12.2285 11.9297H12.2578V11.8652L12.2871 11.6426L12.0352 11.4199ZM4.14844 12.6914C4.14844 12.8203 4.12695 12.9062 4.08398 12.9492C4.08398 12.9727 4.16992 13.0566 4.3418 13.2012C4.3418 13.0996 4.35156 12.9941 4.37109 12.8848C4.35938 12.8848 4.28516 12.8203 4.14844 12.6914ZM3.99023 13.2949C3.99023 13.3887 3.96875 13.4844 3.92578 13.582L4.30664 13.9336V13.6113C4.30664 13.584 4.20117 13.4785 3.99023 13.2949ZM3.89648 13.9629L3.86133 14.1855V14.25C3.86133 14.2773 4.43359 14.8496 5.57812 15.9668C5.57812 15.916 5.61133 15.8516 5.67773 15.7734V15.7441C5.58398 15.5996 5.29688 15.3984 4.81641 15.1406C4.51953 14.8438 4.37109 14.5996 4.37109 14.4082L3.89648 13.9629ZM12.0996 14.5664C12.0996 14.6211 12.0781 14.707 12.0352 14.8242L13.3359 16.0957C13.3359 16.0801 13.3691 15.9941 13.4355 15.8379C13.209 15.6113 12.9336 15.3789 12.6094 15.1406C12.3086 14.7578 12.1484 14.5664 12.1289 14.5664H12.0996ZM3.86133 14.6953V15.0117C3.86133 15.043 4.34961 15.5312 5.32617 16.4766V16.4414C5.30664 16.4414 5.29688 16.4316 5.29688 16.4121C5.33203 16.4121 5.36328 16.3379 5.39062 16.1895L3.86133 14.6953ZM11.877 15.1055C11.8145 15.2344 11.7832 15.3086 11.7832 15.3281L13.1484 16.6641C13.1484 16.6133 13.1699 16.5195 13.2129 16.3828L11.9062 15.1055H11.877ZM3.89648 15.4922L3.92578 15.5508L3.89648 15.7441C3.89648 15.8301 4.3418 16.2969 5.23242 17.1445L5.26172 17.209C5.45312 17.1855 5.54883 17.1523 5.54883 17.1094L3.89648 15.4922ZM11.6191 15.6152C11.6191 15.666 11.5879 15.7305 11.5254 15.8086C11.5254 15.8359 12.002 16.3125 12.9551 17.2383L13.0195 16.9512L11.6543 15.6152H11.6191ZM11.3672 16.0957L11.3379 16.1602L11.6543 16.6641C12.2598 17.3359 12.6094 17.6855 12.7031 17.7129H12.7324C12.7793 17.7051 12.8223 17.6523 12.8613 17.5547L11.3672 16.0957ZM4.08398 16.4414V16.5059C4.13086 16.5059 4.18555 16.5918 4.24805 16.7637C4.26758 16.7637 4.32031 16.8574 4.40625 17.0449L4.72266 17.2383L4.78711 17.209C4.82617 17.2285 4.85742 17.2383 4.88086 17.2383C4.88086 17.207 4.61523 16.9414 4.08398 16.4414ZM5.45508 16.6055C5.45508 16.6328 5.57031 16.748 5.80078 16.9512H5.83594V16.9219C5.625 16.7578 5.51953 16.6523 5.51953 16.6055H5.45508ZM29.7101 3.28125H29.7745C29.8448 3.29297 29.9288 3.42969 30.0265 3.69141C30.046 3.69531 30.2589 4.07812 30.6652 4.83984C30.7198 4.83984 30.8566 5.11523 31.0753 5.66602C31.0558 5.66602 31.046 5.67578 31.046 5.69531C31.128 5.73047 31.2648 6.00586 31.4562 6.52148C31.964 7.76758 32.2179 9.05078 32.2179 10.3711V10.752C32.1124 11.8457 31.9327 12.7676 31.6788 13.5176C31.6788 13.6543 31.5636 14.0156 31.3331 14.6016C31.2823 14.8164 31.1964 15.0273 31.0753 15.2344C31.0753 15.375 30.8839 15.7676 30.5011 16.4121C30.5011 16.4785 30.3741 16.7227 30.1202 17.1445C30.1202 17.1719 30.089 17.2344 30.0265 17.332C30.046 17.332 30.0558 17.3438 30.0558 17.3672C30.0206 17.3672 29.8624 17.6211 29.5812 18.1289L29.2941 18.5098C29.1222 18.7246 28.8898 18.9688 28.5968 19.2422C28.2296 19.6094 27.7198 19.9902 27.0675 20.3848C27.0011 20.4551 26.8644 20.5195 26.6573 20.5781C26.3839 20.7266 25.9386 20.8633 25.3214 20.9883C25.1925 20.9961 25.128 21.0176 25.128 21.0527C25.089 21.0332 25.0577 21.0234 25.0343 21.0234C24.964 21.0664 24.9015 21.0879 24.8468 21.0879H24.4015L24.2081 21.1172C24.173 21.0977 24.1202 21.0879 24.0499 21.0879H23.9562C23.9327 21.0879 23.921 21.0977 23.921 21.1172L23.8566 21.0879H23.5109C23.4679 21.0879 23.4464 21.0664 23.4464 21.0234L23.2882 21.0527C23.2452 21.0176 23.0538 20.9863 22.714 20.959C22.628 20.9082 22.4913 20.8652 22.3038 20.8301C22.2296 20.7715 21.9523 20.6348 21.4718 20.4199C20.7843 19.9941 20.255 19.5801 19.8839 19.1777C19.7277 19.0762 19.4093 18.7051 18.9288 18.0645C18.8273 18.0137 18.7218 17.8125 18.6124 17.4609C18.5538 17.3711 18.4484 17.1387 18.296 16.7637C18.1671 16.3965 18.0812 16.1953 18.0382 16.1602C18.0382 15.9219 18.007 15.793 17.9445 15.7734L17.9796 15.7148C17.9366 15.6445 17.9152 15.5801 17.9152 15.5215C17.9347 15.5215 17.9445 15.5117 17.9445 15.4922C17.8976 15.4922 17.8663 15.4375 17.8507 15.3281H17.88C17.8175 15.0898 17.7765 14.8887 17.757 14.7246C17.7335 14.7246 17.7218 14.7148 17.7218 14.6953C17.7218 14.6758 17.7335 14.666 17.757 14.666L17.7218 14.6016V14.5371C17.7218 14.4746 17.7335 14.4434 17.757 14.4434L17.7218 14.2793V13.9336H17.6573V13.8984C17.6573 13.8789 17.6691 13.8691 17.6925 13.8691C17.6495 13.7793 17.6163 13.5449 17.5929 13.166H17.628L17.5929 13.1074V13.0723C17.5929 13.0527 17.6046 13.043 17.628 13.043C17.5851 12.9648 17.5636 12.8789 17.5636 12.7852V12.0234C17.5636 11.875 17.5851 11.7578 17.628 11.6719C17.628 11.6523 17.6163 11.6426 17.5929 11.6426C17.6359 11.1621 17.6905 10.748 17.757 10.4004C17.7335 10.4004 17.7218 10.3906 17.7218 10.3711C17.7648 10.3711 17.7863 10.3496 17.7863 10.3066V9.92578C17.8292 9.88281 17.8937 9.60742 17.9796 9.09961C18.0187 9.09961 18.0499 9.03516 18.0734 8.90625C18.0499 8.90625 18.0382 8.89648 18.0382 8.87695C18.0695 8.87305 18.1652 8.60742 18.3253 8.08008C18.4034 7.97461 18.6261 7.47656 18.9933 6.58594C19.0284 6.57031 19.0714 6.47461 19.1222 6.29883C19.1613 6.29883 19.214 6.20508 19.2804 6.01758C19.3077 6.01758 19.3605 5.91016 19.4386 5.69531C19.7745 5.15234 20.1671 4.55859 20.6163 3.91406C20.671 3.78906 20.755 3.72656 20.8683 3.72656C20.962 3.8125 21.2277 3.91797 21.6652 4.04297C22.7433 4.58594 23.4113 4.86133 23.6691 4.86914C24.1144 5.04102 24.464 5.14844 24.7179 5.19141C24.7179 5.35937 24.7706 5.50586 24.8761 5.63086C24.8136 5.99023 24.7179 6.4043 24.589 6.87305L24.337 8.23828C24.337 8.26172 24.3468 8.27344 24.3663 8.27344L24.337 8.43164V8.94141L24.3019 9.00586H24.337C24.2511 9.55273 24.1769 10.4219 24.1144 11.6133L24.1437 11.6719L24.1144 11.7363C24.2159 12.4746 24.4269 13.0469 24.7472 13.4531C24.7589 13.4531 24.9073 13.3691 25.1925 13.2012V12.9785C25.2589 12.791 25.3019 12.5469 25.3214 12.2461L25.2921 12.1816C25.3312 12.0215 25.3624 11.7578 25.3859 11.3906H25.3507C25.3507 11.3672 25.3624 11.3555 25.3859 11.3555L25.3214 10.9102C25.3409 10.8281 25.3507 10.7441 25.3507 10.6582V10.623C25.3507 10.4746 25.3312 10.4004 25.2921 10.4004C25.3116 10.3613 25.3214 10.3301 25.3214 10.3066C25.3214 10.1387 25.2902 10.0117 25.2277 9.92578H25.257C25.214 9.84766 25.1925 9.76367 25.1925 9.67383V9.38672C25.1925 9.36328 25.1827 9.35156 25.1632 9.35156C25.1632 9.33203 25.173 9.32227 25.1925 9.32227C25.1925 9.25195 25.1613 9.16797 25.0988 9.07031V8.94141C24.9698 8.20703 24.8527 7.74023 24.7472 7.54102H24.7823C24.755 7.35352 24.712 7.22656 24.6534 7.16016V7.03125C24.6847 6.75781 24.7491 6.62109 24.8468 6.62109V6.46289C24.8468 6.35352 25.1964 5.86523 25.8956 4.99805L26.0831 4.74609C26.1925 4.63672 26.2667 4.58203 26.3058 4.58203L26.3702 4.61719C26.9484 4.42969 27.8488 4.05859 29.0714 3.50391C29.4269 3.39844 29.6398 3.32422 29.7101 3.28125ZM28.5968 4.45898C28.5968 4.50195 28.5323 4.54297 28.4034 4.58203C28.4113 4.61328 28.5597 4.76172 28.8488 5.02734C28.8488 4.96484 28.882 4.88086 28.9484 4.77539L28.5968 4.45898ZM20.9034 4.74609C22.2589 6.09766 22.9581 6.77539 23.0011 6.7793C23.1534 6.79883 23.2374 6.80859 23.253 6.80859L23.2882 6.74414C21.9288 5.39258 21.2296 4.71484 21.1905 4.71094C21.1554 4.71094 21.1124 4.68945 21.0616 4.64648H20.9972C20.9659 4.64648 20.9347 4.67969 20.9034 4.74609ZM29.5519 4.64648C29.5519 4.69336 29.5187 4.7793 29.4523 4.9043L30.4073 5.82422C30.1769 5.30078 29.9757 4.99414 29.8038 4.9043C29.8038 4.87695 29.7198 4.79102 29.5519 4.64648ZM28.087 4.71094C27.962 4.79297 27.8995 4.8457 27.8995 4.86914C28.2589 5.22852 28.4601 5.4082 28.503 5.4082C28.5695 5.36914 28.632 5.34961 28.6905 5.34961V5.31445C28.6905 5.28711 28.4894 5.08594 28.087 4.71094ZM20.7101 4.96875C20.7101 5.01562 20.6788 5.07812 20.6163 5.15625V5.19141C21.4913 6.10156 21.9581 6.55664 22.0167 6.55664C22.1144 6.55664 22.1886 6.57812 22.2394 6.62109H22.3624C22.3273 6.55859 21.7765 6.00781 20.7101 4.96875ZM27.3898 5.0625V5.0918C27.3898 5.11914 27.5695 5.29883 27.9288 5.63086C27.9366 5.5918 27.9581 5.57227 27.9933 5.57227H28.1515V5.53711L27.6124 4.96875C27.507 5.03125 27.4327 5.0625 27.3898 5.0625ZM22.0167 5.0625V5.0918L23.4464 6.49219C23.5089 6.37109 23.5402 6.28711 23.5402 6.24023C22.9113 5.60352 22.5616 5.28516 22.4913 5.28516C22.4718 5.28516 22.3136 5.21094 22.0167 5.0625ZM26.8155 5.31445C26.8429 5.31445 27.0011 5.47461 27.2902 5.79492C27.4503 5.75195 27.546 5.73047 27.5773 5.73047C27.5773 5.70313 27.3976 5.52344 27.0382 5.19141C26.8898 5.23828 26.8155 5.2793 26.8155 5.31445ZM29.3292 5.19141C29.2628 5.33203 29.2296 5.41602 29.2296 5.44336L30.9464 7.13086V7.0957C30.9073 6.99023 30.8546 6.88477 30.7882 6.7793L30.8234 6.71484V6.65039C30.796 6.65039 30.3195 6.17383 29.3937 5.2207L29.3292 5.19141ZM26.3058 5.47266V5.53711C26.3097 5.56836 26.4581 5.7168 26.7511 5.98242C26.9073 5.98242 26.9933 5.95117 27.0089 5.88867L26.4991 5.4082C26.4132 5.45117 26.3488 5.47266 26.3058 5.47266ZM20.423 5.47266C20.423 5.52344 20.3917 5.58789 20.3292 5.66602C20.7316 6.13086 21.0187 6.36328 21.1905 6.36328C21.2609 6.36328 21.3351 6.39648 21.4132 6.46289H21.4425C21.4425 6.43555 21.1144 6.10547 20.4581 5.47266H20.423ZM23.3175 5.60156C23.3175 5.62891 23.4347 5.74609 23.6691 5.95312L23.7628 5.82422V5.69531C23.6769 5.69531 23.5284 5.66406 23.3175 5.60156ZM26.0538 5.79492C26.0538 5.83008 26.0226 5.88281 25.9601 5.95312C25.9601 5.98438 26.0323 6.05859 26.1769 6.17578H26.3058C26.3566 6.13281 26.3995 6.11133 26.4347 6.11133C26.4347 6.08398 26.3292 5.97852 26.1183 5.79492H26.0538ZM29.3292 5.95312C29.4347 6.36328 29.6046 6.63867 29.839 6.7793C29.839 6.80664 30.3155 7.2832 31.2687 8.20898V8.17969C31.1945 7.82812 30.9933 7.53125 30.6652 7.28906C30.6495 7.24609 30.2042 6.80078 29.3292 5.95312ZM27.6124 6.36328L27.548 6.33398C27.1456 6.60742 26.8058 6.74414 26.5284 6.74414C26.4972 6.82227 26.1691 6.95117 25.5441 7.13086C25.5441 7.16992 25.5226 7.18945 25.4796 7.18945C25.5226 7.2793 25.5441 7.34375 25.5441 7.38281H25.5148C25.6398 7.74609 25.7667 8.31836 25.8956 9.09961C25.9152 9.09961 25.9249 9.10938 25.9249 9.12891V9.41602C25.9327 9.56445 25.9542 9.63867 25.9894 9.63867L25.9601 9.70312C25.9796 9.74609 25.9894 9.77734 25.9894 9.79688C25.9698 9.79688 25.9601 9.80859 25.9601 9.83203C26.0109 9.83203 26.0734 10.0547 26.1476 10.5C26.128 10.6875 26.1066 10.8027 26.0831 10.8457C26.1066 10.8887 26.1183 10.9219 26.1183 10.9453H26.0831C26.1261 11.0117 26.1476 11.0742 26.1476 11.1328V11.3906C26.1124 12.2383 26.0695 12.6621 26.0187 12.6621C26.0421 12.6621 26.0538 12.6719 26.0538 12.6914C26.0109 12.6992 25.9894 12.7207 25.9894 12.7559V13.2656C25.9503 13.3125 25.9191 13.418 25.8956 13.582H25.9249C25.882 13.6523 25.8605 13.7168 25.8605 13.7754C25.8605 13.7949 25.8722 13.8047 25.8956 13.8047C25.7667 14.3008 25.6593 14.6719 25.5734 14.918C25.546 14.9805 25.5265 15.0117 25.5148 15.0117L25.5441 15.0762C25.38 15.3066 25.2316 15.5605 25.0988 15.8379C24.6964 16.084 24.421 16.2109 24.2726 16.2188H24.2433C23.755 16.2188 23.4034 16.0391 23.1886 15.6797C22.9191 15.3438 22.7179 14.9629 22.5851 14.5371C22.5655 14.3262 22.5343 14.2207 22.4913 14.2207L22.5206 14.1562C22.337 13.6523 22.2218 13.2285 22.1749 12.8848C22.1749 12.8613 22.1847 12.8496 22.2042 12.8496C22.1417 12.3262 22.0792 11.9551 22.0167 11.7363V11.6133C22.0167 11.5898 22.0265 11.5781 22.046 11.5781L22.0167 11.5137C22.0363 11.2012 22.046 10.9902 22.046 10.8809H22.0812L22.046 10.8164V10.5938C22.089 10.5664 22.1749 10.1309 22.3038 9.28711L22.462 8.94141C22.462 8.91797 22.4503 8.90625 22.4269 8.90625C22.5323 8.55859 22.6066 8.34766 22.6495 8.27344L22.6202 8.20898C22.6632 8.14648 22.7042 7.98828 22.7433 7.73438C22.7667 7.73438 22.8097 7.64844 22.8722 7.47656C22.7394 7.42188 22.3898 7.34766 21.8234 7.25391V7.22461C21.8038 7.22461 21.7941 7.23438 21.7941 7.25391C20.8253 7.02344 20.1144 6.83398 19.6613 6.68555H19.632C19.632 6.79492 19.5792 6.92188 19.4738 7.06641H19.4386V7.22461C19.0988 8.02539 18.9288 8.44922 18.9288 8.49609C18.8663 8.49609 18.8253 8.62305 18.8058 8.87695C18.6769 9.25977 18.5812 9.59961 18.5187 9.89648L18.548 9.95508V9.99023C18.505 9.99023 18.4835 10 18.4835 10.0195C18.4835 10.043 18.4952 10.0547 18.5187 10.0547L18.4249 10.623C18.4445 10.623 18.4542 10.6348 18.4542 10.6582C18.4113 10.666 18.3898 10.6875 18.3898 10.7227V11.0098C18.3468 11.2129 18.3253 11.3281 18.3253 11.3555V11.707C18.3253 11.7266 18.3155 11.7363 18.296 11.7363L18.3253 11.8008L18.2609 11.8945H18.296L18.2609 11.959V11.9941C18.2609 12.0137 18.2726 12.0234 18.296 12.0234L18.2609 12.0879V12.1816C18.2609 12.2051 18.2726 12.2168 18.296 12.2168L18.2609 12.2812V12.8496C18.2609 12.873 18.2726 12.8848 18.296 12.8848L18.2609 12.9492C18.2687 12.9883 18.2902 13.0078 18.3253 13.0078C18.3253 13.0312 18.3155 13.043 18.296 13.043C18.3155 13.3281 18.3468 13.582 18.3898 13.8047V14.3145L18.4249 14.502C18.4015 14.5371 18.3898 14.5918 18.3898 14.666V14.6953C18.6437 15.5742 18.7706 16.0293 18.7706 16.0605C18.8097 16.0605 18.8527 16.168 18.8995 16.3828C18.8995 16.3984 19.0792 16.7891 19.4386 17.5547C19.4386 17.6602 19.6827 18 20.171 18.5742C20.4874 18.9062 20.7413 19.0859 20.9327 19.1133C21.0616 19.1953 21.1261 19.248 21.1261 19.2715C21.6534 19.6113 22.0988 19.834 22.462 19.9395C22.462 20.0176 22.6847 20.0918 23.13 20.1621H23.4113C23.4659 20.2051 23.5089 20.2266 23.5402 20.2266C23.7784 20.2266 23.9913 20.248 24.1788 20.291C24.9015 20.2441 25.3995 20.1699 25.673 20.0684V20.0977C25.8019 20.0469 26.0441 19.9727 26.3995 19.875C27.3331 19.1836 27.7999 18.8242 27.7999 18.7969C28.5265 18.0781 28.9191 17.623 28.9777 17.4316C29.0597 17.4316 29.2081 17.082 29.423 16.3828L29.6163 16.0605V16.0312L29.5812 15.9668C29.628 15.9668 29.7023 15.6484 29.8038 15.0117H29.8683V14.6953C29.8683 14.6758 29.878 14.666 29.8976 14.666L29.8683 14.6016V14.4082C29.8683 14.3887 29.878 14.3789 29.8976 14.3789L29.8683 14.3145C29.8683 14.291 29.878 14.2793 29.8976 14.2793L29.8683 14.2207V13.998C29.9113 13.9434 29.9327 13.9102 29.9327 13.8984H29.8976L29.9327 13.834V13.4531C29.9327 13.4336 29.9542 13.3496 29.9972 13.2012L29.9327 13.0723C29.9327 13.0527 29.9425 13.043 29.962 13.043L29.9327 12.8848V12.5332C29.9327 12.4863 29.921 12.4434 29.8976 12.4043C29.921 12.3652 29.9327 12.334 29.9327 12.3105C29.8898 12.2402 29.8683 12.1758 29.8683 12.1172V11.6133C29.8253 11.4453 29.7198 10.7871 29.5519 9.63867C29.5089 9.63867 29.4874 9.61719 29.4874 9.57422V9.28711C29.4874 9.26758 29.4757 9.25781 29.4523 9.25781C29.4757 9.21875 29.4874 9.1875 29.4874 9.16406C29.382 8.89453 29.2335 8.26953 29.0421 7.28906C28.9132 6.99609 28.7745 6.60352 28.6261 6.11133L28.5616 6.04688C28.5226 6.04688 28.3859 6.11133 28.1515 6.24023C28.0187 6.2793 27.839 6.31055 27.6124 6.33398V6.36328ZM29.7745 7.16016C29.7745 7.45703 29.9542 7.74219 30.3136 8.01562C30.3136 8.04297 30.6945 8.42578 31.4562 9.16406L31.3624 8.7832C31.382 8.7832 31.3917 8.77148 31.3917 8.74805L29.7745 7.16016ZM23.4757 7.76367C23.4757 7.81836 23.4542 7.90234 23.4113 8.01562L23.5753 8.14453L23.6046 7.82812L23.5109 7.76367H23.4757ZM29.9972 8.14453V8.17969C29.9972 8.46094 30.2511 8.81055 30.7589 9.22852C30.7589 9.25586 31.003 9.49805 31.4913 9.95508C31.4913 9.93555 31.5011 9.9043 31.5206 9.86133C31.5206 9.6582 31.3839 9.45703 31.1105 9.25781C31.1027 9.22656 30.7316 8.85547 29.9972 8.14453ZM23.3527 8.36719C23.3527 8.41797 23.3195 8.48242 23.253 8.56055V8.58984C23.253 8.62109 23.3273 8.69531 23.4757 8.8125H23.5109L23.4757 8.6543V8.56055L23.5109 8.49609L23.3527 8.36719ZM23.0948 9.22852L23.4113 9.50977L23.4464 9.45117V9.38672C23.4464 9.36328 23.4347 9.35156 23.4113 9.35156L23.4464 9.28711V9.22852C23.4464 9.20117 23.3605 9.11523 23.1886 8.9707C23.1495 8.9707 23.1183 9.05664 23.0948 9.22852ZM30.2198 9.12891L30.2491 9.19336V9.22852C30.2491 9.27539 30.2394 9.31641 30.2198 9.35156C30.2198 9.47266 30.4835 9.76953 31.0109 10.2422C31.0109 10.2695 31.171 10.4297 31.4913 10.7227L31.5206 10.5645V10.4355C31.5089 10.3926 31.0753 9.95703 30.2198 9.12891ZM23.0011 9.54492C23.0011 9.56445 22.9894 9.57422 22.9659 9.57422L23.0011 9.63867C22.9581 9.72461 22.9366 9.78906 22.9366 9.83203L23.3527 10.2129L23.382 9.89648L23.0011 9.54492ZM30.378 10.0547V10.084C30.4405 10.4238 30.546 10.625 30.6945 10.6875C30.6945 10.7188 30.9269 10.9531 31.3917 11.3906L31.4269 11.3262L31.3917 11.2617C31.4347 11.1914 31.4562 11.1387 31.4562 11.1035L30.378 10.0547ZM22.9073 10.2129C22.9073 10.2715 22.8859 10.334 22.8429 10.4004C22.8429 10.4863 23.0011 10.668 23.3175 10.9453V10.623C23.3175 10.5957 23.1808 10.459 22.9073 10.2129ZM22.8429 10.9453C22.8429 10.9648 22.8527 10.9746 22.8722 10.9746C22.8527 11.0371 22.8312 11.0684 22.8077 11.0684L22.8722 11.2266C22.8527 11.2266 22.8429 11.2383 22.8429 11.2617L23.2882 11.6719H23.3175V11.3906C23.3175 11.3594 23.1691 11.2109 22.8722 10.9453H22.8429ZM30.5011 10.9453C30.5011 11.25 30.63 11.4824 30.8878 11.6426C30.8878 11.6738 31.0245 11.8125 31.298 12.0586C31.298 12.0352 31.3195 11.9492 31.3624 11.8008C31.3624 11.7773 31.0753 11.4922 30.5011 10.9453ZM22.8077 11.6426V11.707C22.8077 11.7422 22.8292 11.8047 22.8722 11.8945L22.8429 11.959C22.8429 12.0137 22.9913 12.1738 23.2882 12.4395V12.1172C23.2882 12.0938 23.128 11.9355 22.8077 11.6426ZM30.6007 11.8008V11.8359L30.6652 11.9297V12.0586C30.6652 12.0781 30.6534 12.0879 30.63 12.0879C30.63 12.1738 30.7999 12.3652 31.1398 12.6621H31.1691V12.5977L31.2042 12.375L30.6007 11.8008ZM22.9073 12.5039L22.9366 12.5625V12.6621H22.9659V12.8848C22.9738 12.916 23.3038 13.2441 23.9562 13.8691C23.6202 13.3496 23.4503 13.0625 23.4464 13.0078L22.9073 12.5039ZM30.7238 12.6914C30.7238 12.7148 30.714 12.7266 30.6945 12.7266C30.6945 12.9805 30.7999 13.1699 31.0109 13.2949L31.046 12.9785L30.7238 12.6914ZM23.0655 13.4238V13.4531C23.1476 13.5977 23.2003 13.7578 23.2238 13.9336L24.589 15.2695L24.7472 15.0762L23.0655 13.4238ZM30.7238 13.4531C30.7238 13.5039 30.714 13.5469 30.6945 13.582H30.7238C30.6847 13.6523 30.6652 13.7051 30.6652 13.7402L30.8234 13.8691H30.8527C30.8527 13.8184 30.8839 13.7656 30.9464 13.7109C30.9113 13.6133 30.837 13.5273 30.7238 13.4531ZM24.1437 14.0566V14.0918L24.8468 14.7598L24.9405 14.502C24.7648 14.3184 24.5519 14.2129 24.3019 14.1855C24.3019 14.1582 24.2491 14.1152 24.1437 14.0566ZM23.4113 14.5371V14.6016C23.6808 15.1875 23.9366 15.4941 24.1788 15.5215H24.2081C24.2589 15.4785 24.3019 15.457 24.337 15.457C24.337 15.4297 24.0284 15.123 23.4113 14.5371ZM41.8479 2.92969C41.8674 2.92969 41.8772 2.94141 41.8772 2.96484L42.0354 2.92969H42.2288C42.7444 2.97266 43.0295 2.99414 43.0842 2.99414L43.1487 3.0293V2.99414C43.3791 3.05664 43.5393 3.08789 43.6291 3.08789V3.05859C44.1409 3.16406 44.5002 3.29102 44.7073 3.43945C44.7815 3.43945 44.9514 3.54492 45.217 3.75586C45.5334 3.93555 45.926 4.34961 46.3948 4.99805C46.5823 5.26758 46.676 5.51172 46.676 5.73047C46.7424 5.83594 46.8498 6.16406 46.9983 6.71484C46.9983 6.73438 46.9866 6.74414 46.9631 6.74414C46.9788 6.89258 47.0002 6.9668 47.0276 6.9668C47.0276 6.99023 47.0178 7.00195 46.9983 7.00195C47.0256 7.26367 47.0569 7.43359 47.092 7.51172H47.0627C47.1018 7.61719 47.1213 7.80664 47.1213 8.08008V8.11523C47.1213 8.35352 47.0901 8.61719 47.0276 8.90625H47.0627C46.8127 10.2461 46.3674 11.3809 45.7268 12.3105C45.5784 12.5566 45.5041 12.6953 45.5041 12.7266V12.7852C45.9416 13.3281 46.4924 13.9219 47.1565 14.5664C47.1565 14.6289 47.3049 14.7988 47.6018 15.0762C47.6018 15.1582 47.5373 15.3496 47.4084 15.6504L47.4436 15.7148C47.2717 16.7305 47.1858 17.4082 47.1858 17.748C47.1663 17.748 47.1448 17.8008 47.1213 17.9062C47.1213 17.9258 47.133 17.9355 47.1565 17.9355C47.1565 18.127 47.0705 18.2227 46.8987 18.2227C46.8987 18.3086 46.7834 18.3945 46.553 18.4805C46.553 18.5234 46.3401 18.7031 45.9143 19.0195C45.633 19.2812 45.4104 19.4512 45.2463 19.5293C45.2463 19.5723 44.9495 19.8477 44.3557 20.3555L43.7873 20.8945L43.4651 21.2109H43.342V21.0527C42.9358 20.3965 42.6702 20.0156 42.5452 19.9102C42.5647 19.9102 42.5745 19.8984 42.5745 19.875C42.5237 19.875 42.2483 19.5039 41.7483 18.7617C41.6584 18.5703 41.553 18.4336 41.4319 18.3516C41.4319 18.3242 41.3791 18.2402 41.2737 18.0996H41.2092C41.0608 18.7793 40.7952 19.5625 40.4123 20.4492L39.4924 20.6426C39.4924 20.6191 39.4827 20.6074 39.4631 20.6074C39.4631 20.6309 39.4514 20.6426 39.428 20.6426V20.6074C39.1819 20.6934 38.9182 20.7461 38.637 20.7656V20.8008C38.6135 20.8008 38.6018 20.7891 38.6018 20.7656C38.3401 20.7891 38.0764 20.8418 37.8108 20.9238C37.7288 20.9238 37.5256 20.9668 37.2014 21.0527V21.0234C37.0803 21.0586 36.9319 21.0898 36.7561 21.1172C36.7561 21.0977 36.7463 21.0879 36.7268 21.0879C36.7268 21.1191 36.5354 21.1816 36.1526 21.2754C36.1526 21.3301 36.0256 21.373 35.7717 21.4043C35.7717 21.4473 35.719 21.4688 35.6135 21.4688C35.5823 21.4688 35.5393 21.4258 35.4846 21.3398V21.0879L35.4553 20.8945C35.4827 20.7656 35.5139 20.7012 35.5491 20.7012L35.5198 20.6426V20.3203C35.5198 20.3008 35.5295 20.291 35.5491 20.291C35.5295 20.248 35.5198 20.2168 35.5198 20.1973C35.5627 20.127 35.5842 20.0625 35.5842 20.0039V19.6523C35.5842 19.6328 35.5725 19.623 35.5491 19.623L35.5842 19.5586V18.8262C35.5842 18.8066 35.594 18.7969 35.6135 18.7969L35.5842 18.7324V17.4316H35.6487V17.209C35.6487 17.1855 35.6584 17.1738 35.678 17.1738L35.6135 16.8281C35.637 16.8281 35.6487 16.8164 35.6487 16.793H35.6135C35.6135 16.7734 35.6252 16.7637 35.6487 16.7637C35.6057 16.6152 35.5842 16.4883 35.5842 16.3828V16.3477C35.5881 16.2422 35.6096 16.1895 35.6487 16.1895C35.6487 16.1699 35.637 16.1602 35.6135 16.1602L35.6487 15.9961V14.7246C35.6487 14.7051 35.6584 14.6953 35.678 14.6953L35.6487 14.6309V14.502C35.6487 14.4824 35.6584 14.4727 35.678 14.4727L35.6487 14.4082V13.7402C35.7112 13.4902 35.7424 13.2793 35.7424 13.1074C35.7268 12.7676 35.7053 12.5977 35.678 12.5977C35.7131 12.4844 35.7561 12.123 35.8069 11.5137H35.7717L35.8069 11.4492V10.3711C35.8069 10.2812 35.8166 10.1641 35.8362 10.0195C35.8362 10 35.8264 9.99023 35.8069 9.99023C35.8498 9.81055 35.8713 9.57617 35.8713 9.28711V8.7832C35.8713 8.56055 35.8811 8.2207 35.9006 7.76367H35.9299L35.9006 7.69922V7.18945C35.9006 6.88477 35.9651 6.63086 36.094 6.42773C36.094 6.36523 36.262 5.98438 36.5979 5.28516C36.8127 4.64844 37.0139 4.33008 37.2014 4.33008C37.342 4.21289 37.7346 4.0332 38.3791 3.79102C39.7776 3.30273 40.6897 3.05859 41.1155 3.05859C41.1155 3.03125 41.3596 2.98828 41.8479 2.92969ZM41.6545 3.63281C42.9202 4.94531 43.5979 5.60156 43.6877 5.60156C43.8948 5.64453 44.0334 5.69727 44.1038 5.75977V5.73047C42.6975 4.33203 41.9768 3.63281 41.9416 3.63281C41.8557 3.63281 41.8127 3.62109 41.8127 3.59766C41.7776 3.62109 41.7248 3.63281 41.6545 3.63281ZM42.4163 3.63281V3.66211C44.0959 5.33789 44.9553 6.17578 44.9944 6.17578C45.0842 6.17578 45.3166 6.39844 45.6916 6.84375C45.8752 7.08984 46.0764 7.32227 46.2952 7.54102L46.3948 7.60547C46.3948 7.30078 46.2659 7.06836 46.008 6.9082C44.9338 5.80273 43.8538 4.7207 42.7678 3.66211H42.4807L42.4163 3.63281ZM40.9866 3.72656C42.01 4.78516 42.551 5.31445 42.6096 5.31445C42.7385 5.31445 42.8557 5.33594 42.9612 5.37891C42.9495 5.34375 42.387 4.78125 41.2737 3.69141H41.2092L40.9866 3.72656ZM43.3069 3.75586C44.2288 4.70898 45.2151 5.69531 46.2659 6.71484C46.2659 6.41016 46.1799 6.21875 46.008 6.14062C44.5041 4.59375 43.7209 3.82031 43.6584 3.82031C43.4788 3.77734 43.3616 3.75586 43.3069 3.75586ZM40.3186 3.82031L41.719 5.25C41.7932 5.23047 41.8987 5.2207 42.0354 5.2207C42.0354 5.19336 41.5588 4.7168 40.6057 3.79102C40.4924 3.81055 40.3967 3.82031 40.3186 3.82031ZM39.7151 4.01367C39.7502 4.01758 40.1741 4.44141 40.9866 5.28516C41.0608 5.26172 41.1663 5.25 41.303 5.25C41.2913 5.21094 40.8479 4.76563 39.9729 3.91406C39.801 3.9375 39.7151 3.9707 39.7151 4.01367ZM39.1409 4.13672V4.17188C39.1565 4.21484 39.592 4.64844 40.4475 5.47266H40.512C40.5627 5.42969 40.6155 5.4082 40.6702 5.4082V5.37891C40.6545 5.33594 40.219 4.90234 39.3635 4.07812C39.2815 4.11719 39.2073 4.13672 39.1409 4.13672ZM44.5491 4.23633V4.26562L46.008 5.69531C45.8518 5.39062 45.6721 5.17969 45.469 5.0625C45.1448 4.66797 44.8381 4.39258 44.5491 4.23633ZM38.5725 4.33008V4.35938C38.5725 4.38672 38.9748 4.79102 39.7795 5.57227H39.844C39.8635 5.57227 39.8733 5.56055 39.8733 5.53711L39.9377 5.57227H40.0022L40.0666 5.53711C40.0666 5.56055 40.0764 5.57227 40.0959 5.57227V5.53711C40.0608 5.5293 39.637 5.10547 38.8245 4.26562C38.7463 4.30859 38.6623 4.33008 38.5725 4.33008ZM37.9983 4.55273C37.9983 4.58008 38.4006 4.98242 39.2053 5.75977C39.2873 5.69727 39.3518 5.66602 39.3987 5.66602V5.63086C38.676 4.86914 38.2834 4.48828 38.2209 4.48828L37.9983 4.55273ZM37.5237 4.86914L38.5725 5.88867H38.637C38.637 5.85742 38.678 5.81445 38.76 5.75977C38.76 5.73242 38.4104 5.38281 37.7112 4.71094H37.6467C37.6038 4.71875 37.5627 4.77148 37.5237 4.86914ZM37.3948 5.19141C37.3948 5.27344 37.3635 5.31445 37.301 5.31445V5.37891C37.301 5.40625 37.5237 5.62891 37.969 6.04688L38.1916 5.98242V5.95312C38.1916 5.92187 37.9358 5.66797 37.4241 5.19141H37.3948ZM37.1721 5.69531C37.1096 5.85156 37.0784 5.9375 37.0784 5.95312L37.3948 6.24023H37.4241C37.5061 6.17383 37.5705 6.14062 37.6174 6.14062C37.6174 6.10938 37.469 5.96094 37.1721 5.69531ZM41.7834 5.98242H41.4319C41.2444 5.98242 40.7991 6.07812 40.0959 6.26953C40.0764 6.26953 40.0666 6.25977 40.0666 6.24023C39.926 6.25977 39.8205 6.29102 39.7502 6.33398L39.6213 6.29883C39.3205 6.34961 38.9592 6.4668 38.5373 6.65039C38.3342 6.65039 37.8264 6.83008 37.0139 7.18945L36.5334 7.44727V7.54102C36.5334 7.56055 36.5452 7.57031 36.5686 7.57031C36.5452 7.61328 36.5334 7.64648 36.5334 7.66992C36.5334 7.68945 36.5452 7.69922 36.5686 7.69922L36.5334 7.85742V7.92188L36.5686 7.98633C36.5452 7.98633 36.5334 7.99609 36.5334 8.01562C36.5764 8.02344 36.5979 8.04492 36.5979 8.08008V8.11523L36.5334 8.20898V8.23828C36.5334 8.26172 36.5452 8.27344 36.5686 8.27344L36.5334 8.33789C36.5334 8.35742 36.5452 8.36719 36.5686 8.36719L36.5334 8.43164V8.58984C36.5334 8.61328 36.5452 8.625 36.5686 8.625L36.5334 8.68359V8.8125C36.5334 8.85938 36.5452 8.90234 36.5686 8.94141C36.5452 8.97656 36.5334 9.01953 36.5334 9.07031H36.5686L36.5334 9.12891V9.16406C36.5334 9.18359 36.5452 9.19336 36.5686 9.19336L36.5334 9.25781V9.45117C36.5334 9.4707 36.5452 9.48047 36.5686 9.48047L36.5334 9.54492V9.60938C36.5334 9.62891 36.5452 9.63867 36.5686 9.63867L36.5334 9.70312V9.73242C36.5334 9.75586 36.5452 9.76758 36.5686 9.76758L36.5334 9.83203V10.7871L36.5041 10.9453H36.5334C36.5334 10.9648 36.5237 10.9746 36.5041 10.9746C36.5237 11.0918 36.5334 11.1758 36.5334 11.2266C36.5334 11.3359 36.5139 11.3906 36.4748 11.3906L36.5041 11.4492C36.5041 11.4727 36.4944 11.5059 36.4748 11.5488C36.4944 11.666 36.5041 11.75 36.5041 11.8008L36.4748 11.9297H36.5041L36.4748 11.9941C36.4944 12.0332 36.5041 12.0645 36.5041 12.0879H36.4748C36.4748 12.1074 36.4846 12.1172 36.5041 12.1172L36.4104 12.627C36.4299 12.7402 36.4397 12.8047 36.4397 12.8203C36.4202 12.9023 36.4104 12.9766 36.4104 13.043C36.4299 13.043 36.4397 13.0527 36.4397 13.0723H36.4104L36.4397 13.1367V13.2949C36.4397 13.3184 36.4299 13.3301 36.4104 13.3301C36.4299 13.3691 36.4397 13.4004 36.4397 13.4238L36.4104 13.7109C36.4299 13.75 36.4397 13.7812 36.4397 13.8047H36.4104C36.4299 13.8477 36.4397 13.8789 36.4397 13.8984L36.3752 14.0273C36.3752 14.0469 36.387 14.0566 36.4104 14.0566L36.3752 14.2207V14.4434C36.3752 14.4629 36.387 14.4727 36.4104 14.4727L36.3752 14.5371V15.873C36.3752 15.8926 36.387 15.9023 36.4104 15.9023L36.3459 16.2832C36.3459 16.3066 36.3557 16.3184 36.3752 16.3184L36.3459 16.4766C36.3459 16.5234 36.3557 16.5664 36.3752 16.6055L36.3459 16.6641L36.3752 16.7285C36.3752 16.752 36.3655 16.7637 36.3459 16.7637L36.3752 16.9219V17.4316C36.3752 17.4512 36.3655 17.4609 36.3459 17.4609C36.3655 17.5039 36.3752 17.5352 36.3752 17.5547C36.3362 17.7461 36.3166 17.8848 36.3166 17.9707V19.1777C36.3166 19.1973 36.3264 19.207 36.3459 19.207L36.3166 19.2715V19.4648C36.3557 19.7734 36.3752 19.9434 36.3752 19.9746H36.3459L36.3752 20.0391V20.4199L36.6975 20.3848H36.7561V20.3203C36.8459 20.3203 37.4729 20.2051 38.637 19.9746C38.6721 19.9941 38.7131 20.0039 38.76 20.0039H38.7952L39.3342 19.8457H39.5569C39.6116 19.8027 39.6643 19.7812 39.7151 19.7812V18.9258L39.7502 18.8613H39.7151C39.7385 18.8184 39.7502 18.7852 39.7502 18.7617L39.7151 18.7031C39.7151 18.6797 39.7268 18.668 39.7502 18.668L39.7151 18.5098V17.5547C39.7151 17.5352 39.7053 17.5254 39.6858 17.5254L39.7151 17.4609V16.6348C39.7151 16.5879 39.7268 16.5449 39.7502 16.5059C39.7229 16.2168 39.6897 15.9629 39.6506 15.7441C39.6741 15.7012 39.6858 15.6699 39.6858 15.6504L39.6213 15.6152C39.6643 15.5059 39.6858 15.4219 39.6858 15.3633H39.7502C39.7502 15.4414 39.8557 15.5371 40.0666 15.6504C40.0666 15.6934 40.1936 15.8301 40.4475 16.0605C40.5491 16.0605 40.803 16.3359 41.2092 16.8867C41.342 16.9609 41.4807 17.1426 41.6252 17.4316C41.8166 17.5957 42.1545 18.0293 42.6389 18.7324C42.6389 18.7676 42.7991 18.9805 43.1194 19.3711C43.1194 19.4375 43.1819 19.5215 43.3069 19.623C43.4202 19.834 43.5159 19.9609 43.594 20.0039C43.676 20.0039 43.7815 19.9297 43.9104 19.7812C44.0041 19.6094 44.1858 19.4395 44.4553 19.2715C44.4944 19.2012 44.7483 19 45.217 18.668C45.2717 18.543 45.4944 18.373 45.885 18.1582C46.053 18.0605 46.137 17.998 46.137 17.9707V17.9062C46.0588 17.7617 45.9104 17.5703 45.6916 17.332L45.3459 16.8574C45.3459 16.8184 45.2717 16.7344 45.1233 16.6055C45.1233 16.5508 45.0276 16.4336 44.8362 16.2539C44.5393 15.9141 44.3909 15.7129 44.3909 15.6504C44.3362 15.6504 44.2932 15.6074 44.262 15.5215C43.5666 14.7598 43.1858 14.3789 43.1194 14.3789V14.3438L43.1487 14.2793C43.1291 14.2793 43.1194 14.2695 43.1194 14.25C43.1467 14.25 43.178 14.1855 43.2131 14.0566C43.3772 13.9473 43.5354 13.7988 43.6877 13.6113C44.383 12.9277 44.8616 12.3359 45.1233 11.8359C45.1819 11.8359 45.2561 11.7188 45.3459 11.4844C45.7483 10.8633 45.9495 10.0996 45.9495 9.19336V9.03516C45.9495 8.85547 45.928 8.71875 45.885 8.625C45.9045 8.58594 45.9143 8.54297 45.9143 8.49609C45.9143 8.46484 45.8928 8.36914 45.8498 8.20898H45.885L45.7561 7.79297C45.5061 7.22656 45.1565 6.8457 44.7073 6.65039C44.2307 6.35352 43.6682 6.15234 43.0198 6.04688C42.8049 5.98438 42.5725 5.95312 42.3225 5.95312H42.0061L41.8479 5.98242V5.95312L41.7834 5.98242ZM41.0217 9.16406C41.428 9.16406 41.7873 9.32227 42.0998 9.63867C42.1858 9.67383 42.2698 9.85352 42.3518 10.1777C42.3518 10.2012 42.342 10.2129 42.3225 10.2129C42.3655 10.4355 42.387 10.5723 42.387 10.623H42.3518C42.3518 10.6465 42.3635 10.6582 42.387 10.6582C42.3088 11.1465 42.2131 11.3906 42.0998 11.3906V11.4199L42.135 11.4844C42.0413 11.4844 41.9553 11.6016 41.8772 11.8359L41.303 12.5625C41.1545 12.6484 41.0491 12.7656 40.9866 12.9141C40.9084 12.9141 40.7502 13.0527 40.512 13.3301C40.469 13.3301 40.3635 13.4141 40.1955 13.582C40.1682 13.582 40.051 13.6875 39.844 13.8984C39.8088 13.8984 39.7659 13.9199 39.7151 13.9629C39.6252 13.9629 39.5627 13.7402 39.5276 13.2949C39.4846 13.2949 39.4514 13.125 39.428 12.7852C39.428 12.6836 39.4397 12.5566 39.4631 12.4043C39.4397 12.127 39.428 11.8301 39.428 11.5137V11.2266C39.428 11.207 39.4397 11.1973 39.4631 11.1973C39.3967 10.8457 39.3635 10.6133 39.3635 10.5V10.0547C39.3635 10.0312 39.3752 10.0195 39.3987 10.0195C39.3987 10.0039 39.3557 9.9082 39.2698 9.73242C39.3088 9.64258 39.5842 9.49414 40.0959 9.28711V9.32227C40.1897 9.2793 40.3694 9.23633 40.635 9.19336H40.9866C41.01 9.19336 41.0217 9.18359 41.0217 9.16406ZM41.0803 9.95508L41.6545 10.5V10.1777L41.2444 9.73242C41.1702 9.73242 41.1155 9.80664 41.0803 9.95508ZM40.0315 10.084L40.0022 10.1484V10.3711C40.0022 10.3984 40.0979 10.4941 40.2893 10.6582H40.3186C40.3186 10.6191 40.3401 10.5332 40.383 10.4004L40.0315 10.084ZM40.9866 10.2773L40.8928 10.5293L41.4026 11.0098H41.4319C41.4319 10.9355 41.4631 10.8613 41.5256 10.7871L40.9866 10.2773ZM40.7991 10.8457C40.7561 11.0215 40.7346 11.1172 40.7346 11.1328L41.1155 11.4844H41.1448C41.2112 11.3633 41.2444 11.2891 41.2444 11.2617L40.7991 10.8457ZM40.635 11.4492C40.5959 11.625 40.5764 11.7207 40.5764 11.7363C40.7131 11.8652 40.7873 11.9297 40.7991 11.9297L40.9221 11.7715V11.7363C40.9221 11.709 40.8264 11.6133 40.635 11.4492ZM44.9006 13.4238C44.9006 13.4941 44.8459 13.5469 44.7366 13.582C45.0647 13.9336 45.7112 14.5801 46.676 15.5215C46.719 15.4434 46.7405 15.3594 46.7405 15.2695C46.2092 14.7109 45.5959 14.0957 44.9006 13.4238ZM44.3909 13.998C45.0627 14.6934 45.8049 15.4336 46.6174 16.2188C46.6174 16.082 46.6272 15.9766 46.6467 15.9023L44.5491 13.834C44.5217 13.834 44.469 13.8887 44.3909 13.998ZM44.1682 14.2207C44.1682 14.2441 44.135 14.2969 44.0686 14.3789C44.0959 14.3789 44.2659 14.5488 44.5784 14.8887C44.6252 14.8887 44.9866 15.2793 45.6623 16.0605L46.5178 16.8867V16.5703C45.8264 15.8516 45.0432 15.0684 44.1682 14.2207ZM40.383 17.332C40.383 17.3984 40.3733 17.4727 40.3538 17.5547C40.3889 17.6523 40.4631 17.7383 40.5764 17.8125C40.6389 17.668 40.6702 17.582 40.6702 17.5547L40.4123 17.332H40.383ZM56.9857 0.873047H57.015L57.3959 0.902344C57.4388 1.62891 57.4603 2.23438 57.4603 2.71875L57.4896 2.7832L57.4603 2.84766C57.4603 2.86719 57.4701 2.89844 57.4896 2.94141C57.4896 2.96484 57.4798 2.99609 57.4603 3.03516C57.5033 3.70703 57.5248 4.15234 57.5248 4.37109C57.5248 4.49219 57.4388 4.62109 57.267 4.75781C57.0834 4.99609 56.8392 5.45117 56.5345 6.12305C56.4291 6.22461 56.3451 6.35156 56.2826 6.50391C55.9818 6.50391 55.7806 6.54688 55.6791 6.63281H55.1341C55.1341 6.70703 54.849 6.79297 54.2787 6.89062C54.2787 6.91016 54.2455 6.91992 54.1791 6.91992C54.1595 6.91992 54.1498 6.91016 54.1498 6.89062C53.8021 6.91016 53.4525 6.97266 53.1009 7.07812C52.9994 7.07812 52.892 7.08984 52.7787 7.11328V7.14258H52.8138C53.2943 7.11914 53.5384 7.09766 53.5462 7.07812C53.5814 7.10156 53.6244 7.11328 53.6752 7.11328C54.0072 7.11328 54.2298 7.0918 54.3431 7.04883V7.07812L54.4017 7.04883L54.6302 7.07812V7.04883C54.6771 7.06445 54.8138 7.08594 55.0404 7.11328C55.2787 7.08984 55.4798 7.05664 55.6439 7.01367C55.683 7.03711 55.7259 7.04883 55.7728 7.04883H55.8666L55.931 7.01367V7.04883L55.9955 7.01367H56.0599C56.5287 6.9707 56.7728 6.94922 56.7923 6.94922C56.8158 6.94922 56.847 6.96094 56.8861 6.98438L56.9505 6.94922C57.1576 6.94922 57.2748 7.09961 57.3021 7.40039C57.3646 8.51758 57.3959 9.34375 57.3959 9.87891L57.431 10.166L57.3959 10.2305C57.3959 10.25 57.4076 10.2598 57.431 10.2598L57.3959 10.4238C57.3959 10.4863 57.4076 10.5176 57.431 10.5176C57.431 10.541 57.4193 10.5723 57.3959 10.6113C57.4232 11.1152 57.4447 11.3711 57.4603 11.3789L57.431 11.4434C57.4505 11.4824 57.4603 11.5137 57.4603 11.5371L57.431 11.6016C57.4505 11.6406 57.4603 11.6719 57.4603 11.6953L57.431 11.8887H57.4603C57.4408 11.9277 57.431 11.959 57.431 11.9824C57.431 12.002 57.4408 12.0117 57.4603 12.0117L57.431 12.1699V12.2695C57.431 12.332 57.4408 12.3633 57.4603 12.3633L57.431 12.5215C57.431 12.7129 57.4408 12.8398 57.4603 12.9023C57.4408 13.0898 57.431 13.25 57.431 13.3828V13.6992C57.431 13.7461 57.4193 13.7891 57.3959 13.8281L57.431 13.8926C57.4076 13.9316 57.3959 13.9629 57.3959 13.9863H57.431L57.3959 14.0508C57.3959 14.0625 57.4076 14.2012 57.431 14.4668L57.3959 14.5254L57.431 14.5898C57.4076 14.6328 57.3959 14.666 57.3959 14.6895H57.431L57.3959 14.7539V14.9121L57.431 14.9766H57.3959L57.431 15.0352V15.1641C57.431 15.207 57.4095 15.2285 57.3666 15.2285C57.3822 15.3145 57.4037 15.3574 57.431 15.3574L57.3959 15.4219V15.6445C57.3959 15.8906 57.3861 16.2832 57.3666 16.8223H57.3314L57.3666 16.8867V17.0449C57.3666 17.0645 57.3548 17.0742 57.3314 17.0742L57.3666 17.1387V17.5547C57.3666 17.6445 57.3236 17.7598 57.2377 17.9004C57.0814 18.252 56.9759 18.4551 56.9212 18.5098C56.9212 18.5723 56.8041 18.7734 56.5697 19.1133C56.2142 19.8359 55.9916 20.1973 55.9017 20.1973L55.8373 20.2266H55.0755C55.0521 20.2266 55.0404 20.2363 55.0404 20.2559L54.7884 20.1973C54.64 20.209 54.5658 20.2285 54.5658 20.2559L54.4017 20.2266H54.308L54.1498 20.2559V20.2266C54.1107 20.2461 54.0795 20.2559 54.056 20.2559L53.8978 20.2266L53.7337 20.2559L53.6107 20.2266C53.5677 20.2266 53.5462 20.2363 53.5462 20.2559C53.3353 20.2363 53.1752 20.2266 53.0658 20.2266H50.9974C50.9779 20.2266 50.9252 20.1523 50.8392 20.0039H50.8685L50.8392 19.9395L50.8685 19.875C50.8685 19.8555 50.8587 19.8457 50.8392 19.8457C50.8666 19.5527 50.888 19.3711 50.9037 19.3008C50.8802 19.2656 50.8685 19.2246 50.8685 19.1777V19.1133C50.8685 19.0898 50.89 18.9727 50.933 18.7617L50.9037 18.6973C50.9232 18.6582 50.933 18.627 50.933 18.6035L50.9037 18.5391C50.9232 18.5039 50.933 18.4609 50.933 18.4102V18.3809C50.933 18.3574 50.9232 18.3457 50.9037 18.3457C50.9232 18.1777 50.9447 18.0938 50.9681 18.0938L50.933 18.0293V17.584C50.933 17.5645 50.9232 17.5547 50.9037 17.5547L50.933 17.4902C50.933 17.4668 50.9232 17.4551 50.9037 17.4551C50.9232 17.2637 50.9447 17.168 50.9681 17.168L50.933 17.1094V16.9805C50.933 16.957 50.9447 16.9453 50.9681 16.9453L50.933 16.8867V16.7578C50.933 16.7344 50.9447 16.7227 50.9681 16.7227C50.9447 16.6836 50.933 16.6523 50.933 16.6289C50.933 16.6094 50.9447 16.5996 50.9681 16.5996L50.933 16.4707C50.933 16.459 50.9447 16.3203 50.9681 16.0547L50.933 15.832C50.933 15.8125 50.9447 15.8027 50.9681 15.8027L50.933 15.6445V15.1641C50.933 15.0781 50.9447 14.9609 50.9681 14.8125C50.9681 14.793 50.9564 14.7832 50.933 14.7832L50.9681 14.6543C50.9681 14.6152 50.9564 14.4238 50.933 14.0801C50.933 14.041 50.9447 14.0215 50.9681 14.0215L50.933 13.7988V12.6504C50.933 12.6309 50.9447 12.6211 50.9681 12.6211L50.933 12.5566V12.457C50.933 12.4375 50.9447 12.4277 50.9681 12.4277C50.9681 12.4043 50.9564 12.3926 50.933 12.3926C50.9564 12.002 50.9681 11.7168 50.9681 11.5371V11.4727C50.9681 11.3789 50.9896 11.293 51.0326 11.2148C51.0091 11.1797 50.9974 11.1387 50.9974 11.0918H51.0326L50.9974 11.0273C51.0404 10.957 51.0619 10.8926 51.0619 10.834L50.9974 10.7402V10.4531L51.0326 10.2305H50.9974L51.0326 10.166V10.0723C51.0326 10.0488 51.0209 10.0371 50.9974 10.0371C51.0404 9.9707 51.0619 9.9082 51.0619 9.84961V9.62695C51.0619 9.58398 51.0404 9.5625 50.9974 9.5625L51.0326 9.49805C51.0326 9.41211 51.0209 9.29492 50.9974 9.14648C51.0326 9.10352 51.0638 8.93359 51.0912 8.63672C51.6615 8.11719 52.0443 7.62891 52.2396 7.17188H52.2103L52.1107 7.23633H51.3783C51.3353 7.23633 51.3138 7.21484 51.3138 7.17188V6.72656C51.3138 6.70312 51.3353 6.58789 51.3783 6.38086V6.28125C51.3783 6.07031 51.39 5.75195 51.4134 5.32617H51.4427L51.4134 5.26758C51.4134 5.19336 51.4232 5.13867 51.4427 5.10352L51.4134 4.91602C51.433 4.87305 51.4427 4.83984 51.4427 4.81641C51.4232 4.81641 51.4134 4.80664 51.4134 4.78711H51.4427L51.4134 4.72266L51.4427 4.6582C51.3998 4.52148 51.3783 4.42578 51.3783 4.37109C51.4212 4.37109 51.4427 4.35156 51.4427 4.3125C51.4427 4.28906 51.433 4.27734 51.4134 4.27734L51.4427 4.21289V4.18359C51.4427 4.16016 51.433 4.14844 51.4134 4.14844L51.4427 4.08398C51.4076 4.01367 51.3451 3.62109 51.2552 2.90625C51.556 2.61328 51.7259 2.43359 51.765 2.36719C51.8002 2.36719 51.9271 2.22852 52.1459 1.95117C52.3255 1.64648 52.5267 1.36133 52.7494 1.0957C52.7689 1.05273 52.7787 1.01953 52.7787 0.996094C53.099 0.976562 53.3334 0.966797 53.4818 0.966797H53.7045C53.724 0.966797 53.7337 0.976562 53.7337 0.996094L53.7982 0.966797H53.8334C53.8529 0.966797 53.8627 0.976562 53.8627 0.996094C53.9759 0.957031 54.0931 0.9375 54.2142 0.9375C54.5033 0.957031 54.7045 0.966797 54.8177 0.966797V0.9375C54.8607 0.957031 54.892 0.966797 54.9115 0.966797C55.0599 0.966797 55.1341 0.945313 55.1341 0.902344L55.2982 0.9375H55.392C55.4388 0.9375 55.4818 0.925781 55.5209 0.902344L55.5853 0.9375C55.6986 0.914062 55.7923 0.902344 55.8666 0.902344C55.89 0.902344 55.9232 0.914062 55.9662 0.9375C56.181 0.894531 56.5209 0.873047 56.9857 0.873047ZM53.1009 1.57031C53.1048 1.60156 53.4447 1.94141 54.1205 2.58984H54.4369C53.7962 1.91016 53.4466 1.57031 53.388 1.57031C53.3021 1.57031 53.2591 1.56055 53.2591 1.54102C53.224 1.56055 53.1712 1.57031 53.1009 1.57031ZM53.8627 1.57031C53.8627 1.59766 54.181 1.91602 54.8177 2.52539H55.1341C55.1341 2.50195 54.806 2.17383 54.1498 1.54102H54.0853L53.8627 1.57031ZM55.3568 1.54102C55.3568 1.56836 55.6127 1.82227 56.1244 2.30273C56.1869 2.21289 56.2181 2.12891 56.2181 2.05078L55.6791 1.54102L55.6146 1.57031L55.4212 1.54102H55.3568ZM54.6595 1.57031V1.60547C54.6595 1.62891 54.9681 1.93555 55.5853 2.52539H55.9017C55.9017 2.50195 55.5834 2.18359 54.9466 1.57031H54.6595ZM52.8783 1.79297C52.8783 1.8125 52.8353 1.87695 52.7494 1.98633C53.1283 2.43164 53.3939 2.6543 53.5462 2.6543H53.5755L53.64 2.625C53.683 2.64453 53.7142 2.6543 53.7337 2.6543C53.7337 2.62695 53.4486 2.33984 52.8783 1.79297ZM52.5912 2.27344C52.5287 2.40234 52.4974 2.48633 52.4974 2.52539L52.6556 2.6543H52.972C52.972 2.62305 52.8451 2.49609 52.5912 2.27344ZM56.5697 2.46094C56.5697 2.49609 56.5482 2.58203 56.5052 2.71875L56.8861 3.07031L56.8568 3.00586V2.7832L56.8861 2.71875L56.599 2.46094H56.5697ZM56.3763 3.00586C56.3763 3.14258 56.3666 3.24805 56.347 3.32227L56.9505 3.89648V3.86133C56.9505 3.57617 56.8021 3.33398 56.5052 3.13477C56.5052 3.09961 56.4623 3.05664 56.3763 3.00586ZM55.2337 3.19336C55.1908 3.17383 55.1576 3.16406 55.1341 3.16406V3.19336C55.1146 3.19336 55.1048 3.18359 55.1048 3.16406C54.8197 3.18359 54.6068 3.19336 54.4662 3.19336H54.3431C54.2923 3.19336 54.2494 3.18359 54.2142 3.16406C54.0033 3.19922 53.8978 3.23047 53.8978 3.25781C53.8275 3.21484 53.763 3.19336 53.7045 3.19336C53.6341 3.23633 53.5814 3.25781 53.5462 3.25781C53.4759 3.25781 53.4232 3.24805 53.388 3.22852C53.2396 3.24805 53.1224 3.25781 53.0365 3.25781H52.9427L52.7494 3.22852C52.7103 3.24805 52.6048 3.26953 52.433 3.29297L52.2103 3.25781C52.0189 3.33203 51.9232 3.38477 51.9232 3.41602V3.70312C51.9662 3.82813 51.9974 4.07227 52.017 4.43555L51.9877 4.56445C51.9877 4.58789 51.9974 4.61914 52.017 4.6582L51.9877 4.85156C51.9877 4.95703 51.9974 5.08398 52.017 5.23242C51.9974 5.62695 51.9877 6.00977 51.9877 6.38086V6.53906C51.9916 6.58203 52.0111 6.60352 52.0462 6.60352C52.9837 6.50586 53.4525 6.41992 53.4525 6.3457H53.5755C53.9779 6.3457 54.5619 6.27148 55.3275 6.12305C55.6048 6.12305 55.7435 6.08008 55.7435 5.99414C55.7435 5.88867 55.7533 5.83594 55.7728 5.83594L55.7435 5.67773V5.51953C55.7435 5.5 55.765 5.41602 55.808 5.26758V5.20312C55.808 5.17969 55.7962 5.16797 55.7728 5.16797L55.808 5.10352V4.40625C55.808 4.30078 55.7865 4.24805 55.7435 4.24805C55.7865 4.17773 55.808 4.11328 55.808 4.05469H55.7728C55.7962 4.01563 55.808 3.98438 55.808 3.96094C55.808 3.89844 55.8275 3.62305 55.8666 3.13477L55.808 3.09961H55.4857C55.3959 3.16211 55.3119 3.19336 55.2337 3.19336ZM56.4115 3.80273C56.4115 3.86523 56.39 3.93945 56.347 4.02539C56.347 4.08008 56.474 4.2168 56.7279 4.43555C56.7279 4.42383 56.7709 4.37109 56.8568 4.27734V4.24805C56.8568 4.2168 56.7084 4.06836 56.4115 3.80273ZM53.0658 7.65234C53.6439 8.28906 53.9955 8.60742 54.1205 8.60742H54.1791C54.2025 8.60742 54.2142 8.59766 54.2142 8.57812L54.2787 8.60742H54.3431C53.7103 7.92773 53.349 7.58789 53.2591 7.58789C53.1732 7.63086 53.1087 7.65234 53.0658 7.65234ZM53.7689 7.58789C53.7689 7.61523 54.0873 7.93359 54.724 8.54297H55.0404C54.5365 8 54.2084 7.68164 54.056 7.58789C54.0326 7.58789 54.0209 7.59961 54.0209 7.62305L53.8627 7.58789H53.7689ZM54.5658 7.62305L55.4564 8.54297C55.5619 8.52344 55.6146 8.50195 55.6146 8.47852L55.6791 8.51367C55.722 8.51367 55.7435 8.49219 55.7435 8.44922L54.8529 7.58789H54.7884L54.5658 7.62305ZM56.0599 7.58789C56.0599 7.61523 56.1439 7.70117 56.3119 7.8457L56.4408 7.62305L56.3763 7.58789H56.0599ZM55.3568 7.65234C55.3568 7.67969 55.5814 7.90234 56.0306 8.32031H56.0599C56.1224 8.19922 56.1537 8.125 56.1537 8.09766L55.6439 7.62305C55.5306 7.64258 55.4349 7.65234 55.3568 7.65234ZM52.556 7.68164L52.4974 7.875L53.1947 8.54297H53.5111C53.5111 8.51953 53.2259 8.23242 52.6556 7.68164H52.556ZM52.1752 8.32031L52.4623 8.57812L52.6205 8.54297L52.7787 8.57812C52.7787 8.54688 52.6302 8.39648 52.3334 8.12695C52.3021 8.12695 52.2494 8.19141 52.1752 8.32031ZM56.4759 8.47852C56.4759 8.52148 56.433 8.58594 56.347 8.67188L56.763 9.05273C56.763 8.91602 56.7728 8.81055 56.7923 8.73633L56.5052 8.47852H56.4759ZM56.1537 8.92383C56.1537 9.20508 56.2494 9.39648 56.4408 9.49805C56.4408 9.5293 56.5677 9.65625 56.8216 9.87891V9.78516C56.8216 9.76562 56.8119 9.75586 56.7923 9.75586C56.8119 9.71289 56.8216 9.67969 56.8216 9.65625C56.8216 9.53516 56.6107 9.29102 56.1888 8.92383H56.1537ZM53.4818 9.21094L53.4173 9.18164H53.0658C53.0189 9.18164 52.9779 9.19141 52.9427 9.21094C52.9193 9.21094 52.9076 9.20117 52.9076 9.18164C52.892 9.18164 52.8295 9.19141 52.7201 9.21094C52.142 9.19141 51.7904 9.18164 51.6654 9.18164L51.6361 9.24609C51.6361 9.37109 51.6459 9.625 51.6654 10.0078C51.6459 10.2578 51.6361 10.4375 51.6361 10.5469L51.6654 10.7402L51.6361 10.8047L51.6654 11.0273C51.6654 11.2188 51.6439 11.5156 51.6009 11.918C51.6244 11.957 51.6361 12 51.6361 12.0469C51.5931 12.1172 51.5716 12.1797 51.5716 12.2344V13.6348C51.5795 13.6777 51.6009 13.6992 51.6361 13.6992C51.5931 13.7695 51.5716 13.834 51.5716 13.8926V14.0508L51.6009 14.2441C51.6009 14.2637 51.5912 14.2734 51.5716 14.2734L51.6009 14.6543V14.6895C51.6009 15.1113 51.5814 15.3867 51.5423 15.5156C51.5814 15.5781 51.6127 15.7578 51.6361 16.0547C51.6127 16.4219 51.6009 16.6348 51.6009 16.6934L51.6361 17.2031C51.6205 17.3281 51.599 17.3906 51.5716 17.3906L51.6009 17.4551V17.4902C51.6009 17.5605 51.5912 17.6133 51.5716 17.6484L51.6009 17.8418C51.6009 17.8613 51.5912 17.8711 51.5716 17.8711L51.6009 17.9355C51.6009 18.0059 51.5912 18.0586 51.5716 18.0938L51.6009 18.2871C51.5619 18.3535 51.5423 18.416 51.5423 18.4746V19.3359C51.5423 19.3828 51.5306 19.4258 51.5072 19.4648C51.5306 19.4961 51.5423 19.5586 51.5423 19.6523H51.7298C51.7884 19.6523 52.1595 19.6309 52.8431 19.5879H53.4818C53.5287 19.5879 53.5716 19.5996 53.6107 19.623C53.6302 19.623 53.64 19.6113 53.64 19.5879L53.7982 19.623H53.8334C53.8802 19.623 53.9212 19.6113 53.9564 19.5879L54.0209 19.623C54.1693 19.5801 54.2962 19.5586 54.4017 19.5586H54.4369C54.4564 19.5586 54.4662 19.5684 54.4662 19.5879C54.5912 19.5449 54.7298 19.5234 54.8822 19.5234C55.0697 19.5469 55.1752 19.5586 55.1986 19.5586C55.2377 19.5352 55.2806 19.5234 55.3275 19.5234C55.308 18.9922 55.2982 18.5684 55.2982 18.252V18.1875C55.2982 18.168 55.2865 18.1582 55.263 18.1582L55.2982 18.0938V17.2031C55.2982 17.1797 55.308 17.168 55.3275 17.168L55.2982 17.1094V16.8867C55.3021 16.8438 55.3216 16.8223 55.3568 16.8223C55.3216 16.7285 55.2904 16.5898 55.263 16.4062L55.3275 15.8027C55.308 15.7637 55.2982 15.7207 55.2982 15.6738L55.3275 15.6094C55.308 15.5273 55.2982 15.4531 55.2982 15.3867C55.3177 15.3477 55.3275 15.3164 55.3275 15.293H55.2982L55.3275 15.2285C55.308 15.1855 55.2982 15.1543 55.2982 15.1348H55.3275L55.2982 15.0703L55.3275 14.7832L55.2982 14.625L55.3275 14.5605L55.2982 14.4961C55.3177 14.457 55.3275 14.4258 55.3275 14.4023H55.2982C55.3373 14.3242 55.3568 14.2383 55.3568 14.1445V13.0957L55.392 12.9375H55.3568L55.392 12.873V12.5215C55.392 12.4746 55.4017 12.4316 55.4212 12.3926C55.4212 12.373 55.4115 12.3633 55.392 12.3633C55.4115 12.0039 55.4427 11.8242 55.4857 11.8242C55.4857 11.8008 55.4759 11.7891 55.4564 11.7891L55.4857 11.6309V11.5664C55.4857 11.5039 55.4759 11.4727 55.4564 11.4727C55.4759 11.1133 55.5072 10.9336 55.5502 10.9336C55.5072 10.8633 55.4857 10.7988 55.4857 10.7402V10.6465C55.4857 10.627 55.5072 10.541 55.5502 10.3887V10.1016C55.5502 10.082 55.5404 10.0723 55.5209 10.0723C55.5404 10.0098 55.5619 9.97852 55.5853 9.97852L55.5502 9.91406C55.5502 9.89062 55.5619 9.87891 55.5853 9.87891L55.5502 9.81445V9.78516C55.5502 9.73828 55.5619 9.69531 55.5853 9.65625L55.5502 9.5918L55.5853 9.5332C55.5619 9.49023 55.5502 9.45703 55.5502 9.43359C55.5502 9.41016 55.5619 9.37891 55.5853 9.33984L55.5502 9.14648H54.8822L54.7884 9.21094H54.5306C54.5111 9.21094 54.5013 9.20117 54.5013 9.18164L54.4369 9.21094H54.1498C54.1029 9.21094 54.0599 9.20117 54.0209 9.18164C54.0013 9.18164 53.9916 9.19141 53.9916 9.21094L53.5755 9.14648C53.513 9.16992 53.4818 9.19141 53.4818 9.21094ZM56.2181 9.7207C56.2181 9.74414 56.2298 9.77539 56.2533 9.81445C56.2298 9.93164 56.2181 10.0176 56.2181 10.0723L56.7923 10.6113C56.7923 10.5684 56.8138 10.5469 56.8568 10.5469V10.4883C56.8568 10.4648 56.8451 10.4531 56.8216 10.4531L56.8568 10.3887V10.3594C56.8568 10.332 56.6439 10.1191 56.2181 9.7207ZM56.1537 10.4531L56.1888 10.5176L56.1537 10.582C56.1537 10.7578 56.388 11.0449 56.8568 11.4434C56.8763 11.2949 56.8978 11.1992 56.9212 11.1562L56.1888 10.4531H56.1537ZM56.1888 11.2148C56.1888 11.2383 56.1771 11.25 56.1537 11.25C56.1537 11.2695 56.1654 11.2793 56.1888 11.2793L56.1537 11.4082C56.1537 11.5293 56.3763 11.7832 56.8216 12.1699L56.8568 11.8535L56.1888 11.2148ZM56.1537 11.9473C56.1537 11.9902 56.1439 12.0117 56.1244 12.0117L56.1537 12.0762C56.1107 12.1465 56.0892 12.1992 56.0892 12.2344L56.8568 12.9668V12.6504C56.8568 12.623 56.6224 12.3887 56.1537 11.9473ZM56.0599 12.6211L56.0892 12.6797V12.7793C56.0892 12.8262 56.0795 12.8672 56.0599 12.9023C56.0599 12.9609 56.3138 13.2266 56.8216 13.6992C56.8216 13.6797 56.8431 13.5957 56.8861 13.4473C56.8705 13.4004 56.5951 13.125 56.0599 12.6211ZM56.0306 13.3477V13.6699C56.0306 13.6973 56.2943 13.9629 56.8216 14.4668C56.8216 14.3691 56.8334 14.3047 56.8568 14.2734H56.7923L56.8216 14.209V14.1445C56.8216 14.1172 56.558 13.8516 56.0306 13.3477ZM56.0306 14.1152L55.9955 14.4316L56.8216 15.2285V15.1641L56.7923 15.0996C56.8119 15.0645 56.8216 15.0234 56.8216 14.9766H56.7923L56.8216 14.9121C56.8216 14.8809 56.558 14.6152 56.0306 14.1152ZM55.9955 14.8477L55.9662 14.9766H55.9955L55.9662 15.0352C55.9662 15.1562 56.2416 15.4648 56.7923 15.9609V15.7676L56.763 15.709H56.7923C56.7923 15.6191 56.5267 15.332 55.9955 14.8477ZM56.0306 15.6445C56.0306 15.7422 56.0091 15.8164 55.9662 15.8672C55.9662 15.9258 56.2416 16.2109 56.7923 16.7227V16.6641C56.7923 16.4062 56.6869 16.2148 56.4759 16.0898C56.4759 16.0586 56.3275 15.9102 56.0306 15.6445ZM55.9662 16.3418V16.377H55.9955L55.9662 16.4355V16.5996L55.9955 16.6641C55.9759 16.6641 55.9662 16.6738 55.9662 16.6934L56.763 17.4551L56.7923 17.3906V17.2676C56.7923 17.1465 56.517 16.8379 55.9662 16.3418ZM56.0306 17.168C55.9877 17.2383 55.9662 17.3027 55.9662 17.3613V17.4258C55.9662 17.4531 56.1459 17.6328 56.5052 17.9648C56.5677 17.8477 56.599 17.7637 56.599 17.7129L56.0306 17.168ZM55.9662 17.8711V18.0293C56.0365 18.2285 56.0892 18.3457 56.1244 18.3809L56.2181 18.4453C56.2533 18.4453 56.2962 18.3711 56.347 18.2227L55.9662 17.8711ZM68.3208 3.07031C68.5005 3.07031 68.6391 3.0918 68.7368 3.13477L68.7309 3.10547C69.5239 3.21094 70.145 3.39062 70.5942 3.64453C70.9536 3.83203 71.3325 4.11914 71.7309 4.50586C72.2153 5.0293 72.4595 5.37891 72.4634 5.55469V5.58398H72.4282C72.7876 6.24805 73.0786 7.16211 73.3013 8.32617C73.4223 8.94727 73.5024 9.51953 73.5415 10.043C73.5415 10.0547 73.5298 10.0977 73.5063 10.1719C73.5102 10.1914 73.5239 10.2227 73.5473 10.2656C73.602 12.2773 73.2173 14.1445 72.393 15.8672C71.9243 16.6797 71.5708 17.3477 71.3325 17.8711C71.2036 18.1094 71.0317 18.332 70.8169 18.5391C70.7895 18.5391 70.6138 18.7734 70.2895 19.2422C69.7466 19.9883 69.188 20.5195 68.6138 20.8359C67.9809 21.2578 67.1059 21.4688 65.9888 21.4688C65.2075 21.4688 64.3755 21.2891 63.4927 20.9297C63.1177 20.6758 62.8345 20.4316 62.643 20.1973C62.1743 19.6699 61.8423 19.1172 61.647 18.5391C61.5766 18.5391 61.4399 18.2109 61.2368 17.5547C61.1313 17.1289 61.061 16.916 61.0259 16.916C61.0259 16.8965 61.0376 16.8867 61.061 16.8867C61.0571 16.7578 61.022 16.6934 60.9555 16.6934C60.979 16.6543 60.9907 16.623 60.9907 16.5996C60.9868 16.5605 60.9692 16.3691 60.938 16.0254L60.9731 15.9609C60.9106 15.5391 60.8716 15.3281 60.8559 15.3281L60.8852 15.2637V15.1699L60.8149 15.0703C60.8149 15.0508 60.8247 15.041 60.8442 15.041L60.8149 14.9766C60.8345 14.9375 60.8423 14.8945 60.8384 14.8477H60.8091L60.8384 14.7832L60.8091 14.7246L60.8325 14.5312H60.8032L60.8325 14.4668L60.7973 14.4023H60.8266C60.8071 14.3633 60.7973 14.332 60.7973 14.3086C60.7973 14.2852 60.8071 14.2734 60.8266 14.2734L60.7915 14.1152L60.7856 13.8633C60.7778 13.6836 60.7798 13.418 60.7915 13.0664H60.7622L60.8735 12.3633H60.8384L60.8677 12.3047C60.8677 12.2812 60.8559 12.2695 60.8325 12.2695C60.9497 11.8281 61.0239 11.4141 61.0552 11.0273C61.1098 10.957 61.1899 10.7676 61.2954 10.459L61.2661 10.3945C61.5981 9.41016 61.8462 8.77344 62.0102 8.48438C62.0063 8.41016 62.2055 8.01758 62.6079 7.30664C63.022 6.42383 63.4809 5.71289 63.9848 5.17383C64.727 4.44727 65.4458 3.90625 66.1411 3.55078C66.1372 3.42188 66.6606 3.26172 67.7114 3.07031H68.3208ZM67.9575 3.80273V3.83203C70.977 6.75781 72.5044 8.23438 72.5395 8.26172C72.5278 7.95703 72.3266 7.66016 71.936 7.37109C70.7329 6.16797 69.5239 4.98828 68.3091 3.83203H68.022L67.9575 3.80273ZM67.2602 3.86719C68.2407 4.86328 68.7739 5.36133 68.8598 5.36133L69.5747 5.80664V5.77734L67.5473 3.83203L67.2602 3.86719ZM68.8188 3.86719V3.89648C69.9673 5.04102 71.1333 6.17773 72.3169 7.30664C72.3091 7.00195 72.0766 6.67188 71.6196 6.31641C70.0259 4.72656 69.1977 3.93164 69.1352 3.93164C69.022 3.93164 68.9165 3.91016 68.8188 3.86719ZM66.6919 4.05469C66.6958 4.08984 67.0337 4.41992 67.7055 5.04492L67.7641 5.00977C67.811 5.0332 67.8462 5.04492 67.8696 5.04492L67.9223 5.00977C67.9692 5.0332 68.0044 5.04492 68.0278 5.04492L66.938 3.96094C66.8013 4.02344 66.7192 4.05469 66.6919 4.05469ZM69.7798 4.08984V4.11914L71.9419 6.1875C71.8208 5.83203 71.5864 5.49414 71.2388 5.17383C70.6098 4.53711 70.2309 4.21875 70.102 4.21875L69.7798 4.08984ZM66.188 4.3125C66.645 4.80078 66.9184 5.04492 67.0083 5.04492L67.2309 5.07422L67.2544 5.00977L66.3813 4.18359H66.3462C66.2407 4.23828 66.188 4.28125 66.188 4.3125ZM65.7192 4.59961C65.7231 4.62695 65.9302 4.82812 66.3403 5.20312C66.3403 5.16797 66.4145 5.13672 66.563 5.10938V5.07422C66.5356 5.07422 66.3286 4.87305 65.9419 4.4707C65.8169 4.55664 65.7427 4.59961 65.7192 4.59961ZM65.5024 4.82227C65.397 4.9082 65.3442 4.96094 65.3442 4.98047C65.3442 5.01172 65.477 5.13867 65.7427 5.36133C65.8169 5.31836 65.9009 5.29688 65.9946 5.29688C65.9946 5.27344 65.8305 5.11523 65.5024 4.82227ZM65.0981 5.17383L64.9458 5.36133C64.9731 5.36133 65.0591 5.44727 65.2036 5.61914C65.3325 5.55273 65.4067 5.51953 65.4263 5.51953V5.49023C65.4223 5.46289 65.313 5.35742 65.0981 5.17383ZM66.4516 5.71289C66.4516 5.69336 66.4419 5.68359 66.4223 5.68359C66.4223 5.71094 66.2622 5.77344 65.9419 5.87109C65.3872 6.13672 64.8774 6.45508 64.4126 6.82617C63.6938 7.37305 63.1567 7.94727 62.8013 8.54883C62.5591 8.93945 62.3794 9.29883 62.2622 9.62695C62.1958 9.8418 62.143 9.94922 62.104 9.94922L61.8755 10.6172L61.5884 11.8594H61.6177L61.5942 11.918C61.5942 11.9414 61.604 11.9531 61.6235 11.9531C61.5845 12.0859 61.5571 12.2227 61.5415 12.3633H61.5708C61.5161 12.4883 61.4575 13.0508 61.395 14.0508C61.438 14.1445 61.4634 14.3145 61.4712 14.5605L61.4829 14.9121C61.4946 15.0605 61.518 15.1348 61.5532 15.1348L61.5239 15.1992L61.5298 15.4512C61.5298 15.4746 61.5395 15.4863 61.5591 15.4863C61.5591 15.5059 61.5493 15.5156 61.5298 15.5156C61.5337 15.5625 61.6079 15.9883 61.7524 16.793H61.7231C61.938 17.5547 62.1235 18.127 62.2798 18.5098C62.522 19.0293 62.8638 19.4863 63.3052 19.8809C63.3052 19.9629 63.5532 20.1211 64.0493 20.3555C64.3774 20.4844 64.729 20.5801 65.104 20.6426V20.6133C65.1079 20.668 65.4809 20.709 66.2231 20.7363C66.5786 20.7363 67.0747 20.6211 67.7114 20.3906C67.7114 20.3672 67.9829 20.2188 68.5259 19.9453C68.8345 19.668 69.0825 19.4121 69.27 19.1777C69.3169 19.1777 69.4087 19.082 69.5454 18.8906C70.1196 18.1289 70.4165 17.6621 70.436 17.4902C70.686 17.0879 70.9165 16.5781 71.1274 15.9609C71.1587 15.9609 71.2036 15.6973 71.2622 15.1699C71.2817 15.1699 71.2915 15.1582 71.2915 15.1348C71.272 15.1348 71.2622 15.125 71.2622 15.1055C71.2817 15.1055 71.2895 15.0938 71.2856 15.0703H71.2563C71.3188 14.9648 71.3481 14.8809 71.3442 14.8184H71.3149C71.354 14.6973 71.3891 14.4316 71.4204 14.0215H71.3852L71.4204 13.957V13.8633C71.4165 13.6094 71.4321 13.4824 71.4673 13.4824C71.4673 13.459 71.4575 13.4473 71.438 13.4473C71.4731 12.791 71.5063 12.4629 71.5376 12.4629C71.5376 12.4395 71.5259 12.4277 71.5024 12.4277C71.5141 12.0371 71.518 11.752 71.5141 11.5723L71.5083 11.2852C71.5083 11.2617 71.4966 11.25 71.4731 11.25L71.5024 11.1855V11.1562C71.5024 11.1367 71.4907 11.127 71.4673 11.127L71.5024 11.0625C71.4985 11.0391 71.4848 11.0273 71.4614 11.0273L71.4966 10.9629C71.4966 10.9238 71.4731 10.8496 71.4263 10.7402H71.4555C71.3579 10.1855 71.2095 9.75195 71.0102 9.43945L71.0395 9.375L70.6001 8.32617C70.5415 8.27148 70.2739 7.83594 69.7973 7.01953C69.1059 6.40234 68.7466 6.09375 68.7192 6.09375C68.5825 5.92578 68.2622 5.78906 67.7583 5.68359C67.7544 5.66016 67.7095 5.64844 67.6235 5.64844H67.2075C67.188 5.64844 67.1782 5.63867 67.1782 5.61914L67.1138 5.64844L66.9263 5.61914C66.7427 5.63867 66.5845 5.66992 66.4516 5.71289ZM70.5591 6.76172V6.79688C70.7505 7.00781 70.9145 7.27344 71.0513 7.59375L72.6567 9.11719L72.6216 9.05273L72.6509 8.99414C72.5884 8.99414 72.5571 8.97266 72.5571 8.92969L72.5805 8.70703L70.5591 6.76172ZM71.3911 8.32617C71.5044 8.69727 71.7251 9.02539 72.0532 9.31055L72.7388 9.94922H72.7739C72.7739 9.90625 72.7837 9.88477 72.8032 9.88477C72.7993 9.68555 72.5786 9.4082 72.1411 9.05273C72.1411 9.02539 71.8911 8.7832 71.3911 8.32617ZM71.8364 9.50391V9.5332C71.8794 9.5332 71.938 9.69141 72.0122 10.0078L72.8559 10.8047L72.7973 10.6465C72.813 10.6113 72.8208 10.5684 72.8208 10.5176C72.8169 10.4277 72.4888 10.0898 71.8364 9.50391ZM66.5395 9.97852H66.6626C66.8891 9.97852 67.2856 10.1699 67.852 10.5527C68.2622 10.8262 68.5747 11.3145 68.7895 12.0176H68.7544C68.8247 12.2715 68.8852 12.5566 68.936 12.873C68.936 12.8926 68.9282 12.9785 68.9126 13.1309H68.9419L68.9184 13.1953C68.938 13.2305 68.9477 13.2715 68.9477 13.3184C68.9282 13.3184 68.9184 13.3301 68.9184 13.3535H68.9477L68.9243 13.418V13.5469C68.9243 13.5664 68.9341 13.5762 68.9536 13.5762L68.9302 13.6406C68.9302 13.6875 68.9399 13.7305 68.9595 13.7695C68.897 14.2305 68.7798 14.5801 68.6079 14.8184C68.397 15.2637 68.1743 15.6035 67.9399 15.8379C67.643 16.2285 67.4243 16.4727 67.2837 16.5703C67.2876 16.668 67.1548 16.7734 66.8852 16.8867C66.6235 17.0781 66.3501 17.1738 66.0649 17.1738C65.5376 17.0566 65.1411 16.877 64.8755 16.6348C64.8755 16.6113 64.7759 16.4941 64.5766 16.2832C64.1626 15.6504 63.9223 15.0352 63.8559 14.4375V14.3086C63.8559 14.2852 63.8657 14.2734 63.8852 14.2734L63.8501 14.2148V14.0859C63.8501 14.0625 63.8598 14.0508 63.8794 14.0508L63.8091 13.8281C63.8013 13.543 64.0044 12.8867 64.4184 11.8594C64.438 11.8594 64.52 11.7109 64.6645 11.4141L65.2153 10.6172C65.5552 10.2109 65.9321 10.0078 66.3462 10.0078V10.043C66.4165 10 66.4809 9.97852 66.5395 9.97852ZM72.0884 10.4883L72.0942 10.6172L72.1587 10.7109V10.8047L72.1294 10.8691L72.8208 11.5078C72.813 11.3008 72.8188 11.1934 72.8384 11.1855L72.0884 10.4883ZM66.9438 10.998C66.7915 11.1504 66.6196 11.5117 66.4282 12.082C66.3266 12.1367 66.2095 12.4551 66.0766 13.0371C66.0024 13.0371 65.9692 13.3555 65.977 13.9922C65.9888 14.3086 66.1216 14.4766 66.3755 14.4961C66.7778 14.625 67.0122 14.6895 67.0786 14.6895C67.7309 14.5254 68.0552 14.3457 68.0513 14.1504C68.1216 14.1504 68.188 13.8535 68.2505 13.2598L68.2388 12.8438C68.2309 12.5234 68.2055 12.3633 68.1626 12.3633C68.1626 12.3438 68.1723 12.334 68.1919 12.334C68.1645 12.1074 68.0513 11.8848 67.852 11.666C67.6528 11.3066 67.4263 11.1055 67.1723 11.0625C67.1684 11.0195 67.0923 10.998 66.9438 10.998ZM72.1763 11.3145V11.3496C72.1763 11.3691 72.186 11.3789 72.2055 11.3789L72.1821 11.5371V11.6367C72.186 11.6641 72.3833 11.8535 72.7739 12.2051C72.77 12.0566 72.7778 11.9727 72.7973 11.9531C72.7934 11.8945 72.5864 11.6816 72.1763 11.3145ZM65.4673 11.4727C65.4673 11.5156 65.4243 11.5801 65.3384 11.666C65.3423 11.6934 65.4302 11.7773 65.602 11.918C65.6645 11.8008 65.6938 11.7168 65.6899 11.666L65.4673 11.4727ZM65.1919 11.9531L65.0981 12.2051L65.4263 12.4922C65.4263 12.4727 65.4458 12.3887 65.4848 12.2402C65.4848 12.2129 65.3872 12.1172 65.1919 11.9531ZM72.1938 12.082L72.1997 12.1758C72.1997 12.1953 72.2095 12.2051 72.229 12.2051C72.2095 12.248 72.1997 12.2812 72.1997 12.3047C72.2036 12.418 72.3462 12.5879 72.6274 12.8145H72.6626C72.6626 12.7793 72.6821 12.6934 72.7212 12.5566L72.1938 12.082ZM64.9458 12.4629C64.8872 12.6152 64.8579 12.6992 64.8579 12.7148L65.2505 13.0664C65.2895 12.9688 65.3091 12.873 65.3091 12.7793L64.9458 12.4629ZM72.1821 12.8145V12.8438C72.1821 12.8633 72.1938 12.873 72.2173 12.873C72.1782 13.0059 72.1587 13.0918 72.1587 13.1309L72.4868 13.418C72.5259 13.3398 72.5434 13.2539 72.5395 13.1602C72.5395 13.1328 72.4204 13.0176 72.1821 12.8145ZM64.7407 13.002L64.6528 13.2598L65.2036 13.7695L65.2388 13.7051V13.6406C65.2309 13.4609 65.0649 13.248 64.7407 13.002ZM72.1411 13.5117C72.145 13.6094 72.1352 13.6738 72.1118 13.7051C72.1352 13.7441 72.147 13.7754 72.147 13.7988C72.1235 13.7988 72.1138 13.8086 72.1177 13.8281C72.2544 13.957 72.3286 14.0215 72.3403 14.0215L72.3989 13.7344L72.1411 13.5117ZM64.5649 13.5762L64.5356 13.7344C64.5591 13.7344 64.5708 13.7461 64.5708 13.7695C64.5278 13.7734 64.5083 13.793 64.5122 13.8281L66.7036 15.9961C66.8247 15.9648 66.8852 15.9004 66.8852 15.8027C66.311 15.2441 65.8989 14.873 65.6489 14.6895C65.5278 14.5957 65.395 14.4375 65.2505 14.2148L64.5649 13.5762ZM64.5239 14.2734V14.3086C64.5278 14.3516 64.5493 14.373 64.5884 14.373C64.5649 14.4121 64.5552 14.4434 64.5591 14.4668C64.563 14.6426 64.7388 14.8652 65.0864 15.1348L66.2934 16.3477C66.4263 16.3047 66.5005 16.25 66.5161 16.1836L64.5239 14.2734ZM64.6704 15.1699C64.7837 15.5918 64.9067 15.8027 65.0395 15.8027C65.0395 15.8457 65.2134 15.9941 65.561 16.248C65.7798 16.334 65.897 16.377 65.9126 16.377V16.3477L64.6704 15.1699ZM66.6802 15.1992V15.2285L67.102 15.6152H67.1665C67.1665 15.5762 67.1958 15.5215 67.2544 15.4512C67.2544 15.4238 67.1782 15.3496 67.0259 15.2285H66.7446L66.6802 15.1992ZM89.0074 3.28125H89.0719C89.1422 3.29297 89.2262 3.42969 89.3238 3.69141C89.3434 3.69531 89.5563 4.07812 89.9625 4.83984C90.0172 4.83984 90.1539 5.11523 90.3727 5.66602C90.3531 5.66602 90.3434 5.67578 90.3434 5.69531C90.4254 5.73047 90.5621 6.00586 90.7535 6.52148C91.2613 7.76758 91.5152 9.05078 91.5152 10.3711V10.752C91.4098 11.8457 91.2301 12.7676 90.9762 13.5176C90.9762 13.6543 90.8609 14.0156 90.6305 14.6016C90.5797 14.8164 90.4938 15.0273 90.3727 15.2344C90.3727 15.375 90.1813 15.7676 89.7984 16.4121C89.7984 16.4785 89.6715 16.7227 89.4176 17.1445C89.4176 17.1719 89.3863 17.2344 89.3238 17.332C89.3434 17.332 89.3531 17.3438 89.3531 17.3672C89.318 17.3672 89.1598 17.6211 88.8785 18.1289L88.5914 18.5098C88.4195 18.7246 88.1871 18.9688 87.8941 19.2422C87.527 19.6094 87.0172 19.9902 86.3648 20.3848C86.2984 20.4551 86.1617 20.5195 85.9547 20.5781C85.6813 20.7266 85.2359 20.8633 84.6188 20.9883C84.4898 20.9961 84.4254 21.0176 84.4254 21.0527C84.3863 21.0332 84.3551 21.0234 84.3316 21.0234C84.2613 21.0664 84.1988 21.0879 84.1441 21.0879H83.6988L83.5055 21.1172C83.4703 21.0977 83.4176 21.0879 83.3473 21.0879H83.2535C83.2301 21.0879 83.2184 21.0977 83.2184 21.1172L83.1539 21.0879H82.8082C82.7652 21.0879 82.7438 21.0664 82.7438 21.0234L82.5855 21.0527C82.5426 21.0176 82.3512 20.9863 82.0113 20.959C81.9254 20.9082 81.7887 20.8652 81.6012 20.8301C81.527 20.7715 81.2496 20.6348 80.7691 20.4199C80.0816 19.9941 79.5523 19.5801 79.1813 19.1777C79.025 19.0762 78.7066 18.7051 78.2262 18.0645C78.1246 18.0137 78.0191 17.8125 77.9098 17.4609C77.8512 17.3711 77.7457 17.1387 77.5934 16.7637C77.4645 16.3965 77.3785 16.1953 77.3355 16.1602C77.3355 15.9219 77.3043 15.793 77.2418 15.7734L77.277 15.7148C77.234 15.6445 77.2125 15.5801 77.2125 15.5215C77.232 15.5215 77.2418 15.5117 77.2418 15.4922C77.1949 15.4922 77.1637 15.4375 77.148 15.3281H77.1773C77.1148 15.0898 77.0738 14.8887 77.0543 14.7246C77.0309 14.7246 77.0191 14.7148 77.0191 14.6953C77.0191 14.6758 77.0309 14.666 77.0543 14.666L77.0191 14.6016V14.5371C77.0191 14.4746 77.0309 14.4434 77.0543 14.4434L77.0191 14.2793V13.9336H76.9547V13.8984C76.9547 13.8789 76.9664 13.8691 76.9898 13.8691C76.9469 13.7793 76.9137 13.5449 76.8902 13.166H76.9254L76.8902 13.1074V13.0723C76.8902 13.0527 76.902 13.043 76.9254 13.043C76.8824 12.9648 76.8609 12.8789 76.8609 12.7852V12.0234C76.8609 11.875 76.8824 11.7578 76.9254 11.6719C76.9254 11.6523 76.9137 11.6426 76.8902 11.6426C76.9332 11.1621 76.9879 10.748 77.0543 10.4004C77.0309 10.4004 77.0191 10.3906 77.0191 10.3711C77.0621 10.3711 77.0836 10.3496 77.0836 10.3066V9.92578C77.1266 9.88281 77.191 9.60742 77.277 9.09961C77.316 9.09961 77.3473 9.03516 77.3707 8.90625C77.3473 8.90625 77.3355 8.89648 77.3355 8.87695C77.3668 8.87305 77.4625 8.60742 77.6227 8.08008C77.7008 7.97461 77.9234 7.47656 78.2906 6.58594C78.3258 6.57031 78.3688 6.47461 78.4195 6.29883C78.4586 6.29883 78.5113 6.20508 78.5777 6.01758C78.6051 6.01758 78.6578 5.91016 78.7359 5.69531C79.0719 5.15234 79.4645 4.55859 79.9137 3.91406C79.9684 3.78906 80.0523 3.72656 80.1656 3.72656C80.2594 3.8125 80.525 3.91797 80.9625 4.04297C82.0406 4.58594 82.7086 4.86133 82.9664 4.86914C83.4117 5.04102 83.7613 5.14844 84.0152 5.19141C84.0152 5.35937 84.068 5.50586 84.1734 5.63086C84.1109 5.99023 84.0152 6.4043 83.8863 6.87305L83.6344 8.23828C83.6344 8.26172 83.6441 8.27344 83.6637 8.27344L83.6344 8.43164V8.94141L83.5992 9.00586H83.6344C83.5484 9.55273 83.4742 10.4219 83.4117 11.6133L83.441 11.6719L83.4117 11.7363C83.5133 12.4746 83.7242 13.0469 84.0445 13.4531C84.0563 13.4531 84.2047 13.3691 84.4898 13.2012V12.9785C84.5563 12.791 84.5992 12.5469 84.6188 12.2461L84.5895 12.1816C84.6285 12.0215 84.6598 11.7578 84.6832 11.3906H84.648C84.648 11.3672 84.6598 11.3555 84.6832 11.3555L84.6188 10.9102C84.6383 10.8281 84.648 10.7441 84.648 10.6582V10.623C84.648 10.4746 84.6285 10.4004 84.5895 10.4004C84.609 10.3613 84.6188 10.3301 84.6188 10.3066C84.6188 10.1387 84.5875 10.0117 84.525 9.92578H84.5543C84.5113 9.84766 84.4898 9.76367 84.4898 9.67383V9.38672C84.4898 9.36328 84.4801 9.35156 84.4605 9.35156C84.4605 9.33203 84.4703 9.32227 84.4898 9.32227C84.4898 9.25195 84.4586 9.16797 84.3961 9.07031V8.94141C84.2672 8.20703 84.15 7.74023 84.0445 7.54102H84.0797C84.0523 7.35352 84.0094 7.22656 83.9508 7.16016V7.03125C83.982 6.75781 84.0465 6.62109 84.1441 6.62109V6.46289C84.1441 6.35352 84.4938 5.86523 85.193 4.99805L85.3805 4.74609C85.4898 4.63672 85.5641 4.58203 85.6031 4.58203L85.6676 4.61719C86.2457 4.42969 87.1461 4.05859 88.3688 3.50391C88.7242 3.39844 88.9371 3.32422 89.0074 3.28125ZM87.8941 4.45898C87.8941 4.50195 87.8297 4.54297 87.7008 4.58203C87.7086 4.61328 87.857 4.76172 88.1461 5.02734C88.1461 4.96484 88.1793 4.88086 88.2457 4.77539L87.8941 4.45898ZM80.2008 4.74609C81.5563 6.09766 82.2555 6.77539 82.2984 6.7793C82.4508 6.79883 82.5348 6.80859 82.5504 6.80859L82.5855 6.74414C81.2262 5.39258 80.527 4.71484 80.4879 4.71094C80.4527 4.71094 80.4098 4.68945 80.359 4.64648H80.2945C80.2633 4.64648 80.232 4.67969 80.2008 4.74609ZM88.8492 4.64648C88.8492 4.69336 88.816 4.7793 88.7496 4.9043L89.7047 5.82422C89.4742 5.30078 89.273 4.99414 89.1012 4.9043C89.1012 4.87695 89.0172 4.79102 88.8492 4.64648ZM87.3844 4.71094C87.2594 4.79297 87.1969 4.8457 87.1969 4.86914C87.5563 5.22852 87.7574 5.4082 87.8004 5.4082C87.8668 5.36914 87.9293 5.34961 87.9879 5.34961V5.31445C87.9879 5.28711 87.7867 5.08594 87.3844 4.71094ZM80.0074 4.96875C80.0074 5.01562 79.9762 5.07812 79.9137 5.15625V5.19141C80.7887 6.10156 81.2555 6.55664 81.3141 6.55664C81.4117 6.55664 81.4859 6.57812 81.5367 6.62109H81.6598C81.6246 6.55859 81.0738 6.00781 80.0074 4.96875ZM86.6871 5.0625V5.0918C86.6871 5.11914 86.8668 5.29883 87.2262 5.63086C87.234 5.5918 87.2555 5.57227 87.2906 5.57227H87.4488V5.53711L86.9098 4.96875C86.8043 5.03125 86.7301 5.0625 86.6871 5.0625ZM81.3141 5.0625V5.0918L82.7438 6.49219C82.8063 6.37109 82.8375 6.28711 82.8375 6.24023C82.2086 5.60352 81.859 5.28516 81.7887 5.28516C81.7691 5.28516 81.6109 5.21094 81.3141 5.0625ZM86.1129 5.31445C86.1402 5.31445 86.2984 5.47461 86.5875 5.79492C86.7477 5.75195 86.8434 5.73047 86.8746 5.73047C86.8746 5.70313 86.6949 5.52344 86.3355 5.19141C86.1871 5.23828 86.1129 5.2793 86.1129 5.31445ZM88.6266 5.19141C88.5602 5.33203 88.527 5.41602 88.527 5.44336L90.2438 7.13086V7.0957C90.2047 6.99023 90.152 6.88477 90.0855 6.7793L90.1207 6.71484V6.65039C90.0934 6.65039 89.6168 6.17383 88.691 5.2207L88.6266 5.19141ZM85.6031 5.47266V5.53711C85.607 5.56836 85.7555 5.7168 86.0484 5.98242C86.2047 5.98242 86.2906 5.95117 86.3063 5.88867L85.7965 5.4082C85.7105 5.45117 85.6461 5.47266 85.6031 5.47266ZM79.7203 5.47266C79.7203 5.52344 79.6891 5.58789 79.6266 5.66602C80.0289 6.13086 80.316 6.36328 80.4879 6.36328C80.5582 6.36328 80.6324 6.39648 80.7105 6.46289H80.7398C80.7398 6.43555 80.4117 6.10547 79.7555 5.47266H79.7203ZM82.6148 5.60156C82.6148 5.62891 82.732 5.74609 82.9664 5.95312L83.0602 5.82422V5.69531C82.9742 5.69531 82.8258 5.66406 82.6148 5.60156ZM85.3512 5.79492C85.3512 5.83008 85.3199 5.88281 85.2574 5.95312C85.2574 5.98438 85.3297 6.05859 85.4742 6.17578H85.6031C85.6539 6.13281 85.6969 6.11133 85.732 6.11133C85.732 6.08398 85.6266 5.97852 85.4156 5.79492H85.3512ZM88.6266 5.95312C88.732 6.36328 88.902 6.63867 89.1363 6.7793C89.1363 6.80664 89.6129 7.2832 90.566 8.20898V8.17969C90.4918 7.82812 90.2906 7.53125 89.9625 7.28906C89.9469 7.24609 89.5016 6.80078 88.6266 5.95312ZM86.9098 6.36328L86.8453 6.33398C86.443 6.60742 86.1031 6.74414 85.8258 6.74414C85.7945 6.82227 85.4664 6.95117 84.8414 7.13086C84.8414 7.16992 84.8199 7.18945 84.777 7.18945C84.8199 7.2793 84.8414 7.34375 84.8414 7.38281H84.8121C84.9371 7.74609 85.0641 8.31836 85.193 9.09961C85.2125 9.09961 85.2223 9.10938 85.2223 9.12891V9.41602C85.2301 9.56445 85.2516 9.63867 85.2867 9.63867L85.2574 9.70312C85.277 9.74609 85.2867 9.77734 85.2867 9.79688C85.2672 9.79688 85.2574 9.80859 85.2574 9.83203C85.3082 9.83203 85.3707 10.0547 85.4449 10.5C85.4254 10.6875 85.4039 10.8027 85.3805 10.8457C85.4039 10.8887 85.4156 10.9219 85.4156 10.9453H85.3805C85.4234 11.0117 85.4449 11.0742 85.4449 11.1328V11.3906C85.4098 12.2383 85.3668 12.6621 85.316 12.6621C85.3395 12.6621 85.3512 12.6719 85.3512 12.6914C85.3082 12.6992 85.2867 12.7207 85.2867 12.7559V13.2656C85.2477 13.3125 85.2164 13.418 85.193 13.582H85.2223C85.1793 13.6523 85.1578 13.7168 85.1578 13.7754C85.1578 13.7949 85.1695 13.8047 85.193 13.8047C85.0641 14.3008 84.9566 14.6719 84.8707 14.918C84.8434 14.9805 84.8238 15.0117 84.8121 15.0117L84.8414 15.0762C84.6773 15.3066 84.5289 15.5605 84.3961 15.8379C83.9938 16.084 83.7184 16.2109 83.5699 16.2188H83.5406C83.0523 16.2188 82.7008 16.0391 82.4859 15.6797C82.2164 15.3438 82.0152 14.9629 81.8824 14.5371C81.8629 14.3262 81.8316 14.2207 81.7887 14.2207L81.818 14.1562C81.6344 13.6523 81.5191 13.2285 81.4723 12.8848C81.4723 12.8613 81.482 12.8496 81.5016 12.8496C81.4391 12.3262 81.3766 11.9551 81.3141 11.7363V11.6133C81.3141 11.5898 81.3238 11.5781 81.3434 11.5781L81.3141 11.5137C81.3336 11.2012 81.3434 10.9902 81.3434 10.8809H81.3785L81.3434 10.8164V10.5938C81.3863 10.5664 81.4723 10.1309 81.6012 9.28711L81.7594 8.94141C81.7594 8.91797 81.7477 8.90625 81.7242 8.90625C81.8297 8.55859 81.9039 8.34766 81.9469 8.27344L81.9176 8.20898C81.9605 8.14648 82.0016 7.98828 82.0406 7.73438C82.0641 7.73438 82.107 7.64844 82.1695 7.47656C82.0367 7.42188 81.6871 7.34766 81.1207 7.25391V7.22461C81.1012 7.22461 81.0914 7.23438 81.0914 7.25391C80.1227 7.02344 79.4117 6.83398 78.9586 6.68555H78.9293C78.9293 6.79492 78.8766 6.92188 78.7711 7.06641H78.7359V7.22461C78.3961 8.02539 78.2262 8.44922 78.2262 8.49609C78.1637 8.49609 78.1227 8.62305 78.1031 8.87695C77.9742 9.25977 77.8785 9.59961 77.816 9.89648L77.8453 9.95508V9.99023C77.8023 9.99023 77.7809 10 77.7809 10.0195C77.7809 10.043 77.7926 10.0547 77.816 10.0547L77.7223 10.623C77.7418 10.623 77.7516 10.6348 77.7516 10.6582C77.7086 10.666 77.6871 10.6875 77.6871 10.7227V11.0098C77.6441 11.2129 77.6227 11.3281 77.6227 11.3555V11.707C77.6227 11.7266 77.6129 11.7363 77.5934 11.7363L77.6227 11.8008L77.5582 11.8945H77.5934L77.5582 11.959V11.9941C77.5582 12.0137 77.5699 12.0234 77.5934 12.0234L77.5582 12.0879V12.1816C77.5582 12.2051 77.5699 12.2168 77.5934 12.2168L77.5582 12.2812V12.8496C77.5582 12.873 77.5699 12.8848 77.5934 12.8848L77.5582 12.9492C77.566 12.9883 77.5875 13.0078 77.6227 13.0078C77.6227 13.0312 77.6129 13.043 77.5934 13.043C77.6129 13.3281 77.6441 13.582 77.6871 13.8047V14.3145L77.7223 14.502C77.6988 14.5371 77.6871 14.5918 77.6871 14.666V14.6953C77.941 15.5742 78.068 16.0293 78.068 16.0605C78.107 16.0605 78.15 16.168 78.1969 16.3828C78.1969 16.3984 78.3766 16.7891 78.7359 17.5547C78.7359 17.6602 78.9801 18 79.4684 18.5742C79.7848 18.9062 80.0387 19.0859 80.2301 19.1133C80.359 19.1953 80.4234 19.248 80.4234 19.2715C80.9508 19.6113 81.3961 19.834 81.7594 19.9395C81.7594 20.0176 81.982 20.0918 82.4273 20.1621H82.7086C82.7633 20.2051 82.8063 20.2266 82.8375 20.2266C83.0758 20.2266 83.2887 20.248 83.4762 20.291C84.1988 20.2441 84.6969 20.1699 84.9703 20.0684V20.0977C85.0992 20.0469 85.3414 19.9727 85.6969 19.875C86.6305 19.1836 87.0973 18.8242 87.0973 18.7969C87.8238 18.0781 88.2164 17.623 88.275 17.4316C88.357 17.4316 88.5055 17.082 88.7203 16.3828L88.9137 16.0605V16.0312L88.8785 15.9668C88.9254 15.9668 88.9996 15.6484 89.1012 15.0117H89.1656V14.6953C89.1656 14.6758 89.1754 14.666 89.1949 14.666L89.1656 14.6016V14.4082C89.1656 14.3887 89.1754 14.3789 89.1949 14.3789L89.1656 14.3145C89.1656 14.291 89.1754 14.2793 89.1949 14.2793L89.1656 14.2207V13.998C89.2086 13.9434 89.2301 13.9102 89.2301 13.8984H89.1949L89.2301 13.834V13.4531C89.2301 13.4336 89.2516 13.3496 89.2945 13.2012L89.2301 13.0723C89.2301 13.0527 89.2398 13.043 89.2594 13.043L89.2301 12.8848V12.5332C89.2301 12.4863 89.2184 12.4434 89.1949 12.4043C89.2184 12.3652 89.2301 12.334 89.2301 12.3105C89.1871 12.2402 89.1656 12.1758 89.1656 12.1172V11.6133C89.1227 11.4453 89.0172 10.7871 88.8492 9.63867C88.8063 9.63867 88.7848 9.61719 88.7848 9.57422V9.28711C88.7848 9.26758 88.773 9.25781 88.7496 9.25781C88.773 9.21875 88.7848 9.1875 88.7848 9.16406C88.6793 8.89453 88.5309 8.26953 88.3395 7.28906C88.2105 6.99609 88.0719 6.60352 87.9234 6.11133L87.859 6.04688C87.8199 6.04688 87.6832 6.11133 87.4488 6.24023C87.316 6.2793 87.1363 6.31055 86.9098 6.33398V6.36328ZM89.0719 7.16016C89.0719 7.45703 89.2516 7.74219 89.6109 8.01562C89.6109 8.04297 89.9918 8.42578 90.7535 9.16406L90.6598 8.7832C90.6793 8.7832 90.6891 8.77148 90.6891 8.74805L89.0719 7.16016ZM82.773 7.76367C82.773 7.81836 82.7516 7.90234 82.7086 8.01562L82.8727 8.14453L82.902 7.82812L82.8082 7.76367H82.773ZM89.2945 8.14453V8.17969C89.2945 8.46094 89.5484 8.81055 90.0563 9.22852C90.0563 9.25586 90.3004 9.49805 90.7887 9.95508C90.7887 9.93555 90.7984 9.9043 90.818 9.86133C90.818 9.6582 90.6813 9.45703 90.4078 9.25781C90.4 9.22656 90.0289 8.85547 89.2945 8.14453ZM82.65 8.36719C82.65 8.41797 82.6168 8.48242 82.5504 8.56055V8.58984C82.5504 8.62109 82.6246 8.69531 82.773 8.8125H82.8082L82.773 8.6543V8.56055L82.8082 8.49609L82.65 8.36719ZM82.3922 9.22852L82.7086 9.50977L82.7438 9.45117V9.38672C82.7438 9.36328 82.732 9.35156 82.7086 9.35156L82.7438 9.28711V9.22852C82.7438 9.20117 82.6578 9.11523 82.4859 8.9707C82.4469 8.9707 82.4156 9.05664 82.3922 9.22852ZM89.5172 9.12891L89.5465 9.19336V9.22852C89.5465 9.27539 89.5367 9.31641 89.5172 9.35156C89.5172 9.47266 89.7809 9.76953 90.3082 10.2422C90.3082 10.2695 90.4684 10.4297 90.7887 10.7227L90.818 10.5645V10.4355C90.8063 10.3926 90.3727 9.95703 89.5172 9.12891ZM82.2984 9.54492C82.2984 9.56445 82.2867 9.57422 82.2633 9.57422L82.2984 9.63867C82.2555 9.72461 82.234 9.78906 82.234 9.83203L82.65 10.2129L82.6793 9.89648L82.2984 9.54492ZM89.6754 10.0547V10.084C89.7379 10.4238 89.8434 10.625 89.9918 10.6875C89.9918 10.7188 90.2242 10.9531 90.6891 11.3906L90.7242 11.3262L90.6891 11.2617C90.732 11.1914 90.7535 11.1387 90.7535 11.1035L89.6754 10.0547ZM82.2047 10.2129C82.2047 10.2715 82.1832 10.334 82.1402 10.4004C82.1402 10.4863 82.2984 10.668 82.6148 10.9453V10.623C82.6148 10.5957 82.4781 10.459 82.2047 10.2129ZM82.1402 10.9453C82.1402 10.9648 82.15 10.9746 82.1695 10.9746C82.15 11.0371 82.1285 11.0684 82.1051 11.0684L82.1695 11.2266C82.15 11.2266 82.1402 11.2383 82.1402 11.2617L82.5855 11.6719H82.6148V11.3906C82.6148 11.3594 82.4664 11.2109 82.1695 10.9453H82.1402ZM89.7984 10.9453C89.7984 11.25 89.9273 11.4824 90.1852 11.6426C90.1852 11.6738 90.3219 11.8125 90.5953 12.0586C90.5953 12.0352 90.6168 11.9492 90.6598 11.8008C90.6598 11.7773 90.3727 11.4922 89.7984 10.9453ZM82.1051 11.6426V11.707C82.1051 11.7422 82.1266 11.8047 82.1695 11.8945L82.1402 11.959C82.1402 12.0137 82.2887 12.1738 82.5855 12.4395V12.1172C82.5855 12.0938 82.4254 11.9355 82.1051 11.6426ZM89.898 11.8008V11.8359L89.9625 11.9297V12.0586C89.9625 12.0781 89.9508 12.0879 89.9273 12.0879C89.9273 12.1738 90.0973 12.3652 90.4371 12.6621H90.4664V12.5977L90.5016 12.375L89.898 11.8008ZM82.2047 12.5039L82.234 12.5625V12.6621H82.2633V12.8848C82.2711 12.916 82.6012 13.2441 83.2535 13.8691C82.9176 13.3496 82.7477 13.0625 82.7438 13.0078L82.2047 12.5039ZM90.0211 12.6914C90.0211 12.7148 90.0113 12.7266 89.9918 12.7266C89.9918 12.9805 90.0973 13.1699 90.3082 13.2949L90.3434 12.9785L90.0211 12.6914ZM82.3629 13.4238V13.4531C82.4449 13.5977 82.4977 13.7578 82.5211 13.9336L83.8863 15.2695L84.0445 15.0762L82.3629 13.4238ZM90.0211 13.4531C90.0211 13.5039 90.0113 13.5469 89.9918 13.582H90.0211C89.982 13.6523 89.9625 13.7051 89.9625 13.7402L90.1207 13.8691H90.15C90.15 13.8184 90.1813 13.7656 90.2438 13.7109C90.2086 13.6133 90.1344 13.5273 90.0211 13.4531ZM83.441 14.0566V14.0918L84.1441 14.7598L84.2379 14.502C84.0621 14.3184 83.8492 14.2129 83.5992 14.1855C83.5992 14.1582 83.5465 14.1152 83.441 14.0566ZM82.7086 14.5371V14.6016C82.9781 15.1875 83.234 15.4941 83.4762 15.5215H83.5055C83.5563 15.4785 83.5992 15.457 83.6344 15.457C83.6344 15.4297 83.3258 15.123 82.7086 14.5371ZM101.842 3.50391C101.885 3.52344 101.917 3.5332 101.936 3.5332V3.50391C102.85 3.5625 103.772 3.85937 104.702 4.39453C104.702 4.41406 104.977 4.61523 105.528 4.99805C105.704 5.14648 105.864 5.36914 106.009 5.66602C106.032 5.66602 106.085 5.72852 106.167 5.85352C106.139 6.07617 105.938 6.50195 105.563 7.13086C105.563 7.23242 105.266 7.76172 104.673 8.71875C104.606 8.86328 104.532 8.99023 104.45 9.09961C104.36 9.24414 104.159 9.5293 103.846 9.95508C103.846 10.0176 103.815 10.1348 103.753 10.3066C103.967 10.5098 104.358 10.7969 104.925 11.168C105.62 11.7969 106.065 12.3477 106.26 12.8203C106.6 13.6016 106.77 14.1738 106.77 14.5371V14.7891C106.77 14.8125 106.782 14.8242 106.805 14.8242C106.716 15.5273 106.184 16.7676 105.212 18.5449C105.137 18.6699 105.01 18.8066 104.831 18.9551C104.635 19.2754 104.466 19.498 104.321 19.623C103.977 20.0371 103.522 20.4082 102.956 20.7363C102.151 21.0957 101.579 21.2754 101.239 21.2754H100.542C100.491 21.2754 100.448 21.2656 100.413 21.2461C100.389 21.2461 100.378 21.2559 100.378 21.2754C99.4558 21.1855 98.7683 21.0488 98.3152 20.8652C97.9948 20.7207 97.6862 20.5391 97.3894 20.3203C97.2995 20.3203 97.0241 20.1191 96.5632 19.7168C96.5554 19.6816 96.4499 19.5762 96.2468 19.4004C95.9343 19.0254 95.7116 18.7812 95.5788 18.668C95.5788 18.6055 95.5046 18.5098 95.3562 18.3809C95.3562 18.3418 95.3347 18.3223 95.2917 18.3223V18.2871C95.2917 18.2676 95.3034 18.2578 95.3269 18.2578C95.1784 18.0039 94.987 17.748 94.7527 17.4902V17.4316C94.9362 17.1973 95.0417 17.0801 95.0691 17.0801C95.2605 16.8262 95.4519 16.5293 95.6433 16.1895C95.9167 15.8965 96.0534 15.7168 96.0534 15.6504C96.0964 15.6504 96.1511 15.5977 96.2175 15.4922C96.3698 15.2227 96.5378 15.0215 96.7214 14.8887C96.8737 14.5957 97.0339 14.3926 97.2019 14.2793C97.2097 14.2246 97.3054 14.1094 97.489 13.9336V13.8691C97.0554 13.6426 96.7683 13.4727 96.6277 13.3594C96.6277 13.3047 96.4792 13.1562 96.1823 12.9141C96.0534 12.7852 95.9167 12.584 95.7722 12.3105C95.6472 12.0645 95.5202 11.6191 95.3913 10.9746C95.3913 10.9551 95.4011 10.9453 95.4206 10.9453L95.3913 10.7871V10.0547C95.5593 9.23438 95.7175 8.68359 95.8659 8.40234L96.3405 7.60547C96.3405 7.55469 96.448 7.38477 96.6628 7.0957C96.9167 6.51367 97.2859 5.91992 97.7702 5.31445C98.4812 4.54102 98.9695 4.12891 99.2351 4.07812C99.6218 3.83984 100.024 3.70117 100.442 3.66211C100.442 3.61914 100.909 3.56641 101.842 3.50391ZM101.368 4.20117V4.23633C102.551 5.46289 103.186 6.07617 103.272 6.07617C103.323 6.07617 103.493 6.16211 103.782 6.33398V6.29883C102.376 4.90039 101.655 4.20117 101.62 4.20117V4.23633C101.534 4.2168 101.491 4.19531 101.491 4.17188C101.456 4.19141 101.415 4.20117 101.368 4.20117ZM102.13 4.23633V4.26562L104.895 7.00195C104.895 6.9707 104.938 6.89648 105.024 6.7793C103.364 5.12695 102.516 4.30078 102.481 4.30078C102.278 4.27734 102.161 4.25586 102.13 4.23633ZM100.665 4.30078C101.426 5.125 101.915 5.56836 102.13 5.63086L102.417 5.73047V5.69531L100.952 4.26562H100.823L100.665 4.30078ZM99.9968 4.39453C100.618 5.05078 100.958 5.37891 101.016 5.37891C101.036 5.37891 101.046 5.36914 101.046 5.34961L101.21 5.37891H101.268V5.34961C101.268 5.32227 100.94 4.99219 100.284 4.35938H100.155L99.9968 4.39453ZM99.4284 4.58203C99.4284 4.61328 99.6823 4.86914 100.19 5.34961H100.507C100.507 5.32227 100.221 5.03516 99.6511 4.48828H99.6159C99.5339 4.55078 99.4714 4.58203 99.4284 4.58203ZM103.178 4.52344V4.55273L105.147 6.49219L105.305 6.29883C104.266 5.26367 103.727 4.74609 103.688 4.74609C103.555 4.70312 103.385 4.62891 103.178 4.52344ZM98.948 4.86914L99.4929 5.44336C99.6023 5.41992 99.7077 5.4082 99.8093 5.4082C99.8093 5.38086 99.5866 5.16016 99.1413 4.74609C99.0124 4.79297 98.948 4.83398 98.948 4.86914ZM98.5378 5.15625V5.2207C98.5378 5.25195 98.6745 5.38867 98.948 5.63086C99.1042 5.63086 99.1902 5.59961 99.2058 5.53711L98.696 5.0625C98.6257 5.125 98.573 5.15625 98.5378 5.15625ZM104.831 5.4082V5.44336L105.405 5.98242V5.95312C105.202 5.72266 105.01 5.54102 104.831 5.4082ZM98.28 5.44336C98.28 5.48633 98.239 5.54883 98.157 5.63086L98.4089 5.85352C98.4519 5.81445 98.5359 5.79492 98.6609 5.79492C98.6609 5.76367 98.5456 5.64648 98.3152 5.44336H98.28ZM96.6277 8.30273H96.6628C96.4714 8.62305 96.3327 8.91016 96.2468 9.16406C96.2038 9.16797 96.1823 9.18945 96.1823 9.22852H96.2175C96.1081 9.63477 96.0534 9.85742 96.0534 9.89648H96.0886C96.0652 9.93555 96.0534 9.9668 96.0534 9.99023C96.0769 10.0293 96.0886 10.0605 96.0886 10.084C96.0652 10.084 96.0534 10.0957 96.0534 10.1191H96.0886C96.0652 10.1582 96.0534 10.1895 96.0534 10.2129L96.0886 10.5C96.0456 10.5039 96.0241 10.5254 96.0241 10.5645C96.0632 10.6035 96.0945 10.8359 96.1179 11.2617C96.1413 11.2617 96.1941 11.4102 96.2761 11.707C96.4987 12.1836 96.7116 12.4902 96.9148 12.627C97.0163 12.7559 97.0808 12.8203 97.1081 12.8203C97.2566 12.8359 97.5202 12.9844 97.8991 13.2656C98.0945 13.3711 98.2429 13.4238 98.3445 13.4238C98.3835 13.4785 98.4577 13.5215 98.5671 13.5527V13.5176C98.8484 13.6465 99.114 13.7422 99.364 13.8047C99.364 13.8398 99.5222 13.8926 99.8386 13.9629C99.8425 13.9941 99.9695 14.0469 100.219 14.1211C100.54 14.2969 100.837 14.584 101.11 14.9824L101.268 15.3281H101.239L101.268 15.3926V15.9961C101.268 16.4023 100.94 16.7422 100.284 17.0156H100.255C100.208 17.0156 100.165 17.0059 100.126 16.9863C100.091 17.0059 100.048 17.0156 99.9968 17.0156C99.3835 16.8984 99.0124 16.75 98.8835 16.5703C98.6726 16.5391 98.1745 16.084 97.3894 15.2051C97.3698 15.2051 97.3288 15.2676 97.2663 15.3926C97.2195 15.3926 96.9968 15.6367 96.5984 16.125L96.0534 16.8574C96.0769 16.8574 96.0886 16.8672 96.0886 16.8867L95.6726 17.3965C95.7429 17.6504 95.8698 17.8633 96.0534 18.0352C96.1902 18.1484 96.4558 18.4551 96.8503 18.9551C97.0066 19.1035 97.282 19.3262 97.6765 19.623C98.1609 19.998 98.489 20.1895 98.6609 20.1973C98.8366 20.3066 99.1023 20.3906 99.4577 20.4492V20.4199C99.5007 20.4395 99.532 20.4492 99.5515 20.4492C100.094 20.4922 100.466 20.5137 100.665 20.5137H100.823C100.846 20.5137 100.858 20.5039 100.858 20.4844L100.923 20.5137H101.016C101.259 20.5137 101.788 20.375 102.604 20.0977C102.628 20.0586 102.745 20.0059 102.956 19.9395C102.956 19.9082 103.051 19.834 103.243 19.7168C103.247 19.6738 103.352 19.5898 103.559 19.4648C103.864 19.1367 104.13 18.8086 104.356 18.4805C104.606 18.1562 104.786 17.7324 104.895 17.209H104.925L104.895 17.1445C105.001 16.9453 105.053 16.6484 105.053 16.2539V15.6797C105.053 15.6367 105.032 15.6152 104.989 15.6152L105.024 15.5508C105.024 15.2852 104.928 14.9473 104.737 14.5371C104.733 14.4473 104.436 14.0645 103.846 13.3887C103.655 13.2402 103.337 13.0605 102.891 12.8496L102.669 12.7266C102.583 12.7266 102.54 12.7051 102.54 12.6621H102.481C102.384 12.6621 102.106 12.5664 101.649 12.375C101.598 12.375 101.344 12.2363 100.887 11.959C100.489 11.7324 100.214 11.457 100.061 11.1328C100.042 11.1328 100.01 11.0273 99.9675 10.8164V10.623C100.007 10.3066 100.069 10.1055 100.155 10.0195C100.135 10.0195 100.126 10.0098 100.126 9.99023C100.161 9.99023 100.245 9.89453 100.378 9.70312C100.503 9.55469 100.759 9.48047 101.145 9.48047L101.749 9.63867C101.749 9.61914 101.759 9.60938 101.778 9.60938C101.778 9.63672 101.938 9.68945 102.259 9.76758L102.956 10.084C103.132 9.86914 103.237 9.66797 103.272 9.48047C103.331 9.47656 103.479 9.25391 103.717 8.8125C103.846 8.66797 103.952 8.47656 104.034 8.23828C104.1 8.23438 104.208 8.06641 104.356 7.73438C104.333 7.625 104.11 7.43359 103.688 7.16016C103.384 6.97266 102.938 6.75977 102.352 6.52148C102.352 6.49805 102.13 6.4043 101.684 6.24023C101.684 6.19727 101.335 6.14258 100.635 6.07617C99.6472 6.07617 98.8308 6.29883 98.1862 6.74414C98.0339 6.77148 97.6941 7.02734 97.1667 7.51172C96.9597 7.80469 96.8112 8.03711 96.7214 8.20898C96.6941 8.20898 96.6628 8.24023 96.6277 8.30273ZM100.764 10.5293C101.53 11.291 101.932 11.6719 101.971 11.6719C102.167 11.6992 102.294 11.7324 102.352 11.7715V11.7363L101.046 10.4648H100.823C100.784 10.4727 100.764 10.4941 100.764 10.5293ZM101.491 10.4648C102.514 11.5273 103.055 12.0586 103.114 12.0586C103.161 12.0586 103.309 12.1426 103.559 12.3105C103.598 12.3105 103.651 12.332 103.717 12.375V12.3398C102.487 11.1133 101.852 10.5 101.813 10.5L101.62 10.4648H101.491ZM102.481 10.6875V10.7227L106.038 14.25V14.1855C105.94 13.8496 105.708 13.5312 105.341 13.2305C104.044 11.8945 103.366 11.2266 103.307 11.2266C103.073 11.1445 102.86 10.998 102.669 10.7871C102.622 10.7871 102.559 10.7539 102.481 10.6875ZM104.895 13.5527V13.582L105.37 14.3789L106.038 15.0117C106.038 14.918 106.05 14.8555 106.073 14.8242C106.05 14.7812 106.038 14.748 106.038 14.7246C106.061 14.7246 106.073 14.7148 106.073 14.6953L104.895 13.5527ZM98.0573 14.3438L97.8991 14.5371C99.0007 15.6387 99.5847 16.1895 99.6511 16.1895C99.7644 16.209 99.8581 16.2188 99.9323 16.2188C99.4011 15.6641 98.7761 15.0391 98.0573 14.3438ZM98.5027 14.3438C98.7956 14.6602 99.3894 15.2539 100.284 16.125C100.284 16.0977 100.337 16.0352 100.442 15.9375C99.4695 14.9805 98.9402 14.4824 98.8542 14.4434C98.7995 14.4434 98.7253 14.4102 98.6316 14.3438H98.5027ZM105.499 14.918C105.592 15.2656 105.688 15.4766 105.786 15.5508L105.85 15.5859C105.85 15.5312 105.872 15.4355 105.915 15.2988L105.499 14.918Z" fill="#E84065"/>
</svg>
