<svg width="13" height="18" viewBox="0 0 13 18" fill="none" xmlns="http://www.w3.org/2000/svg">
<path d="M12.1992 0.216797C12.2461 0.271484 12.2695 0.316406 12.2695 0.351562V0.445312C12.2891 0.445312 12.3223 0.511719 12.3691 0.644531C12.3652 0.730469 12.3359 0.771484 12.2812 0.767578V0.861328H12.3105V0.796875L12.3457 0.802734L12.3516 0.960938C12.3516 0.984375 12.3398 0.994141 12.3164 0.990234C12.3398 1.0332 12.3535 1.06641 12.3574 1.08984C12.3613 1.24609 12.3594 1.61523 12.3516 2.19727H12.3223C12.3262 2.2168 12.3379 2.22656 12.3574 2.22656C12.3574 2.26953 12.3477 2.29102 12.3281 2.29102C12.3516 2.50195 12.3652 2.66016 12.3691 2.76562C12.3809 3.08203 12.3848 3.50586 12.3809 4.03711C12.459 4.58008 12.502 4.95312 12.5098 5.15625V5.25586C12.5176 5.43164 12.4473 5.57617 12.2988 5.68945L11.4902 7.0957C11.3926 7.44727 11.2148 7.61523 10.957 7.59961L10.8984 7.56445C10.7383 7.59961 10.6426 7.61523 10.6113 7.61133L10.5469 7.57617C10.4102 7.63477 10.2305 7.65625 10.0078 7.64062V7.60547C9.98438 7.60547 9.97266 7.61719 9.97266 7.64062L9.75 7.58789L9.5918 7.58203L9.36914 7.60547C9.36914 7.58203 9.35938 7.56836 9.33984 7.56445C9.33984 7.58789 9.32812 7.59961 9.30469 7.59961C9.33203 7.72461 9.35547 7.78906 9.375 7.79297C9.375 7.80469 9.36719 7.8457 9.35156 7.91602C9.41016 9.27539 9.44531 10.125 9.45703 10.4648L9.49805 10.5938L9.46289 10.6582C9.48633 10.6934 9.5 10.7344 9.50391 10.7812C9.50391 10.793 9.49219 10.8359 9.46875 10.9102C9.49609 10.9453 9.50977 10.998 9.50977 11.0684H9.47461C9.49414 11.123 9.51953 11.25 9.55078 11.4492H9.52148C9.54102 11.4922 9.55273 11.5254 9.55664 11.5488C9.65039 12.9512 9.72461 13.6543 9.7793 13.6582L9.75 13.7227C9.75 13.7422 9.75977 13.752 9.7793 13.752C9.7793 13.7715 9.76953 13.7812 9.75 13.7812L9.78516 14.0039V14.0391C9.78906 14.1445 9.78516 14.3027 9.77344 14.5137C9.83594 14.5176 9.86914 14.5625 9.87305 14.6484C9.27148 15.9023 8.97656 16.7207 8.98828 17.1035C8.94531 17.0996 8.92578 17.1602 8.92969 17.2852C8.95703 17.3242 8.9707 17.3672 8.9707 17.4141L8.90625 17.4434L8.71289 17.4316C8.62695 17.4238 8.54297 17.4297 8.46094 17.4492L8.26758 17.4023C7.99414 17.3984 7.85742 17.4238 7.85742 17.4785L7.66406 17.4023C7.44922 17.4062 7.28125 17.4043 7.16016 17.3965L7.06055 17.3906L6.9668 17.4492H6.9375C6.87109 17.4453 6.83789 17.4336 6.83789 17.4141C6.50195 17.418 6.24805 17.4336 6.07617 17.4609L6.01172 17.4258C5.76953 17.4961 5.63281 17.5293 5.60156 17.5254L5.15625 17.502C4.53906 17.5918 3.89648 17.668 3.22852 17.7305C3.22852 17.7734 3.14258 17.791 2.9707 17.7832L2.8125 17.7363C2.8125 17.7793 2.79102 17.7988 2.74805 17.7949H2.68359L2.64844 17.5664C2.72266 17.2695 2.79492 16.916 2.86523 16.5059L2.83594 16.4414L2.83008 16.248H2.89453L2.88281 15.8379L2.90625 15.7793L2.87695 15.7734C2.91992 15.7188 2.96289 15.373 3.00586 14.7363C3.02148 14.5879 3.04102 14.5156 3.06445 14.5195C3.06445 14.4961 3.05273 14.4824 3.0293 14.4785C3.07227 13.7012 3.125 13.3145 3.1875 13.3184C3.1875 13.2949 3.17773 13.2832 3.1582 13.2832L3.18164 13.125L3.16406 12.6797C3.16406 12.6602 3.18359 12.5781 3.22266 12.4336L3.1875 12.3691C3.30469 11.9863 3.37305 11.1016 3.39258 9.71484C3.43164 9.0625 3.47461 8.73633 3.52148 8.73633L3.49219 8.67188L3.48633 8.47852L3.54492 8.39062L3.50977 8.38477L3.54492 8.32617L3.5332 7.98047C3.5918 7.78125 3.61914 7.6543 3.61523 7.59961C3.44336 7.56055 3.29492 7.51953 3.16992 7.47656C2.9707 7.52734 2.54688 7.55469 1.89844 7.55859V7.59375C1.87891 7.59375 1.86914 7.58203 1.86914 7.55859C1.50195 7.5625 1.20508 7.58594 0.978516 7.62891L0.820312 7.59375C0.480469 7.58203 0.3125 7.60156 0.316406 7.65234C0.226562 7.63672 0.179688 7.53906 0.175781 7.35938C0.210938 7.04688 0.238281 6.89062 0.257812 6.89062L0.222656 6.82617L0.292969 6.06445L0.263672 6.05859L0.292969 6.00586C0.273438 5.95898 0.261719 5.92383 0.257812 5.90039C0.277344 5.86523 0.287109 5.83594 0.287109 5.8125L0.257812 5.80664L0.287109 5.74805C0.287109 5.72852 0.277344 5.7168 0.257812 5.71289L0.28125 5.56055L0.257812 4.79297L0.287109 4.73438C0.263672 4.73438 0.251953 4.72266 0.251953 4.69922L0.316406 4.66992L0.28125 4.51172V4.44727L0.333984 4.35352V4.29492C0.333984 4.27148 0.324219 4.25781 0.304688 4.25391C0.324219 4.22266 0.34375 4.12891 0.363281 3.97266L0.316406 3.75C0.359375 3.68359 0.378906 3.62109 0.375 3.5625L0.363281 3.14648C0.363281 3.12695 0.375 3.11914 0.398438 3.12305L0.363281 3.05273V3.02344L1.25391 1.9043C1.25391 1.88086 1.50586 1.52539 2.00977 0.837891C2.00977 0.775391 2.04297 0.746094 2.10938 0.75C3.14453 0.769531 3.76758 0.744141 3.97852 0.673828C3.99805 0.673828 4.00977 0.683594 4.01367 0.703125L4.55273 0.679688V0.708984C4.66211 0.669922 4.93555 0.642578 5.37305 0.626953L5.4375 0.667969C5.46484 0.640625 5.61328 0.626953 5.88281 0.626953V0.65625C6.02344 0.632812 6.40625 0.615234 7.03125 0.603516C7.58984 0.533203 8.44531 0.490234 9.59766 0.474609C9.59766 0.451172 9.67188 0.433594 9.82031 0.421875C9.84375 0.425781 9.85547 0.4375 9.85547 0.457031C10.3125 0.445312 11.0938 0.365234 12.1992 0.216797ZM10.5762 1.07227C10.5762 1.09961 10.7617 1.29102 11.1328 1.64648C11.1914 1.54492 11.2188 1.46289 11.2148 1.40039L10.8223 1.02539C10.6934 1.06055 10.6113 1.07617 10.5762 1.07227ZM9.9082 1.125C9.91211 1.15625 10.207 1.46094 10.793 2.03906C10.8242 2.04297 10.877 1.99414 10.9512 1.89258C10.9512 1.86133 10.6875 1.58984 10.1602 1.07812V1.11328L10.1016 1.07227C10.0312 1.11133 9.9668 1.12891 9.9082 1.125ZM9.24023 1.18359L10.2598 2.25586C10.334 2.24414 10.4395 2.24219 10.5762 2.25L9.55664 1.16602C9.44727 1.18555 9.3418 1.19141 9.24023 1.18359ZM8.57227 1.23633L9.5625 2.2793C9.63672 2.26367 9.74219 2.25977 9.87891 2.26758L8.85938 1.18945C8.69922 1.22461 8.60352 1.24023 8.57227 1.23633ZM7.88086 1.25977L8.85938 2.30273C8.97266 2.29102 9.08008 2.28711 9.18164 2.29102C9.18164 2.26367 8.85352 1.92578 8.19727 1.27734L8.03906 1.27148C8.01562 1.26758 8.00391 1.27539 8.00391 1.29492L7.94531 1.26562L7.88086 1.25977ZM7.21289 1.3418L8.25586 2.39648C8.29883 2.35352 8.38477 2.33594 8.51367 2.34375C8.51367 2.31641 8.17578 1.96875 7.5 1.30078L7.27734 1.28906C7.23438 1.28906 7.21289 1.30664 7.21289 1.3418ZM6.50977 1.33594C6.51758 1.36719 6.86719 1.72656 7.55859 2.41406C7.72656 2.41016 7.81055 2.38281 7.81055 2.33203L6.83203 1.35352L6.50977 1.33594ZM5.8125 1.38281L6.86719 2.43164L6.96094 2.4375L7.11914 2.41992L7.11328 2.39062C7.11328 2.36328 6.77539 2.01172 6.09961 1.33594L5.87695 1.32422C5.83398 1.32812 5.8125 1.34766 5.8125 1.38281ZM5.11523 1.37695L6.16406 2.49023C6.25 2.45117 6.31445 2.43359 6.35742 2.4375V2.4668C6.39648 2.44727 6.42773 2.43945 6.45117 2.44336L5.43164 1.36523L5.36719 1.39453L5.30273 1.35352L5.11523 1.37695ZM4.44727 1.42969L5.4668 2.50781C5.4707 2.48828 5.57617 2.48438 5.7832 2.49609L4.73438 1.38281C4.69531 1.40234 4.59961 1.41797 4.44727 1.42969ZM3.75 1.48242L4.86328 2.5957L4.89258 2.60156C4.94336 2.55859 5.01758 2.54102 5.11523 2.54883C5.11523 2.52539 4.75391 2.1543 4.03125 1.43555L3.80859 1.42383C3.76562 1.42773 3.74609 1.44727 3.75 1.48242ZM3.05273 1.47656L4.16602 2.64844C4.35742 2.63672 4.45117 2.61133 4.44727 2.57227C4.41992 2.57227 4.06055 2.20117 3.36914 1.45898C3.36523 1.48242 3.25977 1.48828 3.05273 1.47656ZM2.38477 1.55859C2.41602 1.56641 2.76758 1.92578 3.43945 2.63672L3.71484 2.58984L2.67188 1.48242C2.48047 1.49805 2.38477 1.52344 2.38477 1.55859ZM11.1914 2.44336C11.1914 2.4707 11.3535 2.63867 11.6777 2.94727L11.6484 2.82422L11.666 2.60156L11.3438 2.29688C11.3125 2.29297 11.2617 2.3418 11.1914 2.44336ZM2.19727 1.76953C2.13867 1.87109 2.10938 1.95508 2.10938 2.02148L2.80078 2.69531L2.89453 2.70117L3.05273 2.67773V2.64258C3.0332 2.5957 2.74805 2.30469 2.19727 1.76953ZM1.93359 2.23242L1.81055 2.44922L2.10352 2.71875L2.26172 2.72461L2.35547 2.66602C2.35547 2.68945 2.36719 2.70117 2.39062 2.70117V2.66602L1.93359 2.23242ZM11.1387 2.81836L11.1445 3.07031L11.1738 3.14062C11.1543 3.13672 11.1445 3.14648 11.1445 3.16992L11.6367 3.64453L11.6719 3.65039V3.61523C11.6719 3.5957 11.6582 3.58398 11.6309 3.58008L11.666 3.52148L11.6602 3.36328C11.6602 3.33594 11.4863 3.1543 11.1387 2.81836ZM10.2773 2.85938C10.2773 2.92578 9.87695 2.97656 9.07617 3.01172C8.94727 3.00391 8.78906 3.02734 8.60156 3.08203L8.53711 3.04102C8.1543 3.06055 7.96289 3.10156 7.96289 3.16406C7.93945 3.16406 7.9082 3.15234 7.86914 3.12891L7.26562 3.1582V3.12305C7.20703 3.16992 7.04688 3.19336 6.78516 3.19336V3.1582C6.10547 3.20508 5.53516 3.25586 5.07422 3.31055L4.91602 3.26953C4.83398 3.30469 4.75977 3.32031 4.69336 3.31641L4.62891 3.28711C4.46094 3.28711 4.37891 3.32227 4.38281 3.39258L3.51562 3.33984L3.29883 3.39258L3.29297 3.36328C3.13672 3.40625 2.81055 3.44727 2.31445 3.48633V3.52148C2.29492 3.52148 2.28516 3.50977 2.28516 3.48633L1.9043 3.49805L1.71094 3.48633C1.64062 3.48242 1.56641 3.50977 1.48828 3.56836L1.13672 3.54492L0.978516 3.56836C0.974609 4.02148 0.941406 4.63281 0.878906 5.40234C0.902344 5.44531 0.914062 5.47656 0.914062 5.49609C0.890625 5.49609 0.880859 5.50781 0.884766 5.53125H0.919922L0.884766 5.5957C0.884766 5.63867 0.896484 5.66016 0.919922 5.66016L0.890625 5.88281L0.896484 6.00586C0.908203 6.2168 0.933594 6.32422 0.972656 6.32812C0.957031 6.53906 0.9375 6.64453 0.914062 6.64453C0.941406 6.67969 0.955078 6.7207 0.955078 6.76758C2.14258 6.80273 2.73633 6.78711 2.73633 6.7207L2.79492 6.75586L3.11719 6.7793C3.13672 6.7793 3.14648 6.76758 3.14648 6.74414C3.16602 6.74414 3.17578 6.75586 3.17578 6.7793L3.33984 6.75586L3.62109 6.77344C3.66406 6.77734 3.68555 6.75781 3.68555 6.71484L3.84375 6.75586L4.00781 6.73242C4.08984 6.75977 4.17383 6.77734 4.25977 6.78516H4.28906L4.29492 6.87891L4.23633 6.9668L4.24219 7.13086C4.24609 7.26758 4.26953 7.41797 4.3125 7.58203L4.21875 7.63477L4.25977 7.69922C4.23242 7.91406 4.20117 8.01953 4.16602 8.01562C4.16992 8.03516 4.18359 8.04688 4.20703 8.05078C4.13672 8.64062 4.10547 9.07031 4.11328 9.33984C4.09375 9.33984 4.08398 9.35156 4.08398 9.375C4.10352 9.375 4.11523 9.38477 4.11914 9.4043C4.08789 9.4043 4.05664 9.45508 4.02539 9.55664L4.06055 9.62695L4.06641 9.78516L4.03711 9.84375L4.06641 9.84961L4.03711 9.9082V9.97266C4.04102 9.99219 4.05273 10.0039 4.07227 10.0078L4.04297 10.0664L4.06055 10.7344C4.06445 10.7773 4.04492 10.7988 4.00195 10.7988L4.03125 10.8633L4.03711 10.957C4.03711 10.9688 4.01562 10.998 3.97266 11.0449L3.99023 11.6543L3.9375 11.748L3.95508 12.3809C3.91211 12.6309 3.88281 12.7559 3.86719 12.7559C3.89062 12.7988 3.90234 12.832 3.90234 12.8555L3.87891 13.2363L3.91992 13.3008C3.86133 13.5625 3.82617 13.8145 3.81445 14.0566L3.84375 14.1211C3.80469 14.5391 3.76953 14.748 3.73828 14.748C3.73828 14.7715 3.75 14.8047 3.77344 14.8477L3.63867 15.7207V15.7852L3.67383 15.8555C3.63477 15.9219 3.61719 15.9844 3.62109 16.043L3.63281 16.4238C3.63281 16.4434 3.62109 16.4531 3.59766 16.4531L3.63281 16.5176C3.58203 16.5723 3.55273 16.6973 3.54492 16.8926C3.56836 16.8926 3.58008 16.9043 3.58008 16.9277C3.7832 16.9199 3.96289 16.8984 4.11914 16.8633L4.18359 16.8691L4.24805 16.9043C4.24805 16.8809 4.25781 16.8711 4.27734 16.875V16.9102C4.35938 16.8711 4.80469 16.8242 5.61328 16.7695C5.86719 16.7617 6.18359 16.7266 6.5625 16.6641C6.5625 16.6836 6.57227 16.6953 6.5918 16.6992C6.5918 16.6797 6.60352 16.6699 6.62695 16.6699V16.6992C6.67773 16.6836 6.7832 16.668 6.94336 16.6523C6.94336 16.6758 6.95312 16.6895 6.97266 16.6934V16.6582C6.99609 16.6582 7.00781 16.6699 7.00781 16.6934L7.38867 16.6816L7.89844 16.7109L8.05664 16.6934C7.99414 16.0059 7.96094 15.6328 7.95703 15.5742V15.5449C7.95703 15.5215 7.94727 15.5098 7.92773 15.5098C7.92773 15.4902 7.9375 15.4805 7.95703 15.4805L7.92188 15.3223L7.91602 15.0996L7.88086 15.0352C7.9043 15.0352 7.91406 15.0234 7.91016 15C7.88672 15 7.875 14.9902 7.875 14.9707H7.91016L7.875 14.9062L7.85742 14.3965C7.85742 14.3535 7.83594 14.3301 7.79297 14.3262C7.79297 14.3066 7.80469 14.2969 7.82812 14.2969C7.80469 14.0195 7.76758 13.8789 7.7168 13.875L7.74609 13.8223L7.71094 13.752C7.71094 13.7285 7.72266 13.7188 7.74609 13.7227L7.70508 13.5586C7.70508 13.543 7.71484 13.4824 7.73438 13.377L7.66992 13.3359C7.66992 13.3164 7.67969 13.3066 7.69922 13.3066L7.66406 13.1484C7.66406 13.125 7.67383 13.1133 7.69336 13.1133C7.64648 12.9258 7.61914 12.6719 7.61133 12.3516H7.64062C7.61719 12.3008 7.5918 12.1934 7.56445 12.0293L7.59961 12.0352C7.55273 11.9375 7.52539 11.7656 7.51758 11.5195V11.3906C7.51758 11.3711 7.50586 11.3613 7.48242 11.3613L7.51172 11.2969L7.47656 11.2324C7.47656 11.2129 7.48828 11.2031 7.51172 11.2031L7.4707 11.0391V11.0098C7.38086 10.1543 7.33203 9.60156 7.32422 9.35156V9.22266C7.32031 9.13281 7.29492 9.04688 7.24805 8.96484L7.2832 8.90039C7.25977 8.85742 7.24609 8.82617 7.24219 8.80664H7.27734L7.24219 8.74219L7.23633 8.51953L7.26562 8.32617C7.24219 8.29102 7.22852 8.25 7.22461 8.20312H7.25977C7.22461 7.95703 7.1875 7.81641 7.14844 7.78125C7.14844 7.75781 7.16016 7.72852 7.18359 7.69336C7.15234 7.47461 7.11523 7.3457 7.07227 7.30664V7.27148L7.22461 6.89648L7.5 6.84961L8.61914 6.91992C8.72852 6.92773 8.88867 6.92773 9.09961 6.91992V6.94922L9.16406 6.92578L9.35156 6.9375L9.41602 6.9668C9.41602 6.94727 9.42578 6.93945 9.44531 6.94336V6.97266C9.51562 6.93359 9.58008 6.91602 9.63867 6.91992L9.76758 6.92578C9.78711 6.92578 9.79688 6.9375 9.79688 6.96094L9.86133 6.93164L10.0547 6.94336V7.00781L10.1133 6.97852V7.00781L10.1777 6.98438C10.2207 7.00781 10.2539 7.01953 10.2773 7.01953V6.99023C10.3164 7.01367 10.3477 7.02539 10.3711 7.02539L10.5 6.9375L10.459 6.87305V6.74414L10.4883 6.67969H10.4531C10.4766 6.64062 10.4883 6.60938 10.4883 6.58594C10.4883 6.56641 10.4766 6.55664 10.4531 6.55664L10.4824 6.39844C10.4824 6.38281 10.4688 6.31836 10.4414 6.20508L10.4766 6.14062C10.4492 6.10156 10.4355 6.07031 10.4355 6.04688H10.4707C10.4707 6.02734 10.459 6.01758 10.4355 6.01758L10.4648 5.85352V5.82422L10.4238 5.66602H10.459L10.4238 5.60156C10.4238 5.58203 10.4355 5.57227 10.459 5.57227L10.418 5.50781V5.47266L10.4473 5.31445H10.4121C10.4121 5.29492 10.4238 5.28516 10.4473 5.28516L10.4062 5.0625V5.02734C10.4062 4.98047 10.416 4.93945 10.4355 4.9043C10.4355 4.88086 10.4238 4.86914 10.4004 4.86914C10.4395 4.71289 10.457 4.56641 10.4531 4.42969L10.4414 4.04883C10.4414 4.0293 10.4512 4.01953 10.4707 4.01953L10.4355 3.95508C10.4355 3.84961 10.457 3.79688 10.5 3.79688C10.4961 3.77344 10.4824 3.76172 10.459 3.76172C10.4824 3.71094 10.4863 3.43555 10.4707 2.93555C10.3848 2.88867 10.3203 2.86328 10.2773 2.85938ZM11.1562 3.58008C11.1602 3.60352 11.1719 3.63867 11.1914 3.68555C11.1758 3.79492 11.168 3.87695 11.168 3.93164L11.7539 4.50586V4.47656C11.7461 4.19531 11.5898 3.94336 11.2852 3.7207C11.2852 3.68945 11.2422 3.64258 11.1562 3.58008ZM11.1797 4.34766L11.1914 4.66406C11.1914 4.69141 11.3672 4.87305 11.7188 5.20898C11.7188 5.16602 11.7578 5.11328 11.8359 5.05078V5.02148C11.8359 4.99414 11.6172 4.76953 11.1797 4.34766ZM11.2031 5.10938C11.207 5.14062 11.1895 5.23633 11.1504 5.39648L11.4082 5.63086L11.5312 5.44922C11.5312 5.42188 11.4219 5.30859 11.2031 5.10938ZM7.81055 7.59961L7.78711 7.75781V7.82227C7.79102 7.85352 8.06641 8.13477 8.61328 8.66602L8.60156 8.34375C8.60156 8.31641 8.35938 8.07031 7.875 7.60547L7.81055 7.59961ZM7.93359 8.40234C7.9375 8.47266 7.92773 8.52539 7.9043 8.56055H7.93945L7.91016 8.625C7.91016 8.70703 8.16211 8.98633 8.66602 9.46289C8.6582 9.25586 8.66406 9.15039 8.68359 9.14648L7.93359 8.40234ZM7.95703 9.16406C7.96875 9.47266 8.10352 9.71289 8.36133 9.88477C8.36133 9.91602 8.49219 10.0508 8.75391 10.2891C8.74609 9.99219 8.61133 9.75195 8.34961 9.56836C8.34961 9.53711 8.21875 9.40234 7.95703 9.16406ZM8.10938 10.0664V10.1309C8.11719 10.3887 8.24219 10.5957 8.48438 10.752C8.48438 10.7793 8.58203 10.8809 8.77734 11.0566C8.77734 11.0332 8.78711 11.0234 8.80664 11.0273C8.77539 10.9766 8.74023 10.8477 8.70117 10.6406L8.10938 10.0664ZM8.16797 10.8574L8.17383 10.9863C8.17773 11.1934 8.39648 11.4824 8.83008 11.8535H8.86523C8.85742 11.5762 8.75586 11.3809 8.56055 11.2676C8.56055 11.2363 8.42969 11.0996 8.16797 10.8574ZM8.25586 11.6953L8.26172 11.7246C8.28125 11.7637 8.29102 11.7949 8.29102 11.8184L8.26172 11.8828C8.26562 12.0273 8.43164 12.2383 8.75977 12.5156C8.75977 12.5469 8.82422 12.6152 8.95312 12.7207L8.94727 12.6562C8.93945 12.4023 8.82812 12.2031 8.61328 12.0586C8.61328 12.0312 8.49414 11.9102 8.25586 11.6953ZM8.34375 12.5215V12.5508C8.34375 12.5703 8.35547 12.582 8.37891 12.5859L8.34961 12.7441V12.7734L8.38477 12.8438C8.36133 12.8398 8.34961 12.8477 8.34961 12.8672L9.07617 13.582L9.06445 13.2656C9.06445 13.2383 8.82422 12.9902 8.34375 12.5215ZM8.4668 13.3828L8.43164 13.4473C8.45898 13.4863 8.47266 13.5176 8.47266 13.541H8.4375C8.44141 13.6855 8.60742 13.8965 8.93555 14.1738C8.93555 14.2051 9 14.2734 9.12891 14.3789L9.12305 14.0625C9.11914 14.0312 8.90039 13.8047 8.4668 13.3828ZM8.55469 14.2148L8.52539 14.2793C8.56836 14.2793 8.60352 14.3984 8.63086 14.6367L8.92383 14.9062H8.95898C8.95508 14.8438 8.97266 14.7617 9.01172 14.6602L8.55469 14.2148Z" fill="#EC5C27"/>
</svg>
