<svg width="15" height="19" viewBox="0 0 15 19" fill="none" xmlns="http://www.w3.org/2000/svg">
<path d="M12.3223 0.28125H12.3867C12.457 0.292969 12.541 0.429688 12.6387 0.691406C12.6582 0.695312 12.8711 1.07812 13.2773 1.83984C13.332 1.83984 13.4688 2.11523 13.6875 2.66602C13.668 2.66602 13.6582 2.67578 13.6582 2.69531C13.7402 2.73047 13.877 3.00586 14.0684 3.52148C14.5762 4.76758 14.8301 6.05078 14.8301 7.37109V7.75195C14.7246 8.8457 14.5449 9.76758 14.291 10.5176C14.291 10.6543 14.1758 11.0156 13.9453 11.6016C13.8945 11.8164 13.8086 12.0273 13.6875 12.2344C13.6875 12.375 13.4961 12.7676 13.1133 13.4121C13.1133 13.4785 12.9863 13.7227 12.7324 14.1445C12.7324 14.1719 12.7012 14.2344 12.6387 14.332C12.6582 14.332 12.668 14.3438 12.668 14.3672C12.6328 14.3672 12.4746 14.6211 12.1934 15.1289L11.9062 15.5098C11.7344 15.7246 11.502 15.9688 11.209 16.2422C10.8418 16.6094 10.332 16.9902 9.67969 17.3848C9.61328 17.4551 9.47656 17.5195 9.26953 17.5781C8.99609 17.7266 8.55078 17.8633 7.93359 17.9883C7.80469 17.9961 7.74023 18.0176 7.74023 18.0527C7.70117 18.0332 7.66992 18.0234 7.64648 18.0234C7.57617 18.0664 7.51367 18.0879 7.45898 18.0879H7.01367L6.82031 18.1172C6.78516 18.0977 6.73242 18.0879 6.66211 18.0879H6.56836C6.54492 18.0879 6.5332 18.0977 6.5332 18.1172L6.46875 18.0879H6.12305C6.08008 18.0879 6.05859 18.0664 6.05859 18.0234L5.90039 18.0527C5.85742 18.0176 5.66602 17.9863 5.32617 17.959C5.24023 17.9082 5.10352 17.8652 4.91602 17.8301C4.8418 17.7715 4.56445 17.6348 4.08398 17.4199C3.39648 16.9941 2.86719 16.5801 2.49609 16.1777C2.33984 16.0762 2.02148 15.7051 1.54102 15.0645C1.43945 15.0137 1.33398 14.8125 1.22461 14.4609C1.16602 14.3711 1.06055 14.1387 0.908203 13.7637C0.779297 13.3965 0.693359 13.1953 0.650391 13.1602C0.650391 12.9219 0.619141 12.793 0.556641 12.7734L0.591797 12.7148C0.548828 12.6445 0.527344 12.5801 0.527344 12.5215C0.546875 12.5215 0.556641 12.5117 0.556641 12.4922C0.509766 12.4922 0.478516 12.4375 0.462891 12.3281H0.492188C0.429688 12.0898 0.388672 11.8887 0.369141 11.7246C0.345703 11.7246 0.333984 11.7148 0.333984 11.6953C0.333984 11.6758 0.345703 11.666 0.369141 11.666L0.333984 11.6016V11.5371C0.333984 11.4746 0.345703 11.4434 0.369141 11.4434L0.333984 11.2793V10.9336H0.269531V10.8984C0.269531 10.8789 0.28125 10.8691 0.304688 10.8691C0.261719 10.7793 0.228516 10.5449 0.205078 10.166H0.240234L0.205078 10.1074V10.0723C0.205078 10.0527 0.216797 10.043 0.240234 10.043C0.197266 9.96484 0.175781 9.87891 0.175781 9.78516V9.02344C0.175781 8.875 0.197266 8.75781 0.240234 8.67188C0.240234 8.65234 0.228516 8.64258 0.205078 8.64258C0.248047 8.16211 0.302734 7.74805 0.369141 7.40039C0.345703 7.40039 0.333984 7.39062 0.333984 7.37109C0.376953 7.37109 0.398438 7.34961 0.398438 7.30664V6.92578C0.441406 6.88281 0.505859 6.60742 0.591797 6.09961C0.630859 6.09961 0.662109 6.03516 0.685547 5.90625C0.662109 5.90625 0.650391 5.89648 0.650391 5.87695C0.681641 5.87305 0.777344 5.60742 0.9375 5.08008C1.01562 4.97461 1.23828 4.47656 1.60547 3.58594C1.64062 3.57031 1.68359 3.47461 1.73438 3.29883C1.77344 3.29883 1.82617 3.20508 1.89258 3.01758C1.91992 3.01758 1.97266 2.91016 2.05078 2.69531C2.38672 2.15234 2.7793 1.55859 3.22852 0.914062C3.2832 0.789062 3.36719 0.726562 3.48047 0.726562C3.57422 0.8125 3.83984 0.917969 4.27734 1.04297C5.35547 1.58594 6.02344 1.86133 6.28125 1.86914C6.72656 2.04102 7.07617 2.14844 7.33008 2.19141C7.33008 2.35937 7.38281 2.50586 7.48828 2.63086C7.42578 2.99023 7.33008 3.4043 7.20117 3.87305L6.94922 5.23828C6.94922 5.26172 6.95898 5.27344 6.97852 5.27344L6.94922 5.43164V5.94141L6.91406 6.00586H6.94922C6.86328 6.55273 6.78906 7.42188 6.72656 8.61328L6.75586 8.67188L6.72656 8.73633C6.82812 9.47461 7.03906 10.0469 7.35938 10.4531C7.37109 10.4531 7.51953 10.3691 7.80469 10.2012V9.97852C7.87109 9.79102 7.91406 9.54688 7.93359 9.24609L7.9043 9.18164C7.94336 9.02148 7.97461 8.75781 7.99805 8.39062H7.96289C7.96289 8.36719 7.97461 8.35547 7.99805 8.35547L7.93359 7.91016C7.95312 7.82812 7.96289 7.74414 7.96289 7.6582V7.62305C7.96289 7.47461 7.94336 7.40039 7.9043 7.40039C7.92383 7.36133 7.93359 7.33008 7.93359 7.30664C7.93359 7.13867 7.90234 7.01172 7.83984 6.92578H7.86914C7.82617 6.84766 7.80469 6.76367 7.80469 6.67383V6.38672C7.80469 6.36328 7.79492 6.35156 7.77539 6.35156C7.77539 6.33203 7.78516 6.32227 7.80469 6.32227C7.80469 6.25195 7.77344 6.16797 7.71094 6.07031V5.94141C7.58203 5.20703 7.46484 4.74023 7.35938 4.54102H7.39453C7.36719 4.35352 7.32422 4.22656 7.26562 4.16016V4.03125C7.29688 3.75781 7.36133 3.62109 7.45898 3.62109V3.46289C7.45898 3.35352 7.80859 2.86523 8.50781 1.99805L8.69531 1.74609C8.80469 1.63672 8.87891 1.58203 8.91797 1.58203L8.98242 1.61719C9.56055 1.42969 10.4609 1.05859 11.6836 0.503906C12.0391 0.398438 12.252 0.324219 12.3223 0.28125ZM11.209 1.45898C11.209 1.50195 11.1445 1.54297 11.0156 1.58203C11.0234 1.61328 11.1719 1.76172 11.4609 2.02734C11.4609 1.96484 11.4941 1.88086 11.5605 1.77539L11.209 1.45898ZM3.51562 1.74609C4.87109 3.09766 5.57031 3.77539 5.61328 3.7793C5.76562 3.79883 5.84961 3.80859 5.86523 3.80859L5.90039 3.74414C4.54102 2.39258 3.8418 1.71484 3.80273 1.71094C3.76758 1.71094 3.72461 1.68945 3.67383 1.64648H3.60938C3.57812 1.64648 3.54688 1.67969 3.51562 1.74609ZM12.1641 1.64648C12.1641 1.69336 12.1309 1.7793 12.0645 1.9043L13.0195 2.82422C12.7891 2.30078 12.5879 1.99414 12.416 1.9043C12.416 1.87695 12.332 1.79102 12.1641 1.64648ZM10.6992 1.71094C10.5742 1.79297 10.5117 1.8457 10.5117 1.86914C10.8711 2.22852 11.0723 2.4082 11.1152 2.4082C11.1816 2.36914 11.2441 2.34961 11.3027 2.34961V2.31445C11.3027 2.28711 11.1016 2.08594 10.6992 1.71094ZM3.32227 1.96875C3.32227 2.01562 3.29102 2.07812 3.22852 2.15625V2.19141C4.10352 3.10156 4.57031 3.55664 4.62891 3.55664C4.72656 3.55664 4.80078 3.57812 4.85156 3.62109H4.97461C4.93945 3.55859 4.38867 3.00781 3.32227 1.96875ZM10.002 2.0625V2.0918C10.002 2.11914 10.1816 2.29883 10.541 2.63086C10.5488 2.5918 10.5703 2.57227 10.6055 2.57227H10.7637V2.53711L10.2246 1.96875C10.1191 2.03125 10.0449 2.0625 10.002 2.0625ZM4.62891 2.0625V2.0918L6.05859 3.49219C6.12109 3.37109 6.15234 3.28711 6.15234 3.24023C5.52344 2.60352 5.17383 2.28516 5.10352 2.28516C5.08398 2.28516 4.92578 2.21094 4.62891 2.0625ZM9.42773 2.31445C9.45508 2.31445 9.61328 2.47461 9.90234 2.79492C10.0625 2.75195 10.1582 2.73047 10.1895 2.73047C10.1895 2.70313 10.0098 2.52344 9.65039 2.19141C9.50195 2.23828 9.42773 2.2793 9.42773 2.31445ZM11.9414 2.19141C11.875 2.33203 11.8418 2.41602 11.8418 2.44336L13.5586 4.13086V4.0957C13.5195 3.99023 13.4668 3.88477 13.4004 3.7793L13.4355 3.71484V3.65039C13.4082 3.65039 12.9316 3.17383 12.0059 2.2207L11.9414 2.19141ZM8.91797 2.47266V2.53711C8.92188 2.56836 9.07031 2.7168 9.36328 2.98242C9.51953 2.98242 9.60547 2.95117 9.62109 2.88867L9.11133 2.4082C9.02539 2.45117 8.96094 2.47266 8.91797 2.47266ZM3.03516 2.47266C3.03516 2.52344 3.00391 2.58789 2.94141 2.66602C3.34375 3.13086 3.63086 3.36328 3.80273 3.36328C3.87305 3.36328 3.94727 3.39648 4.02539 3.46289H4.05469C4.05469 3.43555 3.72656 3.10547 3.07031 2.47266H3.03516ZM5.92969 2.60156C5.92969 2.62891 6.04688 2.74609 6.28125 2.95312L6.375 2.82422V2.69531C6.28906 2.69531 6.14062 2.66406 5.92969 2.60156ZM8.66602 2.79492C8.66602 2.83008 8.63477 2.88281 8.57227 2.95312C8.57227 2.98438 8.64453 3.05859 8.78906 3.17578H8.91797C8.96875 3.13281 9.01172 3.11133 9.04688 3.11133C9.04688 3.08398 8.94141 2.97852 8.73047 2.79492H8.66602ZM11.9414 2.95312C12.0469 3.36328 12.2168 3.63867 12.4512 3.7793C12.4512 3.80664 12.9277 4.2832 13.8809 5.20898V5.17969C13.8066 4.82812 13.6055 4.53125 13.2773 4.28906C13.2617 4.24609 12.8164 3.80078 11.9414 2.95312ZM10.2246 3.36328L10.1602 3.33398C9.75781 3.60742 9.41797 3.74414 9.14062 3.74414C9.10938 3.82227 8.78125 3.95117 8.15625 4.13086C8.15625 4.16992 8.13477 4.18945 8.0918 4.18945C8.13477 4.2793 8.15625 4.34375 8.15625 4.38281H8.12695C8.25195 4.74609 8.37891 5.31836 8.50781 6.09961C8.52734 6.09961 8.53711 6.10938 8.53711 6.12891V6.41602C8.54492 6.56445 8.56641 6.63867 8.60156 6.63867L8.57227 6.70312C8.5918 6.74609 8.60156 6.77734 8.60156 6.79688C8.58203 6.79688 8.57227 6.80859 8.57227 6.83203C8.62305 6.83203 8.68555 7.05469 8.75977 7.5C8.74023 7.6875 8.71875 7.80273 8.69531 7.8457C8.71875 7.88867 8.73047 7.92188 8.73047 7.94531H8.69531C8.73828 8.01172 8.75977 8.07422 8.75977 8.13281V8.39062C8.72461 9.23828 8.68164 9.66211 8.63086 9.66211C8.6543 9.66211 8.66602 9.67188 8.66602 9.69141C8.62305 9.69922 8.60156 9.7207 8.60156 9.75586V10.2656C8.5625 10.3125 8.53125 10.418 8.50781 10.582H8.53711C8.49414 10.6523 8.47266 10.7168 8.47266 10.7754C8.47266 10.7949 8.48438 10.8047 8.50781 10.8047C8.37891 11.3008 8.27148 11.6719 8.18555 11.918C8.1582 11.9805 8.13867 12.0117 8.12695 12.0117L8.15625 12.0762C7.99219 12.3066 7.84375 12.5605 7.71094 12.8379C7.30859 13.084 7.0332 13.2109 6.88477 13.2188H6.85547C6.36719 13.2188 6.01562 13.0391 5.80078 12.6797C5.53125 12.3438 5.33008 11.9629 5.19727 11.5371C5.17773 11.3262 5.14648 11.2207 5.10352 11.2207L5.13281 11.1562C4.94922 10.6523 4.83398 10.2285 4.78711 9.88477C4.78711 9.86133 4.79688 9.84961 4.81641 9.84961C4.75391 9.32617 4.69141 8.95508 4.62891 8.73633V8.61328C4.62891 8.58984 4.63867 8.57812 4.6582 8.57812L4.62891 8.51367C4.64844 8.20117 4.6582 7.99023 4.6582 7.88086H4.69336L4.6582 7.81641V7.59375C4.70117 7.56641 4.78711 7.13086 4.91602 6.28711L5.07422 5.94141C5.07422 5.91797 5.0625 5.90625 5.03906 5.90625C5.14453 5.55859 5.21875 5.34766 5.26172 5.27344L5.23242 5.20898C5.27539 5.14648 5.31641 4.98828 5.35547 4.73438C5.37891 4.73438 5.42188 4.64844 5.48438 4.47656C5.35156 4.42188 5.00195 4.34766 4.43555 4.25391V4.22461C4.41602 4.22461 4.40625 4.23438 4.40625 4.25391C3.4375 4.02344 2.72656 3.83398 2.27344 3.68555H2.24414C2.24414 3.79492 2.19141 3.92188 2.08594 4.06641H2.05078V4.22461C1.71094 5.02539 1.54102 5.44922 1.54102 5.49609C1.47852 5.49609 1.4375 5.62305 1.41797 5.87695C1.28906 6.25977 1.19336 6.59961 1.13086 6.89648L1.16016 6.95508V6.99023C1.11719 6.99023 1.0957 7 1.0957 7.01953C1.0957 7.04297 1.10742 7.05469 1.13086 7.05469L1.03711 7.62305C1.05664 7.62305 1.06641 7.63477 1.06641 7.6582C1.02344 7.66602 1.00195 7.6875 1.00195 7.72266V8.00977C0.958984 8.21289 0.9375 8.32812 0.9375 8.35547V8.70703C0.9375 8.72656 0.927734 8.73633 0.908203 8.73633L0.9375 8.80078L0.873047 8.89453H0.908203L0.873047 8.95898V8.99414C0.873047 9.01367 0.884766 9.02344 0.908203 9.02344L0.873047 9.08789V9.18164C0.873047 9.20508 0.884766 9.2168 0.908203 9.2168L0.873047 9.28125V9.84961C0.873047 9.87305 0.884766 9.88477 0.908203 9.88477L0.873047 9.94922C0.880859 9.98828 0.902344 10.0078 0.9375 10.0078C0.9375 10.0312 0.927734 10.043 0.908203 10.043C0.927734 10.3281 0.958984 10.582 1.00195 10.8047V11.3145L1.03711 11.502C1.01367 11.5371 1.00195 11.5918 1.00195 11.666V11.6953C1.25586 12.5742 1.38281 13.0293 1.38281 13.0605C1.42188 13.0605 1.46484 13.168 1.51172 13.3828C1.51172 13.3984 1.69141 13.7891 2.05078 14.5547C2.05078 14.6602 2.29492 15 2.7832 15.5742C3.09961 15.9062 3.35352 16.0859 3.54492 16.1133C3.67383 16.1953 3.73828 16.248 3.73828 16.2715C4.26562 16.6113 4.71094 16.834 5.07422 16.9395C5.07422 17.0176 5.29688 17.0918 5.74219 17.1621H6.02344C6.07812 17.2051 6.12109 17.2266 6.15234 17.2266C6.39062 17.2266 6.60352 17.248 6.79102 17.291C7.51367 17.2441 8.01172 17.1699 8.28516 17.0684V17.0977C8.41406 17.0469 8.65625 16.9727 9.01172 16.875C9.94531 16.1836 10.4121 15.8242 10.4121 15.7969C11.1387 15.0781 11.5312 14.623 11.5898 14.4316C11.6719 14.4316 11.8203 14.082 12.0352 13.3828L12.2285 13.0605V13.0312L12.1934 12.9668C12.2402 12.9668 12.3145 12.6484 12.416 12.0117H12.4805V11.6953C12.4805 11.6758 12.4902 11.666 12.5098 11.666L12.4805 11.6016V11.4082C12.4805 11.3887 12.4902 11.3789 12.5098 11.3789L12.4805 11.3145C12.4805 11.291 12.4902 11.2793 12.5098 11.2793L12.4805 11.2207V10.998C12.5234 10.9434 12.5449 10.9102 12.5449 10.8984H12.5098L12.5449 10.834V10.4531C12.5449 10.4336 12.5664 10.3496 12.6094 10.2012L12.5449 10.0723C12.5449 10.0527 12.5547 10.043 12.5742 10.043L12.5449 9.88477V9.5332C12.5449 9.48633 12.5332 9.44336 12.5098 9.4043C12.5332 9.36523 12.5449 9.33398 12.5449 9.31055C12.502 9.24023 12.4805 9.17578 12.4805 9.11719V8.61328C12.4375 8.44531 12.332 7.78711 12.1641 6.63867C12.1211 6.63867 12.0996 6.61719 12.0996 6.57422V6.28711C12.0996 6.26758 12.0879 6.25781 12.0645 6.25781C12.0879 6.21875 12.0996 6.1875 12.0996 6.16406C11.9941 5.89453 11.8457 5.26953 11.6543 4.28906C11.5254 3.99609 11.3867 3.60352 11.2383 3.11133L11.1738 3.04688C11.1348 3.04688 10.998 3.11133 10.7637 3.24023C10.6309 3.2793 10.4512 3.31055 10.2246 3.33398V3.36328ZM12.3867 4.16016C12.3867 4.45703 12.5664 4.74219 12.9258 5.01562C12.9258 5.04297 13.3066 5.42578 14.0684 6.16406L13.9746 5.7832C13.9941 5.7832 14.0039 5.77148 14.0039 5.74805L12.3867 4.16016ZM6.08789 4.76367C6.08789 4.81836 6.06641 4.90234 6.02344 5.01562L6.1875 5.14453L6.2168 4.82812L6.12305 4.76367H6.08789ZM12.6094 5.14453V5.17969C12.6094 5.46094 12.8633 5.81055 13.3711 6.22852C13.3711 6.25586 13.6152 6.49805 14.1035 6.95508C14.1035 6.93555 14.1133 6.9043 14.1328 6.86133C14.1328 6.6582 13.9961 6.45703 13.7227 6.25781C13.7148 6.22656 13.3438 5.85547 12.6094 5.14453ZM5.96484 5.36719C5.96484 5.41797 5.93164 5.48242 5.86523 5.56055V5.58984C5.86523 5.62109 5.93945 5.69531 6.08789 5.8125H6.12305L6.08789 5.6543V5.56055L6.12305 5.49609L5.96484 5.36719ZM5.70703 6.22852L6.02344 6.50977L6.05859 6.45117V6.38672C6.05859 6.36328 6.04688 6.35156 6.02344 6.35156L6.05859 6.28711V6.22852C6.05859 6.20117 5.97266 6.11523 5.80078 5.9707C5.76172 5.9707 5.73047 6.05664 5.70703 6.22852ZM12.832 6.12891L12.8613 6.19336V6.22852C12.8613 6.27539 12.8516 6.31641 12.832 6.35156C12.832 6.47266 13.0957 6.76953 13.623 7.24219C13.623 7.26953 13.7832 7.42969 14.1035 7.72266L14.1328 7.56445V7.43555C14.1211 7.39258 13.6875 6.95703 12.832 6.12891ZM5.61328 6.54492C5.61328 6.56445 5.60156 6.57422 5.57812 6.57422L5.61328 6.63867C5.57031 6.72461 5.54883 6.78906 5.54883 6.83203L5.96484 7.21289L5.99414 6.89648L5.61328 6.54492ZM12.9902 7.05469V7.08398C13.0527 7.42383 13.1582 7.625 13.3066 7.6875C13.3066 7.71875 13.5391 7.95312 14.0039 8.39062L14.0391 8.32617L14.0039 8.26172C14.0469 8.19141 14.0684 8.13867 14.0684 8.10352L12.9902 7.05469ZM5.51953 7.21289C5.51953 7.27148 5.49805 7.33398 5.45508 7.40039C5.45508 7.48633 5.61328 7.66797 5.92969 7.94531V7.62305C5.92969 7.5957 5.79297 7.45898 5.51953 7.21289ZM5.45508 7.94531C5.45508 7.96484 5.46484 7.97461 5.48438 7.97461C5.46484 8.03711 5.44336 8.06836 5.41992 8.06836L5.48438 8.22656C5.46484 8.22656 5.45508 8.23828 5.45508 8.26172L5.90039 8.67188H5.92969V8.39062C5.92969 8.35938 5.78125 8.21094 5.48438 7.94531H5.45508ZM13.1133 7.94531C13.1133 8.25 13.2422 8.48242 13.5 8.64258C13.5 8.67383 13.6367 8.8125 13.9102 9.05859C13.9102 9.03516 13.9316 8.94922 13.9746 8.80078C13.9746 8.77734 13.6875 8.49219 13.1133 7.94531ZM5.41992 8.64258V8.70703C5.41992 8.74219 5.44141 8.80469 5.48438 8.89453L5.45508 8.95898C5.45508 9.01367 5.60352 9.17383 5.90039 9.43945V9.11719C5.90039 9.09375 5.74023 8.93555 5.41992 8.64258ZM13.2129 8.80078V8.83594L13.2773 8.92969V9.05859C13.2773 9.07812 13.2656 9.08789 13.2422 9.08789C13.2422 9.17383 13.4121 9.36523 13.752 9.66211H13.7812V9.59766L13.8164 9.375L13.2129 8.80078ZM5.51953 9.50391L5.54883 9.5625V9.66211H5.57812V9.88477C5.58594 9.91602 5.91602 10.2441 6.56836 10.8691C6.23242 10.3496 6.0625 10.0625 6.05859 10.0078L5.51953 9.50391ZM13.3359 9.69141C13.3359 9.71484 13.3262 9.72656 13.3066 9.72656C13.3066 9.98047 13.4121 10.1699 13.623 10.2949L13.6582 9.97852L13.3359 9.69141ZM5.67773 10.4238V10.4531C5.75977 10.5977 5.8125 10.7578 5.83594 10.9336L7.20117 12.2695L7.35938 12.0762L5.67773 10.4238ZM13.3359 10.4531C13.3359 10.5039 13.3262 10.5469 13.3066 10.582H13.3359C13.2969 10.6523 13.2773 10.7051 13.2773 10.7402L13.4355 10.8691H13.4648C13.4648 10.8184 13.4961 10.7656 13.5586 10.7109C13.5234 10.6133 13.4492 10.5273 13.3359 10.4531ZM6.75586 11.0566V11.0918L7.45898 11.7598L7.55273 11.502C7.37695 11.3184 7.16406 11.2129 6.91406 11.1855C6.91406 11.1582 6.86133 11.1152 6.75586 11.0566ZM6.02344 11.5371V11.6016C6.29297 12.1875 6.54883 12.4941 6.79102 12.5215H6.82031C6.87109 12.4785 6.91406 12.457 6.94922 12.457C6.94922 12.4297 6.64062 12.123 6.02344 11.5371Z" fill="#1277BF"/>
</svg>
