<svg width="159" height="167" viewBox="0 0 159 167" fill="none" xmlns="http://www.w3.org/2000/svg">
<path d="M75.9955 148.924C73.7387 154.378 70.0192 158.556 65.5475 162.296C61.7236 165.493 59.5503 166.517 54.3263 166.747C43.4814 167.227 32.4902 164.093 23.6303 157.804C10.654 148.59 4.65692 134.215 2.08673 119.026C-2.28051 93.2017 -0.190906 65.6224 12.1585 42.5143C24.508 19.4062 48.0995 1.56317 74.2611 0.100633C84.8553 -0.484383 95.5121 1.52139 105.521 5.07327C130.492 13.9321 152.746 34.3241 157.343 60.399C158.618 67.67 158.429 75.5259 154.898 82.0028C142.131 105.529 99.9629 94.2046 85.3358 116.644C79.2134 126.088 80.3209 138.52 75.9955 148.924Z" fill="#C9E7F2" fill-opacity="0.5"/>
<path d="M47.0129 94.7476C49.9174 87.1424 46.1144 78.6179 38.5292 75.7137C30.9232 72.8095 22.3977 76.6121 19.4932 84.1964C16.5887 91.8017 20.3917 100.326 27.9769 103.23C35.562 106.155 44.0875 102.353 47.0129 94.7476Z" fill="#002C44"/>
<path d="M69.9984 49.4508C72.9029 41.8455 69.0999 33.321 61.5147 30.4168C53.9086 27.5127 45.3831 31.3153 42.4786 38.8996C39.574 46.5048 43.3771 55.0293 50.9623 57.9335C58.5684 60.8586 67.073 57.056 69.9984 49.4508Z" fill="#FF7765"/>
<path d="M115.112 46.4422C118.017 38.837 114.214 30.3125 106.629 27.4083C99.0227 24.5041 90.4973 28.3067 87.5927 35.891C84.6882 43.4962 88.4913 52.0208 96.0764 54.9249C103.683 57.85 112.208 54.0474 115.112 46.4422Z" fill="#01B8C1"/>
</svg>
