<svg width="161" height="198" viewBox="0 0 161 198" fill="none" xmlns="http://www.w3.org/2000/svg">
<path d="M82.7085 69.7704C83.216 77.9536 79.1982 87.3891 74.5248 92.8734C69.2806 99.027 62.2177 102.503 54.6684 103.388L154.543 188.222C172.052 203.098 198.062 200.659 212.632 182.781C227.202 164.903 224.812 138.345 207.303 123.469L104.722 36.325C114.111 50.2948 96.94 68.8419 82.7085 69.7704Z" fill="#FD9143"/>
<path d="M95.0579 28.0986L42.2976 92.8517L16.6047 71.0226L0.596923 18.0369C-2.15211 8.92525 5.0588 -0.121629 14.3632 0.806807L69.365 6.26947L95.0579 28.0986Z" fill="#FDC0B8"/>
<path d="M25.3596 1.9081L14.3635 0.806908C5.0591 -0.121529 -2.17295 8.92535 0.59723 18.037L3.74805 28.4225L25.3596 1.9081Z" fill="#FD9143"/>
<path d="M47.3939 39.7581C47.9014 47.9413 43.8836 57.3768 39.2102 62.8611C33.9659 69.0147 26.903 72.4909 19.3537 73.3762L150.927 185.134L203.708 120.381L69.4072 6.31274C78.7751 20.2825 61.6042 38.8512 47.3939 39.7581Z" fill="#FD9143"/>
<path d="M60.2301 52.821C70.9301 61.911 81.6302 71.0011 92.3514 80.0911C93.8951 81.4082 96.1367 79.1411 94.5718 77.824C83.8717 68.734 73.1717 59.6439 62.4504 50.5539C60.9067 49.2584 58.6652 51.5039 60.2301 52.821Z" fill="white"/>
<path d="M46.4636 71.9296C85.2038 104.425 123.585 137.33 161.627 170.689C163.149 172.028 165.391 169.761 163.847 168.422C125.826 135.085 87.4242 102.158 48.684 69.6625C47.1403 68.367 44.8988 70.6125 46.4636 71.9296Z" fill="white"/>
</svg>
