<svg width="218" height="341" viewBox="0 0 218 341" fill="none" xmlns="http://www.w3.org/2000/svg">
<path d="M168.967 108.372C180.724 118.132 185.271 134.908 183.727 150.303C182.184 165.698 175.395 180.035 167.825 193.443C155.137 215.898 139.933 236.864 122.572 255.778C118.639 235.244 108.383 216.028 93.6013 201.518" fill="#FD7765"/>
<path d="M113.056 60.6981C101.552 50.6148 84.5719 49.0602 70.0232 53.357C55.4533 57.6537 42.8712 67.0244 31.3041 77.0213C11.934 93.7764 -5.55413 112.799 -20.6949 133.613C-0.204086 133.893 20.16 140.76 36.7599 153.024" fill="#FD7765"/>
<path d="M145.918 80.9294C146.869 89.0695 152.473 97.6198 158.034 102.154C164.273 107.25 171.843 109.366 179.413 108.847L96.16 210.673C81.569 228.529 55.5378 230.926 38.0497 216.006C20.5617 201.108 18.2143 174.529 32.8265 156.673L118.343 52.0615C111.618 67.5642 131.792 82.6568 145.918 80.9294Z" fill="#FDB03F"/>
<path d="M126.421 42.2157L189.754 96.1947L211.175 70.0041L217.562 14.9456C218.661 5.46685 209.949 -2.09019 200.962 0.522389L147.821 16.0251L126.421 42.2157Z" fill="#D4F3F5"/>
<path d="M190.367 3.63155L200.983 0.543965C209.97 -2.06862 218.682 5.48843 217.583 14.9671L216.335 25.7629L190.367 3.63155Z" fill="#002C44"/>
<path d="M-61 341C-58.6316 332.191 -55.5864 323.576 -51.9281 315.241C-50.0884 311.074 -48.1006 306.972 -45.9648 302.977C-44.1885 299.674 -41.3761 296.262 -40.1074 292.743C-37.6544 285.941 -50.9977 285.574 -54.7618 283.545C-59.0334 281.234 -57.7646 278.255 -55.8403 274.455C-51.9493 266.811 -47.149 259.621 -41.2281 253.489C-28.1173 239.865 -8.19744 231.79 9.73469 237.274C13.1816 238.332 17.2205 240.189 18.9757 243.644C24.4314 254.439 28.8933 265.602 25.9963 278.104C23.9874 286.762 19.1026 294.449 13.52 301.25C-4.96196 323.727 -32.3466 338.366 -61 341Z" fill="#FD7765"/>
<path d="M-26.8274 297.148C-25.4106 291.901 -23.6132 286.762 -21.4351 281.818C-20.3355 279.335 -19.1513 276.895 -17.8825 274.52C-16.8252 272.555 -15.1545 270.525 -14.3933 268.431C-12.9342 264.372 -20.8852 264.177 -23.1056 262.947C-25.6432 261.565 -24.9031 259.794 -23.7401 257.527C-21.414 252.993 -18.5591 248.696 -15.0488 245.047C-7.24577 236.929 4.61731 232.135 15.2751 235.396C17.3263 236.022 19.7371 237.145 20.7733 239.196C24.0298 245.63 26.6731 252.259 24.9602 259.708C23.7549 264.847 20.8578 269.424 17.5378 273.483C6.52051 286.87 -9.78336 295.593 -26.8274 297.148Z" fill="#FDB03F"/>
<path d="M175.374 44.9147C176.326 53.0547 181.93 61.6049 187.491 66.1392C193.729 71.2348 201.3 73.3508 208.87 72.8326L99.1839 206.981L35.8506 153.002L147.8 16.0684C141.054 31.5495 161.227 46.642 175.374 44.9147Z" fill="#01B8C1"/>
<path d="M164.865 60.3526C155.941 71.2564 147.017 82.1817 138.093 93.0855C136.803 94.6617 134.583 92.3946 135.873 90.8184C144.797 79.9146 153.721 68.9893 162.644 58.0855C163.955 56.5093 166.155 58.798 164.865 60.3526Z" fill="white"/>
<path d="M181.782 76.6111C149.428 115.692 117.476 155.14 85.9464 194.954C84.6776 196.552 82.4571 194.285 83.7259 192.687C115.255 152.894 147.186 113.446 179.561 74.344C180.873 72.7678 183.072 75.0565 181.782 76.6111Z" fill="white"/>
</svg>
