<svg width="566" height="398" viewBox="0 0 566 398" fill="none" xmlns="http://www.w3.org/2000/svg">
<path fill-rule="evenodd" clip-rule="evenodd" d="M50.1521 112.477C50.1521 121.205 51.165 129.7 53.0815 137.855C35.1212 154.252 23.8815 177.68 23.8815 203.692C23.8815 206.409 24.0041 209.097 24.2441 211.752C9.05605 230.809 0 254.825 0 280.923C0 342.873 51.027 393.093 113.972 393.093C134.559 393.093 153.87 387.721 170.539 378.324C181.862 390.147 197.921 397.527 215.732 397.527C222.392 397.527 228.806 396.496 234.82 394.586C244.879 396.623 255.297 397.693 265.968 397.693C294.036 397.693 320.346 390.29 342.994 377.36C359.667 389.919 380.514 397.382 403.132 397.382C443.68 397.382 478.537 373.399 493.856 339.06C534.44 334.628 566 300.76 566 259.637C566 221.619 539.026 189.801 502.885 181.712C503.557 177.358 503.906 172.9 503.906 168.362C503.906 119.683 463.81 80.2215 414.349 80.2215C410.16 80.2215 406.039 80.5045 402.003 81.0521C393.945 35.1897 353.321 0.306824 304.419 0.306824C278.417 0.306824 254.755 10.1691 237.085 26.3002C217.318 10.0713 191.879 0.306824 164.124 0.306824C101.179 0.306824 50.1521 50.5269 50.1521 112.477Z" fill="white"/>
</svg>
