<svg width="1216" height="60" viewBox="0 0 1216 60" fill="none" xmlns="http://www.w3.org/2000/svg">
<g clip-path="url(#clip0_57_349)">
<path d="M461.799 25.12C461.999 25.44 462.159 25.96 462.279 26.68C462.399 27.36 462.459 28.04 462.459 28.72C462.459 29.56 462.359 30.16 462.159 30.52C462.319 30.96 462.399 31.4 462.399 31.84C462.399 32.6 462.119 33.34 461.559 34.06C461.639 34.74 461.519 35.42 461.199 36.1C460.879 36.78 460.419 37.34 459.819 37.78C459.939 38.06 459.999 38.34 459.999 38.62C459.999 39.22 459.799 39.82 459.399 40.42C459.039 40.98 458.579 41.46 458.019 41.86C457.979 42.5 457.739 43.04 457.299 43.48C456.899 43.88 456.279 44.24 455.439 44.56C455.319 45.12 455.139 45.5 454.899 45.7C454.659 45.9 454.359 46.06 453.999 46.18C453.679 46.3 453.419 46.4 453.219 46.48C453.059 46.84 452.559 47.18 451.719 47.5C450.919 47.78 450.339 47.88 449.979 47.8C449.819 48.12 449.459 48.4 448.899 48.64C448.379 48.88 447.799 49 447.159 49C446.399 49 445.779 48.84 445.299 48.52C444.899 48.6 444.559 48.64 444.279 48.64C443.439 48.64 442.559 48.48 441.639 48.16C440.719 47.8 440.059 47.34 439.659 46.78C438.819 46.86 437.899 46.52 436.899 45.76C435.939 44.96 435.419 44.18 435.339 43.42C434.859 43.42 434.299 42.98 433.659 42.1C433.059 41.18 432.759 40.3 432.759 39.46C432.759 39.14 432.819 38.84 432.939 38.56C432.459 38.36 432.059 38.06 431.739 37.66C431.459 37.26 431.319 36.82 431.319 36.34C431.319 36.06 431.379 35.78 431.499 35.5C431.219 35.26 430.979 34.9 430.779 34.42C430.579 33.9 430.479 33.4 430.479 32.92C430.479 32.68 430.519 32.44 430.599 32.2C430.359 31.72 430.239 31.14 430.239 30.46C430.239 29.86 430.339 29.44 430.539 29.2C430.339 28.92 430.179 28.54 430.059 28.06C429.939 27.54 429.879 27.02 429.879 26.5C429.879 25.86 429.979 25.34 430.179 24.94C429.899 24.5 429.759 23.98 429.759 23.38C429.759 22.98 429.839 22.6 429.999 22.24C430.159 21.84 430.339 21.58 430.539 21.46C430.419 21.1 430.359 20.74 430.359 20.38C430.359 19.46 430.759 18.72 431.559 18.16C431.559 17.16 431.799 16.56 432.279 16.36C432.119 16.08 432.219 15.64 432.579 15.04C432.939 14.4 433.299 14.08 433.659 14.08C433.819 13.44 434.099 12.86 434.499 12.34C434.939 11.82 435.419 11.54 435.939 11.5C436.139 10.66 436.719 9.86 437.679 9.1C438.679 8.34 439.619 7.98 440.499 8.02C440.659 7.46 441.079 7.02 441.759 6.7C442.439 6.38 443.159 6.22 443.919 6.22C444.799 6.22 445.439 6.42 445.839 6.82C446.039 6.58 446.359 6.38 446.799 6.22C447.279 6.02 447.779 5.92 448.299 5.92C449.099 5.92 449.779 6.14 450.339 6.58C450.699 6.42 451.079 6.34 451.479 6.34C451.999 6.34 452.419 6.46 452.739 6.7C453.059 6.94 453.239 7.26 453.279 7.66C453.759 7.5 454.279 7.64 454.839 8.08C455.439 8.48 455.799 9 455.919 9.64C456.359 9.52 456.799 9.62 457.239 9.94C457.719 10.22 458.079 10.6 458.319 11.08C458.559 11.56 458.599 11.98 458.439 12.34C458.799 12.58 459.099 12.9 459.339 13.3C459.619 13.66 459.759 14.08 459.759 14.56C459.759 14.92 459.659 15.34 459.459 15.82C460.019 16.06 460.439 16.46 460.719 17.02C461.039 17.58 461.199 18.18 461.199 18.82C461.199 19.1 461.179 19.32 461.139 19.48C461.459 19.92 461.719 20.48 461.919 21.16C462.119 21.8 462.219 22.46 462.219 23.14C462.219 23.94 462.079 24.6 461.799 25.12ZM451.899 41.68C451.979 41.24 452.259 40.8 452.739 40.36C453.219 39.88 453.679 39.66 454.119 39.7C454.159 39.34 454.379 38.66 454.779 37.66C455.219 36.66 455.579 36.1 455.859 35.98C455.819 35.86 455.799 35.64 455.799 35.32C455.799 34.56 455.919 33.76 456.159 32.92C456.439 32.04 456.759 31.56 457.119 31.48C456.879 31.04 456.759 30.58 456.759 30.1C456.759 29.42 457.039 28.48 457.599 27.28C457.399 26.92 457.199 26.44 456.999 25.84C456.799 25.2 456.699 24.64 456.699 24.16C456.699 23.76 456.779 23.48 456.939 23.32C456.699 22.92 456.579 22.34 456.579 21.58C456.219 20.78 456.019 20.18 455.979 19.78C455.419 19.54 454.959 19.04 454.599 18.28C454.239 17.48 454.119 16.78 454.239 16.18C453.879 15.86 453.639 15.5 453.519 15.1C453.119 14.94 452.799 14.72 452.559 14.44C452.359 14.16 452.159 13.76 451.959 13.24L451.299 13.3C450.619 13.3 449.979 13.2 449.379 13C448.779 12.76 448.339 12.42 448.059 11.98C447.299 12.26 446.559 12.4 445.839 12.4C445.159 12.4 444.399 12.26 443.559 11.98C443.359 12.66 442.979 13.18 442.419 13.54C441.899 13.86 441.319 14 440.679 13.96C440.479 14.36 440.119 14.82 439.599 15.34C439.119 15.82 438.659 16.14 438.219 16.3C438.219 16.66 438.039 17.04 437.679 17.44C437.359 17.84 437.159 18.1 437.079 18.22C437.119 18.34 437.139 18.52 437.139 18.76C437.139 19.48 436.839 20.02 436.239 20.38C436.239 20.94 436.059 21.48 435.699 22C435.739 22.08 435.759 22.2 435.759 22.36C435.759 22.76 435.599 23.2 435.279 23.68C435.559 24 435.699 24.42 435.699 24.94C435.699 25.54 435.539 26.02 435.219 26.38C435.739 26.98 435.999 27.64 435.999 28.36C435.999 28.76 435.899 29.2 435.699 29.68C436.179 30.16 436.419 30.84 436.419 31.72C436.419 32.24 436.299 32.68 436.059 33.04C436.499 33.48 436.719 34 436.719 34.6C436.719 34.92 436.659 35.2 436.539 35.44C436.939 35.64 437.259 35.94 437.499 36.34C437.739 36.7 437.859 37.08 437.859 37.48C437.859 37.6 437.819 37.82 437.739 38.14C438.379 38.46 438.959 38.92 439.479 39.52C439.999 40.12 440.279 40.76 440.319 41.44C440.799 41.28 441.499 41.5 442.419 42.1C443.379 42.7 443.979 43.24 444.219 43.72C444.619 43.4 445.419 43.24 446.619 43.24C447.579 43.24 448.299 43.34 448.779 43.54C449.059 43.14 449.539 42.74 450.219 42.34C450.899 41.94 451.459 41.72 451.899 41.68ZM476.965 47.98C476.525 48.14 476.105 48.22 475.705 48.22C475.145 48.22 474.685 48.02 474.325 47.62C473.885 47.66 473.385 47.48 472.825 47.08C472.305 46.64 471.985 46.22 471.865 45.82C471.385 45.7 470.945 45.44 470.545 45.04C470.185 44.6 469.945 44.06 469.825 43.42C469.345 43.3 468.945 42.98 468.625 42.46C468.345 41.9 468.205 41.26 468.205 40.54C468.205 40.1 468.265 39.68 468.385 39.28C468.105 38.84 468.005 38.28 468.085 37.6C467.525 37.12 467.245 36.56 467.245 35.92C467.245 35.6 467.305 35.3 467.425 35.02C467.185 34.66 467.065 34.24 467.065 33.76C467.065 33.16 467.245 32.62 467.605 32.14C467.045 31.66 466.765 31.06 466.765 30.34C466.765 29.9 466.885 29.52 467.125 29.2C466.765 28.68 466.585 28.06 466.585 27.34C466.585 26.78 466.705 26.36 466.945 26.08C466.545 25.76 466.345 25.28 466.345 24.64C466.345 24.24 466.465 23.8 466.705 23.32C466.505 23 466.405 22.54 466.405 21.94C466.405 21.06 466.645 20.38 467.125 19.9C467.005 19.54 466.945 19.2 466.945 18.88C466.945 18.16 467.185 17.6 467.665 17.2C468.185 16.76 468.785 16.54 469.465 16.54C470.145 16.54 470.725 16.76 471.205 17.2C471.725 17.64 471.985 18.28 471.985 19.12C471.985 19.76 471.845 20.44 471.565 21.16C472.125 21.64 472.405 22.26 472.405 23.02C472.405 23.58 472.225 24.08 471.865 24.52C472.105 24.96 472.225 25.54 472.225 26.26C472.225 27.02 472.105 27.64 471.865 28.12C472.225 28.6 472.405 29.34 472.405 30.34C472.405 31.02 472.365 31.48 472.285 31.72C472.605 32.08 472.765 32.54 472.765 33.1C472.765 33.42 472.685 33.78 472.525 34.18C472.925 34.62 473.125 35.22 473.125 35.98C473.125 36.22 473.085 36.46 473.005 36.7C473.165 36.82 473.305 37.04 473.425 37.36C473.545 37.64 473.605 37.94 473.605 38.26C473.605 38.66 473.505 39 473.305 39.28C473.625 39.32 473.845 39.54 473.965 39.94C474.085 40.3 474.105 40.66 474.025 41.02H474.085C474.365 41.02 474.605 41.18 474.805 41.5C475.045 41.78 475.125 42.04 475.045 42.28C475.165 42.2 475.345 42.16 475.585 42.16C475.905 42.16 476.185 42.24 476.425 42.4C476.705 42.52 476.905 42.68 477.025 42.88C477.825 42.44 478.585 42.22 479.305 42.22C479.665 42.22 479.985 42.28 480.265 42.4C480.625 42.12 481.085 41.88 481.645 41.68C482.245 41.44 482.765 41.32 483.205 41.32C483.405 41.32 483.585 41.36 483.745 41.44C483.465 41 483.325 40.44 483.325 39.76C483.325 39 483.565 38.52 484.045 38.32C483.765 38 483.625 37.32 483.625 36.28C483.625 35.04 483.885 34.16 484.405 33.64C484.045 33.04 483.865 32.38 483.865 31.66C483.865 31.02 483.985 30.58 484.225 30.34C483.985 30.02 483.865 29.62 483.865 29.14C483.865 28.66 483.945 28.16 484.105 27.64C484.305 27.08 484.545 26.64 484.825 26.32C484.305 25.96 484.045 25.18 484.045 23.98C484.045 23.22 484.105 22.6 484.225 22.12C483.865 21.32 483.685 20.64 483.685 20.08C483.685 19.36 483.925 18.78 484.405 18.34C484.885 17.9 485.445 17.68 486.085 17.68C486.845 17.68 487.485 17.98 488.005 18.58C488.565 19.18 488.825 20.04 488.785 21.16C488.985 21.36 489.145 21.68 489.265 22.12C489.425 22.52 489.505 22.94 489.505 23.38C489.505 24.26 489.285 24.88 488.845 25.24C489.565 26.12 489.925 26.98 489.925 27.82C489.925 28.38 489.765 28.84 489.445 29.2C489.765 29.64 489.925 30.12 489.925 30.64C489.925 31.16 489.785 31.7 489.505 32.26C489.745 32.62 489.865 33.02 489.865 33.46C489.865 34.18 489.565 34.8 488.965 35.32C489.365 35.76 489.565 36.28 489.565 36.88C489.565 37.52 489.305 38.24 488.785 39.04C489.185 39.28 489.385 39.78 489.385 40.54C489.385 41.3 489.225 42.08 488.905 42.88C489.225 43.32 489.385 43.9 489.385 44.62C489.385 45.06 489.305 45.42 489.145 45.7C489.225 46.1 489.265 46.4 489.265 46.6C489.265 47.36 489.025 47.96 488.545 48.4C488.105 48.8 487.565 49 486.925 49C486.365 49 485.865 48.82 485.425 48.46C484.985 48.06 484.725 47.5 484.645 46.78C484.605 46.74 484.545 46.68 484.465 46.6C484.425 46.48 484.385 46.38 484.345 46.3C483.665 46.7 483.045 46.9 482.485 46.9C482.285 46.9 482.125 46.88 482.005 46.84C481.485 47.2 480.985 47.38 480.505 47.38C480.105 47.38 479.725 47.3 479.365 47.14C479.205 47.42 478.945 47.64 478.585 47.8C478.265 47.96 477.905 48.04 477.505 48.04C477.265 48.04 477.085 48.02 476.965 47.98ZM499.821 46.18C499.981 47.06 499.801 47.76 499.281 48.28C498.801 48.76 498.201 49 497.481 49C496.841 49 496.281 48.8 495.801 48.4C495.321 47.96 495.081 47.36 495.081 46.6C495.081 46.12 495.201 45.58 495.441 44.98C495.201 44.42 495.081 43.84 495.081 43.24C495.081 42.76 495.181 42.36 495.381 42.04C495.141 41.88 494.961 41.64 494.841 41.32C494.721 41 494.661 40.64 494.661 40.24C494.661 39.84 494.741 39.4 494.901 38.92C494.541 38.48 494.361 37.96 494.361 37.36C494.361 36.6 494.641 35.98 495.201 35.5C495.161 35.38 495.141 35.18 495.141 34.9C495.141 34.5 495.181 34.22 495.261 34.06C494.821 33.5 494.601 32.7 494.601 31.66C494.601 30.94 494.741 30.38 495.021 29.98C494.741 29.74 494.501 29.42 494.301 29.02C494.101 28.58 494.001 28.14 494.001 27.7C494.001 27.22 494.141 26.76 494.421 26.32C494.221 25.84 494.121 25.42 494.121 25.06C494.121 24.46 494.301 23.9 494.661 23.38C494.181 22.9 493.941 22.4 493.941 21.88C493.941 21.48 494.081 20.94 494.361 20.26C494.081 19.7 493.941 19.1 493.941 18.46C493.941 17.62 494.241 17.1 494.841 16.9C494.881 16.34 495.081 15.88 495.441 15.52C495.801 15.16 496.241 14.98 496.761 14.98C497.361 14.98 497.881 15.28 498.321 15.88C498.801 16.44 499.041 17.26 499.041 18.34C499.041 18.78 499.021 19.14 498.981 19.42C499.141 19.34 499.301 19.22 499.461 19.06C499.621 18.86 499.821 18.72 500.061 18.64C500.301 18.56 500.661 18.52 501.141 18.52C501.221 18.32 501.481 18.12 501.921 17.92C502.401 17.72 502.861 17.62 503.301 17.62C503.621 17.62 503.841 17.66 503.961 17.74C504.281 17.58 504.601 17.5 504.921 17.5C505.401 17.5 505.921 17.84 506.481 18.52C507.441 18.44 508.141 18.66 508.581 19.18C509.221 19.14 509.781 19.22 510.261 19.42C510.741 19.62 511.121 20.04 511.401 20.68C512.161 21.16 512.541 21.8 512.541 22.6C512.541 23.28 512.241 23.92 511.641 24.52C511.081 25.08 510.461 25.36 509.781 25.36C509.021 25.36 508.381 24.96 507.861 24.16C507.421 24.16 507.081 24.12 506.841 24.04C506.601 23.96 506.361 23.78 506.121 23.5C505.881 23.58 505.681 23.62 505.521 23.62C505.161 23.62 504.781 23.52 504.381 23.32C503.821 23.68 503.221 23.84 502.581 23.8C502.341 24.36 501.721 24.64 500.721 24.64C500.761 24.76 500.781 24.96 500.781 25.24C500.781 25.76 500.661 26.28 500.421 26.8C500.221 27.28 499.961 27.64 499.641 27.88C499.961 28.64 500.121 29.4 500.121 30.16C500.121 30.84 499.961 31.36 499.641 31.72C499.761 31.88 499.881 32.08 500.001 32.32C500.161 32.56 500.281 32.78 500.361 32.98C500.441 33.3 500.481 33.54 500.481 33.7C500.481 33.98 500.381 34.36 500.181 34.84C500.381 35.32 500.481 35.68 500.481 35.92C500.481 36.24 500.341 36.68 500.061 37.24C500.301 37.64 500.421 38.08 500.421 38.56C500.421 39.12 500.281 39.6 500.001 40C500.281 40.64 500.421 41.3 500.421 41.98C500.421 42.5 500.301 42.98 500.061 43.42C500.261 43.82 500.361 44.22 500.361 44.62C500.361 45.18 500.181 45.7 499.821 46.18ZM544.054 47.68C543.694 48.12 543.214 48.46 542.614 48.7C542.014 48.9 541.394 49 540.754 49C539.954 49 539.394 48.86 539.074 48.58C538.794 48.7 538.494 48.76 538.174 48.76C537.414 48.76 536.774 48.5 536.254 47.98C535.774 48.18 535.354 48.28 534.994 48.28C534.354 48.28 533.714 48.12 533.074 47.8C532.474 47.44 532.054 47.02 531.814 46.54C531.054 46.62 530.294 46.4 529.534 45.88C528.814 45.32 528.394 44.68 528.274 43.96C527.074 43.44 526.254 42.04 525.814 39.76C525.574 39.56 525.394 39.26 525.274 38.86C525.154 38.46 525.094 38.06 525.094 37.66C525.094 37.38 525.114 37.18 525.154 37.06C524.474 35.7 524.134 34.3 524.134 32.86C524.134 31.54 524.414 30.46 524.974 29.62C524.894 29.22 524.854 28.92 524.854 28.72C524.854 28.04 525.014 27.4 525.334 26.8C525.654 26.16 526.054 25.7 526.534 25.42C526.454 25.22 526.414 24.94 526.414 24.58C526.414 23.94 526.614 23.36 527.014 22.84C527.454 22.28 527.874 21.94 528.274 21.82C528.434 21.26 528.814 20.74 529.414 20.26C530.054 19.74 530.714 19.5 531.394 19.54C532.194 18.34 532.994 17.8 533.794 17.92C534.154 17.44 534.634 17.1 535.234 16.9C535.874 16.7 536.454 16.62 536.974 16.66C537.374 16.38 537.814 16.24 538.294 16.24C538.774 16.24 539.254 16.36 539.734 16.6C540.054 16.36 540.494 16.24 541.054 16.24C541.454 16.24 541.834 16.3 542.194 16.42C542.554 16.54 542.794 16.68 542.914 16.84C543.234 16.76 543.574 16.84 543.934 17.08C544.294 17.28 544.514 17.54 544.594 17.86C545.274 17.86 545.854 18.08 546.334 18.52C546.854 18.92 547.234 19.4 547.474 19.96C547.754 20.48 547.874 20.88 547.834 21.16C548.514 21.48 548.994 22 549.274 22.72C549.554 23.36 549.694 23.92 549.694 24.4C549.694 25.2 549.394 25.82 548.794 26.26C548.394 26.54 547.974 26.68 547.534 26.68C546.814 26.68 546.114 26.38 545.434 25.78C544.794 25.18 544.374 24.44 544.174 23.56C543.654 23.48 543.154 23.3 542.674 23.02C542.194 22.7 541.814 22.36 541.534 22C541.414 22.04 541.114 22.06 540.634 22.06C540.194 22.06 539.894 22.04 539.734 22C539.374 22.36 538.974 22.54 538.534 22.54C538.094 22.54 537.674 22.4 537.274 22.12C536.754 22.92 535.994 23.32 534.994 23.32C534.474 24.04 534.014 24.6 533.614 25C533.214 25.36 532.674 25.5 531.994 25.42C532.034 25.54 532.054 25.72 532.054 25.96C532.054 26.44 531.934 26.86 531.694 27.22C531.454 27.58 531.174 27.92 530.854 28.24C530.574 28.52 530.354 28.74 530.194 28.9C530.394 29.5 530.494 30.06 530.494 30.58C530.494 31.5 530.214 32.6 529.654 33.88C529.854 34.16 530.014 34.56 530.134 35.08C530.294 35.56 530.374 36.04 530.374 36.52C530.374 36.8 530.354 37 530.314 37.12C530.594 37.32 530.834 37.66 531.034 38.14C531.274 38.62 531.394 39.08 531.394 39.52C532.394 39.84 533.214 40.3 533.854 40.9C534.534 41.5 534.874 42.06 534.874 42.58C535.314 42.22 535.794 42.04 536.314 42.04C536.794 42.04 537.254 42.16 537.694 42.4C538.174 42.64 538.534 42.96 538.774 43.36C538.974 43.32 539.214 43.3 539.494 43.3C540.094 43.3 540.614 43.5 541.054 43.9C541.214 43.58 541.614 43.24 542.254 42.88C542.894 42.52 543.414 42.36 543.814 42.4C544.054 42 544.374 41.7 544.774 41.5C545.214 41.3 545.674 41.2 546.154 41.2C546.474 41.2 546.694 41.22 546.814 41.26C547.334 40.62 548.034 40.3 548.914 40.3C549.674 40.3 550.334 40.56 550.894 41.08C551.454 41.6 551.734 42.24 551.734 43C551.734 43.88 551.354 44.62 550.594 45.22C549.874 45.78 549.054 46.06 548.134 46.06C547.774 46.06 547.514 46.04 547.354 46C547.674 46.08 547.634 46.26 547.234 46.54C546.874 46.82 546.354 47.1 545.674 47.38C544.994 47.62 544.454 47.72 544.054 47.68ZM571.343 48.28C570.863 48.76 570.123 49 569.123 49C568.363 49 567.743 48.88 567.263 48.64C566.543 48.8 565.903 48.88 565.343 48.88C563.783 48.88 562.663 48.48 561.983 47.68C561.823 47.72 561.603 47.74 561.323 47.74C560.403 47.74 559.703 47.32 559.223 46.48C558.823 46.52 558.303 46.32 557.663 45.88C557.063 45.4 556.803 44.94 556.883 44.5C556.243 44.34 555.703 43.96 555.263 43.36C554.863 42.72 554.683 42 554.723 41.2C554.283 41.04 553.943 40.72 553.703 40.24C553.463 39.76 553.343 39.22 553.343 38.62C553.343 37.98 553.443 37.52 553.643 37.24C553.203 36.56 552.983 35.78 552.983 34.9C552.983 33.98 553.263 33.24 553.823 32.68C553.383 32.36 553.163 31.88 553.163 31.24C553.163 30.84 553.263 30.44 553.463 30.04C553.663 29.64 553.923 29.36 554.243 29.2C554.163 28.64 554.223 28.12 554.423 27.64C554.663 27.12 554.983 26.74 555.383 26.5C555.303 26.38 555.263 26.2 555.263 25.96C555.263 25.6 555.383 25.24 555.623 24.88C555.903 24.52 556.203 24.3 556.523 24.22C556.483 24.1 556.463 23.94 556.463 23.74C556.463 22.9 556.783 22.18 557.423 21.58C558.063 20.94 558.683 20.66 559.283 20.74C559.283 20.18 559.523 19.72 560.003 19.36C560.523 18.96 561.183 18.76 561.983 18.76C562.343 18.76 562.623 18.78 562.823 18.82C563.103 18.22 563.583 17.74 564.263 17.38C564.943 16.98 565.643 16.78 566.363 16.78C566.843 16.78 567.243 16.88 567.563 17.08C568.123 16.6 568.823 16.36 569.663 16.36C570.343 16.36 570.943 16.52 571.463 16.84C572.023 17.16 572.363 17.6 572.483 18.16C573.123 18.16 573.803 18.4 574.523 18.88C575.243 19.32 575.663 19.78 575.783 20.26C576.743 20.54 577.663 21.16 578.543 22.12C579.463 23.04 579.923 23.98 579.923 24.94C579.923 25.1 579.883 25.34 579.803 25.66C581.523 26.02 582.303 27.76 582.143 30.88C582.503 31.48 582.683 32.12 582.683 32.8C582.683 33.6 582.423 34.4 581.903 35.2C582.023 35.56 582.083 35.9 582.083 36.22C582.083 36.7 581.983 37.16 581.783 37.6C581.583 38.04 581.323 38.38 581.003 38.62C581.043 39.26 580.923 39.78 580.643 40.18C580.403 40.58 579.943 41.12 579.263 41.8C579.303 41.96 579.323 42.2 579.323 42.52C579.323 43.72 578.643 44.5 577.283 44.86C577.163 45.5 576.823 46.02 576.263 46.42C575.743 46.82 575.103 47.02 574.343 47.02C573.703 47.9 572.923 48.34 572.003 48.34C571.723 48.34 571.503 48.32 571.343 48.28ZM565.703 44.08C566.023 43.8 566.563 43.66 567.323 43.66C567.883 43.66 568.183 43.74 568.223 43.9C568.543 43.54 568.943 43.26 569.423 43.06C569.903 42.86 570.343 42.78 570.743 42.82C571.423 42.14 572.163 41.8 572.963 41.8C573.243 41.8 573.443 41.82 573.563 41.86C573.523 41.5 573.623 41.16 573.863 40.84C574.103 40.48 574.383 40.24 574.703 40.12C574.703 39.6 574.823 39.16 575.063 38.8C575.343 38.4 575.683 38.1 576.083 37.9C576.083 37.1 576.243 36.46 576.563 35.98C576.443 35.66 576.383 35.34 576.383 35.02C576.383 34.58 576.483 34.16 576.683 33.76C576.883 33.32 577.163 32.96 577.523 32.68C577.123 32.32 576.923 31.88 576.923 31.36C576.923 30.88 577.063 30.4 577.343 29.92C576.543 29.44 576.003 28.98 575.723 28.54C575.483 28.06 575.363 27.2 575.363 25.96C575.003 26 574.623 25.8 574.223 25.36C573.863 24.92 573.643 24.42 573.563 23.86C573.123 23.98 572.583 23.86 571.943 23.5C571.343 23.1 571.043 22.6 571.043 22C570.723 22.16 570.343 22.24 569.903 22.24C569.063 22.24 568.383 21.94 567.863 21.34C567.423 21.78 566.843 22.14 566.123 22.42C565.443 22.66 564.843 22.74 564.323 22.66C564.283 23.06 563.923 23.54 563.243 24.1C562.603 24.62 562.023 24.96 561.503 25.12C561.623 25.36 561.683 25.64 561.683 25.96C561.683 26.36 561.583 26.76 561.383 27.16C561.183 27.56 560.903 27.9 560.543 28.18C560.583 28.74 560.443 29.28 560.123 29.8C559.843 30.32 559.443 30.68 558.923 30.88C559.003 31.2 559.043 31.46 559.043 31.66C559.043 32.22 558.903 32.66 558.623 32.98C558.743 33.26 558.803 33.54 558.803 33.82C558.803 34.26 558.583 34.74 558.143 35.26C559.143 35.94 559.643 36.92 559.643 38.2C559.643 38.88 559.523 39.46 559.283 39.94C559.683 39.98 559.963 40.1 560.123 40.3C560.283 40.5 560.423 40.82 560.543 41.26C561.543 41.38 562.283 41.86 562.763 42.7C563.203 42.7 563.743 42.84 564.383 43.12C565.063 43.4 565.503 43.72 565.703 44.08ZM590.969 46.18C591.129 47.06 590.949 47.76 590.429 48.28C589.949 48.76 589.349 49 588.629 49C587.989 49 587.429 48.8 586.949 48.4C586.469 47.96 586.229 47.36 586.229 46.6C586.229 46.12 586.349 45.58 586.589 44.98C586.349 44.42 586.229 43.84 586.229 43.24C586.229 42.76 586.329 42.36 586.529 42.04C586.289 41.88 586.109 41.64 585.989 41.32C585.869 41 585.809 40.64 585.809 40.24C585.809 39.84 585.889 39.4 586.049 38.92C585.689 38.48 585.509 37.96 585.509 37.36C585.509 36.6 585.789 35.98 586.349 35.5C586.309 35.38 586.289 35.18 586.289 34.9C586.289 34.5 586.329 34.22 586.409 34.06C585.969 33.5 585.749 32.7 585.749 31.66C585.749 30.94 585.889 30.38 586.169 29.98C585.889 29.74 585.649 29.42 585.449 29.02C585.249 28.58 585.149 28.14 585.149 27.7C585.149 27.22 585.289 26.76 585.569 26.32C585.369 25.84 585.269 25.42 585.269 25.06C585.269 24.46 585.449 23.9 585.809 23.38C585.329 22.9 585.089 22.4 585.089 21.88C585.089 21.48 585.229 20.94 585.509 20.26C585.229 19.7 585.089 19.1 585.089 18.46C585.089 17.62 585.389 17.1 585.989 16.9C586.029 16.34 586.229 15.88 586.589 15.52C586.949 15.16 587.389 14.98 587.909 14.98C588.509 14.98 589.029 15.28 589.469 15.88C589.949 16.44 590.189 17.26 590.189 18.34C590.189 18.78 590.169 19.14 590.129 19.42C590.289 19.34 590.449 19.22 590.609 19.06C590.769 18.86 590.969 18.72 591.209 18.64C591.449 18.56 591.809 18.52 592.289 18.52C592.369 18.32 592.629 18.12 593.069 17.92C593.549 17.72 594.009 17.62 594.449 17.62C594.769 17.62 594.989 17.66 595.109 17.74C595.429 17.58 595.749 17.5 596.069 17.5C596.549 17.5 597.069 17.84 597.629 18.52C598.589 18.44 599.289 18.66 599.729 19.18C600.369 19.14 600.929 19.22 601.409 19.42C601.889 19.62 602.269 20.04 602.549 20.68C603.309 21.16 603.689 21.8 603.689 22.6C603.689 23.28 603.389 23.92 602.789 24.52C602.229 25.08 601.609 25.36 600.929 25.36C600.169 25.36 599.529 24.96 599.009 24.16C598.569 24.16 598.229 24.12 597.989 24.04C597.749 23.96 597.509 23.78 597.269 23.5C597.029 23.58 596.829 23.62 596.669 23.62C596.309 23.62 595.929 23.52 595.529 23.32C594.969 23.68 594.369 23.84 593.729 23.8C593.489 24.36 592.869 24.64 591.869 24.64C591.909 24.76 591.929 24.96 591.929 25.24C591.929 25.76 591.809 26.28 591.569 26.8C591.369 27.28 591.109 27.64 590.789 27.88C591.109 28.64 591.269 29.4 591.269 30.16C591.269 30.84 591.109 31.36 590.789 31.72C590.909 31.88 591.029 32.08 591.149 32.32C591.309 32.56 591.429 32.78 591.509 32.98C591.589 33.3 591.629 33.54 591.629 33.7C591.629 33.98 591.529 34.36 591.329 34.84C591.529 35.32 591.629 35.68 591.629 35.92C591.629 36.24 591.489 36.68 591.209 37.24C591.449 37.64 591.569 38.08 591.569 38.56C591.569 39.12 591.429 39.6 591.149 40C591.429 40.64 591.569 41.3 591.569 41.98C591.569 42.5 591.449 42.98 591.209 43.42C591.409 43.82 591.509 44.22 591.509 44.62C591.509 45.18 591.329 45.7 590.969 46.18ZM628.943 25.54C629.383 25.74 629.783 26.22 630.143 26.98C630.543 27.74 630.743 28.52 630.743 29.32C630.743 30.68 630.143 31.6 628.943 32.08C628.623 32.64 628.183 33.08 627.623 33.4C627.103 33.72 626.523 33.88 625.883 33.88C625.363 33.88 624.823 33.76 624.263 33.52C623.943 33.72 623.503 33.9 622.943 34.06C622.383 34.22 621.823 34.3 621.263 34.3C620.303 34.3 619.643 34.1 619.283 33.7C618.883 34.02 618.243 34.18 617.363 34.18C616.723 34.18 616.143 34.06 615.623 33.82C615.063 34.1 614.423 34.24 613.703 34.24C613.023 34.24 612.463 34.14 612.023 33.94C611.623 34.3 610.803 34.48 609.563 34.48C608.883 34.48 608.423 34.42 608.183 34.3C608.303 35.46 608.143 36.32 607.703 36.88C608.463 37.64 608.763 38.46 608.603 39.34C608.643 39.38 608.863 39.54 609.263 39.82C609.663 40.1 609.943 40.56 610.103 41.2C610.543 41.2 610.943 41.38 611.303 41.74C611.703 42.1 611.943 42.46 612.023 42.82C612.183 42.66 612.503 42.58 612.983 42.58C613.343 42.58 613.663 42.64 613.943 42.76C614.223 42.88 614.383 43.02 614.423 43.18C614.703 43.02 615.023 42.94 615.383 42.94C615.903 42.94 616.383 43.12 616.823 43.48C617.223 43.4 617.523 43.36 617.723 43.36C618.123 43.36 618.463 43.42 618.743 43.54C618.863 43.22 619.183 42.92 619.703 42.64C620.223 42.32 620.763 42.18 621.323 42.22C621.643 41.82 622.083 41.5 622.643 41.26C623.203 41.02 623.763 40.9 624.323 40.9C625.403 40.9 626.183 41.34 626.663 42.22C626.823 42.54 626.903 42.92 626.903 43.36C626.903 44.32 626.463 45.08 625.583 45.64C625.383 45.76 625.043 45.98 624.563 46.3C624.083 46.58 623.643 46.8 623.243 46.96C622.843 47.12 622.483 47.2 622.163 47.2C621.563 47.92 620.743 48.28 619.703 48.28C619.223 48.28 618.863 48.24 618.623 48.16C618.143 48.56 617.443 48.76 616.523 48.76C615.683 48.76 615.103 48.6 614.783 48.28C614.503 48.4 614.223 48.46 613.943 48.46C613.383 48.46 612.863 48.26 612.383 47.86C610.343 47.98 608.963 47.34 608.243 45.94C607.683 45.94 607.043 45.6 606.323 44.92C605.643 44.2 605.263 43.58 605.183 43.06C604.263 42.7 603.683 42.04 603.443 41.08C603.403 40.76 603.403 40.46 603.443 40.18C603.283 40.14 603.143 39.98 603.023 39.7C602.943 39.38 602.903 39.06 602.903 38.74C602.903 38.5 602.923 38.34 602.963 38.26C602.643 37.3 602.483 36.42 602.483 35.62C602.483 34.82 602.643 34.1 602.963 33.46C602.723 33.02 602.603 32.54 602.603 32.02C602.603 31.38 602.743 30.74 603.023 30.1C603.303 29.46 603.563 29.04 603.803 28.84C603.723 28.64 603.783 28.3 603.983 27.82C604.183 27.3 604.443 26.84 604.763 26.44C605.123 26 605.483 25.74 605.843 25.66L605.783 25C605.783 23.44 606.623 22.46 608.303 22.06C608.303 21.38 608.703 20.72 609.503 20.08C610.303 19.44 611.003 19.16 611.603 19.24C611.683 18.8 612.063 18.46 612.743 18.22C613.463 17.94 614.003 17.86 614.363 17.98C614.683 17.46 615.323 17.1 616.283 16.9C616.643 16.5 617.163 16.3 617.843 16.3C618.043 16.3 618.303 16.34 618.623 16.42L619.163 16.36C619.643 16.36 620.043 16.46 620.363 16.66C620.723 16.82 620.883 17.02 620.843 17.26C621.723 17.34 622.463 17.54 623.063 17.86C623.663 18.18 624.023 18.76 624.143 19.6C624.663 19.48 625.323 19.62 626.123 20.02C626.923 20.38 627.603 20.96 628.163 21.76C628.763 22.52 629.063 23.42 629.063 24.46C629.063 24.7 629.023 25.06 628.943 25.54ZM620.123 29.44C620.523 28.88 621.503 28.6 623.063 28.6C623.943 28.6 624.623 28.68 625.103 28.84C624.783 28.68 624.483 28.34 624.203 27.82C623.963 27.26 623.843 26.74 623.843 26.26C623.843 25.94 623.903 25.7 624.023 25.54C623.463 25.58 622.983 25.44 622.583 25.12C622.223 24.76 621.883 24.36 621.563 23.92C621.283 23.48 621.063 23.16 620.903 22.96C620.703 23.08 620.283 22.98 619.643 22.66C619.043 22.3 618.723 21.94 618.683 21.58C618.523 21.78 618.183 21.96 617.663 22.12C617.143 22.24 616.743 22.28 616.463 22.24C616.343 22.44 616.063 22.64 615.623 22.84C615.183 23.04 614.723 23.1 614.243 23.02C613.843 23.78 613.423 24.4 612.983 24.88C612.543 25.36 611.983 25.72 611.303 25.96C611.223 26.52 610.963 27.14 610.523 27.82C610.123 28.5 609.703 29.02 609.263 29.38L609.503 29.44C610.063 29.04 610.823 28.84 611.783 28.84C612.343 28.84 612.863 28.9 613.343 29.02C613.863 29.14 614.223 29.28 614.423 29.44C615.383 28.84 616.443 28.54 617.603 28.54C618.563 28.54 619.403 28.84 620.123 29.44ZM660.38 41.44C660.46 41.84 660.5 42.18 660.5 42.46C660.5 43.26 660.32 44.04 659.96 44.8C659.64 45.56 659.28 46.04 658.88 46.24C658.64 47.16 658.28 47.86 657.8 48.34C657.32 48.78 656.78 49 656.18 49C655.38 49 654.68 48.64 654.08 47.92C653.28 47.64 652.88 47.1 652.88 46.3C652.88 45.94 652.94 45.62 653.06 45.34C652.78 45.34 652.44 45.1 652.04 44.62C651.68 44.14 651.5 43.64 651.5 43.12C651.5 42.88 651.56 42.64 651.68 42.4C651.56 42.2 651.36 41.94 651.08 41.62C650.8 41.26 650.64 40.88 650.6 40.48C650.16 40.32 649.82 40.06 649.58 39.7C649.34 39.3 649.22 38.86 649.22 38.38C649.22 38.02 649.26 37.74 649.34 37.54C648.94 37.14 648.6 36.56 648.32 35.8C648.04 35 647.92 34.32 647.96 33.76C647.64 33.52 647.38 33.22 647.18 32.86C647.02 32.5 646.94 32.14 646.94 31.78C646.94 31.54 646.96 31.36 647 31.24C646.4 31.08 645.86 30.68 645.38 30.04C644.9 29.36 644.68 28.56 644.72 27.64C644.28 27.36 643.98 27.14 643.82 26.98C643.7 26.78 643.64 26.54 643.64 26.26L643.7 25.3C643.1 24.82 642.62 24.32 642.26 23.8C641.9 23.24 641.74 22.52 641.78 21.64C641.3 20.8 641.06 20.1 641.06 19.54C641.06 18.86 641.38 18.22 642.02 17.62C642.54 17.14 643.1 16.9 643.7 16.9C644.42 16.9 645.02 17.2 645.5 17.8C646.02 18.36 646.24 18.94 646.16 19.54C646.6 19.54 646.94 19.76 647.18 20.2C647.42 20.64 647.54 21.12 647.54 21.64C647.54 21.88 647.52 22.06 647.48 22.18C648.16 22.86 648.5 23.58 648.5 24.34C648.5 24.62 648.44 24.88 648.32 25.12C649.08 25.24 649.62 25.62 649.94 26.26C650.26 26.9 650.36 27.58 650.24 28.3C651.36 28.82 651.84 29.66 651.68 30.82C652.2 31.22 652.52 31.66 652.64 32.14C652.76 32.62 652.84 33.26 652.88 34.06C653.32 34.38 653.72 34.82 654.08 35.38C654.44 35.94 654.56 36.56 654.44 37.24C655.04 37.84 655.3 38.5 655.22 39.22C655.34 39.3 655.48 39.46 655.64 39.7C655.68 39.06 655.8 38.56 656 38.2C656.2 37.84 656.46 37.46 656.78 37.06C656.7 36.82 656.74 36.52 656.9 36.16C657.06 35.8 657.3 35.48 657.62 35.2C657.46 34.92 657.38 34.6 657.38 34.24C657.38 33.56 657.62 33.08 658.1 32.8C657.98 32.56 657.92 32.22 657.92 31.78C657.92 31.34 658 30.88 658.16 30.4C658.32 29.92 658.56 29.5 658.88 29.14C658.84 28.98 658.82 28.74 658.82 28.42C658.82 27.46 659.12 26.68 659.72 26.08C659.6 25.84 659.54 25.5 659.54 25.06C659.54 24.22 659.82 23.54 660.38 23.02C660.22 22.58 660.14 22.12 660.14 21.64C660.14 20.96 660.26 20.3 660.5 19.66C660.74 19.02 661 18.56 661.28 18.28C661.44 17.76 661.72 17.36 662.12 17.08C662.52 16.8 662.94 16.66 663.38 16.66C664.02 16.66 664.6 16.9 665.12 17.38C665.68 17.82 665.96 18.38 665.96 19.06C665.96 19.46 665.86 19.84 665.66 20.2C665.82 20.48 665.9 20.82 665.9 21.22C665.9 21.78 665.78 22.34 665.54 22.9C665.3 23.42 664.98 23.82 664.58 24.1C664.62 24.38 664.64 24.78 664.64 25.3C664.64 26.22 664.42 27 663.98 27.64C664.06 27.96 664.1 28.32 664.1 28.72C664.1 29.36 664 29.98 663.8 30.58C663.6 31.18 663.26 31.64 662.78 31.96C662.9 32.32 662.96 32.74 662.96 33.22C662.96 34.34 662.68 35.16 662.12 35.68C662.16 35.8 662.18 35.98 662.18 36.22C662.18 36.7 662.1 37.18 661.94 37.66C661.78 38.1 661.56 38.48 661.28 38.8C661.36 39.2 661.4 39.48 661.4 39.64C661.4 40 661.32 40.3 661.16 40.54C661.04 40.74 660.88 40.94 660.68 41.14C660.52 41.3 660.42 41.4 660.38 41.44ZM670.052 25.72C669.732 25.2 669.572 24.7 669.572 24.22C669.572 23.5 669.812 22.9 670.292 22.42C670.412 21.82 670.692 21.26 671.132 20.74C671.572 20.18 672.052 19.76 672.572 19.48C673.132 19.16 673.572 19.04 673.892 19.12C674.172 18.68 674.732 18.28 675.572 17.92C676.412 17.52 677.192 17.32 677.912 17.32C678.072 17.32 678.312 17.36 678.632 17.44C679.072 16.96 679.652 16.72 680.372 16.72C680.932 16.72 681.332 16.88 681.572 17.2C682.092 16.84 682.772 16.66 683.612 16.66C684.612 16.66 685.492 16.9 686.252 17.38C687.052 17.86 687.512 18.5 687.632 19.3C688.352 19.54 688.892 19.92 689.252 20.44C689.652 20.92 689.892 21.6 689.972 22.48C690.492 23 690.872 23.62 691.112 24.34C691.352 25.02 691.472 25.72 691.472 26.44C691.472 27.36 691.312 28.1 690.992 28.66C691.272 29.06 691.512 29.66 691.712 30.46C691.912 31.26 692.012 32.04 692.012 32.8C692.012 33.12 691.972 33.52 691.892 34C692.172 34.6 692.312 35 692.312 35.2C692.312 35.32 692.252 35.6 692.132 36.04C692.172 36.2 692.212 36.4 692.252 36.64C692.292 36.84 692.312 37.1 692.312 37.42C692.312 38.02 692.092 38.56 691.652 39.04C691.812 39.48 691.892 40.02 691.892 40.66C691.892 41.5 691.692 42.18 691.292 42.7C691.372 42.86 691.412 43.12 691.412 43.48C691.412 44.32 691.072 45.02 690.392 45.58C690.232 46.14 689.932 46.58 689.492 46.9C689.052 47.18 688.572 47.32 688.052 47.32C687.532 47.32 687.112 47.16 686.792 46.84C685.752 47.28 684.912 47.5 684.272 47.5C683.952 47.5 683.712 47.48 683.552 47.44C682.512 47.76 681.632 47.92 680.912 47.92C680.392 47.92 679.672 47.82 678.752 47.62C678.192 47.94 677.652 48.1 677.132 48.1C676.652 48.1 676.212 47.96 675.812 47.68C675.612 47.72 675.312 47.74 674.912 47.74C673.352 47.74 672.152 47.04 671.312 45.64C669.792 44.76 669.032 43.44 669.032 41.68C669.032 41.24 669.052 40.9 669.092 40.66C668.732 40.42 668.552 39.92 668.552 39.16C668.552 38.64 668.652 38.18 668.852 37.78C668.692 37.06 668.612 36.6 668.612 36.4C668.612 35.24 669.172 34.2 670.292 33.28C670.732 32.36 671.232 31.74 671.792 31.42C672.392 31.1 673.132 30.86 674.012 30.7C674.252 30.02 674.812 29.56 675.692 29.32C676.572 29.08 677.432 29 678.272 29.08C678.512 28.92 678.852 28.78 679.292 28.66C679.732 28.5 680.172 28.42 680.612 28.42C681.092 28.42 681.512 28.5 681.872 28.66C681.952 28.58 682.152 28.54 682.472 28.54C682.712 28.54 682.952 28.56 683.192 28.6C683.432 28.64 683.592 28.7 683.672 28.78C684.232 28.06 684.892 27.7 685.652 27.7C685.892 27.7 686.132 27.76 686.372 27.88V27.7C686.372 27.02 686.512 26.54 686.792 26.26C686.392 26.14 685.952 25.8 685.472 25.24C685.032 24.64 684.772 24.1 684.692 23.62C684.052 23.34 683.612 22.88 683.372 22.24C682.892 22.6 682.332 22.78 681.692 22.78C681.252 22.78 680.832 22.66 680.432 22.42C679.752 22.62 679.312 22.7 679.112 22.66C678.552 23.06 677.932 23.26 677.252 23.26C676.652 24.06 675.952 24.42 675.152 24.34C674.792 24.98 674.292 25.54 673.652 26.02C673.052 26.5 672.432 26.74 671.792 26.74C671.072 26.74 670.492 26.4 670.052 25.72ZM673.352 39.1C673.832 39.58 674.072 40.04 674.072 40.48C674.072 40.8 673.992 41.2 673.832 41.68C673.992 41.68 674.212 41.78 674.492 41.98C674.812 42.14 674.992 42.32 675.032 42.52C675.352 42.4 675.752 42.34 676.232 42.34C677.112 42.34 677.692 42.54 677.972 42.94C678.412 42.78 678.872 42.7 679.352 42.7C680.112 42.7 680.712 42.92 681.152 43.36C681.472 43.04 681.992 42.78 682.712 42.58C683.472 42.38 684.152 42.28 684.752 42.28C685.112 41.56 685.752 41.14 686.672 41.02C686.752 40.74 686.972 40.38 687.332 39.94C687.172 39.7 687.032 39.38 686.912 38.98C686.792 38.58 686.732 38.18 686.732 37.78C686.732 36.94 686.932 36.32 687.332 35.92C686.892 35.36 686.672 34.7 686.672 33.94C686.672 33.42 686.752 32.98 686.912 32.62C686.592 32.82 686.232 32.92 685.832 32.92C685.472 32.92 685.172 32.78 684.932 32.5C684.572 32.86 684.072 33.04 683.432 33.04C683.032 33.04 682.632 32.94 682.232 32.74C681.792 33.18 681.252 33.4 680.612 33.4C680.412 33.4 680.112 33.32 679.712 33.16C679.112 33.76 678.572 33.94 678.092 33.7C677.852 34.26 677.532 34.64 677.132 34.84C676.772 35.04 676.252 35.14 675.572 35.14C675.412 35.58 675.132 35.94 674.732 36.22C674.372 36.5 673.992 36.6 673.592 36.52C673.792 36.8 673.892 37.12 673.892 37.48C673.892 38.08 673.712 38.62 673.352 39.1ZM702.983 41.5C703.383 41.94 703.583 42.62 703.583 43.54C703.583 44.14 703.483 44.72 703.283 45.28C703.123 45.8 702.903 46.18 702.623 46.42C702.743 47.18 702.543 47.8 702.023 48.28C701.503 48.76 700.883 49 700.163 49C699.683 49 699.223 48.88 698.783 48.64C698.343 48.4 698.023 48 697.823 47.44C697.623 46.88 697.523 46.28 697.523 45.64C697.523 44.76 697.663 44.06 697.943 43.54C697.743 43.18 697.643 42.66 697.643 41.98C697.643 41.22 697.763 40.44 698.003 39.64C697.723 39.32 697.583 38.74 697.583 37.9C697.583 36.82 697.743 36.02 698.063 35.5C697.823 34.94 697.703 34.4 697.703 33.88C697.703 33.16 697.883 32.44 698.243 31.72C697.923 30.88 697.763 30.12 697.763 29.44C697.763 28.88 697.883 28.24 698.123 27.52C697.723 27.08 697.523 26.52 697.523 25.84C697.523 25.56 697.543 25.36 697.583 25.24C697.143 24.72 696.923 24.12 696.923 23.44C696.923 23 697.043 22.58 697.283 22.18C697.003 21.54 696.863 20.92 696.863 20.32C696.863 19.36 697.103 18.64 697.583 18.16C697.343 17.6 697.223 16.92 697.223 16.12C697.223 15.48 697.323 15.02 697.523 14.74C697.323 14.62 697.163 14.4 697.043 14.08C696.923 13.76 696.863 13.4 696.863 13C696.863 12.32 697.023 11.76 697.343 11.32C697.223 11 697.163 10.58 697.163 10.06C697.163 9.66 697.203 9.3 697.283 8.98C696.803 8.5 696.563 7.94 696.563 7.3C696.563 6.62 696.843 6.04 697.403 5.56C698.003 5.04 698.663 4.78 699.383 4.78C699.863 4.78 700.303 4.94 700.703 5.26C701.103 5.54 701.383 5.98 701.543 6.58C702.143 6.98 702.443 7.6 702.443 8.44C702.443 8.6 702.403 8.84 702.323 9.16C702.803 9.64 703.043 10.26 703.043 11.02C703.043 11.66 702.843 12.16 702.443 12.52C702.643 12.68 702.823 12.96 702.983 13.36C703.143 13.72 703.223 14.12 703.223 14.56C703.223 15.28 702.963 15.88 702.443 16.36C702.763 16.8 702.923 17.34 702.923 17.98C702.923 18.62 702.803 19.14 702.563 19.54C702.723 19.7 702.803 20.1 702.803 20.74C702.803 21.1 702.763 21.48 702.683 21.88C702.603 22.28 702.483 22.56 702.323 22.72C702.923 23.24 703.223 23.9 703.223 24.7C703.223 25.14 703.143 25.52 702.983 25.84C703.223 26.2 703.343 26.74 703.343 27.46C703.343 28.38 703.183 29.12 702.863 29.68C703.143 30.24 703.283 30.98 703.283 31.9C703.283 33.02 703.103 33.82 702.743 34.3C703.023 34.7 703.163 35.2 703.163 35.8C703.163 36.32 703.043 36.94 702.803 37.66C703.163 38.06 703.343 38.68 703.343 39.52C703.343 40.24 703.223 40.9 702.983 41.5ZM719.859 47.98C719.419 48.14 718.999 48.22 718.599 48.22C718.039 48.22 717.579 48.02 717.219 47.62C716.779 47.66 716.279 47.48 715.719 47.08C715.199 46.64 714.879 46.22 714.759 45.82C714.279 45.7 713.839 45.44 713.439 45.04C713.079 44.6 712.839 44.06 712.719 43.42C712.239 43.3 711.839 42.98 711.519 42.46C711.239 41.9 711.099 41.26 711.099 40.54C711.099 40.1 711.159 39.68 711.279 39.28C710.999 38.84 710.899 38.28 710.979 37.6C710.419 37.12 710.139 36.56 710.139 35.92C710.139 35.6 710.199 35.3 710.319 35.02C710.079 34.66 709.959 34.24 709.959 33.76C709.959 33.16 710.139 32.62 710.499 32.14C709.939 31.66 709.659 31.06 709.659 30.34C709.659 29.9 709.779 29.52 710.019 29.2C709.659 28.68 709.479 28.06 709.479 27.34C709.479 26.78 709.599 26.36 709.839 26.08C709.439 25.76 709.239 25.28 709.239 24.64C709.239 24.24 709.359 23.8 709.599 23.32C709.399 23 709.299 22.54 709.299 21.94C709.299 21.06 709.539 20.38 710.019 19.9C709.899 19.54 709.839 19.2 709.839 18.88C709.839 18.16 710.079 17.6 710.559 17.2C711.079 16.76 711.679 16.54 712.359 16.54C713.039 16.54 713.619 16.76 714.099 17.2C714.619 17.64 714.879 18.28 714.879 19.12C714.879 19.76 714.739 20.44 714.459 21.16C715.019 21.64 715.299 22.26 715.299 23.02C715.299 23.58 715.119 24.08 714.759 24.52C714.999 24.96 715.119 25.54 715.119 26.26C715.119 27.02 714.999 27.64 714.759 28.12C715.119 28.6 715.299 29.34 715.299 30.34C715.299 31.02 715.259 31.48 715.179 31.72C715.499 32.08 715.659 32.54 715.659 33.1C715.659 33.42 715.579 33.78 715.419 34.18C715.819 34.62 716.019 35.22 716.019 35.98C716.019 36.22 715.979 36.46 715.899 36.7C716.059 36.82 716.199 37.04 716.319 37.36C716.439 37.64 716.499 37.94 716.499 38.26C716.499 38.66 716.399 39 716.199 39.28C716.519 39.32 716.739 39.54 716.859 39.94C716.979 40.3 716.999 40.66 716.919 41.02H716.979C717.259 41.02 717.499 41.18 717.699 41.5C717.939 41.78 718.019 42.04 717.939 42.28C718.059 42.2 718.239 42.16 718.479 42.16C718.799 42.16 719.079 42.24 719.319 42.4C719.599 42.52 719.799 42.68 719.919 42.88C720.719 42.44 721.479 42.22 722.199 42.22C722.559 42.22 722.879 42.28 723.159 42.4C723.519 42.12 723.979 41.88 724.539 41.68C725.139 41.44 725.659 41.32 726.099 41.32C726.299 41.32 726.479 41.36 726.639 41.44C726.359 41 726.219 40.44 726.219 39.76C726.219 39 726.459 38.52 726.939 38.32C726.659 38 726.519 37.32 726.519 36.28C726.519 35.04 726.779 34.16 727.299 33.64C726.939 33.04 726.759 32.38 726.759 31.66C726.759 31.02 726.879 30.58 727.119 30.34C726.879 30.02 726.759 29.62 726.759 29.14C726.759 28.66 726.839 28.16 726.999 27.64C727.199 27.08 727.439 26.64 727.719 26.32C727.199 25.96 726.939 25.18 726.939 23.98C726.939 23.22 726.999 22.6 727.119 22.12C726.759 21.32 726.579 20.64 726.579 20.08C726.579 19.36 726.819 18.78 727.299 18.34C727.779 17.9 728.339 17.68 728.979 17.68C729.739 17.68 730.379 17.98 730.899 18.58C731.459 19.18 731.719 20.04 731.679 21.16C731.879 21.36 732.039 21.68 732.159 22.12C732.319 22.52 732.399 22.94 732.399 23.38C732.399 24.26 732.179 24.88 731.739 25.24C732.459 26.12 732.819 26.98 732.819 27.82C732.819 28.38 732.659 28.84 732.339 29.2C732.659 29.64 732.819 30.12 732.819 30.64C732.819 31.16 732.679 31.7 732.399 32.26C732.639 32.62 732.759 33.02 732.759 33.46C732.759 34.18 732.459 34.8 731.859 35.32C732.259 35.76 732.459 36.28 732.459 36.88C732.459 37.52 732.199 38.24 731.679 39.04C732.079 39.28 732.279 39.78 732.279 40.54C732.279 41.3 732.119 42.08 731.799 42.88C732.119 43.32 732.279 43.9 732.279 44.62C732.279 45.06 732.199 45.42 732.039 45.7C732.119 46.1 732.159 46.4 732.159 46.6C732.159 47.36 731.919 47.96 731.439 48.4C730.999 48.8 730.459 49 729.819 49C729.259 49 728.759 48.82 728.319 48.46C727.879 48.06 727.619 47.5 727.539 46.78C727.499 46.74 727.439 46.68 727.359 46.6C727.319 46.48 727.279 46.38 727.239 46.3C726.559 46.7 725.939 46.9 725.379 46.9C725.179 46.9 725.019 46.88 724.899 46.84C724.379 47.2 723.879 47.38 723.399 47.38C722.999 47.38 722.619 47.3 722.259 47.14C722.099 47.42 721.839 47.64 721.479 47.8C721.159 47.96 720.799 48.04 720.399 48.04C720.159 48.04 719.979 48.02 719.859 47.98ZM761.915 25.54C762.355 25.74 762.755 26.22 763.115 26.98C763.515 27.74 763.715 28.52 763.715 29.32C763.715 30.68 763.115 31.6 761.915 32.08C761.595 32.64 761.155 33.08 760.595 33.4C760.075 33.72 759.495 33.88 758.855 33.88C758.335 33.88 757.795 33.76 757.235 33.52C756.915 33.72 756.475 33.9 755.915 34.06C755.355 34.22 754.795 34.3 754.235 34.3C753.275 34.3 752.615 34.1 752.255 33.7C751.855 34.02 751.215 34.18 750.335 34.18C749.695 34.18 749.115 34.06 748.595 33.82C748.035 34.1 747.395 34.24 746.675 34.24C745.995 34.24 745.435 34.14 744.995 33.94C744.595 34.3 743.775 34.48 742.535 34.48C741.855 34.48 741.395 34.42 741.155 34.3C741.275 35.46 741.115 36.32 740.675 36.88C741.435 37.64 741.735 38.46 741.575 39.34C741.615 39.38 741.835 39.54 742.235 39.82C742.635 40.1 742.915 40.56 743.075 41.2C743.515 41.2 743.915 41.38 744.275 41.74C744.675 42.1 744.915 42.46 744.995 42.82C745.155 42.66 745.475 42.58 745.955 42.58C746.315 42.58 746.635 42.64 746.915 42.76C747.195 42.88 747.355 43.02 747.395 43.18C747.675 43.02 747.995 42.94 748.355 42.94C748.875 42.94 749.355 43.12 749.795 43.48C750.195 43.4 750.495 43.36 750.695 43.36C751.095 43.36 751.435 43.42 751.715 43.54C751.835 43.22 752.155 42.92 752.675 42.64C753.195 42.32 753.735 42.18 754.295 42.22C754.615 41.82 755.055 41.5 755.615 41.26C756.175 41.02 756.735 40.9 757.295 40.9C758.375 40.9 759.155 41.34 759.635 42.22C759.795 42.54 759.875 42.92 759.875 43.36C759.875 44.32 759.435 45.08 758.555 45.64C758.355 45.76 758.015 45.98 757.535 46.3C757.055 46.58 756.615 46.8 756.215 46.96C755.815 47.12 755.455 47.2 755.135 47.2C754.535 47.92 753.715 48.28 752.675 48.28C752.195 48.28 751.835 48.24 751.595 48.16C751.115 48.56 750.415 48.76 749.495 48.76C748.655 48.76 748.075 48.6 747.755 48.28C747.475 48.4 747.195 48.46 746.915 48.46C746.355 48.46 745.835 48.26 745.355 47.86C743.315 47.98 741.935 47.34 741.215 45.94C740.655 45.94 740.015 45.6 739.295 44.92C738.615 44.2 738.235 43.58 738.155 43.06C737.235 42.7 736.655 42.04 736.415 41.08C736.375 40.76 736.375 40.46 736.415 40.18C736.255 40.14 736.115 39.98 735.995 39.7C735.915 39.38 735.875 39.06 735.875 38.74C735.875 38.5 735.895 38.34 735.935 38.26C735.615 37.3 735.455 36.42 735.455 35.62C735.455 34.82 735.615 34.1 735.935 33.46C735.695 33.02 735.575 32.54 735.575 32.02C735.575 31.38 735.715 30.74 735.995 30.1C736.275 29.46 736.535 29.04 736.775 28.84C736.695 28.64 736.755 28.3 736.955 27.82C737.155 27.3 737.415 26.84 737.735 26.44C738.095 26 738.455 25.74 738.815 25.66L738.755 25C738.755 23.44 739.595 22.46 741.275 22.06C741.275 21.38 741.675 20.72 742.475 20.08C743.275 19.44 743.975 19.16 744.575 19.24C744.655 18.8 745.035 18.46 745.715 18.22C746.435 17.94 746.975 17.86 747.335 17.98C747.655 17.46 748.295 17.1 749.255 16.9C749.615 16.5 750.135 16.3 750.815 16.3C751.015 16.3 751.275 16.34 751.595 16.42L752.135 16.36C752.615 16.36 753.015 16.46 753.335 16.66C753.695 16.82 753.855 17.02 753.815 17.26C754.695 17.34 755.435 17.54 756.035 17.86C756.635 18.18 756.995 18.76 757.115 19.6C757.635 19.48 758.295 19.62 759.095 20.02C759.895 20.38 760.575 20.96 761.135 21.76C761.735 22.52 762.035 23.42 762.035 24.46C762.035 24.7 761.995 25.06 761.915 25.54ZM753.095 29.44C753.495 28.88 754.475 28.6 756.035 28.6C756.915 28.6 757.595 28.68 758.075 28.84C757.755 28.68 757.455 28.34 757.175 27.82C756.935 27.26 756.815 26.74 756.815 26.26C756.815 25.94 756.875 25.7 756.995 25.54C756.435 25.58 755.955 25.44 755.555 25.12C755.195 24.76 754.855 24.36 754.535 23.92C754.255 23.48 754.035 23.16 753.875 22.96C753.675 23.08 753.255 22.98 752.615 22.66C752.015 22.3 751.695 21.94 751.655 21.58C751.495 21.78 751.155 21.96 750.635 22.12C750.115 22.24 749.715 22.28 749.435 22.24C749.315 22.44 749.035 22.64 748.595 22.84C748.155 23.04 747.695 23.1 747.215 23.02C746.815 23.78 746.395 24.4 745.955 24.88C745.515 25.36 744.955 25.72 744.275 25.96C744.195 26.52 743.935 27.14 743.495 27.82C743.095 28.5 742.675 29.02 742.235 29.38L742.475 29.44C743.035 29.04 743.795 28.84 744.755 28.84C745.315 28.84 745.835 28.9 746.315 29.02C746.835 29.14 747.195 29.28 747.395 29.44C748.355 28.84 749.415 28.54 750.575 28.54C751.535 28.54 752.375 28.84 753.095 29.44ZM787.185 41.92C787.305 42.32 787.365 42.72 787.365 43.12C787.365 43.92 787.045 44.46 786.405 44.74C786.485 45.34 786.245 45.94 785.685 46.54C785.125 47.14 784.605 47.44 784.125 47.44C783.925 47.8 783.325 48.14 782.325 48.46C781.325 48.78 780.405 48.94 779.565 48.94C778.965 48.94 778.505 48.82 778.185 48.58C777.625 48.86 776.825 49 775.785 49C774.865 49 774.025 48.86 773.265 48.58C772.545 48.3 772.105 47.88 771.945 47.32C771.145 47.44 770.245 47.2 769.245 46.6C768.285 46 767.665 45.38 767.385 44.74C766.665 44.54 766.065 44.16 765.585 43.6C765.145 43.04 764.905 42.38 764.865 41.62C764.625 41.26 764.505 40.9 764.505 40.54C764.505 39.98 764.685 39.48 765.045 39.04C765.445 38.6 765.905 38.38 766.425 38.38C766.945 38.38 767.445 38.7 767.925 39.34C768.645 39.26 769.285 39.5 769.845 40.06C770.445 40.62 770.745 41.18 770.745 41.74C770.865 41.74 771.165 41.78 771.645 41.86C772.165 41.9 772.625 42.04 773.025 42.28C773.425 42.52 773.705 42.86 773.865 43.3C774.585 43.3 775.285 43.4 775.965 43.6C776.685 43.76 777.105 43.96 777.225 44.2C777.545 44 778.005 43.84 778.605 43.72C779.245 43.56 779.785 43.48 780.225 43.48C780.345 43.32 780.645 43.16 781.125 43C781.605 42.84 782.005 42.74 782.325 42.7C782.125 42.42 782.025 42 782.025 41.44C782.025 40.6 782.285 40 782.805 39.64C782.325 39.48 781.945 39.24 781.665 38.92C781.385 38.56 781.265 38.16 781.305 37.72C780.985 37.8 780.745 37.84 780.585 37.84C779.825 37.84 779.205 37.54 778.725 36.94C777.925 37.02 777.125 36.84 776.325 36.4C775.565 35.96 775.005 35.38 774.645 34.66C774.365 34.78 774.065 34.84 773.745 34.84C773.065 34.84 772.345 34.64 771.585 34.24C770.865 33.8 770.405 33.38 770.205 32.98C769.645 33.14 768.985 32.96 768.225 32.44C767.465 31.92 767.085 31.34 767.085 30.7C766.605 30.46 766.225 30.06 765.945 29.5C765.665 28.9 765.525 28.36 765.525 27.88C765.525 27.52 765.605 27.28 765.765 27.16C765.565 26.76 765.465 26.36 765.465 25.96C765.465 25.24 765.705 24.62 766.185 24.1C766.065 23.66 766.005 23.26 766.005 22.9C766.005 22.22 766.145 21.66 766.425 21.22C766.745 20.74 767.125 20.54 767.565 20.62C767.485 19.98 767.625 19.42 767.985 18.94C768.385 18.46 768.865 18.12 769.425 17.92C770.025 17.68 770.545 17.6 770.985 17.68C771.225 17.32 771.545 17.04 771.945 16.84C772.345 16.64 772.745 16.54 773.145 16.54C773.825 16.54 774.305 16.74 774.585 17.14C774.625 16.94 774.765 16.78 775.005 16.66C775.285 16.54 775.605 16.48 775.965 16.48C776.285 16.48 776.605 16.54 776.925 16.66C777.245 16.78 777.485 16.92 777.645 17.08C777.885 16.84 778.305 16.72 778.905 16.72C779.385 16.72 779.865 16.82 780.345 17.02C780.825 17.18 781.145 17.42 781.305 17.74C781.545 17.62 781.805 17.56 782.085 17.56C782.565 17.56 783.005 17.74 783.405 18.1C783.845 18.42 784.145 18.84 784.305 19.36C784.905 19.28 785.525 19.48 786.165 19.96C786.805 20.44 787.045 20.92 786.885 21.4C787.965 22 788.505 22.82 788.505 23.86C788.505 24.5 788.285 25.06 787.845 25.54C787.405 26.02 786.845 26.26 786.165 26.26C785.565 26.22 785.065 26.06 784.665 25.78C784.265 25.5 784.025 25.16 783.945 24.76C783.425 24.68 782.925 24.48 782.445 24.16C782.005 23.8 781.765 23.34 781.725 22.78C780.965 22.86 780.385 22.78 779.985 22.54C779.625 22.3 779.305 21.92 779.025 21.4C778.745 21.6 778.385 21.7 777.945 21.7C777.505 21.7 777.025 21.58 776.505 21.34C776.225 21.58 775.865 21.78 775.425 21.94C775.025 22.1 774.625 22.18 774.225 22.18C773.785 22.18 773.405 22.08 773.085 21.88C773.165 22.36 773.045 22.74 772.725 23.02C772.405 23.3 771.965 23.4 771.405 23.32C771.525 23.6 771.585 23.9 771.585 24.22C771.585 24.94 771.265 25.54 770.625 26.02C771.065 26.22 771.385 26.56 771.585 27.04C771.785 27.48 771.865 27.92 771.825 28.36L772.305 28.3C773.505 28.3 774.265 28.68 774.585 29.44L775.065 29.38C775.705 29.38 776.305 29.54 776.865 29.86C777.465 30.18 777.905 30.72 778.185 31.48C778.825 31.44 779.445 31.52 780.045 31.72C780.645 31.88 781.065 32.2 781.305 32.68C781.625 32.56 781.925 32.5 782.205 32.5C782.885 32.5 783.485 32.7 784.005 33.1C784.565 33.5 784.865 33.96 784.905 34.48C785.265 34.48 785.585 34.68 785.865 35.08C786.185 35.48 786.305 35.94 786.225 36.46C786.505 36.42 786.765 36.58 787.005 36.94C787.245 37.26 787.365 37.64 787.365 38.08C787.365 38.32 787.305 38.54 787.185 38.74C787.745 39.14 788.025 39.68 788.025 40.36C788.025 40.72 787.945 41.04 787.785 41.32C787.665 41.6 787.465 41.8 787.185 41.92Z" fill="#111827"/>
</g>
<defs>
<clipPath id="clip0_57_349">
<rect width="1216" height="60" fill="white"/>
</clipPath>
</defs>
</svg>
