<svg width="1029" height="61" viewBox="0 0 1029 61" fill="none" xmlns="http://www.w3.org/2000/svg">
<path d="M355.435 28.6C355.595 29.04 355.675 29.54 355.675 30.1C355.675 30.74 355.575 31.38 355.375 32.02C355.215 32.62 354.995 33.08 354.715 33.4C355.075 33.76 355.255 34.56 355.255 35.8C355.255 37 355.075 37.84 354.715 38.32C354.915 38.52 355.075 38.88 355.195 39.4C355.315 39.92 355.375 40.5 355.375 41.14C355.375 42.34 355.155 43.28 354.715 43.96C354.955 44.72 355.075 45.4 355.075 46C355.075 46.92 354.835 47.62 354.355 48.1C353.875 48.58 353.315 48.82 352.675 48.82C352.115 48.82 351.615 48.62 351.175 48.22C350.735 47.82 350.515 47.28 350.515 46.6C350.515 46.24 350.575 45.88 350.695 45.52C350.175 44.6 349.915 43.56 349.915 42.4C349.915 41.24 350.175 40.4 350.695 39.88C350.295 39.48 350.095 38.92 350.095 38.2C350.095 37.52 350.295 36.98 350.695 36.58C350.295 35.78 350.095 34.88 350.095 33.88C350.095 32.88 350.295 32.2 350.695 31.84C350.295 31.04 350.095 29.98 350.095 28.66C350.095 27.34 350.295 26.5 350.695 26.14C350.135 25.38 349.855 24.48 349.855 23.44C349.855 22.52 350.135 21.8 350.695 21.28C350.535 21.08 350.455 20.8 350.455 20.44C350.455 20.16 350.495 19.8 350.575 19.36C350.655 18.88 350.695 18.44 350.695 18.04C350.695 19.08 350.455 20.44 349.975 22.12C349.495 23.76 348.835 24.88 347.995 25.48C347.995 28.12 347.495 29.66 346.495 30.1C346.495 30.98 346.335 32.02 346.015 33.22C345.695 34.38 345.375 34.96 345.055 34.96C345.055 35.44 344.855 35.98 344.455 36.58C344.095 37.14 343.735 37.42 343.375 37.42C343.495 37.82 343.555 38.26 343.555 38.74C343.555 39.3 343.455 39.84 343.255 40.36C343.095 40.84 342.875 41.22 342.595 41.5C342.595 42.22 342.455 42.82 342.175 43.3C341.895 43.78 341.515 44.24 341.035 44.68C341.035 45.44 340.775 46.04 340.255 46.48C339.735 46.92 339.135 47.14 338.455 47.14C337.815 47.14 337.255 46.94 336.775 46.54C336.295 46.1 336.055 45.5 336.055 44.74C336.055 44.38 336.075 44.12 336.115 43.96C335.715 43.96 335.335 43.62 334.975 42.94C334.655 42.22 334.495 41.46 334.495 40.66C334.135 40.66 333.755 40.36 333.355 39.76C332.955 39.12 332.635 38.42 332.395 37.66C332.155 36.86 332.095 36.26 332.215 35.86C331.895 35.62 331.575 35.16 331.255 34.48C330.975 33.8 330.835 33.08 330.835 32.32C330.835 31.52 330.995 30.82 331.315 30.22C330.795 30.18 330.335 29.82 329.935 29.14C329.575 28.42 329.395 27.72 329.395 27.04C329.395 26.64 329.495 26.34 329.695 26.14C329.295 25.82 328.915 25.3 328.555 24.58C328.235 23.86 328.075 23.28 328.075 22.84C327.555 22.32 327.295 21.26 327.295 19.66C326.735 19.66 326.255 19.16 325.855 18.16C325.935 18.92 325.855 19.68 325.615 20.44C325.415 21.16 325.135 21.7 324.775 22.06C325.135 22.38 325.415 23 325.615 23.92C325.815 24.8 325.915 25.7 325.915 26.62C325.915 27.46 325.835 28.06 325.675 28.42C326.075 29.06 326.275 30.04 326.275 31.36C326.275 32.84 326.075 34.04 325.675 34.96C325.995 35.64 326.155 36.32 326.155 37C326.155 37.6 325.995 38.28 325.675 39.04C325.835 39.2 325.975 39.6 326.095 40.24C326.215 40.84 326.275 41.5 326.275 42.22C326.275 43.58 326.075 44.4 325.675 44.68C325.715 44.92 325.735 45.24 325.735 45.64C325.735 46.68 325.475 47.48 324.955 48.04C324.475 48.6 323.875 48.88 323.155 48.88C322.435 48.88 321.795 48.6 321.235 48.04C320.675 47.48 320.395 46.74 320.395 45.82C320.395 45.14 320.575 44.38 320.935 43.54C320.455 41.9 320.215 40.36 320.215 38.92C320.215 37.6 320.395 36.58 320.755 35.86C320.355 35.34 320.155 34.52 320.155 33.4C320.155 32.88 320.215 32.4 320.335 31.96C320.455 31.48 320.595 31.14 320.755 30.94C320.355 30.02 320.155 29.1 320.155 28.18C320.155 27.22 320.355 26.54 320.755 26.14C320.555 25.86 320.395 25.5 320.275 25.06C320.155 24.62 320.095 24.16 320.095 23.68C320.095 22.96 320.215 22.42 320.455 22.06C320.055 21.38 319.855 20.5 319.855 19.42C319.855 18.02 320.155 17.02 320.755 16.42C320.195 15.86 319.915 14.72 319.915 13C319.915 12.2 319.995 11.44 320.155 10.72C320.315 9.96 320.515 9.46 320.755 9.22C320.755 8.46 321.035 7.84 321.595 7.36C322.155 6.88 322.795 6.64 323.515 6.64C324.355 6.64 325.075 6.94 325.675 7.54C326.475 7.54 327.195 7.9 327.835 8.62C328.515 9.34 328.855 10.08 328.855 10.84C329.135 11.08 329.375 11.42 329.575 11.86C329.775 12.26 329.875 12.68 329.875 13.12C329.875 13.44 329.815 13.76 329.695 14.08C330.175 14.12 330.555 14.4 330.835 14.92C331.155 15.44 331.315 15.94 331.315 16.42C331.635 16.7 331.895 17.1 332.095 17.62C332.335 18.1 332.455 18.6 332.455 19.12C332.455 19.6 332.375 20.06 332.215 20.5C332.415 20.5 332.595 20.68 332.755 21.04C332.955 21.36 333.055 21.72 333.055 22.12C333.055 22.44 332.975 22.68 332.815 22.84C333.255 23.08 333.635 23.58 333.955 24.34C334.315 25.06 334.495 25.66 334.495 26.14C334.775 26.42 334.995 26.88 335.155 27.52C335.355 28.16 335.455 28.82 335.455 29.5C335.455 30.02 335.395 30.5 335.275 30.94C335.675 31.22 336.055 31.8 336.415 32.68C336.775 33.52 336.955 34.34 336.955 35.14C336.955 35.46 336.935 35.7 336.895 35.86C337.375 36.22 337.715 36.56 337.915 36.88C338.155 37.2 338.355 37.68 338.515 38.32C338.595 36.56 338.975 35.5 339.655 35.14C339.575 34.82 339.535 34.58 339.535 34.42C339.535 33.82 339.675 33.24 339.955 32.68C340.275 32.12 340.635 31.84 341.035 31.84C340.835 31.44 340.735 31.1 340.735 30.82C340.735 29.94 341.355 28.82 342.595 27.46C342.475 27.22 342.415 26.9 342.415 26.5C342.415 25.82 342.555 25.12 342.835 24.4C343.155 23.68 343.595 23.16 344.155 22.84C344.155 21.64 344.235 20.64 344.395 19.84C344.595 19 345.055 18.4 345.775 18.04C345.775 17.32 345.935 16.74 346.255 16.3C346.615 15.82 347.035 15.58 347.515 15.58C347.315 15.26 347.215 14.84 347.215 14.32C347.215 13.48 347.395 12.62 347.755 11.74C348.155 10.86 348.615 10.26 349.135 9.94C349.135 9.06 349.375 8.3 349.855 7.66C350.375 7.02 351.175 6.7 352.255 6.7C352.455 6.62 352.735 6.58 353.095 6.58C353.895 6.58 354.475 6.94 354.835 7.66C355.235 8.34 355.435 8.96 355.435 9.52C355.795 10.76 355.975 11.7 355.975 12.34C355.975 12.94 355.795 13.88 355.435 15.16C355.795 15.56 355.975 16.14 355.975 16.9C355.975 17.62 355.795 18.4 355.435 19.24C355.795 19.64 355.975 20.3 355.975 21.22C355.975 22.18 355.775 22.9 355.375 23.38C355.895 24.06 356.155 24.92 356.155 25.96C356.155 27 355.915 27.88 355.435 28.6ZM362.859 6.22C362.339 6.46 361.919 6.8 361.599 7.24C361.279 7.68 361.119 8.14 361.119 8.62C361.119 9.26 361.379 9.9 361.899 10.54C361.819 11.06 362.099 11.56 362.739 12.04C363.379 12.52 364.079 12.76 364.839 12.76C365.359 12.76 365.819 12.62 366.219 12.34C367.339 11.74 367.899 10.98 367.899 10.06C367.899 9.46 367.659 8.78 367.179 8.02C367.219 7.22 366.979 6.6 366.459 6.16C365.979 5.68 365.399 5.44 364.719 5.44C363.959 5.44 363.339 5.7 362.859 6.22ZM366.759 32.74C367.079 32.86 367.319 33.24 367.479 33.88C367.679 34.52 367.779 35.22 367.779 35.98C367.779 36.86 367.639 37.44 367.359 37.72C367.599 38.32 367.719 38.9 367.719 39.46C367.719 40.18 367.539 40.78 367.179 41.26C367.459 41.94 367.599 42.74 367.599 43.66C367.599 44.42 367.479 45.04 367.239 45.52C367.359 45.88 367.419 46.22 367.419 46.54C367.419 47.26 367.159 47.84 366.639 48.28C366.119 48.68 365.499 48.88 364.779 48.88C364.099 48.88 363.519 48.68 363.039 48.28C362.559 47.84 362.339 47.26 362.379 46.54C362.179 46.3 362.019 45.92 361.899 45.4C361.779 44.88 361.719 44.34 361.719 43.78C361.719 42.74 361.939 42.06 362.379 41.74C362.059 41.22 361.899 40.44 361.899 39.4C361.899 38.36 362.039 37.6 362.319 37.12C362.159 36.96 362.039 36.58 361.959 35.98C361.879 35.38 361.839 34.72 361.839 34C361.839 33.32 361.879 32.72 361.959 32.2C362.039 31.64 362.159 31.28 362.319 31.12C362.079 30.88 361.959 30.22 361.959 29.14C361.959 27.9 362.099 27 362.379 26.44C362.179 26.12 361.999 25.7 361.839 25.18C361.679 24.66 361.599 24.18 361.599 23.74C361.599 23.34 361.639 23.06 361.719 22.9C361.399 21.86 361.239 21.02 361.239 20.38C361.239 19.7 361.399 19 361.719 18.28C361.639 17.68 361.779 17.22 362.139 16.9C362.499 16.58 363.019 16.42 363.699 16.42C365.539 16.42 366.459 17.54 366.459 19.78C366.819 20.02 367.079 20.36 367.239 20.8C367.439 21.2 367.539 21.66 367.539 22.18C367.539 23.02 367.339 23.74 366.939 24.34C367.099 24.58 367.219 24.94 367.299 25.42C367.419 25.9 367.479 26.38 367.479 26.86C367.479 27.5 367.379 27.94 367.179 28.18C367.339 28.38 367.419 28.8 367.419 29.44C367.419 30.04 367.339 30.68 367.179 31.36C367.059 32.04 366.919 32.5 366.759 32.74ZM394.283 41.92C394.403 42.32 394.463 42.72 394.463 43.12C394.463 43.92 394.143 44.46 393.503 44.74C393.583 45.34 393.343 45.94 392.783 46.54C392.223 47.14 391.703 47.44 391.223 47.44C391.023 47.8 390.423 48.14 389.423 48.46C388.423 48.78 387.503 48.94 386.663 48.94C386.063 48.94 385.603 48.82 385.283 48.58C384.723 48.86 383.923 49 382.883 49C381.963 49 381.123 48.86 380.363 48.58C379.643 48.3 379.203 47.88 379.043 47.32C378.243 47.44 377.343 47.2 376.343 46.6C375.383 46 374.763 45.38 374.483 44.74C373.763 44.54 373.163 44.16 372.683 43.6C372.243 43.04 372.003 42.38 371.963 41.62C371.723 41.26 371.603 40.9 371.603 40.54C371.603 39.98 371.783 39.48 372.143 39.04C372.543 38.6 373.003 38.38 373.523 38.38C374.043 38.38 374.543 38.7 375.023 39.34C375.743 39.26 376.383 39.5 376.943 40.06C377.543 40.62 377.843 41.18 377.843 41.74C377.963 41.74 378.263 41.78 378.743 41.86C379.263 41.9 379.723 42.04 380.123 42.28C380.523 42.52 380.803 42.86 380.963 43.3C381.683 43.3 382.383 43.4 383.063 43.6C383.783 43.76 384.203 43.96 384.323 44.2C384.643 44 385.103 43.84 385.703 43.72C386.343 43.56 386.883 43.48 387.323 43.48C387.443 43.32 387.743 43.16 388.223 43C388.703 42.84 389.103 42.74 389.423 42.7C389.223 42.42 389.123 42 389.123 41.44C389.123 40.6 389.383 40 389.903 39.64C389.423 39.48 389.043 39.24 388.763 38.92C388.483 38.56 388.363 38.16 388.403 37.72C388.083 37.8 387.843 37.84 387.683 37.84C386.923 37.84 386.303 37.54 385.823 36.94C385.023 37.02 384.223 36.84 383.423 36.4C382.663 35.96 382.103 35.38 381.743 34.66C381.463 34.78 381.163 34.84 380.843 34.84C380.163 34.84 379.443 34.64 378.683 34.24C377.963 33.8 377.503 33.38 377.303 32.98C376.743 33.14 376.083 32.96 375.323 32.44C374.563 31.92 374.183 31.34 374.183 30.7C373.703 30.46 373.323 30.06 373.043 29.5C372.763 28.9 372.623 28.36 372.623 27.88C372.623 27.52 372.703 27.28 372.863 27.16C372.663 26.76 372.563 26.36 372.563 25.96C372.563 25.24 372.803 24.62 373.283 24.1C373.163 23.66 373.103 23.26 373.103 22.9C373.103 22.22 373.243 21.66 373.523 21.22C373.843 20.74 374.223 20.54 374.663 20.62C374.583 19.98 374.723 19.42 375.083 18.94C375.483 18.46 375.963 18.12 376.523 17.92C377.123 17.68 377.643 17.6 378.083 17.68C378.323 17.32 378.643 17.04 379.043 16.84C379.443 16.64 379.843 16.54 380.243 16.54C380.923 16.54 381.403 16.74 381.683 17.14C381.723 16.94 381.863 16.78 382.103 16.66C382.383 16.54 382.703 16.48 383.063 16.48C383.383 16.48 383.703 16.54 384.023 16.66C384.343 16.78 384.583 16.92 384.743 17.08C384.983 16.84 385.403 16.72 386.003 16.72C386.483 16.72 386.963 16.82 387.443 17.02C387.923 17.18 388.243 17.42 388.403 17.74C388.643 17.62 388.903 17.56 389.183 17.56C389.663 17.56 390.103 17.74 390.503 18.1C390.943 18.42 391.243 18.84 391.403 19.36C392.003 19.28 392.623 19.48 393.263 19.96C393.903 20.44 394.143 20.92 393.983 21.4C395.063 22 395.603 22.82 395.603 23.86C395.603 24.5 395.383 25.06 394.943 25.54C394.503 26.02 393.943 26.26 393.263 26.26C392.663 26.22 392.163 26.06 391.763 25.78C391.363 25.5 391.123 25.16 391.043 24.76C390.523 24.68 390.023 24.48 389.543 24.16C389.103 23.8 388.863 23.34 388.823 22.78C388.063 22.86 387.483 22.78 387.083 22.54C386.723 22.3 386.403 21.92 386.123 21.4C385.843 21.6 385.483 21.7 385.043 21.7C384.603 21.7 384.123 21.58 383.603 21.34C383.323 21.58 382.963 21.78 382.523 21.94C382.123 22.1 381.723 22.18 381.323 22.18C380.883 22.18 380.503 22.08 380.183 21.88C380.263 22.36 380.143 22.74 379.823 23.02C379.503 23.3 379.063 23.4 378.503 23.32C378.623 23.6 378.683 23.9 378.683 24.22C378.683 24.94 378.363 25.54 377.723 26.02C378.163 26.22 378.483 26.56 378.683 27.04C378.883 27.48 378.963 27.92 378.923 28.36L379.403 28.3C380.603 28.3 381.363 28.68 381.683 29.44L382.163 29.38C382.803 29.38 383.403 29.54 383.963 29.86C384.563 30.18 385.003 30.72 385.283 31.48C385.923 31.44 386.543 31.52 387.143 31.72C387.743 31.88 388.163 32.2 388.403 32.68C388.723 32.56 389.023 32.5 389.303 32.5C389.983 32.5 390.583 32.7 391.103 33.1C391.663 33.5 391.963 33.96 392.003 34.48C392.363 34.48 392.683 34.68 392.963 35.08C393.283 35.48 393.403 35.94 393.323 36.46C393.603 36.42 393.863 36.58 394.103 36.94C394.343 37.26 394.463 37.64 394.463 38.08C394.463 38.32 394.403 38.54 394.283 38.74C394.843 39.14 395.123 39.68 395.123 40.36C395.123 40.72 395.043 41.04 394.883 41.32C394.763 41.6 394.563 41.8 394.283 41.92ZM421.119 41.92C421.239 42.32 421.299 42.72 421.299 43.12C421.299 43.92 420.979 44.46 420.339 44.74C420.419 45.34 420.179 45.94 419.619 46.54C419.059 47.14 418.539 47.44 418.059 47.44C417.859 47.8 417.259 48.14 416.259 48.46C415.259 48.78 414.339 48.94 413.499 48.94C412.899 48.94 412.439 48.82 412.119 48.58C411.559 48.86 410.759 49 409.719 49C408.799 49 407.959 48.86 407.199 48.58C406.479 48.3 406.039 47.88 405.879 47.32C405.079 47.44 404.179 47.2 403.179 46.6C402.219 46 401.599 45.38 401.319 44.74C400.599 44.54 399.999 44.16 399.519 43.6C399.079 43.04 398.839 42.38 398.799 41.62C398.559 41.26 398.439 40.9 398.439 40.54C398.439 39.98 398.619 39.48 398.979 39.04C399.379 38.6 399.839 38.38 400.359 38.38C400.879 38.38 401.379 38.7 401.859 39.34C402.579 39.26 403.219 39.5 403.779 40.06C404.379 40.62 404.679 41.18 404.679 41.74C404.799 41.74 405.099 41.78 405.579 41.86C406.099 41.9 406.559 42.04 406.959 42.28C407.359 42.52 407.639 42.86 407.799 43.3C408.519 43.3 409.219 43.4 409.899 43.6C410.619 43.76 411.039 43.96 411.159 44.2C411.479 44 411.939 43.84 412.539 43.72C413.179 43.56 413.719 43.48 414.159 43.48C414.279 43.32 414.579 43.16 415.059 43C415.539 42.84 415.939 42.74 416.259 42.7C416.059 42.42 415.959 42 415.959 41.44C415.959 40.6 416.219 40 416.739 39.64C416.259 39.48 415.879 39.24 415.599 38.92C415.319 38.56 415.199 38.16 415.239 37.72C414.919 37.8 414.679 37.84 414.519 37.84C413.759 37.84 413.139 37.54 412.659 36.94C411.859 37.02 411.059 36.84 410.259 36.4C409.499 35.96 408.939 35.38 408.579 34.66C408.299 34.78 407.999 34.84 407.679 34.84C406.999 34.84 406.279 34.64 405.519 34.24C404.799 33.8 404.339 33.38 404.139 32.98C403.579 33.14 402.919 32.96 402.159 32.44C401.399 31.92 401.019 31.34 401.019 30.7C400.539 30.46 400.159 30.06 399.879 29.5C399.599 28.9 399.459 28.36 399.459 27.88C399.459 27.52 399.539 27.28 399.699 27.16C399.499 26.76 399.399 26.36 399.399 25.96C399.399 25.24 399.639 24.62 400.119 24.1C399.999 23.66 399.939 23.26 399.939 22.9C399.939 22.22 400.079 21.66 400.359 21.22C400.679 20.74 401.059 20.54 401.499 20.62C401.419 19.98 401.559 19.42 401.919 18.94C402.319 18.46 402.799 18.12 403.359 17.92C403.959 17.68 404.479 17.6 404.919 17.68C405.159 17.32 405.479 17.04 405.879 16.84C406.279 16.64 406.679 16.54 407.079 16.54C407.759 16.54 408.239 16.74 408.519 17.14C408.559 16.94 408.699 16.78 408.939 16.66C409.219 16.54 409.539 16.48 409.899 16.48C410.219 16.48 410.539 16.54 410.859 16.66C411.179 16.78 411.419 16.92 411.579 17.08C411.819 16.84 412.239 16.72 412.839 16.72C413.319 16.72 413.799 16.82 414.279 17.02C414.759 17.18 415.079 17.42 415.239 17.74C415.479 17.62 415.739 17.56 416.019 17.56C416.499 17.56 416.939 17.74 417.339 18.1C417.779 18.42 418.079 18.84 418.239 19.36C418.839 19.28 419.459 19.48 420.099 19.96C420.739 20.44 420.979 20.92 420.819 21.4C421.899 22 422.439 22.82 422.439 23.86C422.439 24.5 422.219 25.06 421.779 25.54C421.339 26.02 420.779 26.26 420.099 26.26C419.499 26.22 418.999 26.06 418.599 25.78C418.199 25.5 417.959 25.16 417.879 24.76C417.359 24.68 416.859 24.48 416.379 24.16C415.939 23.8 415.699 23.34 415.659 22.78C414.899 22.86 414.319 22.78 413.919 22.54C413.559 22.3 413.239 21.92 412.959 21.4C412.679 21.6 412.319 21.7 411.879 21.7C411.439 21.7 410.959 21.58 410.439 21.34C410.159 21.58 409.799 21.78 409.359 21.94C408.959 22.1 408.559 22.18 408.159 22.18C407.719 22.18 407.339 22.08 407.019 21.88C407.099 22.36 406.979 22.74 406.659 23.02C406.339 23.3 405.899 23.4 405.339 23.32C405.459 23.6 405.519 23.9 405.519 24.22C405.519 24.94 405.199 25.54 404.559 26.02C404.999 26.22 405.319 26.56 405.519 27.04C405.719 27.48 405.799 27.92 405.759 28.36L406.239 28.3C407.439 28.3 408.199 28.68 408.519 29.44L408.999 29.38C409.639 29.38 410.239 29.54 410.799 29.86C411.399 30.18 411.839 30.72 412.119 31.48C412.759 31.44 413.379 31.52 413.979 31.72C414.579 31.88 414.999 32.2 415.239 32.68C415.559 32.56 415.859 32.5 416.139 32.5C416.819 32.5 417.419 32.7 417.939 33.1C418.499 33.5 418.799 33.96 418.839 34.48C419.199 34.48 419.519 34.68 419.799 35.08C420.119 35.48 420.239 35.94 420.159 36.46C420.439 36.42 420.699 36.58 420.939 36.94C421.179 37.26 421.299 37.64 421.299 38.08C421.299 38.32 421.239 38.54 421.119 38.74C421.679 39.14 421.959 39.68 421.959 40.36C421.959 40.72 421.879 41.04 421.719 41.32C421.599 41.6 421.399 41.8 421.119 41.92ZM427.195 6.22C426.675 6.46 426.255 6.8 425.935 7.24C425.615 7.68 425.455 8.14 425.455 8.62C425.455 9.26 425.715 9.9 426.235 10.54C426.155 11.06 426.435 11.56 427.075 12.04C427.715 12.52 428.415 12.76 429.175 12.76C429.695 12.76 430.155 12.62 430.555 12.34C431.675 11.74 432.235 10.98 432.235 10.06C432.235 9.46 431.995 8.78 431.515 8.02C431.555 7.22 431.315 6.6 430.795 6.16C430.315 5.68 429.735 5.44 429.055 5.44C428.295 5.44 427.675 5.7 427.195 6.22ZM431.095 32.74C431.415 32.86 431.655 33.24 431.815 33.88C432.015 34.52 432.115 35.22 432.115 35.98C432.115 36.86 431.975 37.44 431.695 37.72C431.935 38.32 432.055 38.9 432.055 39.46C432.055 40.18 431.875 40.78 431.515 41.26C431.795 41.94 431.935 42.74 431.935 43.66C431.935 44.42 431.815 45.04 431.575 45.52C431.695 45.88 431.755 46.22 431.755 46.54C431.755 47.26 431.495 47.84 430.975 48.28C430.455 48.68 429.835 48.88 429.115 48.88C428.435 48.88 427.855 48.68 427.375 48.28C426.895 47.84 426.675 47.26 426.715 46.54C426.515 46.3 426.355 45.92 426.235 45.4C426.115 44.88 426.055 44.34 426.055 43.78C426.055 42.74 426.275 42.06 426.715 41.74C426.395 41.22 426.235 40.44 426.235 39.4C426.235 38.36 426.375 37.6 426.655 37.12C426.495 36.96 426.375 36.58 426.295 35.98C426.215 35.38 426.175 34.72 426.175 34C426.175 33.32 426.215 32.72 426.295 32.2C426.375 31.64 426.495 31.28 426.655 31.12C426.415 30.88 426.295 30.22 426.295 29.14C426.295 27.9 426.435 27 426.715 26.44C426.515 26.12 426.335 25.7 426.175 25.18C426.015 24.66 425.935 24.18 425.935 23.74C425.935 23.34 425.975 23.06 426.055 22.9C425.735 21.86 425.575 21.02 425.575 20.38C425.575 19.7 425.735 19 426.055 18.28C425.975 17.68 426.115 17.22 426.475 16.9C426.835 16.58 427.355 16.42 428.035 16.42C429.875 16.42 430.795 17.54 430.795 19.78C431.155 20.02 431.415 20.36 431.575 20.8C431.775 21.2 431.875 21.66 431.875 22.18C431.875 23.02 431.675 23.74 431.275 24.34C431.435 24.58 431.555 24.94 431.635 25.42C431.755 25.9 431.815 26.38 431.815 26.86C431.815 27.5 431.715 27.94 431.515 28.18C431.675 28.38 431.755 28.8 431.755 29.44C431.755 30.04 431.675 30.68 431.515 31.36C431.395 32.04 431.255 32.5 431.095 32.74ZM453.339 48.28C452.859 48.76 452.119 49 451.119 49C450.359 49 449.739 48.88 449.259 48.64C448.539 48.8 447.899 48.88 447.339 48.88C445.779 48.88 444.659 48.48 443.979 47.68C443.819 47.72 443.599 47.74 443.319 47.74C442.399 47.74 441.699 47.32 441.219 46.48C440.819 46.52 440.299 46.32 439.659 45.88C439.059 45.4 438.799 44.94 438.879 44.5C438.239 44.34 437.699 43.96 437.259 43.36C436.859 42.72 436.679 42 436.719 41.2C436.279 41.04 435.939 40.72 435.699 40.24C435.459 39.76 435.339 39.22 435.339 38.62C435.339 37.98 435.439 37.52 435.639 37.24C435.199 36.56 434.979 35.78 434.979 34.9C434.979 33.98 435.259 33.24 435.819 32.68C435.379 32.36 435.159 31.88 435.159 31.24C435.159 30.84 435.259 30.44 435.459 30.04C435.659 29.64 435.919 29.36 436.239 29.2C436.159 28.64 436.219 28.12 436.419 27.64C436.659 27.12 436.979 26.74 437.379 26.5C437.299 26.38 437.259 26.2 437.259 25.96C437.259 25.6 437.379 25.24 437.619 24.88C437.899 24.52 438.199 24.3 438.519 24.22C438.479 24.1 438.459 23.94 438.459 23.74C438.459 22.9 438.779 22.18 439.419 21.58C440.059 20.94 440.679 20.66 441.279 20.74C441.279 20.18 441.519 19.72 441.999 19.36C442.519 18.96 443.179 18.76 443.979 18.76C444.339 18.76 444.619 18.78 444.819 18.82C445.099 18.22 445.579 17.74 446.259 17.38C446.939 16.98 447.639 16.78 448.359 16.78C448.839 16.78 449.239 16.88 449.559 17.08C450.119 16.6 450.819 16.36 451.659 16.36C452.339 16.36 452.939 16.52 453.459 16.84C454.019 17.16 454.359 17.6 454.479 18.16C455.119 18.16 455.799 18.4 456.519 18.88C457.239 19.32 457.659 19.78 457.779 20.26C458.739 20.54 459.659 21.16 460.539 22.12C461.459 23.04 461.919 23.98 461.919 24.94C461.919 25.1 461.879 25.34 461.799 25.66C463.519 26.02 464.299 27.76 464.139 30.88C464.499 31.48 464.679 32.12 464.679 32.8C464.679 33.6 464.419 34.4 463.899 35.2C464.019 35.56 464.079 35.9 464.079 36.22C464.079 36.7 463.979 37.16 463.779 37.6C463.579 38.04 463.319 38.38 462.999 38.62C463.039 39.26 462.919 39.78 462.639 40.18C462.399 40.58 461.939 41.12 461.259 41.8C461.299 41.96 461.319 42.2 461.319 42.52C461.319 43.72 460.639 44.5 459.279 44.86C459.159 45.5 458.819 46.02 458.259 46.42C457.739 46.82 457.099 47.02 456.339 47.02C455.699 47.9 454.919 48.34 453.999 48.34C453.719 48.34 453.499 48.32 453.339 48.28ZM447.699 44.08C448.019 43.8 448.559 43.66 449.319 43.66C449.879 43.66 450.179 43.74 450.219 43.9C450.539 43.54 450.939 43.26 451.419 43.06C451.899 42.86 452.339 42.78 452.739 42.82C453.419 42.14 454.159 41.8 454.959 41.8C455.239 41.8 455.439 41.82 455.559 41.86C455.519 41.5 455.619 41.16 455.859 40.84C456.099 40.48 456.379 40.24 456.699 40.12C456.699 39.6 456.819 39.16 457.059 38.8C457.339 38.4 457.679 38.1 458.079 37.9C458.079 37.1 458.239 36.46 458.559 35.98C458.439 35.66 458.379 35.34 458.379 35.02C458.379 34.58 458.479 34.16 458.679 33.76C458.879 33.32 459.159 32.96 459.519 32.68C459.119 32.32 458.919 31.88 458.919 31.36C458.919 30.88 459.059 30.4 459.339 29.92C458.539 29.44 457.999 28.98 457.719 28.54C457.479 28.06 457.359 27.2 457.359 25.96C456.999 26 456.619 25.8 456.219 25.36C455.859 24.92 455.639 24.42 455.559 23.86C455.119 23.98 454.579 23.86 453.939 23.5C453.339 23.1 453.039 22.6 453.039 22C452.719 22.16 452.339 22.24 451.899 22.24C451.059 22.24 450.379 21.94 449.859 21.34C449.419 21.78 448.839 22.14 448.119 22.42C447.439 22.66 446.839 22.74 446.319 22.66C446.279 23.06 445.919 23.54 445.239 24.1C444.599 24.62 444.019 24.96 443.499 25.12C443.619 25.36 443.679 25.64 443.679 25.96C443.679 26.36 443.579 26.76 443.379 27.16C443.179 27.56 442.899 27.9 442.539 28.18C442.579 28.74 442.439 29.28 442.119 29.8C441.839 30.32 441.439 30.68 440.919 30.88C440.999 31.2 441.039 31.46 441.039 31.66C441.039 32.22 440.899 32.66 440.619 32.98C440.739 33.26 440.799 33.54 440.799 33.82C440.799 34.26 440.579 34.74 440.139 35.26C441.139 35.94 441.639 36.92 441.639 38.2C441.639 38.88 441.519 39.46 441.279 39.94C441.679 39.98 441.959 40.1 442.119 40.3C442.279 40.5 442.419 40.82 442.539 41.26C443.539 41.38 444.279 41.86 444.759 42.7C445.199 42.7 445.739 42.84 446.379 43.12C447.059 43.4 447.499 43.72 447.699 44.08ZM481.079 23.32C481.159 23.76 481.019 24.16 480.659 24.52C480.339 24.84 479.939 25.02 479.459 25.06C479.179 25.86 478.439 26.34 477.239 26.5C477.279 27.18 477.139 27.76 476.819 28.24C476.499 28.68 476.139 28.94 475.739 29.02C475.739 30.06 475.519 31.14 475.079 32.26C475.159 32.58 475.199 32.86 475.199 33.1C475.199 33.9 475.039 34.62 474.719 35.26C474.919 35.66 475.019 36.12 475.019 36.64C475.019 37.32 474.899 38.02 474.659 38.74C475.019 39.22 475.199 39.76 475.199 40.36C475.199 40.72 475.099 41.14 474.899 41.62C475.019 41.86 475.079 42.24 475.079 42.76C475.079 43.64 474.899 44.28 474.539 44.68C474.699 45.24 474.779 45.68 474.779 46C474.779 46.32 474.719 46.6 474.599 46.84C474.599 47.52 474.339 48.06 473.819 48.46C473.299 48.82 472.679 49 471.959 49C471.279 49 470.679 48.82 470.159 48.46C469.679 48.06 469.459 47.52 469.499 46.84C469.379 46.48 469.319 46.1 469.319 45.7C469.319 44.86 469.459 44.06 469.739 43.3C469.379 42.82 469.199 42.3 469.199 41.74C469.199 41.38 469.299 40.96 469.499 40.48C469.219 40.04 469.079 39.54 469.079 38.98C469.079 38.58 469.159 38.22 469.319 37.9C469.479 37.58 469.679 37.32 469.919 37.12C469.359 36.48 469.079 35.74 469.079 34.9C469.079 34.1 469.339 33.42 469.859 32.86C469.699 32.66 469.559 32.36 469.439 31.96C469.319 31.56 469.259 31.16 469.259 30.76C469.259 30.24 469.379 29.86 469.619 29.62C469.299 28.9 469.139 28.08 469.139 27.16C469.139 26.36 469.259 25.82 469.499 25.54C469.139 24.74 468.959 23.98 468.959 23.26C468.959 22.46 469.139 21.88 469.499 21.52C468.859 20.76 468.539 19.92 468.539 19C468.539 17.88 469.019 17.06 469.979 16.54C470.459 16.3 470.939 16.18 471.419 16.18C472.179 16.18 472.819 16.5 473.339 17.14C473.859 17.74 474.119 18.46 474.119 19.3C474.119 19.74 474.019 20.2 473.819 20.68C474.339 21.2 474.599 21.86 474.599 22.66C474.599 23.22 474.559 23.68 474.479 24.04C474.799 22.88 475.259 22.2 475.859 22C475.859 21.24 476.099 20.54 476.579 19.9C477.059 19.26 477.619 18.78 478.259 18.46C478.939 18.14 479.499 18.04 479.939 18.16C480.939 17.08 482.019 16.54 483.179 16.54C483.699 16.54 484.159 16.64 484.559 16.84C484.919 16.56 485.459 16.42 486.179 16.42C486.779 16.42 487.339 16.54 487.859 16.78C488.379 16.98 488.719 17.3 488.879 17.74C490.319 17.82 491.339 18.42 491.939 19.54C492.459 19.58 492.959 19.88 493.439 20.44C493.959 21 494.219 21.64 494.219 22.36C494.219 22.68 494.119 23.08 493.919 23.56C494.839 23.92 495.299 24.62 495.299 25.66C495.299 26.02 495.279 26.28 495.239 26.44C495.759 26.72 496.119 27.02 496.319 27.34C496.559 27.62 496.679 27.98 496.679 28.42C496.679 28.9 496.559 29.54 496.319 30.34C496.799 30.7 497.039 31.3 497.039 32.14C497.039 33.02 496.819 33.68 496.379 34.12C496.739 34.72 496.919 35.46 496.919 36.34C496.919 37.22 496.719 37.92 496.319 38.44C496.559 39.64 496.679 40.48 496.679 40.96C496.679 41.8 496.499 42.38 496.139 42.7C496.459 43.42 496.619 44.12 496.619 44.8C496.619 45.72 496.399 46.4 495.959 46.84C495.999 47.48 495.719 48 495.119 48.4C494.559 48.8 493.919 49 493.199 49C492.639 49 492.159 48.86 491.759 48.58C491.359 48.3 491.159 47.9 491.159 47.38C490.839 46.62 490.679 45.76 490.679 44.8C490.679 43.32 491.039 42.24 491.759 41.56C491.479 41.2 491.219 40.62 490.979 39.82C490.779 38.98 490.679 38.2 490.679 37.48C490.679 36.48 490.879 35.86 491.279 35.62C490.959 35.02 490.799 34.4 490.799 33.76C490.799 33.04 491.019 32.16 491.459 31.12C491.099 30.84 490.799 30.42 490.559 29.86C490.319 29.3 490.199 28.76 490.199 28.24C490.199 28.08 490.239 27.84 490.319 27.52C489.879 27.16 489.479 26.58 489.119 25.78C488.799 24.98 488.659 24.26 488.699 23.62C488.339 23.58 487.979 23.46 487.619 23.26C487.259 23.06 486.979 22.78 486.779 22.42H486.119C485.439 22.42 484.959 22.28 484.679 22C484.359 22.4 483.819 22.76 483.059 23.08C482.339 23.36 481.699 23.44 481.139 23.32H481.079ZM544.691 43.48C545.051 43.44 545.511 43.72 546.071 44.32C546.671 44.88 547.031 45.44 547.151 46C547.351 46.48 547.451 46.86 547.451 47.14C547.451 47.78 547.171 48.32 546.611 48.76C546.091 49.2 545.511 49.42 544.871 49.42C543.831 49.42 543.151 48.92 542.831 47.92C542.111 47.76 541.351 47.16 540.551 46.12C539.791 45.08 539.471 44.2 539.591 43.48C539.351 44.04 538.891 44.54 538.211 44.98C537.571 45.38 536.931 45.62 536.291 45.7C536.091 46.14 535.771 46.5 535.331 46.78C534.931 47.06 534.471 47.2 533.951 47.2C533.751 47.2 533.591 47.18 533.471 47.14C532.951 47.66 532.051 47.92 530.771 47.92C530.491 47.92 530.151 47.88 529.751 47.8C529.231 48.28 528.431 48.52 527.351 48.52C526.591 48.52 526.031 48.36 525.671 48.04C525.311 48.16 524.971 48.22 524.651 48.22C524.211 48.22 523.751 48.1 523.271 47.86C522.751 47.94 522.271 47.84 521.831 47.56C521.391 47.28 521.091 46.84 520.931 46.24C520.171 46.04 519.631 45.56 519.311 44.8C518.471 44.64 517.751 44.14 517.151 43.3C516.551 42.42 516.271 41.6 516.311 40.84C515.711 40.12 515.411 39.26 515.411 38.26C515.411 37.86 515.431 37.56 515.471 37.36C515.111 36.88 514.931 36.14 514.931 35.14C514.931 33.94 515.171 32.76 515.651 31.6C516.171 30.44 516.811 29.78 517.571 29.62C517.611 29.1 517.931 28.52 518.531 27.88C519.171 27.2 519.671 26.84 520.031 26.8C519.991 26.08 520.311 25.5 520.991 25.06C521.671 24.58 522.371 24.38 523.091 24.46C523.091 23.86 523.251 23.5 523.571 23.38C522.971 23.02 522.671 22.4 522.671 21.52C522.671 21.32 522.711 21.02 522.791 20.62C522.231 20.22 521.791 19.68 521.471 19C521.151 18.32 520.991 17.62 520.991 16.9C520.991 16.38 521.051 15.92 521.171 15.52C520.851 15.2 520.691 14.54 520.691 13.54C520.691 12.66 520.871 11.86 521.231 11.14C521.631 10.42 522.211 9.94 522.971 9.7C523.131 9.06 523.591 8.46 524.351 7.9C525.111 7.3 525.911 7.06 526.751 7.18C526.951 6.94 527.331 6.74 527.891 6.58C528.451 6.42 529.031 6.34 529.631 6.34C530.751 6.34 531.431 6.52 531.671 6.88C531.791 6.84 531.951 6.82 532.151 6.82C532.791 6.82 533.391 7.08 533.951 7.6C534.551 8.08 534.971 8.64 535.211 9.28C535.531 9.48 535.771 9.78 535.931 10.18C536.131 10.54 536.191 10.9 536.111 11.26C536.351 11.42 536.571 11.74 536.771 12.22C536.971 12.66 537.071 13.12 537.071 13.6C537.071 13.88 537.011 14.18 536.891 14.5L536.951 15.34C536.951 15.78 536.891 16.16 536.771 16.48C536.651 16.8 536.431 17.18 536.111 17.62C536.071 18.38 535.811 19.04 535.331 19.6C534.891 20.12 534.231 20.68 533.351 21.28C533.231 21.92 532.891 22.5 532.331 23.02C531.771 23.54 531.111 23.9 530.351 24.1C530.751 24.26 531.131 24.58 531.491 25.06C531.891 25.5 532.191 26 532.391 26.56C532.911 26.8 533.371 27.22 533.771 27.82C534.171 28.38 534.411 28.92 534.491 29.44C534.931 29.6 535.291 29.88 535.571 30.28C535.851 30.68 535.991 31.1 535.991 31.54C536.871 32.1 537.311 32.88 537.311 33.88C537.591 34 537.931 34.22 538.331 34.54C538.731 34.86 538.971 35.16 539.051 35.44C539.371 34.8 539.791 34.44 540.311 34.36C540.311 34.16 540.451 33.8 540.731 33.28C541.011 32.72 541.231 32.38 541.391 32.26C541.311 31.86 541.411 31.36 541.691 30.76C541.971 30.16 542.271 29.84 542.591 29.8C542.591 29.16 542.771 28.64 543.131 28.24C543.531 27.8 544.011 27.58 544.571 27.58C544.891 27.58 545.251 27.68 545.651 27.88C546.331 28.2 546.671 28.76 546.671 29.56C546.671 29.96 546.571 30.38 546.371 30.82C546.171 31.22 545.911 31.56 545.591 31.84C545.631 32 545.651 32.22 545.651 32.5C545.651 33.22 545.391 33.78 544.871 34.18C544.831 34.7 544.711 35.24 544.511 35.8C544.311 36.32 544.051 36.66 543.731 36.82C543.811 37.1 543.671 37.58 543.311 38.26C542.991 38.9 542.671 39.34 542.351 39.58C542.831 39.82 543.251 40.3 543.611 41.02C544.011 41.7 544.191 42.3 544.151 42.82C544.391 42.98 544.571 43.2 544.691 43.48ZM529.331 11.14C529.091 11.38 528.691 11.6 528.131 11.8C527.611 12 527.191 12.08 526.871 12.04C526.831 12.56 526.451 13.02 525.731 13.42C526.131 13.82 526.331 14.34 526.331 14.98C526.331 15.54 526.171 16.04 525.851 16.48C526.971 17.92 527.531 19.14 527.531 20.14C527.531 20.38 527.511 20.56 527.471 20.68C527.471 20.72 527.511 20.78 527.591 20.86C527.631 20.86 527.731 20.78 527.891 20.62C528.091 20.46 528.291 20.36 528.491 20.32C528.571 19.8 528.811 19.34 529.211 18.94C529.611 18.54 530.091 18.24 530.651 18.04C530.771 17.36 531.051 16.62 531.491 15.82C531.971 14.98 532.431 14.48 532.871 14.32C532.271 14.08 531.751 13.68 531.311 13.12C530.911 12.56 530.791 12 530.951 11.44C530.831 11.48 530.651 11.5 530.411 11.5C530.051 11.5 529.691 11.38 529.331 11.14ZM530.891 43.24C530.971 42.96 531.191 42.74 531.551 42.58C531.911 42.38 532.211 42.3 532.451 42.34C532.651 41.94 532.951 41.62 533.351 41.38C533.751 41.14 534.171 41.02 534.611 41.02C534.891 41.02 535.091 41.04 535.211 41.08C535.331 40.84 535.491 40.58 535.691 40.3C535.931 39.98 536.131 39.7 536.291 39.46C534.091 38.1 532.911 36.6 532.751 34.96C532.151 34.64 531.751 34.12 531.551 33.4C530.991 33.2 530.611 32.92 530.411 32.56C530.211 32.16 530.071 31.74 529.991 31.3C529.951 30.86 529.911 30.56 529.871 30.4C529.671 30.2 529.411 29.98 529.091 29.74C528.771 29.46 528.551 29.14 528.431 28.78C528.151 28.7 527.811 28.54 527.411 28.3C527.051 28.06 526.771 27.84 526.571 27.64C526.331 27.88 526.071 28.06 525.791 28.18C525.351 28.66 524.831 28.94 524.231 29.02C524.191 29.34 523.951 29.72 523.511 30.16C523.111 30.6 522.691 30.9 522.251 31.06C522.131 31.5 521.831 32 521.351 32.56C520.911 33.08 520.511 33.42 520.151 33.58C520.311 33.9 520.391 34.24 520.391 34.6C520.391 35.16 520.251 35.6 519.971 35.92C520.171 36.44 520.271 36.86 520.271 37.18C520.271 37.46 520.211 37.78 520.091 38.14C520.531 38.74 520.971 39.56 521.411 40.6C522.051 40.72 522.551 41.06 522.911 41.62C523.391 41.58 523.831 41.7 524.231 41.98C524.671 42.22 524.991 42.56 525.191 43C525.431 42.88 525.711 42.82 526.031 42.82C526.711 42.82 527.271 43.08 527.711 43.6C527.911 43.4 528.211 43.24 528.611 43.12C529.011 43 529.411 42.94 529.811 42.94C530.331 42.94 530.691 43.04 530.891 43.24ZM593.878 5.74C594.558 5.9 595.078 6.22 595.438 6.7C595.798 7.18 595.978 7.74 595.978 8.38C595.978 9.38 595.598 10.26 594.838 11.02C595.158 11.3 595.318 11.78 595.318 12.46C595.318 13.14 595.178 13.82 594.898 14.5C594.618 15.18 594.318 15.6 593.998 15.76C594.398 16.28 594.598 16.96 594.598 17.8C594.598 18.56 594.438 19.28 594.118 19.96C593.838 20.6 593.458 21 592.978 21.16C593.218 21.56 593.338 22.08 593.338 22.72C593.338 23.24 593.238 23.76 593.038 24.28C592.838 24.76 592.558 25.12 592.198 25.36C592.358 25.56 592.438 25.92 592.438 26.44C592.438 27.08 592.298 27.72 592.018 28.36C591.738 28.96 591.338 29.4 590.818 29.68C591.138 30.08 591.298 30.54 591.298 31.06C591.298 31.62 591.158 32.18 590.878 32.74C590.638 33.26 590.318 33.64 589.918 33.88C590.198 34.44 590.338 35.1 590.338 35.86C590.338 36.7 590.218 37.5 589.978 38.26C589.738 39.02 589.418 39.56 589.018 39.88C589.098 40.28 589.138 40.58 589.138 40.78C589.138 41.58 588.798 42.28 588.118 42.88C588.158 43.36 588.038 43.96 587.758 44.68C587.518 45.36 587.238 45.9 586.918 46.3C586.998 47.02 586.698 47.64 586.018 48.16C585.378 48.68 584.618 48.94 583.738 48.94C582.898 48.94 582.178 48.68 581.578 48.16C580.978 47.6 580.638 46.74 580.558 45.58C580.078 45.3 579.698 44.94 579.418 44.5C579.138 44.02 578.998 43.52 578.998 43C578.998 42.68 579.058 42.38 579.178 42.1C578.698 41.9 578.318 41.58 578.038 41.14C577.798 40.66 577.718 40.16 577.798 39.64C577.238 39.04 576.958 38.24 576.958 37.24C576.958 36.8 576.978 36.48 577.018 36.28C576.418 35.92 575.958 35.46 575.638 34.9C575.358 34.3 575.218 33.68 575.218 33.04C575.218 32.68 575.238 32.42 575.278 32.26C574.518 31.7 574.138 30.88 574.138 29.8C574.138 29.44 574.158 29.16 574.198 28.96C573.798 28.8 573.458 28.44 573.178 27.88C572.938 27.28 572.838 26.7 572.878 26.14C572.558 25.9 572.258 25.44 571.978 24.76C571.698 24.04 571.558 23.38 571.558 22.78C570.678 22.46 570.238 21.72 570.238 20.56C570.238 20.28 570.278 19.94 570.358 19.54C569.438 18.9 568.978 18.2 568.978 17.44C568.978 17.2 568.998 17 569.038 16.84C568.758 16.56 568.518 16.2 568.318 15.76C568.118 15.28 568.018 14.82 568.018 14.38C568.018 14.18 568.058 13.96 568.138 13.72C567.778 13.52 567.478 13.18 567.238 12.7C567.038 12.18 566.938 11.66 566.938 11.14C566.938 10.5 567.078 10.1 567.358 9.94C566.878 9.22 566.638 8.58 566.638 8.02C566.638 7.38 566.858 6.86 567.298 6.46C567.738 6.06 568.278 5.86 568.918 5.86C569.638 5.86 570.258 6.18 570.778 6.82C571.338 7.46 571.638 8.4 571.678 9.64C572.158 9.96 572.538 10.46 572.818 11.14C573.138 11.78 573.298 12.42 573.298 13.06C573.298 13.34 573.278 13.56 573.238 13.72C573.598 13.96 573.878 14.28 574.078 14.68C574.278 15.04 574.378 15.42 574.378 15.82C574.378 16.26 574.278 16.64 574.078 16.96C575.038 17.6 575.518 18.4 575.518 19.36C575.518 19.56 575.478 19.86 575.398 20.26C575.718 20.42 575.978 20.72 576.178 21.16C576.418 21.6 576.538 22.08 576.538 22.6C576.538 22.88 576.518 23.1 576.478 23.26C577.278 23.78 577.678 24.7 577.678 26.02C578.118 26.14 578.558 26.56 578.998 27.28C579.438 27.96 579.658 28.68 579.658 29.44L579.598 29.98C579.998 30.3 580.318 30.82 580.558 31.54C580.798 32.22 580.878 32.86 580.798 33.46C581.158 33.74 581.398 34.14 581.518 34.66C581.678 35.14 581.798 35.74 581.878 36.46C582.318 36.74 582.638 37.12 582.838 37.6C583.078 38.04 583.158 38.5 583.078 38.98C583.518 39.54 583.738 40.14 583.738 40.78C583.938 40.66 584.058 40.5 584.098 40.3C583.978 38.34 584.278 37.14 584.998 36.7C584.718 36.3 584.578 35.8 584.578 35.2C584.578 34.68 584.678 34.2 584.878 33.76C585.118 33.28 585.378 32.96 585.658 32.8C585.578 32.56 585.538 32.32 585.538 32.08C585.538 31.6 585.618 31.1 585.778 30.58C585.978 30.06 586.218 29.72 586.498 29.56C586.378 29.24 586.318 28.92 586.318 28.6C586.318 27.64 586.638 26.92 587.278 26.44C587.078 26.2 586.978 25.82 586.978 25.3C586.978 24.7 587.098 24.08 587.338 23.44C587.618 22.76 587.918 22.26 588.238 21.94C588.038 21.34 587.938 20.78 587.938 20.26C587.938 19.14 588.298 18.2 589.018 17.44C588.898 17.08 588.838 16.66 588.838 16.18C588.838 15.38 588.998 14.66 589.318 14.02C589.678 13.38 590.138 13.06 590.698 13.06C590.098 12.26 589.798 11.5 589.798 10.78C589.798 9.98 590.138 9.3 590.818 8.74C590.778 8.54 590.758 8.28 590.758 7.96C590.758 7.24 590.938 6.68 591.298 6.28C591.698 5.84 592.258 5.62 592.978 5.62C593.178 5.62 593.478 5.66 593.878 5.74ZM602.976 6.22C602.456 6.46 602.036 6.8 601.716 7.24C601.396 7.68 601.236 8.14 601.236 8.62C601.236 9.26 601.496 9.9 602.016 10.54C601.936 11.06 602.216 11.56 602.856 12.04C603.496 12.52 604.196 12.76 604.956 12.76C605.476 12.76 605.936 12.62 606.336 12.34C607.456 11.74 608.016 10.98 608.016 10.06C608.016 9.46 607.776 8.78 607.296 8.02C607.336 7.22 607.096 6.6 606.576 6.16C606.096 5.68 605.516 5.44 604.836 5.44C604.076 5.44 603.456 5.7 602.976 6.22ZM606.876 32.74C607.196 32.86 607.436 33.24 607.596 33.88C607.796 34.52 607.896 35.22 607.896 35.98C607.896 36.86 607.756 37.44 607.476 37.72C607.716 38.32 607.836 38.9 607.836 39.46C607.836 40.18 607.656 40.78 607.296 41.26C607.576 41.94 607.716 42.74 607.716 43.66C607.716 44.42 607.596 45.04 607.356 45.52C607.476 45.88 607.536 46.22 607.536 46.54C607.536 47.26 607.276 47.84 606.756 48.28C606.236 48.68 605.616 48.88 604.896 48.88C604.216 48.88 603.636 48.68 603.156 48.28C602.676 47.84 602.456 47.26 602.496 46.54C602.296 46.3 602.136 45.92 602.016 45.4C601.896 44.88 601.836 44.34 601.836 43.78C601.836 42.74 602.056 42.06 602.496 41.74C602.176 41.22 602.016 40.44 602.016 39.4C602.016 38.36 602.156 37.6 602.436 37.12C602.276 36.96 602.156 36.58 602.076 35.98C601.996 35.38 601.956 34.72 601.956 34C601.956 33.32 601.996 32.72 602.076 32.2C602.156 31.64 602.276 31.28 602.436 31.12C602.196 30.88 602.076 30.22 602.076 29.14C602.076 27.9 602.216 27 602.496 26.44C602.296 26.12 602.116 25.7 601.956 25.18C601.796 24.66 601.716 24.18 601.716 23.74C601.716 23.34 601.756 23.06 601.836 22.9C601.516 21.86 601.356 21.02 601.356 20.38C601.356 19.7 601.516 19 601.836 18.28C601.756 17.68 601.896 17.22 602.256 16.9C602.616 16.58 603.136 16.42 603.816 16.42C605.656 16.42 606.576 17.54 606.576 19.78C606.936 20.02 607.196 20.36 607.356 20.8C607.556 21.2 607.656 21.66 607.656 22.18C607.656 23.02 607.456 23.74 607.056 24.34C607.216 24.58 607.336 24.94 607.416 25.42C607.536 25.9 607.596 26.38 607.596 26.86C607.596 27.5 607.496 27.94 607.296 28.18C607.456 28.38 607.536 28.8 607.536 29.44C607.536 30.04 607.456 30.68 607.296 31.36C607.176 32.04 607.036 32.5 606.876 32.74ZM634.4 41.92C634.52 42.32 634.58 42.72 634.58 43.12C634.58 43.92 634.26 44.46 633.62 44.74C633.7 45.34 633.46 45.94 632.9 46.54C632.34 47.14 631.82 47.44 631.34 47.44C631.14 47.8 630.54 48.14 629.54 48.46C628.54 48.78 627.62 48.94 626.78 48.94C626.18 48.94 625.72 48.82 625.4 48.58C624.84 48.86 624.04 49 623 49C622.08 49 621.24 48.86 620.48 48.58C619.76 48.3 619.32 47.88 619.16 47.32C618.36 47.44 617.46 47.2 616.46 46.6C615.5 46 614.88 45.38 614.6 44.74C613.88 44.54 613.28 44.16 612.8 43.6C612.36 43.04 612.12 42.38 612.08 41.62C611.84 41.26 611.72 40.9 611.72 40.54C611.72 39.98 611.9 39.48 612.26 39.04C612.66 38.6 613.12 38.38 613.64 38.38C614.16 38.38 614.66 38.7 615.14 39.34C615.86 39.26 616.5 39.5 617.06 40.06C617.66 40.62 617.96 41.18 617.96 41.74C618.08 41.74 618.38 41.78 618.86 41.86C619.38 41.9 619.84 42.04 620.24 42.28C620.64 42.52 620.92 42.86 621.08 43.3C621.8 43.3 622.5 43.4 623.18 43.6C623.9 43.76 624.32 43.96 624.44 44.2C624.76 44 625.22 43.84 625.82 43.72C626.46 43.56 627 43.48 627.44 43.48C627.56 43.32 627.86 43.16 628.34 43C628.82 42.84 629.22 42.74 629.54 42.7C629.34 42.42 629.24 42 629.24 41.44C629.24 40.6 629.5 40 630.02 39.64C629.54 39.48 629.16 39.24 628.88 38.92C628.6 38.56 628.48 38.16 628.52 37.72C628.2 37.8 627.96 37.84 627.8 37.84C627.04 37.84 626.42 37.54 625.94 36.94C625.14 37.02 624.34 36.84 623.54 36.4C622.78 35.96 622.22 35.38 621.86 34.66C621.58 34.78 621.28 34.84 620.96 34.84C620.28 34.84 619.56 34.64 618.8 34.24C618.08 33.8 617.62 33.38 617.42 32.98C616.86 33.14 616.2 32.96 615.44 32.44C614.68 31.92 614.3 31.34 614.3 30.7C613.82 30.46 613.44 30.06 613.16 29.5C612.88 28.9 612.74 28.36 612.74 27.88C612.74 27.52 612.82 27.28 612.98 27.16C612.78 26.76 612.68 26.36 612.68 25.96C612.68 25.24 612.92 24.62 613.4 24.1C613.28 23.66 613.22 23.26 613.22 22.9C613.22 22.22 613.36 21.66 613.64 21.22C613.96 20.74 614.34 20.54 614.78 20.62C614.7 19.98 614.84 19.42 615.2 18.94C615.6 18.46 616.08 18.12 616.64 17.92C617.24 17.68 617.76 17.6 618.2 17.68C618.44 17.32 618.76 17.04 619.16 16.84C619.56 16.64 619.96 16.54 620.36 16.54C621.04 16.54 621.52 16.74 621.8 17.14C621.84 16.94 621.98 16.78 622.22 16.66C622.5 16.54 622.82 16.48 623.18 16.48C623.5 16.48 623.82 16.54 624.14 16.66C624.46 16.78 624.7 16.92 624.86 17.08C625.1 16.84 625.52 16.72 626.12 16.72C626.6 16.72 627.08 16.82 627.56 17.02C628.04 17.18 628.36 17.42 628.52 17.74C628.76 17.62 629.02 17.56 629.3 17.56C629.78 17.56 630.22 17.74 630.62 18.1C631.06 18.42 631.36 18.84 631.52 19.36C632.12 19.28 632.74 19.48 633.38 19.96C634.02 20.44 634.26 20.92 634.1 21.4C635.18 22 635.72 22.82 635.72 23.86C635.72 24.5 635.5 25.06 635.06 25.54C634.62 26.02 634.06 26.26 633.38 26.26C632.78 26.22 632.28 26.06 631.88 25.78C631.48 25.5 631.24 25.16 631.16 24.76C630.64 24.68 630.14 24.48 629.66 24.16C629.22 23.8 628.98 23.34 628.94 22.78C628.18 22.86 627.6 22.78 627.2 22.54C626.84 22.3 626.52 21.92 626.24 21.4C625.96 21.6 625.6 21.7 625.16 21.7C624.72 21.7 624.24 21.58 623.72 21.34C623.44 21.58 623.08 21.78 622.64 21.94C622.24 22.1 621.84 22.18 621.44 22.18C621 22.18 620.62 22.08 620.3 21.88C620.38 22.36 620.26 22.74 619.94 23.02C619.62 23.3 619.18 23.4 618.62 23.32C618.74 23.6 618.8 23.9 618.8 24.22C618.8 24.94 618.48 25.54 617.84 26.02C618.28 26.22 618.6 26.56 618.8 27.04C619 27.48 619.08 27.92 619.04 28.36L619.52 28.3C620.72 28.3 621.48 28.68 621.8 29.44L622.28 29.38C622.92 29.38 623.52 29.54 624.08 29.86C624.68 30.18 625.12 30.72 625.4 31.48C626.04 31.44 626.66 31.52 627.26 31.72C627.86 31.88 628.28 32.2 628.52 32.68C628.84 32.56 629.14 32.5 629.42 32.5C630.1 32.5 630.7 32.7 631.22 33.1C631.78 33.5 632.08 33.96 632.12 34.48C632.48 34.48 632.8 34.68 633.08 35.08C633.4 35.48 633.52 35.94 633.44 36.46C633.72 36.42 633.98 36.58 634.22 36.94C634.46 37.26 634.58 37.64 634.58 38.08C634.58 38.32 634.52 38.54 634.4 38.74C634.96 39.14 635.24 39.68 635.24 40.36C635.24 40.72 635.16 41.04 635 41.32C634.88 41.6 634.68 41.8 634.4 41.92ZM640.476 6.22C639.956 6.46 639.536 6.8 639.216 7.24C638.896 7.68 638.736 8.14 638.736 8.62C638.736 9.26 638.996 9.9 639.516 10.54C639.436 11.06 639.716 11.56 640.356 12.04C640.996 12.52 641.696 12.76 642.456 12.76C642.976 12.76 643.436 12.62 643.836 12.34C644.956 11.74 645.516 10.98 645.516 10.06C645.516 9.46 645.276 8.78 644.796 8.02C644.836 7.22 644.596 6.6 644.076 6.16C643.596 5.68 643.016 5.44 642.336 5.44C641.576 5.44 640.956 5.7 640.476 6.22ZM644.376 32.74C644.696 32.86 644.936 33.24 645.096 33.88C645.296 34.52 645.396 35.22 645.396 35.98C645.396 36.86 645.256 37.44 644.976 37.72C645.216 38.32 645.336 38.9 645.336 39.46C645.336 40.18 645.156 40.78 644.796 41.26C645.076 41.94 645.216 42.74 645.216 43.66C645.216 44.42 645.096 45.04 644.856 45.52C644.976 45.88 645.036 46.22 645.036 46.54C645.036 47.26 644.776 47.84 644.256 48.28C643.736 48.68 643.116 48.88 642.396 48.88C641.716 48.88 641.136 48.68 640.656 48.28C640.176 47.84 639.956 47.26 639.996 46.54C639.796 46.3 639.636 45.92 639.516 45.4C639.396 44.88 639.336 44.34 639.336 43.78C639.336 42.74 639.556 42.06 639.996 41.74C639.676 41.22 639.516 40.44 639.516 39.4C639.516 38.36 639.656 37.6 639.936 37.12C639.776 36.96 639.656 36.58 639.576 35.98C639.496 35.38 639.456 34.72 639.456 34C639.456 33.32 639.496 32.72 639.576 32.2C639.656 31.64 639.776 31.28 639.936 31.12C639.696 30.88 639.576 30.22 639.576 29.14C639.576 27.9 639.716 27 639.996 26.44C639.796 26.12 639.616 25.7 639.456 25.18C639.296 24.66 639.216 24.18 639.216 23.74C639.216 23.34 639.256 23.06 639.336 22.9C639.016 21.86 638.856 21.02 638.856 20.38C638.856 19.7 639.016 19 639.336 18.28C639.256 17.68 639.396 17.22 639.756 16.9C640.116 16.58 640.636 16.42 641.316 16.42C643.156 16.42 644.076 17.54 644.076 19.78C644.436 20.02 644.696 20.36 644.856 20.8C645.056 21.2 645.156 21.66 645.156 22.18C645.156 23.02 644.956 23.74 644.556 24.34C644.716 24.58 644.836 24.94 644.916 25.42C645.036 25.9 645.096 26.38 645.096 26.86C645.096 27.5 644.996 27.94 644.796 28.18C644.956 28.38 645.036 28.8 645.036 29.44C645.036 30.04 644.956 30.68 644.796 31.36C644.676 32.04 644.536 32.5 644.376 32.74ZM666.62 48.28C666.14 48.76 665.4 49 664.4 49C663.64 49 663.02 48.88 662.54 48.64C661.82 48.8 661.18 48.88 660.62 48.88C659.06 48.88 657.94 48.48 657.26 47.68C657.1 47.72 656.88 47.74 656.6 47.74C655.68 47.74 654.98 47.32 654.5 46.48C654.1 46.52 653.58 46.32 652.94 45.88C652.34 45.4 652.08 44.94 652.16 44.5C651.52 44.34 650.98 43.96 650.54 43.36C650.14 42.72 649.96 42 650 41.2C649.56 41.04 649.22 40.72 648.98 40.24C648.74 39.76 648.62 39.22 648.62 38.62C648.62 37.98 648.72 37.52 648.92 37.24C648.48 36.56 648.26 35.78 648.26 34.9C648.26 33.98 648.54 33.24 649.1 32.68C648.66 32.36 648.44 31.88 648.44 31.24C648.44 30.84 648.54 30.44 648.74 30.04C648.94 29.64 649.2 29.36 649.52 29.2C649.44 28.64 649.5 28.12 649.7 27.64C649.94 27.12 650.26 26.74 650.66 26.5C650.58 26.38 650.54 26.2 650.54 25.96C650.54 25.6 650.66 25.24 650.9 24.88C651.18 24.52 651.48 24.3 651.8 24.22C651.76 24.1 651.74 23.94 651.74 23.74C651.74 22.9 652.06 22.18 652.7 21.58C653.34 20.94 653.96 20.66 654.56 20.74C654.56 20.18 654.8 19.72 655.28 19.36C655.8 18.96 656.46 18.76 657.26 18.76C657.62 18.76 657.9 18.78 658.1 18.82C658.38 18.22 658.86 17.74 659.54 17.38C660.22 16.98 660.92 16.78 661.64 16.78C662.12 16.78 662.52 16.88 662.84 17.08C663.4 16.6 664.1 16.36 664.94 16.36C665.62 16.36 666.22 16.52 666.74 16.84C667.3 17.16 667.64 17.6 667.76 18.16C668.4 18.16 669.08 18.4 669.8 18.88C670.52 19.32 670.94 19.78 671.06 20.26C672.02 20.54 672.94 21.16 673.82 22.12C674.74 23.04 675.2 23.98 675.2 24.94C675.2 25.1 675.16 25.34 675.08 25.66C676.8 26.02 677.58 27.76 677.42 30.88C677.78 31.48 677.96 32.12 677.96 32.8C677.96 33.6 677.7 34.4 677.18 35.2C677.3 35.56 677.36 35.9 677.36 36.22C677.36 36.7 677.26 37.16 677.06 37.6C676.86 38.04 676.6 38.38 676.28 38.62C676.32 39.26 676.2 39.78 675.92 40.18C675.68 40.58 675.22 41.12 674.54 41.8C674.58 41.96 674.6 42.2 674.6 42.52C674.6 43.72 673.92 44.5 672.56 44.86C672.44 45.5 672.1 46.02 671.54 46.42C671.02 46.82 670.38 47.02 669.62 47.02C668.98 47.9 668.2 48.34 667.28 48.34C667 48.34 666.78 48.32 666.62 48.28ZM660.98 44.08C661.3 43.8 661.84 43.66 662.6 43.66C663.16 43.66 663.46 43.74 663.5 43.9C663.82 43.54 664.22 43.26 664.7 43.06C665.18 42.86 665.62 42.78 666.02 42.82C666.7 42.14 667.44 41.8 668.24 41.8C668.52 41.8 668.72 41.82 668.84 41.86C668.8 41.5 668.9 41.16 669.14 40.84C669.38 40.48 669.66 40.24 669.98 40.12C669.98 39.6 670.1 39.16 670.34 38.8C670.62 38.4 670.96 38.1 671.36 37.9C671.36 37.1 671.52 36.46 671.84 35.98C671.72 35.66 671.66 35.34 671.66 35.02C671.66 34.58 671.76 34.16 671.96 33.76C672.16 33.32 672.44 32.96 672.8 32.68C672.4 32.32 672.2 31.88 672.2 31.36C672.2 30.88 672.34 30.4 672.62 29.92C671.82 29.44 671.28 28.98 671 28.54C670.76 28.06 670.64 27.2 670.64 25.96C670.28 26 669.9 25.8 669.5 25.36C669.14 24.92 668.92 24.42 668.84 23.86C668.4 23.98 667.86 23.86 667.22 23.5C666.62 23.1 666.32 22.6 666.32 22C666 22.16 665.62 22.24 665.18 22.24C664.34 22.24 663.66 21.94 663.14 21.34C662.7 21.78 662.12 22.14 661.4 22.42C660.72 22.66 660.12 22.74 659.6 22.66C659.56 23.06 659.2 23.54 658.52 24.1C657.88 24.62 657.3 24.96 656.78 25.12C656.9 25.36 656.96 25.64 656.96 25.96C656.96 26.36 656.86 26.76 656.66 27.16C656.46 27.56 656.18 27.9 655.82 28.18C655.86 28.74 655.72 29.28 655.4 29.8C655.12 30.32 654.72 30.68 654.2 30.88C654.28 31.2 654.32 31.46 654.32 31.66C654.32 32.22 654.18 32.66 653.9 32.98C654.02 33.26 654.08 33.54 654.08 33.82C654.08 34.26 653.86 34.74 653.42 35.26C654.42 35.94 654.92 36.92 654.92 38.2C654.92 38.88 654.8 39.46 654.56 39.94C654.96 39.98 655.24 40.1 655.4 40.3C655.56 40.5 655.7 40.82 655.82 41.26C656.82 41.38 657.56 41.86 658.04 42.7C658.48 42.7 659.02 42.84 659.66 43.12C660.34 43.4 660.78 43.72 660.98 44.08ZM694.361 23.32C694.441 23.76 694.301 24.16 693.941 24.52C693.621 24.84 693.221 25.02 692.741 25.06C692.461 25.86 691.721 26.34 690.521 26.5C690.561 27.18 690.421 27.76 690.101 28.24C689.781 28.68 689.421 28.94 689.021 29.02C689.021 30.06 688.801 31.14 688.361 32.26C688.441 32.58 688.481 32.86 688.481 33.1C688.481 33.9 688.321 34.62 688.001 35.26C688.201 35.66 688.301 36.12 688.301 36.64C688.301 37.32 688.181 38.02 687.941 38.74C688.301 39.22 688.481 39.76 688.481 40.36C688.481 40.72 688.381 41.14 688.181 41.62C688.301 41.86 688.361 42.24 688.361 42.76C688.361 43.64 688.181 44.28 687.821 44.68C687.981 45.24 688.061 45.68 688.061 46C688.061 46.32 688.001 46.6 687.881 46.84C687.881 47.52 687.621 48.06 687.101 48.46C686.581 48.82 685.961 49 685.241 49C684.561 49 683.961 48.82 683.441 48.46C682.961 48.06 682.741 47.52 682.781 46.84C682.661 46.48 682.601 46.1 682.601 45.7C682.601 44.86 682.741 44.06 683.021 43.3C682.661 42.82 682.481 42.3 682.481 41.74C682.481 41.38 682.581 40.96 682.781 40.48C682.501 40.04 682.361 39.54 682.361 38.98C682.361 38.58 682.441 38.22 682.601 37.9C682.761 37.58 682.961 37.32 683.201 37.12C682.641 36.48 682.361 35.74 682.361 34.9C682.361 34.1 682.621 33.42 683.141 32.86C682.981 32.66 682.841 32.36 682.721 31.96C682.601 31.56 682.541 31.16 682.541 30.76C682.541 30.24 682.661 29.86 682.901 29.62C682.581 28.9 682.421 28.08 682.421 27.16C682.421 26.36 682.541 25.82 682.781 25.54C682.421 24.74 682.241 23.98 682.241 23.26C682.241 22.46 682.421 21.88 682.781 21.52C682.141 20.76 681.821 19.92 681.821 19C681.821 17.88 682.301 17.06 683.261 16.54C683.741 16.3 684.221 16.18 684.701 16.18C685.461 16.18 686.101 16.5 686.621 17.14C687.141 17.74 687.401 18.46 687.401 19.3C687.401 19.74 687.301 20.2 687.101 20.68C687.621 21.2 687.881 21.86 687.881 22.66C687.881 23.22 687.841 23.68 687.761 24.04C688.081 22.88 688.541 22.2 689.141 22C689.141 21.24 689.381 20.54 689.861 19.9C690.341 19.26 690.901 18.78 691.541 18.46C692.221 18.14 692.781 18.04 693.221 18.16C694.221 17.08 695.301 16.54 696.461 16.54C696.981 16.54 697.441 16.64 697.841 16.84C698.201 16.56 698.741 16.42 699.461 16.42C700.061 16.42 700.621 16.54 701.141 16.78C701.661 16.98 702.001 17.3 702.161 17.74C703.601 17.82 704.621 18.42 705.221 19.54C705.741 19.58 706.241 19.88 706.721 20.44C707.241 21 707.501 21.64 707.501 22.36C707.501 22.68 707.401 23.08 707.201 23.56C708.121 23.92 708.581 24.62 708.581 25.66C708.581 26.02 708.561 26.28 708.521 26.44C709.041 26.72 709.401 27.02 709.601 27.34C709.841 27.62 709.961 27.98 709.961 28.42C709.961 28.9 709.841 29.54 709.601 30.34C710.081 30.7 710.321 31.3 710.321 32.14C710.321 33.02 710.101 33.68 709.661 34.12C710.021 34.72 710.201 35.46 710.201 36.34C710.201 37.22 710.001 37.92 709.601 38.44C709.841 39.64 709.961 40.48 709.961 40.96C709.961 41.8 709.781 42.38 709.421 42.7C709.741 43.42 709.901 44.12 709.901 44.8C709.901 45.72 709.681 46.4 709.241 46.84C709.281 47.48 709.001 48 708.401 48.4C707.841 48.8 707.201 49 706.481 49C705.921 49 705.441 48.86 705.041 48.58C704.641 48.3 704.441 47.9 704.441 47.38C704.121 46.62 703.961 45.76 703.961 44.8C703.961 43.32 704.321 42.24 705.041 41.56C704.761 41.2 704.501 40.62 704.261 39.82C704.061 38.98 703.961 38.2 703.961 37.48C703.961 36.48 704.161 35.86 704.561 35.62C704.241 35.02 704.081 34.4 704.081 33.76C704.081 33.04 704.301 32.16 704.741 31.12C704.381 30.84 704.081 30.42 703.841 29.86C703.601 29.3 703.481 28.76 703.481 28.24C703.481 28.08 703.521 27.84 703.601 27.52C703.161 27.16 702.761 26.58 702.401 25.78C702.081 24.98 701.941 24.26 701.981 23.62C701.621 23.58 701.261 23.46 700.901 23.26C700.541 23.06 700.261 22.78 700.061 22.42H699.401C698.721 22.42 698.241 22.28 697.961 22C697.641 22.4 697.101 22.76 696.341 23.08C695.621 23.36 694.981 23.44 694.421 23.32H694.361Z" fill="#EE487C"/>
</svg>
