<svg width="715" height="133" viewBox="0 0 715 133" fill="none" xmlns="http://www.w3.org/2000/svg">
<path d="M87.6562 128.344C82.8646 128.344 78.6979 122.198 75.1562 109.906C73.8021 105.219 72.1094 97.0156 70.0781 85.2969C64.7656 86.026 57.8125 87.3281 49.2188 89.2031L28.4375 93.5C25.8333 100.323 21.3802 110.297 15.0781 123.422C13.4115 126.339 11.1458 127.797 8.28125 127.797C6.19792 127.797 4.32292 127.042 2.65625 125.531C1.04167 124.021 0.234375 122.146 0.234375 119.906C0.234375 117.406 4.16667 107.901 12.0312 91.3906C11.1458 90.0365 10.7031 88.474 10.7031 86.7031C10.7031 82.4844 13.2552 79.776 18.3594 78.5781C24.2969 67.4323 31.7969 54.6198 40.8594 40.1406C53.2031 20.401 60.8854 10.5312 63.9062 10.5312C68.0208 10.5312 70.8333 13.3958 72.3438 19.125L77.2656 45.375L88.9062 99.6719L93.3594 112.016C94.8698 116.234 95.625 119.047 95.625 120.453C95.625 122.693 94.8177 124.568 93.2031 126.078C91.5885 127.589 89.7396 128.344 87.6562 128.344ZM60.0781 39.0469L37.7344 75.0625C44.0365 73.4479 53.5938 71.4948 66.4062 69.2031L60.0781 39.0469Z" fill="#FADF16"/>
<path d="M154.375 129.281C146.406 129.281 139.167 127.719 132.656 124.594C130.99 127.094 128.958 128.344 126.562 128.344C124.583 128.344 122.891 127.641 121.484 126.234C120.13 124.88 119.453 123.161 119.453 121.078C119.453 119.724 119.505 117.719 119.609 115.062C119.766 112.406 119.844 110.401 119.844 109.047C119.844 103.526 119.688 95.2708 119.375 84.2812C119.115 73.2396 118.984 64.9583 118.984 59.4375C118.984 55.6354 119.01 48.4479 119.062 37.875C119.115 27.25 119.141 20.0104 119.141 16.1562C119.141 13.0312 119.792 10.2188 121.094 7.71875C122.812 4.54167 125.182 2.95312 128.203 2.95312C132.109 2.95312 134.062 5.21875 134.062 9.75C134.062 10.4792 133.932 11.5469 133.672 12.9531C133.411 14.3594 133.281 15.4271 133.281 16.1562L133.047 33.2656L132.891 53.1875C137.422 50.1146 141.719 47.8229 145.781 46.3125C149.896 44.75 153.75 43.9688 157.344 43.9688C168.542 43.9688 177.63 48.2656 184.609 56.8594C191.172 64.9323 194.453 74.8542 194.453 86.625C194.453 98.5 190.625 108.578 182.969 116.859C175.312 125.141 165.781 129.281 154.375 129.281ZM157.344 58.7344C153.073 58.7344 148.698 59.9323 144.219 62.3281C142.031 63.526 138.281 66.1042 132.969 70.0625L132.812 83.5781L132.891 95.7656L132.969 108.578C135.469 109.724 138.984 111.182 143.516 112.953C146.745 113.943 150.365 114.438 154.375 114.438C161.927 114.438 168.125 111.781 172.969 106.469C177.812 101.156 180.234 94.5417 180.234 86.625C180.234 78.8646 178.281 72.3802 174.375 67.1719C170.156 61.5469 164.479 58.7344 157.344 58.7344Z" fill="#6AB746"/>
<path d="M242.188 130.609C233.438 130.609 225.911 127.38 219.609 120.922C212.578 113.734 208.88 104.073 208.516 91.9375C208.203 80.1667 211.172 69.8021 217.422 60.8438C224.714 50.2708 234.87 44.9844 247.891 44.9844C258.307 44.9844 266.198 49.75 271.562 59.2812C275.833 66.9896 277.891 76.2604 277.734 87.0938C277.578 98.6562 274.557 108.526 268.672 116.703C262.005 125.974 253.177 130.609 242.188 130.609ZM246.875 60.8438C239.219 60.7917 233.255 64.4375 228.984 71.7812C225.599 77.6667 223.906 84.3854 223.906 91.9375C223.906 99.4896 225.964 105.375 230.078 109.594C233.516 113.083 237.552 114.828 242.188 114.828C247.604 114.828 252.266 112.849 256.172 108.891C260.599 104.516 262.943 98.6042 263.203 91.1562C263.932 71 258.49 60.8958 246.875 60.8438Z" fill="#F07013"/>
<path d="M360.859 80.375C360.859 84.125 360.885 89.75 360.938 97.25C360.99 104.75 361.016 110.375 361.016 114.125C361.016 115.271 361.094 117.016 361.25 119.359C361.458 121.703 361.562 123.448 361.562 124.594C361.562 126.833 360.807 128.656 359.297 130.062C357.786 131.521 355.938 132.25 353.75 132.25C349.74 132.25 347.188 129.776 346.094 124.828C339.583 128.214 332.083 129.906 323.594 129.906C316.771 129.906 311.12 128.396 306.641 125.375C301.693 122.042 298.75 117.172 297.812 110.766C295.781 96.9635 294.766 84.6719 294.766 73.8906C294.766 66.7552 295.547 58.6302 297.109 49.5156C297.839 44.9844 300.312 42.7188 304.531 42.7188C306.771 42.7188 308.646 43.4479 310.156 44.9062C311.667 46.3125 312.422 48.1354 312.422 50.375C312.422 52.7708 312.031 56.599 311.25 61.8594C310.521 67.1198 310.156 71.1302 310.156 73.8906C310.156 82.5885 310.443 90.0365 311.016 96.2344C311.589 102.432 312.448 107.406 313.594 111.156C315.312 112.094 317.005 112.823 318.672 113.344C320.339 113.812 321.979 114.047 323.594 114.047C330.573 114.047 337.943 112.927 345.703 110.688L345.625 94.8281L345.469 79.6719C345.469 68.4219 345.964 58.6562 346.953 50.375C347.526 45.5833 350.052 43.1875 354.531 43.1875C356.771 43.1875 358.646 43.9167 360.156 45.375C361.667 46.8333 362.37 48.6562 362.266 50.8438L360.859 80.375Z" fill="#EF7063"/>
<path d="M432.656 59.4375C431.562 59.4375 430.26 59.3854 428.75 59.2812C427.292 59.1771 426.016 59.125 424.922 59.125C423.724 59.125 420.182 59.5156 414.297 60.2969L415.781 106.469L415.859 109.906L415.938 113.891C416.146 125.297 413.411 131 407.734 131C405.651 131 403.828 130.323 402.266 128.969C400.755 127.615 400 125.922 400 123.891C400 121.911 400.078 118.943 400.234 114.984C400.391 111.026 400.469 108.057 400.469 106.078L398.906 60.4531C395.104 60.2969 389.323 59.8542 381.562 59.125C376.927 58.5 374.609 55.9219 374.609 51.3906C374.609 49.099 375.312 47.1979 376.719 45.6875C378.125 44.1771 379.922 43.4219 382.109 43.4219L398.516 44.75C398.516 42.0938 398.385 38.5521 398.125 34.125C397.917 29.6458 397.812 26.4167 397.812 24.4375C397.812 22.25 398.568 20.4531 400.078 19.0469C401.589 17.5885 403.438 16.8594 405.625 16.8594C410.312 16.8594 413.047 20.6875 413.828 28.3438C413.984 30.2708 414.062 32.5885 414.062 35.2969L413.906 39.8281L413.828 44.6719C420.286 43.8385 423.984 43.4219 424.922 43.4219C430.339 43.4219 433.88 43.6823 435.547 44.2031C438.724 45.2448 440.312 47.6927 440.312 51.5469C440.312 53.8385 439.583 55.7396 438.125 57.25C436.719 58.7083 434.896 59.4375 432.656 59.4375Z" fill="#B77D31"/>
<path d="M554.531 129.125C538.333 129.125 526.25 124.464 518.281 115.141C511.823 107.641 507.76 96.5469 506.094 81.8594C505.312 75.2448 504.922 62.0417 504.922 42.25C504.922 34.9583 505.078 29.0729 505.391 24.5938C505.703 19.8542 506.172 16.5469 506.797 14.6719C508.099 10.8698 510.443 8.96875 513.828 8.96875C518.62 8.96875 521.016 13.3698 521.016 22.1719V68.0312C521.016 99.5938 532.057 115.375 554.141 115.375C574.922 115.375 585.312 88.8125 585.312 35.6875C585.312 33.7083 585.312 31.1562 585.312 28.0312C585.26 24.9062 585.234 22.8229 585.234 21.7812C585.234 18.5521 585.807 15.7135 586.953 13.2656C588.411 10.1406 590.573 8.57812 593.438 8.57812C598.646 8.57812 601.25 12.1458 601.25 19.2812C601.25 21.4167 601.276 24.6458 601.328 28.9688C601.328 33.2917 601.328 36.5208 601.328 38.6562C601.328 98.9688 585.729 129.125 554.531 129.125Z" fill="#78BDD9"/>
<path d="M674.375 65.8438C671.51 65.8438 669.505 64.8802 668.359 62.9531C667.578 61.599 666.901 58.7865 666.328 54.5156C662.422 55.5052 656.406 57.3281 648.281 59.9844C639.896 63.3177 635.677 67.4323 635.625 72.3281C637.188 72.901 638.724 73.3177 640.234 73.5781C652.214 75.7135 661.12 78.6562 666.953 82.4062C675.443 87.875 679.688 95.7917 679.688 106.156C679.688 114.646 676.016 121.052 668.672 125.375C662.578 128.917 654.87 130.688 645.547 130.688C638.724 130.688 632.214 129.542 626.016 127.25C617.995 124.333 613.984 120.271 613.984 115.062C613.984 112.979 614.792 111.156 616.406 109.594C618.073 108.031 619.948 107.25 622.031 107.25C623.646 107.25 625.729 108.5 628.281 111C629.531 112.198 632.344 113.188 636.719 113.969C640.208 114.594 643.151 114.906 645.547 114.906C649.922 114.906 653.776 114.385 657.109 113.344C661.953 111.833 664.375 109.438 664.375 106.156C664.375 99.0729 659.427 94.2812 649.531 91.7812L641.406 89.9844C634.479 88.474 629.557 86.7031 626.641 84.6719C622.422 81.7552 620.312 77.3542 620.312 71.4688C620.312 60.5833 625.443 52.8229 635.703 48.1875C638.828 46.7812 643.828 45.1146 650.703 43.1875C657.578 41.2083 662.5 39.5417 665.469 38.1875C667.604 37.25 669.922 36.7812 672.422 36.7812C674.661 36.7812 676.484 37.5104 677.891 38.9688C679.349 40.4271 680.078 42.3281 680.078 44.6719C680.078 46.1823 680.391 48.3958 681.016 51.3125C681.693 54.2292 682.031 56.4427 682.031 57.9531C682.031 60.2969 681.302 62.1979 679.844 63.6562C678.438 65.1146 676.615 65.8438 674.375 65.8438Z" fill="#8E559F"/>
<path d="M714.609 7.5625V94.5156C714.609 99.151 712.292 101.469 707.656 101.469C703.021 101.469 700.703 99.151 700.703 94.5156C700.703 92.3802 700.625 89.2031 700.469 84.9844C700.365 80.7135 700.312 77.5365 700.312 75.4531C700.312 67.901 700.365 56.599 700.469 41.5469C700.625 26.4427 700.703 15.1146 700.703 7.5625C700.703 2.92708 703.021 0.609375 707.656 0.609375C712.292 0.609375 714.609 2.92708 714.609 7.5625ZM714.688 124.203C714.688 126.078 713.932 127.693 712.422 129.047C710.964 130.453 709.297 131.156 707.422 131.156C705.339 131.156 703.255 129.802 701.172 127.094C699.141 124.542 698.125 122.198 698.125 120.062C698.125 118.188 698.854 116.573 700.312 115.219C701.823 113.865 703.542 113.188 705.469 113.188C707.5 113.188 709.583 114.542 711.719 117.25C713.698 119.802 714.688 122.12 714.688 124.203Z" fill="#D3538F"/>
</svg>
